<svg width="44" height="48" viewBox="0 0 44 48" fill="none" xmlns="http://www.w3.org/2000/svg">
<path d="M35.4359 25.8464C35.4503 25.832 35.4839 25.7984 35.4599 25.7408C35.4455 25.6736 35.3926 25.6688 35.3782 25.6688L27.2992 24.4975C26.7616 24.4159 26.3008 24.0847 26.0607 23.5998L22.4461 16.2793C22.4365 16.2649 22.4221 16.2217 22.3549 16.2217C22.2877 16.2217 22.2637 16.2649 22.2541 16.2793L18.6394 23.5998C18.3994 24.0847 17.9385 24.4159 17.4105 24.4975L9.32189 25.6688C9.30749 25.6688 9.25469 25.6784 9.24029 25.7408C9.22589 25.7984 9.25469 25.832 9.26429 25.8464L15.1159 31.5396C15.5048 31.9189 15.6776 32.4661 15.5864 32.9989L14.2087 41.0443C14.1991 41.0587 14.1991 41.1115 14.2519 41.1451C14.2999 41.1884 14.3431 41.1595 14.3575 41.1547L21.5868 37.3577C22.0668 37.1032 22.6333 37.1032 23.1133 37.3577L30.3427 41.1547C30.3571 41.1643 30.4003 41.1884 30.4579 41.1451C30.5059 41.1115 30.5011 41.0635 30.5011 41.0443L29.1138 32.9989C29.0226 32.4613 29.205 31.9189 29.5938 31.5444L35.4359 25.8464Z" fill="#FF6700"/>
<path d="M43.1546 17.364L37.6197 10.5043C37.3269 10.1442 36.7125 10.1442 36.4245 10.5043L30.8896 17.364C30.7024 17.5944 30.664 17.9112 30.7936 18.18C30.9232 18.4489 31.1921 18.6169 31.4897 18.6169H34.1395V22.9276C34.1395 23.35 34.4851 23.6957 34.9075 23.6957C35.33 23.6957 35.6756 23.35 35.6756 22.9276V17.8488C35.6756 17.4264 35.33 17.0808 34.9075 17.0808H33.0978L37.0245 12.2132L40.9512 17.076H39.1367C38.7142 17.076 38.3686 17.4216 38.3686 17.844V29.7537C38.3686 38.9656 30.8752 46.459 21.6633 46.459C12.4515 46.459 4.95809 38.9656 4.95809 29.7537V17.8488C4.95809 17.4264 4.61247 17.0808 4.19004 17.0808H2.3803L6.3022 12.2132L10.2289 17.076H8.41915C7.99672 17.076 7.6511 17.4216 7.6511 17.844V22.9228C7.6511 23.3452 7.99672 23.6909 8.41915 23.6909C8.84159 23.6909 9.18721 23.3452 9.18721 22.9228V18.6121H11.837C12.1346 18.6121 12.4035 18.4441 12.5331 18.1752C12.6627 17.9064 12.6243 17.5896 12.4371 17.3592L6.90224 10.5043C6.60942 10.1442 5.99497 10.1442 5.70695 10.5043L0.172136 17.364C-0.0150784 17.5944 -0.0534812 17.9112 0.0761285 18.18C0.205738 18.4489 0.474558 18.6169 0.772181 18.6169H3.42198V29.7585C3.41718 39.8153 11.6018 47.9999 21.6633 47.9999C31.7249 47.9999 39.9047 39.8153 39.9047 29.7537V18.6169H42.5545C42.8521 18.6169 43.121 18.4489 43.2506 18.18C43.3802 17.9112 43.3418 17.5944 43.1546 17.364Z" fill="#13CFFE"/>
<path d="M16.8191 8.37783H19.4689V12.6886C19.4689 13.111 19.8145 13.4566 20.2369 13.4566C20.6593 13.4566 21.005 13.111 21.005 12.6886V7.60977C21.005 7.18734 20.6593 6.84171 20.2369 6.84171H18.4272L22.3539 1.97895L26.2806 6.84171H24.4708C24.0484 6.84171 23.7028 7.18734 23.7028 7.60977V12.6886C23.7028 13.111 24.0484 13.4566 24.4708 13.4566C24.8933 13.4566 25.2389 13.111 25.2389 12.6886V8.37783H27.8887C28.1863 8.37783 28.4551 8.20982 28.5847 7.941C28.7143 7.67217 28.6759 7.35535 28.4887 7.12493L22.9491 0.27002C22.6563 -0.0900067 22.0418 -0.0900067 21.7538 0.27002L16.219 7.12493C16.0318 7.35535 15.9934 7.67217 16.123 7.941C16.2526 8.20502 16.5214 8.37783 16.8191 8.37783Z" fill="#13CFFE"/>
</svg>
