<svg width="84" height="8" viewBox="0 0 84 8" fill="none" xmlns="http://www.w3.org/2000/svg">
<path d="M83.3536 3.64645C83.5488 3.84171 83.5488 4.15829 83.3536 4.35355L80.1716 7.53553C79.9763 7.7308 79.6597 7.7308 79.4645 7.53553C79.2692 7.34027 79.2692 7.02369 79.4645 6.82843L82.2929 4L79.4645 1.17157C79.2692 0.976311 79.2692 0.659728 79.4645 0.464466C79.6597 0.269204 79.9763 0.269204 80.1716 0.464466L83.3536 3.64645ZM83 4.5H82.0119V3.5H83V4.5ZM80.0357 4.5H78.0595V3.5H80.0357V4.5ZM76.0833 4.5H74.1071V3.5H76.0833V4.5ZM72.131 4.5H70.1548V3.5H72.131V4.5ZM68.1786 4.5H66.2024V3.5H68.1786V4.5ZM64.2262 4.5H62.25V3.5H64.2262V4.5ZM60.2738 4.5H58.2976V3.5H60.2738V4.5ZM56.3214 4.5H54.3452V3.5H56.3214V4.5ZM52.369 4.5H50.3929V3.5H52.369V4.5ZM48.4167 4.5H46.4405V3.5H48.4167V4.5ZM44.4643 4.5H42.4881V3.5H44.4643V4.5ZM40.5119 4.5H38.5357V3.5H40.5119V4.5ZM36.5595 4.5H34.5833V3.5H36.5595V4.5ZM32.6072 4.5H30.631V3.5H32.6072V4.5ZM28.6548 4.5H26.6786V3.5H28.6548V4.5ZM24.7024 4.5H22.7262V3.5H24.7024V4.5ZM20.75 4.5H18.7738V3.5H20.75V4.5ZM16.7976 4.5H14.8215V3.5H16.7976V4.5ZM12.8453 4.5H10.8691V3.5H12.8453V4.5ZM8.89289 4.5H6.9167V3.5H8.89289V4.5ZM4.94051 4.5H2.96432V3.5H4.94051V4.5ZM0.988136 4.5H0V3.5H0.988136V4.5Z" fill="#1D1D1D" fill-opacity="0.7"/>
</svg>
