<svg width="84" height="8" viewBox="0 0 84 8" fill="none" xmlns="http://www.w3.org/2000/svg">
<path d="M0.646447 3.64645C0.451184 3.84171 0.451184 4.15829 0.646447 4.35355L3.82843 7.53553C4.02369 7.7308 4.34027 7.7308 4.53553 7.53553C4.7308 7.34027 4.7308 7.02369 4.53553 6.82843L1.70711 4L4.53553 1.17157C4.7308 0.976311 4.7308 0.659728 4.53553 0.464466C4.34027 0.269204 4.02369 0.269204 3.82843 0.464466L0.646447 3.64645ZM1 4.5H1.9881V3.5H1V4.5ZM3.96429 4.5H5.94048V3.5H3.96429V4.5ZM7.91667 4.5H9.89286V3.5H7.91667V4.5ZM11.869 4.5H13.8452V3.5H11.869V4.5ZM15.8214 4.5H17.7976V3.5H15.8214V4.5ZM19.7738 4.5H21.75V3.5H19.7738V4.5ZM23.7262 4.5H25.7024V3.5H23.7262V4.5ZM27.6786 4.5H29.6548V3.5H27.6786V4.5ZM31.631 4.5H33.6071V3.5H31.631V4.5ZM35.5833 4.5H37.5595V3.5H35.5833V4.5ZM39.5357 4.5H41.5119V3.5H39.5357V4.5ZM43.4881 4.5H45.4643V3.5H43.4881V4.5ZM47.4405 4.5H49.4167V3.5H47.4405V4.5ZM51.3928 4.5H53.369V3.5H51.3928V4.5ZM55.3452 4.5H57.3214V3.5H55.3452V4.5ZM59.2976 4.5H61.2738V3.5H59.2976V4.5ZM63.25 4.5H65.2262V3.5H63.25V4.5ZM67.2024 4.5H69.1785V3.5H67.2024V4.5ZM71.1547 4.5H73.1309V3.5H71.1547V4.5ZM75.1071 4.5H77.0833V3.5H75.1071V4.5ZM79.0595 4.5H81.0357V3.5H79.0595V4.5ZM83.0119 4.5H84V3.5H83.0119V4.5Z" fill="#1D1D1D" fill-opacity="0.7"/>
</svg>
