<svg width="47" height="48" viewBox="0 0 47 48" fill="none" xmlns="http://www.w3.org/2000/svg">
<path d="M46.8389 41.8605L45.3028 14.8131C45.2944 14.6371 45.2127 14.4716 45.0807 14.3542L42.6917 12.2775C42.5639 12.1685 42.4005 12.1099 42.2307 12.1182C41.3443 12.1602 40.4621 12.2524 39.5861 12.3928C38.3016 7.6191 34.9717 3.65432 30.4893 1.56694C26.0069 -0.522314 20.8308 -0.522314 16.3487 1.56694C11.8663 3.6541 8.53673 7.61878 7.2519 12.3928C6.37597 12.2524 5.49375 12.1602 4.6073 12.1182C4.43756 12.1099 4.27201 12.1664 4.14628 12.2775L1.75945 14.3521C1.62743 14.4695 1.5457 14.635 1.53732 14.8131L0.00126609 41.8605C-0.011307 42.0596 0.0704217 42.2524 0.217107 42.3865C0.365889 42.5206 0.567063 42.5793 0.76403 42.5479C2.86798 42.3006 4.99495 42.3048 7.09697 42.5625C12.1598 43.12 17.0403 44.7796 21.3948 47.4242L21.4094 47.4326C22.6437 48.1891 24.1986 48.1891 25.4329 47.4326L25.4476 47.4242H25.4497C29.8043 44.7796 34.6827 43.12 39.7453 42.5625C41.8493 42.3048 43.9742 42.3006 46.0783 42.5479C46.2753 42.5814 46.4764 42.5206 46.6252 42.3865C46.774 42.2524 46.8536 42.0596 46.8431 41.8605L46.8389 41.8605ZM41.6314 13.4763L42.8343 38.5768C36.6102 38.9603 30.4581 40.7185 24.0768 43.9352L24.0789 33.4699C28.9344 33.2771 33.4692 30.9845 36.5013 27.1873C39.5335 23.3902 40.7657 18.4612 39.8793 13.6835C40.4912 13.5892 41.0782 13.5203 41.6314 13.4763ZM24.6196 25.1551C23.9302 24.1806 23.4147 23.5415 23.0731 23.1182H23.0752C22.8615 22.8898 22.6792 22.6341 22.5304 22.3596C22.5618 22.0976 22.6289 21.8399 22.7295 21.5947C22.8866 21.1148 23.1255 20.3918 23.3896 19.2895C23.465 18.9836 23.312 18.6693 23.0271 18.5373L19.9528 17.1165C19.6846 16.9929 19.3787 17.0264 18.6536 17.1228C18.2973 17.1815 17.939 17.2129 17.5807 17.2171C17.2328 17.0934 16.9268 16.997 16.6586 16.9132C15.9629 16.689 15.6213 16.5779 15.4809 16.3726C15.2671 15.9199 15.1414 15.4317 15.11 14.9308C14.9465 13.7971 14.7433 12.4057 13.4733 11.6827H13.4754C12.7881 9.47189 12.8132 7.1018 13.5446 4.90343C15.4599 3.30241 17.7357 2.18968 20.1769 1.66577C20.4577 1.71606 20.7154 1.85227 20.9124 2.05974C20.9124 2.06393 20.8621 2.43484 19.6991 3.10959C19.4183 3.27514 19.2989 3.62091 19.4204 3.92475C19.7745 4.742 20.3655 5.43564 21.1157 5.91551C21.516 6.20469 21.889 6.52949 22.2306 6.88785C22.3919 7.06387 22.635 7.13931 22.8676 7.08273C23.1002 7.02825 23.2846 6.85013 23.3496 6.62171C23.622 5.66192 24.0348 5.09402 24.5755 4.93271H24.5776C25.2628 4.83002 25.9586 5.04587 26.4657 5.52158C26.6124 5.64941 26.7612 5.76676 26.9037 5.88202V5.87993C27.1216 6.04547 27.327 6.22988 27.5114 6.43103C27.4003 6.48342 27.2431 6.53791 27.1363 6.57773C26.6627 6.75166 26.0152 6.98845 26.0612 7.64647C26.1681 9.14899 25.9104 9.39206 25.8999 9.40043L25.902 9.39834C25.6861 9.41301 25.4682 9.38786 25.2607 9.32709C24.7012 9.20555 23.7645 9.00018 23.1819 9.83002C22.6979 10.5467 22.2515 11.2886 21.845 12.0534C21.7444 12.2336 21.6438 12.4159 21.5411 12.5982C21.2016 12.2357 20.5834 12.2483 19.4142 12.2734C18.2825 12.3111 17.2641 12.965 16.7612 13.9792C16.4028 14.5911 16.4154 15.3539 16.7968 15.9511C17.021 16.255 17.5659 16.7369 18.7415 16.5567C21.0319 16.2068 22.7146 16.6951 23.8819 18.0467V18.0488C24.0307 18.2227 24.257 18.3065 24.4812 18.273C27.5365 17.8057 29.7578 18.185 31.0824 19.3962C31.9856 20.2826 32.4612 21.5169 32.3879 22.7827C32.323 23.8158 31.229 26.3744 24.6387 31.909C24.5276 32.0012 24.4396 32.0766 24.3663 32.1395C24.1148 32.1541 23.8613 32.1646 23.6056 32.1667C24.6785 29.5221 25.6716 26.6427 24.6196 25.1551ZM38.8423 16.7433C38.8382 20.245 37.6437 23.6417 35.4538 26.3766C33.2661 29.1113 30.2129 31.0203 26.7948 31.7916C31.3086 27.8394 33.5741 24.9121 33.7017 22.8606C33.8086 21.1967 33.1737 19.5706 31.9687 18.4181C30.3907 16.9742 27.9222 16.4671 24.6277 16.9134C23.1714 15.4172 21.1218 14.8577 18.5362 15.2516C18.1506 15.3103 17.9159 15.2516 17.8552 15.1699C17.7902 14.9646 17.8195 14.7424 17.939 14.5622C18.2219 13.988 18.7982 13.615 19.4373 13.592C19.8669 13.5815 20.3091 13.5731 20.5542 13.5857C20.615 13.8581 20.703 14.1221 20.8225 14.3736C20.9252 14.5937 21.1368 14.7383 21.3778 14.7529C21.6188 14.7697 21.8493 14.6523 21.9772 14.447C22.3397 13.8728 22.6729 13.2735 22.9956 12.6909C23.3791 11.97 23.8003 11.2681 24.2571 10.5912C24.32 10.5031 24.473 10.5094 24.9759 10.6184C25.5731 10.8447 26.2416 10.7609 26.7655 10.4005C27.2579 9.97506 27.457 9.19551 27.3983 7.89206C27.4633 7.86692 27.5324 7.84177 27.589 7.82082C28.0961 7.63431 28.7269 7.4038 28.8506 6.8003C29.035 5.89502 28.3078 5.31666 27.7231 4.85144C27.5932 4.74666 27.457 4.63979 27.3313 4.53082H27.3334C26.493 3.7471 25.3237 3.42436 24.2005 3.66744C23.4105 3.92519 22.7692 4.51612 22.4445 5.2831C22.258 5.13012 22.0798 4.99391 21.9101 4.86609L21.9122 4.86399C21.5245 4.60414 21.1829 4.28354 20.898 3.91472C21.5518 3.47046 22.4005 2.71814 22.2014 1.78561H22.2035C22.1721 1.64311 22.1176 1.5048 22.0421 1.37907C22.4948 1.33925 22.9537 1.3162 23.4189 1.3162V1.3183C27.5095 1.32249 31.4305 2.94866 34.3199 5.84052C37.2117 8.73237 38.8382 12.6528 38.8423 16.7433ZM11.7676 6.65139C11.5392 8.56045 11.7173 10.4968 12.2915 12.3304C12.3481 12.5169 12.4822 12.6699 12.6603 12.7474C13.4608 13.0974 13.6285 13.8769 13.8087 15.1217C13.8527 15.8216 14.0538 16.5026 14.3933 17.1167C14.7956 17.7056 15.4096 17.8983 16.2605 18.1686C16.5245 18.2524 16.8242 18.3467 17.1616 18.4662V18.4683C17.7148 18.571 18.2826 18.5584 18.8296 18.4306C19.0413 18.4033 19.3493 18.3614 19.4918 18.3551L21.9751 19.5056C21.7781 20.2621 21.6063 20.7839 21.4742 21.182C21.0342 22.519 21.0824 22.7516 22.0463 23.946C22.3963 24.3798 22.8783 24.975 23.5426 25.9159C23.7102 26.1548 23.9261 26.8128 23.4734 28.55H23.4755C23.1507 29.6942 22.7525 30.8174 22.281 31.9113C22.2517 31.9825 22.2244 32.0496 22.1972 32.1145H22.1993C18.3895 31.8128 14.8272 30.107 12.2034 27.3283C9.57976 24.5496 8.08142 20.895 8.00181 17.0749C7.92008 13.2526 9.26335 9.53918 11.7654 6.6514L11.7676 6.65139ZM22.7586 33.4702V43.9356C16.3774 40.7189 10.2253 38.9628 4.00123 38.5772L5.20409 13.4766C5.75943 13.5207 6.34407 13.5877 6.95596 13.6841H6.95805C6.07166 18.462 7.30382 23.3909 10.3361 27.1879C13.3684 30.9851 17.9031 33.2776 22.7586 33.4702ZM39.6529 41.2468C34.3826 41.821 29.3008 43.5435 24.7682 46.295C23.9447 46.8189 22.8927 46.8189 22.0692 46.295C17.5365 43.5436 12.4547 41.821 7.18449 41.2468C5.25028 41.0289 3.30141 40.9974 1.36119 41.1525L2.83646 15.1673L3.84651 14.2893L2.65202 39.1699C2.64364 39.3438 2.70441 39.5157 2.82386 39.6456C2.94121 39.7755 3.10676 39.8531 3.28069 39.8614C9.84592 40.1632 16.3339 42.0408 23.111 45.6011H23.1131C23.3038 45.7016 23.5343 45.7016 23.7271 45.6011C30.5064 42.0407 36.9922 40.1629 43.5575 39.8614C43.7335 39.853 43.899 39.7755 44.0164 39.6456C44.1337 39.5157 44.1945 39.3438 44.1861 39.1699L42.9937 14.2893L44.0038 15.1673L45.4791 41.1525L45.477 41.1504C43.5365 40.9953 41.5876 41.0289 39.6537 41.2468H39.6529Z" fill="#13CFFE"/>
<path d="M22.0537 1.19995C16.9554 1.67995 12.7068 4.99995 11.2198 6.59995C9.94526 6.59995 11.325 12.6 12.5996 12.6C13.8742 12.6 13.7891 16.7793 14.4063 17.4C15.5995 18.6 20.3249 19.2 21.5995 19.8C22.8741 20.4 19.3922 20.7171 22.0537 24C23.9995 26.4 23.3283 30 22.0537 32.4H25.8775L32.8876 26.4L34.7995 23.4L34.1622 19.8L29.9995 16.8H27.5995L23.3995 15.6L20.9996 15L17.3995 14.4L23.3995 15V12L23.9996 11.4L26.9996 10.8L27.7893 8.39995L29.0639 7.19995C29.0639 6.59995 28.5541 4.55995 26.5148 3.59995C24.4754 2.63995 22.9035 3.79995 22.691 4.79995C21.4165 4.19995 20.5799 4.07995 21.5996 3.59995C22.6193 3.11995 22.0537 1.79995 22.0537 1.19995Z" fill="#FF6700"/>
</svg>
