<svg width="58" height="58" viewBox="0 0 58 58" fill="none" xmlns="http://www.w3.org/2000/svg">
<path d="M23.9106 38.6224L23.9119 38.6237C25.9014 40.6671 28.6523 41.823 31.4847 41.823C31.5897 41.823 31.6555 41.8241 31.7018 41.8344L31.7307 41.8409L31.7603 41.8404C32.804 41.8225 33.8242 41.6536 34.7759 41.3229C35.2497 41.2037 35.5936 40.7734 35.5936 40.2604C35.5936 39.5276 34.8184 38.9775 34.1213 39.2289L34.1206 39.2291C33.3788 39.4989 32.5669 39.6431 31.7186 39.6516L31.7147 39.6517C29.3786 39.7112 27.11 38.7852 25.4874 37.1206C24.645 36.2353 24.0255 35.233 23.6354 34.1389L23.6354 34.1389L23.6346 34.1367C23.1013 32.6836 22.9757 31.1332 23.2636 29.638L27.499 34.0117L27.499 34.0117L27.5019 34.0146C27.7017 34.2144 27.9737 34.3415 28.2736 34.3415C28.5668 34.3415 28.8427 34.2427 29.0527 34.0335L34.3888 28.8635L34.3893 28.8631C34.8199 28.4438 34.8321 27.7434 34.412 27.3114C34.4118 27.3112 34.4117 27.311 34.4115 27.3108L30.1853 22.9384C31.4765 22.7346 32.8142 22.8305 34.0698 23.2262L34.0708 23.2265C35.4121 23.6426 36.5839 24.3723 37.5709 25.3848L37.5711 25.3851C39.0569 26.9048 39.8897 28.9258 39.9237 31.068L39.9277 31.3178L40.1775 31.314L41.875 31.2877L42.1244 31.2839L42.1211 31.0344C42.0853 28.3283 41.0275 25.7731 39.145 23.8457C37.9092 22.5741 36.4211 21.6507 34.7273 21.1218C32.4338 20.3963 29.9432 20.4678 27.7027 21.3282L27.7027 21.3282L27.6995 21.3295C27.3638 21.4638 27.1033 21.7556 27.0233 22.1199C26.9445 22.4702 27.0446 22.855 27.3077 23.1193L32.0679 28.0398L28.314 31.6818L23.5453 26.7612C23.5451 26.761 23.545 26.7608 23.5448 26.7606C23.2835 26.4884 22.9091 26.3759 22.5487 26.4434C22.1813 26.5123 21.8885 26.7642 21.7441 27.0972L21.7441 27.0972L21.7428 27.1004C20.7039 29.5903 20.6407 32.3502 21.5723 34.8684C22.0657 36.2493 22.8458 37.5128 23.9106 38.6224Z" fill="white" stroke="white" stroke-width="0.5"/>
<mask id="path-2-outside-1_895_982" maskUnits="userSpaceOnUse" x="0" y="0" width="58" height="58" fill="black">
<rect fill="white" width="58" height="58"/>
<path d="M52.0563 56.9994C50.8138 56.9994 49.615 56.4919 48.7488 55.5994L33.9088 40.8383C33.5763 40.5058 33.5763 39.972 33.9088 39.6396C34.2413 39.3071 34.775 39.3071 35.1075 39.6396L49.9565 54.4096C50.5428 55.0134 51.3128 55.3371 52.1353 55.3022C52.9578 55.2759 53.7103 54.9172 54.2616 54.2871C55.2328 53.1671 55.1278 51.3821 54.0078 50.2271L39.0277 34.3723C38.7827 34.1098 38.7215 33.7249 38.8877 33.4011L40.244 30.7411C40.244 30.7323 40.2528 30.7236 40.2528 30.7148C40.5853 29.9098 40.8565 29.0523 41.084 28.1161C41.1715 27.7311 41.5128 27.4598 41.9066 27.4598H45.6778V20.8971H41.9066C41.5128 20.8971 41.1716 20.6259 41.084 20.2409C40.6553 18.3946 39.929 16.6359 38.9228 15.0171C38.7128 14.6846 38.7653 14.2471 39.0453 13.9671L41.714 11.2984L37.0765 6.65208L34.399 9.32956C34.119 9.60956 33.6903 9.65331 33.349 9.45206C31.7215 8.44579 29.9627 7.71952 28.1253 7.29079C27.7403 7.20329 27.469 6.86204 27.469 6.46825V2.69697H20.9063V6.47699C20.9063 6.87074 20.6351 7.21199 20.2501 7.29952C18.4038 7.72827 16.6451 8.45453 15.0263 9.46079C14.6938 9.6708 14.2563 9.6183 13.9763 9.33829L11.3076 6.66081L6.67007 11.3071L9.33882 13.9758C9.61882 14.2558 9.67132 14.6846 9.46132 15.0258C8.46384 16.6533 7.73757 18.4033 7.30004 20.2496C7.21254 20.6346 6.87129 20.9059 6.47751 20.9059H2.6975V27.4685H6.47751C6.87126 27.4685 7.21251 27.7398 7.30004 28.1248C7.72879 29.9623 8.45505 31.7211 9.46132 33.3398C9.67132 33.6723 9.61882 34.1098 9.33882 34.3898L6.67007 37.0586L11.3076 41.7049L13.9763 39.0361C14.2563 38.7561 14.685 38.7036 15.0263 38.9136C16.6451 39.9199 18.4038 40.6462 20.2501 41.0749C20.6351 41.1624 20.9063 41.5036 20.9063 41.8974V45.6687H27.469V41.8974C27.469 41.5037 27.7403 41.1624 28.1253 41.0749C29.254 40.8124 30.3565 40.4274 31.4065 39.9461C31.8353 39.7536 32.334 39.9374 32.5353 40.3574C32.7278 40.7862 32.544 41.2849 32.124 41.4861C31.179 41.9236 30.1903 42.2824 29.1753 42.5624V46.5174C29.1753 46.9899 28.799 47.3662 28.3265 47.3662H20.0576C19.585 47.3662 19.2088 46.9899 19.2088 46.5174V42.5624C17.6425 42.1337 16.1288 41.5124 14.7113 40.6987L11.9113 43.4987C11.7538 43.6562 11.5351 43.7437 11.3076 43.7437C11.0801 43.7437 10.8701 43.6562 10.7038 43.4987L4.86749 37.645C4.53499 37.3125 4.53499 36.7787 4.86749 36.4462L7.6675 33.6462C6.85376 32.2287 6.23249 30.7149 5.80376 29.1575H1.84874C1.37624 29.1575 1 28.7812 1 28.3087V20.0487C1 19.5762 1.37625 19.2 1.84874 19.2H5.82128C6.25003 17.6337 6.87129 16.1199 7.68503 14.7025L4.88502 11.9025C4.55251 11.5699 4.55251 11.0362 4.88502 10.7037L10.7214 4.85C10.8789 4.6925 11.0976 4.605 11.3251 4.605C11.5526 4.605 11.7626 4.6925 11.9288 4.85875L14.7288 7.6675C16.1463 6.85376 17.6514 6.23249 19.2176 5.80376V1.84874C19.2089 1.37624 19.5939 1 20.0576 1H28.3176C28.7901 1 29.1664 1.37625 29.1664 1.84874V5.81249C30.7327 6.23249 32.2377 6.8625 33.6639 7.67624L36.4726 4.86749C36.6301 4.70999 36.8489 4.62249 37.0764 4.62249C37.3038 4.62249 37.5139 4.70999 37.6801 4.86749L43.5164 10.7212C43.8489 11.0537 43.8489 11.5875 43.5164 11.9199L40.7164 14.7199C41.5302 16.1374 42.1514 17.6425 42.5802 19.2174H46.5352C47.0077 19.2174 47.3839 19.5937 47.3839 20.0662V28.3262C47.3839 28.7987 47.0077 29.1749 46.5352 29.1749H42.5802C42.3789 29.9275 42.1427 30.6362 41.8627 31.3187C41.8452 31.3624 41.8277 31.4149 41.8102 31.4499L40.6815 33.655L55.2326 49.055C56.9476 50.8225 57.0876 53.6138 55.5388 55.3987C54.6725 56.3962 53.4825 56.965 52.1788 57H52.0563L52.0563 56.9994Z"/>
</mask>
<path d="M52.0563 56.9994C50.8138 56.9994 49.615 56.4919 48.7488 55.5994L33.9088 40.8383C33.5763 40.5058 33.5763 39.972 33.9088 39.6396C34.2413 39.3071 34.775 39.3071 35.1075 39.6396L49.9565 54.4096C50.5428 55.0134 51.3128 55.3371 52.1353 55.3022C52.9578 55.2759 53.7103 54.9172 54.2616 54.2871C55.2328 53.1671 55.1278 51.3821 54.0078 50.2271L39.0277 34.3723C38.7827 34.1098 38.7215 33.7249 38.8877 33.4011L40.244 30.7411C40.244 30.7323 40.2528 30.7236 40.2528 30.7148C40.5853 29.9098 40.8565 29.0523 41.084 28.1161C41.1715 27.7311 41.5128 27.4598 41.9066 27.4598H45.6778V20.8971H41.9066C41.5128 20.8971 41.1716 20.6259 41.084 20.2409C40.6553 18.3946 39.929 16.6359 38.9228 15.0171C38.7128 14.6846 38.7653 14.2471 39.0453 13.9671L41.714 11.2984L37.0765 6.65208L34.399 9.32956C34.119 9.60956 33.6903 9.65331 33.349 9.45206C31.7215 8.44579 29.9627 7.71952 28.1253 7.29079C27.7403 7.20329 27.469 6.86204 27.469 6.46825V2.69697H20.9063V6.47699C20.9063 6.87074 20.6351 7.21199 20.2501 7.29952C18.4038 7.72827 16.6451 8.45453 15.0263 9.46079C14.6938 9.6708 14.2563 9.6183 13.9763 9.33829L11.3076 6.66081L6.67007 11.3071L9.33882 13.9758C9.61882 14.2558 9.67132 14.6846 9.46132 15.0258C8.46384 16.6533 7.73757 18.4033 7.30004 20.2496C7.21254 20.6346 6.87129 20.9059 6.47751 20.9059H2.6975V27.4685H6.47751C6.87126 27.4685 7.21251 27.7398 7.30004 28.1248C7.72879 29.9623 8.45505 31.7211 9.46132 33.3398C9.67132 33.6723 9.61882 34.1098 9.33882 34.3898L6.67007 37.0586L11.3076 41.7049L13.9763 39.0361C14.2563 38.7561 14.685 38.7036 15.0263 38.9136C16.6451 39.9199 18.4038 40.6462 20.2501 41.0749C20.6351 41.1624 20.9063 41.5036 20.9063 41.8974V45.6687H27.469V41.8974C27.469 41.5037 27.7403 41.1624 28.1253 41.0749C29.254 40.8124 30.3565 40.4274 31.4065 39.9461C31.8353 39.7536 32.334 39.9374 32.5353 40.3574C32.7278 40.7862 32.544 41.2849 32.124 41.4861C31.179 41.9236 30.1903 42.2824 29.1753 42.5624V46.5174C29.1753 46.9899 28.799 47.3662 28.3265 47.3662H20.0576C19.585 47.3662 19.2088 46.9899 19.2088 46.5174V42.5624C17.6425 42.1337 16.1288 41.5124 14.7113 40.6987L11.9113 43.4987C11.7538 43.6562 11.5351 43.7437 11.3076 43.7437C11.0801 43.7437 10.8701 43.6562 10.7038 43.4987L4.86749 37.645C4.53499 37.3125 4.53499 36.7787 4.86749 36.4462L7.6675 33.6462C6.85376 32.2287 6.23249 30.7149 5.80376 29.1575H1.84874C1.37624 29.1575 1 28.7812 1 28.3087V20.0487C1 19.5762 1.37625 19.2 1.84874 19.2H5.82128C6.25003 17.6337 6.87129 16.1199 7.68503 14.7025L4.88502 11.9025C4.55251 11.5699 4.55251 11.0362 4.88502 10.7037L10.7214 4.85C10.8789 4.6925 11.0976 4.605 11.3251 4.605C11.5526 4.605 11.7626 4.6925 11.9288 4.85875L14.7288 7.6675C16.1463 6.85376 17.6514 6.23249 19.2176 5.80376V1.84874C19.2089 1.37624 19.5939 1 20.0576 1H28.3176C28.7901 1 29.1664 1.37625 29.1664 1.84874V5.81249C30.7327 6.23249 32.2377 6.8625 33.6639 7.67624L36.4726 4.86749C36.6301 4.70999 36.8489 4.62249 37.0764 4.62249C37.3038 4.62249 37.5139 4.70999 37.6801 4.86749L43.5164 10.7212C43.8489 11.0537 43.8489 11.5875 43.5164 11.9199L40.7164 14.7199C41.5302 16.1374 42.1514 17.6425 42.5802 19.2174H46.5352C47.0077 19.2174 47.3839 19.5937 47.3839 20.0662V28.3262C47.3839 28.7987 47.0077 29.1749 46.5352 29.1749H42.5802C42.3789 29.9275 42.1427 30.6362 41.8627 31.3187C41.8452 31.3624 41.8277 31.4149 41.8102 31.4499L40.6815 33.655L55.2326 49.055C56.9476 50.8225 57.0876 53.6138 55.5388 55.3987C54.6725 56.3962 53.4825 56.965 52.1788 57H52.0563L52.0563 56.9994Z" fill="white"/>
<path d="M52.0563 56.9994C50.8138 56.9994 49.615 56.4919 48.7488 55.5994L33.9088 40.8383C33.5763 40.5058 33.5763 39.972 33.9088 39.6396C34.2413 39.3071 34.775 39.3071 35.1075 39.6396L49.9565 54.4096C50.5428 55.0134 51.3128 55.3371 52.1353 55.3022C52.9578 55.2759 53.7103 54.9172 54.2616 54.2871C55.2328 53.1671 55.1278 51.3821 54.0078 50.2271L39.0277 34.3723C38.7827 34.1098 38.7215 33.7249 38.8877 33.4011L40.244 30.7411C40.244 30.7323 40.2528 30.7236 40.2528 30.7148C40.5853 29.9098 40.8565 29.0523 41.084 28.1161C41.1715 27.7311 41.5128 27.4598 41.9066 27.4598H45.6778V20.8971H41.9066C41.5128 20.8971 41.1716 20.6259 41.084 20.2409C40.6553 18.3946 39.929 16.6359 38.9228 15.0171C38.7128 14.6846 38.7653 14.2471 39.0453 13.9671L41.714 11.2984L37.0765 6.65208L34.399 9.32956C34.119 9.60956 33.6903 9.65331 33.349 9.45206C31.7215 8.44579 29.9627 7.71952 28.1253 7.29079C27.7403 7.20329 27.469 6.86204 27.469 6.46825V2.69697H20.9063V6.47699C20.9063 6.87074 20.6351 7.21199 20.2501 7.29952C18.4038 7.72827 16.6451 8.45453 15.0263 9.46079C14.6938 9.6708 14.2563 9.6183 13.9763 9.33829L11.3076 6.66081L6.67007 11.3071L9.33882 13.9758C9.61882 14.2558 9.67132 14.6846 9.46132 15.0258C8.46384 16.6533 7.73757 18.4033 7.30004 20.2496C7.21254 20.6346 6.87129 20.9059 6.47751 20.9059H2.6975V27.4685H6.47751C6.87126 27.4685 7.21251 27.7398 7.30004 28.1248C7.72879 29.9623 8.45505 31.7211 9.46132 33.3398C9.67132 33.6723 9.61882 34.1098 9.33882 34.3898L6.67007 37.0586L11.3076 41.7049L13.9763 39.0361C14.2563 38.7561 14.685 38.7036 15.0263 38.9136C16.6451 39.9199 18.4038 40.6462 20.2501 41.0749C20.6351 41.1624 20.9063 41.5036 20.9063 41.8974V45.6687H27.469V41.8974C27.469 41.5037 27.7403 41.1624 28.1253 41.0749C29.254 40.8124 30.3565 40.4274 31.4065 39.9461C31.8353 39.7536 32.334 39.9374 32.5353 40.3574C32.7278 40.7862 32.544 41.2849 32.124 41.4861C31.179 41.9236 30.1903 42.2824 29.1753 42.5624V46.5174C29.1753 46.9899 28.799 47.3662 28.3265 47.3662H20.0576C19.585 47.3662 19.2088 46.9899 19.2088 46.5174V42.5624C17.6425 42.1337 16.1288 41.5124 14.7113 40.6987L11.9113 43.4987C11.7538 43.6562 11.5351 43.7437 11.3076 43.7437C11.0801 43.7437 10.8701 43.6562 10.7038 43.4987L4.86749 37.645C4.53499 37.3125 4.53499 36.7787 4.86749 36.4462L7.6675 33.6462C6.85376 32.2287 6.23249 30.7149 5.80376 29.1575H1.84874C1.37624 29.1575 1 28.7812 1 28.3087V20.0487C1 19.5762 1.37625 19.2 1.84874 19.2H5.82128C6.25003 17.6337 6.87129 16.1199 7.68503 14.7025L4.88502 11.9025C4.55251 11.5699 4.55251 11.0362 4.88502 10.7037L10.7214 4.85C10.8789 4.6925 11.0976 4.605 11.3251 4.605C11.5526 4.605 11.7626 4.6925 11.9288 4.85875L14.7288 7.6675C16.1463 6.85376 17.6514 6.23249 19.2176 5.80376V1.84874C19.2089 1.37624 19.5939 1 20.0576 1H28.3176C28.7901 1 29.1664 1.37625 29.1664 1.84874V5.81249C30.7327 6.23249 32.2377 6.8625 33.6639 7.67624L36.4726 4.86749C36.6301 4.70999 36.8489 4.62249 37.0764 4.62249C37.3038 4.62249 37.5139 4.70999 37.6801 4.86749L43.5164 10.7212C43.8489 11.0537 43.8489 11.5875 43.5164 11.9199L40.7164 14.7199C41.5302 16.1374 42.1514 17.6425 42.5802 19.2174H46.5352C47.0077 19.2174 47.3839 19.5937 47.3839 20.0662V28.3262C47.3839 28.7987 47.0077 29.1749 46.5352 29.1749H42.5802C42.3789 29.9275 42.1427 30.6362 41.8627 31.3187C41.8452 31.3624 41.8277 31.4149 41.8102 31.4499L40.6815 33.655L55.2326 49.055C56.9476 50.8225 57.0876 53.6138 55.5388 55.3987C54.6725 56.3962 53.4825 56.965 52.1788 57H52.0563L52.0563 56.9994Z" stroke="white" mask="url(#path-2-outside-1_895_982)"/>
<path d="M35.4922 21.9509L35.4926 21.9527C35.6048 22.5475 35.2236 23.1277 34.6291 23.242C34.0435 23.3546 33.4538 22.9743 33.339 22.3793C32.4871 18.0349 28.6442 14.8815 24.1954 14.8815C19.0572 14.8815 14.8728 19.0658 14.8728 24.2041C14.8728 28.7706 18.2737 32.7344 22.7891 33.4243L35.4922 21.9509ZM35.4922 21.9509C34.437 16.5744 29.6874 12.6753 24.1958 12.6753C17.8452 12.6753 12.6758 17.8446 12.6758 24.1953C12.6758 29.8297 16.8758 34.7287 22.4469 35.5807C22.5131 35.5932 22.5756 35.5931 22.6149 35.5931L22.6208 35.5931C23.1515 35.5931 23.6156 35.2099 23.7068 34.6856L23.7069 34.6856M35.4922 21.9509L23.7069 34.6856M23.7069 34.6856L23.7077 34.6801M23.7069 34.6856L23.7077 34.6801M23.7077 34.6801C23.7978 34.0833 23.3929 33.5157 22.7895 33.4244L23.7077 34.6801Z" fill="white" stroke="white" stroke-width="0.5"/>
</svg>
