<svg width="35" height="48" viewBox="0 0 35 48" fill="none" xmlns="http://www.w3.org/2000/svg">
<path d="M5.45455 41.4545H32.7273V43.6364H5.45455V41.4545ZM34.9091 39.2727H5.45455C3.65452 39.2727 2.18182 40.7454 2.18182 42.5455C2.18182 44.3454 3.65452 45.8182 5.45455 45.8182H34.9091V48H5.45455C2.44363 48 0 45.5564 0 42.5455V5.45455C0 2.44363 2.44363 0 5.45455 0H33.8182C34.4182 0 34.9091 0.490922 34.9091 1.09091V39.2727ZM6.54545 2.18182H5.45455C3.65452 2.18182 2.18182 3.65452 2.18182 5.45455V38.1818C3.08729 37.4945 4.22181 37.0909 5.45455 37.0909H6.54545V2.18182ZM32.7273 2.18182H8.72727V37.0909H32.7273V2.18182Z" fill="#13CFFE"/>
<path d="M26.0996 18.934C26.7663 19.3189 26.7663 20.2811 26.0996 20.666L17.3996 25.689C16.7329 26.0739 15.8996 25.5927 15.8996 24.8229L15.8996 14.7771C15.8996 14.0073 16.7329 13.5261 17.3996 13.911L26.0996 18.934Z" fill="#FF6700"/>
</svg>
