<svg width="46" height="50" viewBox="0 0 46 50" fill="none" xmlns="http://www.w3.org/2000/svg">
<path d="M18.4635 48.3446L18.4633 48.3421L18.2158 44.7131C18.2158 44.713 18.2158 44.713 18.2158 44.713C18.1983 44.4682 18.0829 44.2496 17.8859 44.0989C17.6901 43.9492 17.4488 43.8965 17.2091 43.943C17.2088 43.9431 17.2085 43.9432 17.2082 43.9432L11.0731 45.2016C11.0723 45.2018 11.0715 45.202 11.0707 45.2022C9.7642 45.4962 8.41623 45.1608 7.39648 44.2688C6.36152 43.3689 5.83501 42.0686 5.9543 40.6993C6.24577 37.2163 6.17677 34.3629 5.75578 32.2276C5.68641 31.8879 5.41674 31.63 5.07136 31.5782L5.07068 31.5781L2.9108 31.2482L2.91072 31.2482C1.98807 31.1069 1.24697 30.4982 0.915328 29.6359L0.914293 29.6332L0.914308 29.6332C0.590827 28.7623 0.74873 27.8197 1.35517 27.1049L18.4635 48.3446ZM18.4635 48.3446C18.5036 48.8563 18.9263 49.25 19.4401 49.25H38.1668C38.4378 49.25 38.6982 49.139 38.8879 48.9394L38.8879 48.9395L38.8924 48.9345C39.0742 48.7326 39.1633 48.4626 39.1435 48.1938L39.1432 48.1905L38.6032 42.0257L38.6032 42.0253C38.3301 38.9625 38.9646 35.8985 40.4272 33.1506L40.4273 33.1505C41.763 30.6369 43.4454 27.3038 44.4579 23.9867C46.2527 18.108 44.8774 11.6722 40.858 7.17316L40.8578 7.17301C37.6195 3.55411 33.3043 1.57667 27.3119 0.919249C24.6279 0.624386 22.1407 0.714243 19.9053 1.19322C14.3512 2.37552 10.0215 5.3524 7.74529 9.60701L7.74517 9.60725C6.89216 11.2057 6.44082 13.0689 6.44082 15.0046V20.0367C6.44082 20.712 6.19964 21.3675 5.76476 21.8854C5.76466 21.8855 5.76456 21.8857 5.76446 21.8858L1.35554 27.1045L18.4635 48.3446ZM38.7034 32.233L38.7035 32.2329C40.0151 29.7746 41.6323 26.568 42.5921 23.4132L42.5922 23.413C44.1873 18.1849 42.9676 12.4639 39.4052 8.47356C36.5242 5.25367 32.6283 3.45856 27.1078 2.85572C24.6241 2.58804 22.3415 2.67073 20.3172 3.09923C15.3038 4.16729 11.4595 6.81559 9.46915 10.5319C8.76995 11.8429 8.39611 13.3919 8.39611 15.004V20.036C8.39611 21.1752 7.99262 22.2747 7.25714 23.1447L38.7034 32.233ZM38.7034 32.233C37.061 35.3125 36.3533 38.7584 36.6576 42.1971C36.6576 42.1971 36.6576 42.1972 36.6576 42.1972L37.1062 47.2951H20.3555L20.1622 44.587L19.9129 44.6048M38.7034 32.233L19.9129 44.6048M19.9129 44.6048L20.1622 44.587C20.1047 43.7817 19.7099 43.0399 19.0663 42.553C18.4247 42.0677 17.6017 41.8779 16.8105 42.0425L19.9129 44.6048ZM2.84743 28.3643L7.25708 23.1447L16.8096 42.0427L10.6534 43.3024L10.65 43.3031C9.93758 43.4592 9.21682 43.2828 8.67107 42.8045C8.11556 42.3168 7.83188 41.6217 7.8928 40.8758C8.20126 37.2263 8.1277 34.1935 7.66388 31.8591L7.66375 31.8585C7.43332 30.7146 6.51162 29.8242 5.35604 29.6508C5.35598 29.6507 5.35593 29.6507 5.35588 29.6507L3.20474 29.3209C3.20462 29.3209 3.20451 29.3209 3.20439 29.3209C2.90503 29.2743 2.78961 29.0536 2.74775 28.947C2.70719 28.8358 2.65036 28.5977 2.84739 28.3644C2.8474 28.3644 2.84742 28.3643 2.84743 28.3643Z" fill="#13CFFE" stroke="#13CFFE" stroke-width="0.5"/>
<path d="M28.5856 24.9722C28.5856 26.6857 29.98 28.0792 31.6921 28.0792C32.3111 28.0792 32.9036 27.8967 33.4029 27.5666V32.2H28.7708C29.0996 31.7007 29.2812 31.1087 29.2812 30.492C29.2812 28.7789 27.8882 27.385 26.1746 27.385C24.4616 27.385 23.0676 28.7785 23.0676 30.492C23.0676 31.1087 23.2497 31.7007 23.5789 32.2H18.951V26.4335C18.951 26.2235 18.8125 26.0383 18.6126 25.9768C18.4117 25.9159 18.1939 25.9938 18.0779 26.168C17.6827 26.76 17.0247 27.1154 16.3149 27.125C15.1456 27.1039 14.1992 26.1474 14.1992 24.9722C14.1992 23.7965 15.1475 22.8378 16.319 22.8194C17.0283 22.8304 17.684 23.1844 18.0784 23.7754C18.1948 23.9511 18.4122 24.0281 18.613 23.9676C18.8134 23.9061 18.9514 23.7218 18.9514 23.5118V17.7449H24.6115C24.8169 17.7449 24.9994 17.6123 25.0641 17.4175C25.1278 17.2217 25.06 17.0071 24.8944 16.8856C24.3474 16.4802 24.0218 15.8337 24.0218 15.1542C24.0218 13.9666 24.988 13 26.1751 13C27.3627 13 28.3293 13.9666 28.3293 15.1542C28.3293 15.8337 28.0032 16.4807 27.4562 16.8856C27.2916 17.0075 27.2228 17.2217 27.2875 17.4175C27.3512 17.6123 27.5346 17.7449 27.7401 17.7449H33.4033V22.3778C32.904 22.0472 32.3111 21.8661 31.693 21.8661C29.98 21.8661 28.5856 23.2591 28.5856 24.9722Z" fill="#FF6700"/>
</svg>
