<svg width="72" height="56" viewBox="0 0 72 56" fill="none" xmlns="http://www.w3.org/2000/svg">
<path d="M62.9106 14.7745C62.0766 10.366 58.1447 7.14894 53.617 7.14894C51.9489 7.14894 50.2809 7.62553 48.8511 8.45957C46.4681 3.33617 41.4638 0 35.7447 0C30.5021 0 25.617 2.85957 23.1149 7.50638C22.1617 7.26809 21.2085 7.14894 20.2553 7.14894C14.2979 7.14894 9.53192 11.4383 9.53192 16.6809C9.53192 16.6809 9.53192 16.6809 9.53192 16.8C4.76596 17.3957 0 21.9234 0 27.4043C0 33.3617 4.76596 38.1277 10.7234 38.1277H16.8C17.3957 48.017 25.7362 56 35.7447 56C45.7532 56 54.0936 48.017 54.6894 38.1277H60.766C68.5106 38.1277 71.4894 32.4085 71.4894 26.2128C71.4894 20.9702 67.9149 16.3234 62.9106 14.7745ZM35.7447 53.617C26.5702 53.617 19.0638 46.1106 19.0638 36.9362C19.0638 27.7617 26.5702 20.2553 35.7447 20.2553C44.9192 20.2553 52.4255 27.7617 52.4255 36.9362C52.4255 46.1106 44.9192 53.617 35.7447 53.617ZM60.766 35.7447H54.6894C54.0936 25.8553 45.7532 17.8723 35.7447 17.8723C25.7362 17.8723 17.3957 25.8553 16.8 35.7447H10.7234C6.0766 35.7447 2.38298 32.0511 2.38298 27.4043C2.38298 22.7574 6.0766 19.0638 10.7234 19.0638H12.2723L12.034 17.634C11.9149 17.2766 11.9149 16.9191 11.9149 16.6809C11.9149 12.7489 15.6085 9.53191 20.2553 9.53191C21.3277 9.53191 22.4 9.77021 23.3532 10.0085L24.4255 10.366L24.9021 9.41277C26.8085 5.1234 31.0979 2.38298 35.7447 2.38298C40.9872 2.38298 45.5149 5.71915 47.0638 10.7234L47.6596 12.3915L48.9702 11.2C50.2809 10.1277 51.9489 9.53191 53.617 9.53191C57.3106 9.53191 60.2894 12.2723 60.766 15.8468V16.6809L61.6 16.9191C66.0085 17.8723 69.1064 21.8043 69.1064 26.2128C69.1064 36.2213 60.766 35.7447 60.766 35.7447Z" fill="white"/>
<path d="M39.6768 27.0467L43.6087 30.9787H25.0215V33.3616H43.6087L39.6768 37.2936L41.3449 38.9616L48.1364 32.1702L41.3449 25.3787L39.6768 27.0467Z" fill="white"/>
<path d="M31.8131 36.5787L30.145 34.9106L23.3535 41.7021L30.145 48.4936L31.8131 46.8255L27.8812 42.8936H46.4684V40.5106H27.8812L31.8131 36.5787Z" fill="white"/>
</svg>
