<svg width="55" height="56" viewBox="0 0 55 56" fill="none" xmlns="http://www.w3.org/2000/svg">
<path d="M29.8139 10.7046H23.6654C23.0462 10.7046 22.5596 11.1912 22.5596 11.8104V14.376C21.3653 14.7299 20.2152 15.1722 19.1536 15.7915L17.34 13.9779C16.9419 13.5798 16.1899 13.5798 15.7918 13.9779L11.4569 18.3128C11.0146 18.7551 11.0146 19.4629 11.4569 19.861L13.2705 21.6746C12.6512 22.7362 12.2089 23.8863 11.855 25.0806H9.28944C8.67017 25.0806 8.18359 25.5671 8.18359 26.1864V32.3349C8.18359 32.9542 8.67017 33.4408 9.28944 33.4408H11.855C12.2089 34.6351 12.6512 35.7852 13.2705 36.8468L11.4569 38.6604C11.0146 39.1027 11.0146 39.8104 11.4569 40.2085L15.7918 44.5434C16.2341 44.9858 16.9419 44.9858 17.34 44.5434L19.1536 42.7299C20.2152 43.3491 21.3653 43.7915 22.5596 44.1453V46.7109C22.5596 47.3302 23.0462 47.8168 23.6654 47.8168H29.8139C30.4332 47.8168 30.9198 47.3302 30.9198 46.7109V44.1453C32.1141 43.7915 33.2642 43.3491 34.3258 42.7299L36.1394 44.5434C36.5817 44.9858 37.2894 44.9858 37.6875 44.5434L42.0225 40.2085C42.4648 39.7662 42.4648 39.0585 42.0225 38.6604L40.2089 36.8468C40.8281 35.7852 41.2705 34.6351 41.6244 33.4408H44.1899C44.8092 33.4408 45.2958 32.9542 45.2958 32.3349V26.2307C45.2958 25.6114 44.8092 25.1248 44.1899 25.1248H41.6244C41.2705 23.9305 40.8281 22.7804 40.2089 21.7188L42.0225 19.9052C42.4648 19.4629 42.4648 18.7551 42.0225 18.357L37.6875 14.0221C37.4664 13.801 37.201 13.7125 36.8913 13.7125C36.5817 13.7125 36.3163 13.8452 36.0951 14.0221L34.2815 15.8799C33.2199 15.2607 32.0698 14.8183 30.8755 14.4645V11.8547C30.9198 11.2354 30.4332 10.7046 29.8139 10.7046ZM33.8834 18.1359C34.3258 18.4013 34.9008 18.357 35.2547 18.0032L36.8913 16.3223L39.6781 19.109L38.0414 20.7457C37.6875 21.0995 37.5991 21.6746 37.9087 22.1169C38.7492 23.4439 39.3684 24.9036 39.6781 26.4518C39.8108 26.9384 40.2531 27.3365 40.7397 27.3365H43.0398V31.2733H40.7397C40.2089 31.2733 39.7665 31.6272 39.6781 32.158C39.3684 33.7062 38.7492 35.1659 37.9087 36.4929C37.6433 36.9352 37.6875 37.5103 38.0414 37.8641L39.6781 39.5008L36.8913 42.2875L35.2547 40.6509C34.9008 40.297 34.3258 40.2085 33.8834 40.5182C32.5564 41.3586 31.0967 41.9779 29.5485 42.2875C29.062 42.4202 28.6638 42.8626 28.6638 43.3491V45.6493H24.7713V43.3491C24.7713 42.8183 24.4174 42.376 23.8866 42.2875C22.3384 41.9779 20.8787 41.3586 19.5517 40.5182C19.1093 40.2528 18.5343 40.297 18.1804 40.6509L16.5438 42.2875L13.7571 39.5008L15.3937 37.8641C15.7476 37.5103 15.836 36.9352 15.5264 36.4929C14.686 35.1659 14.0667 33.7062 13.7571 32.158C13.6244 31.6714 13.182 31.2733 12.6954 31.2733H10.3953V27.3365H12.6954C13.2262 27.3365 13.6686 26.9826 13.7571 26.4518C14.0667 24.9036 14.686 23.4439 15.5264 22.1169C15.7918 21.6746 15.7476 21.0995 15.3937 20.7457L13.7571 19.109L16.5438 16.3223L18.1804 17.9589C18.5343 18.3128 19.1093 18.4013 19.5517 18.0916C20.8787 17.2512 22.3384 16.6319 23.8866 16.3223C24.3732 16.1896 24.7713 15.7472 24.7713 15.2607V12.9605H28.7081V15.3049C28.7081 15.8357 29.062 16.278 29.5928 16.3665C31.1409 16.6762 32.5564 17.2954 33.8834 18.1359Z" fill="white"/>
<path d="M16.4551 29.2828C16.4551 34.9447 21.0554 39.545 26.7173 39.545C32.3792 39.545 36.9796 34.9447 36.9796 29.2828C36.9796 23.6208 32.3792 19.0205 26.7173 19.0205C21.0554 19.0205 16.4551 23.6208 16.4551 29.2828ZM34.7679 29.2828C34.7679 33.7061 31.1407 37.3333 26.7173 37.3333C22.2939 37.3333 18.6668 33.7504 18.6668 29.2828C18.6668 24.8151 22.2939 21.2322 26.7173 21.2322C31.1407 21.2322 34.7679 24.8594 34.7679 29.2828Z" fill="white"/>
<path d="M2.21169 29.2828C2.21169 17.3397 10.6603 7.25434 22.3823 5.17536L21.0553 6.50237L22.6035 8.05055L26.5845 4.06951L22.515 0L20.9668 1.54818L22.3381 2.91943C9.4218 5.08689 0 16.1453 0 29.2828C0 31.981 0.398104 34.6351 1.19431 37.1564L1.50395 38.218L3.62717 37.5545L3.31754 36.4929C2.56556 34.1927 2.21169 31.7599 2.21169 29.2828Z" fill="white"/>
<path d="M45.2948 45.2953C40.6503 50.6919 33.8825 53.7882 26.7166 53.7882C19.5065 53.7882 12.6503 50.6034 8.00574 45.0742L10.2174 45.5607L10.6598 43.3933L5.17478 42.199L3.98047 47.8609L6.14792 48.3032L6.5018 46.6666C11.5887 52.5939 18.9757 55.9999 26.7609 55.9999C34.546 55.9999 41.8888 52.6382 46.9757 46.7108L47.6835 45.8704L46.0026 44.4107L45.2948 45.2953Z" fill="white"/>
<path d="M54.0103 37.245L51.9756 38.0854C52.9487 35.2545 53.4795 32.2908 53.4795 29.2829C53.4795 16.2339 44.1462 5.13126 31.3184 2.9638L30.1683 2.78687L29.8145 4.95432L30.9203 5.13126C42.6865 7.16601 51.2678 17.2956 51.2678 29.2829C51.2678 31.8927 50.8697 34.4583 50.0735 36.8911L49.4543 35.4314L47.4195 36.2719L49.5427 41.4914L54.895 39.324L54.0103 37.245Z" fill="white"/>
</svg>
