<svg width="101" height="26" viewBox="0 0 101 26" fill="none" xmlns="http://www.w3.org/2000/svg">
<path d="M1.06622 23.1699C0.607862 23.6862 0.654788 24.4762 1.17103 24.9346C1.68727 25.3929 2.47733 25.346 2.93568 24.8298L1.06622 23.1699ZM100.5 24L96.2214 10.2149L86.4225 20.8127L100.5 24ZM2.93568 24.8298C3.35653 24.3558 3.79341 23.8797 4.24597 23.4028L2.43244 21.682C1.96114 22.1787 1.5056 22.675 1.06622 23.1699L2.93568 24.8298ZM7.00999 20.6661C7.93989 19.7996 8.91894 18.9377 9.94486 18.0872L8.34931 16.1626C7.28621 17.0439 6.2709 17.9377 5.3057 18.837L7.00999 20.6661ZM13.0112 15.687C14.0417 14.9257 15.1103 14.1799 16.215 13.455L14.8435 11.3648C13.6994 12.1155 12.5929 12.8878 11.5257 13.6762L13.0112 15.687ZM19.5347 11.4067C20.6468 10.7629 21.7896 10.1425 22.9616 9.5502L21.834 7.31895C20.6188 7.93311 19.4342 8.57611 18.282 9.24321L19.5347 11.4067ZM26.4924 7.8928C27.6735 7.38009 28.88 6.89747 30.1107 6.44896L29.2546 4.10009C27.9758 4.56615 26.7228 5.06739 25.4969 5.59955L26.4924 7.8928ZM33.8052 5.22988C35.0391 4.86485 36.2942 4.53534 37.5693 4.24495L37.0141 1.80737C35.6861 2.10981 34.3797 2.45283 33.096 2.83258L33.8052 5.22988ZM41.3892 3.50491C42.6579 3.30207 43.9441 3.13903 45.2469 3.01903L45.0175 0.529568C43.6585 0.65476 42.3171 0.824808 40.9945 1.03626L41.3892 3.50491ZM49.1224 2.79329C50.4026 2.76204 51.6972 2.77334 53.0052 2.8301L53.1136 0.332452C51.7485 0.273219 50.3974 0.261419 49.0614 0.294032L49.1224 2.79329ZM56.8782 3.1295C58.149 3.27091 59.4314 3.45621 60.7245 3.68793L61.1655 1.22713C59.8176 0.985594 58.4804 0.792354 57.1547 0.644833L56.8782 3.1295ZM64.5283 4.49837C65.7683 4.80474 67.0174 5.15477 68.2749 5.55063L69.0256 3.166C67.7184 2.75449 66.4189 2.39031 65.1279 2.07134L64.5283 4.49837ZM71.9522 6.83203C73.1449 7.28799 74.3444 7.78608 75.5503 8.32812L76.5753 6.0479C75.3263 5.48646 74.0826 4.97003 72.845 4.49686L71.9522 6.83203ZM79.0621 10.0236C80.1975 10.6099 81.3381 11.236 82.4833 11.9034L83.742 9.74338C82.5606 9.05489 81.3828 8.40832 80.209 7.80227L79.0621 10.0236ZM85.8123 13.9529C86.8879 14.6508 87.9672 15.3858 89.0498 16.1593L90.5031 14.1251C89.3907 13.3303 88.2805 12.5742 87.173 11.8556L85.8123 13.9529ZM92.1985 18.5113C93.2099 19.3001 94.2239 20.1229 95.2399 20.9809L96.8529 19.0708C95.8124 18.1922 94.7733 17.3489 93.7359 16.5399L92.1985 18.5113Z" fill="#FF6700"/>
</svg>
