<svg width="101" height="26" viewBox="0 0 101 26" fill="none" xmlns="http://www.w3.org/2000/svg">
<path d="M1.22832 2.19677C0.769971 1.68053 0.816897 0.890468 1.33314 0.432115C1.84938 -0.0262396 2.63944 0.0206876 3.09779 0.536926L1.22832 2.19677ZM100.662 1.36675L96.3835 15.1518L86.5846 4.55401L100.662 1.36675ZM3.09779 0.536926C3.51864 1.01092 3.95552 1.48696 4.40808 1.96392L2.59454 3.6847C2.12325 3.188 1.66771 2.69165 1.22832 2.19677L3.09779 0.536926ZM7.17209 4.70062C8.102 5.56709 9.08105 6.42898 10.107 7.27948L8.51142 9.20412C7.44832 8.3228 6.43301 7.42903 5.46781 6.52967L7.17209 4.70062ZM13.1733 9.67966C14.2038 10.441 15.2724 11.1868 16.3771 11.9117L15.0056 14.0019C13.8615 13.2512 12.755 12.4789 11.6878 11.6905L13.1733 9.67966ZM19.6968 13.96C20.8089 14.6038 21.9517 15.2242 23.1237 15.8165L21.9961 18.0477C20.7809 17.4336 19.5964 16.7906 18.4441 16.1235L19.6968 13.96ZM26.6545 17.4739C27.8356 17.9866 29.0421 18.4692 30.2728 18.9177L29.4167 21.2666C28.1379 20.8005 26.8849 20.2993 25.659 19.7671L26.6545 17.4739ZM33.9673 20.1368C35.2012 20.5019 36.4563 20.8314 37.7314 21.1217L37.1762 23.5593C35.8482 23.2569 34.5418 22.9139 33.2581 22.5341L33.9673 20.1368ZM41.5513 21.8618C42.82 22.0646 44.1062 22.2277 45.409 22.3477L45.1796 24.8371C43.8206 24.7119 42.4792 24.5419 41.1567 24.3304L41.5513 21.8618ZM49.2845 22.5734C50.5647 22.6047 51.8593 22.5934 53.1673 22.5366L53.2757 25.0342C51.9106 25.0935 50.5595 25.1053 49.2235 25.0727L49.2845 22.5734ZM57.0403 22.2372C58.3111 22.0958 59.5935 21.9105 60.8866 21.6788L61.3276 24.1396C59.9797 24.3811 58.6425 24.5743 57.3168 24.7219L57.0403 22.2372ZM64.6904 20.8683C65.9304 20.562 67.1795 20.2119 68.437 19.8161L69.1877 22.2007C67.8805 22.6122 66.581 22.9764 65.29 23.2954L64.6904 20.8683ZM72.1143 18.5347C73.307 18.0787 74.5065 17.5806 75.7124 17.0386L76.7374 19.3188C75.4884 19.8802 74.2447 20.3967 73.0071 20.8698L72.1143 18.5347ZM79.2242 15.3431C80.3596 14.7568 81.5002 14.1307 82.6454 13.4633L83.9041 15.6233C82.7227 16.3118 81.5449 16.9584 80.3711 17.5644L79.2242 15.3431ZM85.9744 11.4138C87.05 10.7159 88.1294 9.98087 89.2119 9.20744L90.6652 11.2416C89.5528 12.0364 88.4426 12.7925 87.3351 13.5111L85.9744 11.4138ZM92.3606 6.85536C93.3721 6.06665 94.386 5.24378 95.402 4.38579L97.015 6.29588C95.9745 7.17445 94.9354 8.01779 93.898 8.82681L92.3606 6.85536Z" fill="#FF6700"/>
</svg>
