<svg width="48" height="48" viewBox="0 0 48 48" fill="none" xmlns="http://www.w3.org/2000/svg">
<path d="M6.60672 34.0844C6.42692 34.1616 6.2737 34.2897 6.16603 34.4531C6.05836 34.6164 6.00098 34.8078 6.00098 35.0034C6.00098 35.1991 6.05836 35.3904 6.16603 35.5538C6.2737 35.7171 6.42692 35.8453 6.60672 35.9224C11.4787 38.0034 11.7677 38.0034 11.9997 38.0034H30.9997C31.2649 38.0034 31.5193 37.8981 31.7068 37.7105C31.8944 37.523 31.9997 37.2686 31.9997 37.0034C31.9997 36.7382 31.8944 36.4838 31.7068 36.2963C31.5193 36.1088 31.2649 36.0034 30.9997 36.0034H12.1107C11.7817 35.9034 10.7727 35.4974 9.57872 35.0034C10.7727 34.5094 11.7787 34.1034 12.1107 34.0034H33.9997V37.0034C33.9997 37.2686 34.1051 37.523 34.2926 37.7105C34.4801 37.8981 34.7345 38.0034 34.9997 38.0034H39.9997C40.5302 38.0034 41.0389 37.7927 41.4139 37.4176C41.789 37.0426 41.9997 36.5339 41.9997 36.0034V34.0034C41.9997 33.473 41.789 32.9643 41.4139 32.5892C41.0389 32.2141 40.5302 32.0034 39.9997 32.0034H11.9997C11.7677 32.0034 11.4787 32.0034 6.60672 34.0844ZM35.9997 34.0034H39.9997V36.0034H35.9997V34.0034Z" fill="white"/>
<path d="M17.7068 17.2964C17.5193 17.109 17.265 17.0037 16.9998 17.0037C16.7346 17.0037 16.4803 17.109 16.2928 17.2964L12.2928 21.2964C12.1053 21.484 12 21.7383 12 22.0034C12 22.2686 12.1053 22.5229 12.2928 22.7104L16.2928 26.7104C16.4814 26.8926 16.734 26.9934 16.9962 26.9911C17.2584 26.9888 17.5092 26.8837 17.6946 26.6983C17.88 26.5129 17.9852 26.262 17.9875 25.9998C17.9897 25.7377 17.8889 25.4851 17.7068 25.2964L14.4138 22.0034L17.7068 18.7104C17.8943 18.5229 17.9996 18.2686 17.9996 18.0034C17.9996 17.7383 17.8943 17.484 17.7068 17.2964Z" fill="white"/>
<path d="M30.2928 26.7103C30.4803 26.8978 30.7346 27.0031 30.9998 27.0031C31.265 27.0031 31.5193 26.8978 31.7068 26.7103L35.7068 22.7103C35.8943 22.5228 35.9996 22.2685 35.9996 22.0033C35.9996 21.7382 35.8943 21.4839 35.7068 21.2963L31.7068 17.2963C31.5182 17.1142 31.2656 17.0134 31.0034 17.0157C30.7412 17.0179 30.4904 17.1231 30.305 17.3085C30.1196 17.4939 30.0144 17.7447 30.0121 18.0069C30.0098 18.2691 30.1106 18.5217 30.2928 18.7103L33.5858 22.0033L30.2928 25.2963C30.1053 25.4839 30 25.7382 30 26.0033C30 26.2685 30.1053 26.5228 30.2928 26.7103Z" fill="white"/>
<path d="M21.0002 29.0033C21.18 29.0036 21.3565 28.9553 21.5112 28.8636C21.6659 28.7719 21.793 28.6402 21.8792 28.4823L27.8792 17.4823C28.0062 17.2495 28.0355 16.9757 27.9607 16.7212C27.8859 16.4667 27.713 16.2524 27.4802 16.1253C27.2473 15.9983 26.9735 15.969 26.719 16.0438C26.4645 16.1186 26.2502 16.2915 26.1232 16.5243L20.1232 27.5243C20.0401 27.6766 19.998 27.8478 20.0011 28.0212C20.0042 28.1946 20.0524 28.3642 20.1408 28.5134C20.2293 28.6626 20.355 28.7862 20.5057 28.8721C20.6563 28.958 20.8267 29.0032 21.0002 29.0033Z" fill="white"/>
<path d="M47 8.00345H6C5.73478 8.00345 5.48043 8.10881 5.29289 8.29635C5.10536 8.48388 5 8.73824 5 9.00345C5 9.26867 5.10536 9.52302 5.29289 9.71056C5.48043 9.8981 5.73478 10.0035 6 10.0035H46V43.0035C46 43.7991 45.6839 44.5622 45.1213 45.1248C44.5587 45.6874 43.7957 46.0035 43 46.0035H5C4.20435 46.0035 3.44129 45.6874 2.87868 45.1248C2.31607 44.5622 2 43.7991 2 43.0035V5.00345C2 4.2078 2.31607 3.44474 2.87868 2.88213C3.44129 2.31952 4.20435 2.00345 5 2.00345H42.994C43.394 1.98156 43.7941 2.04412 44.1683 2.18706C44.5425 2.33 44.8825 2.55012 45.166 2.83309C45.4496 3.11607 45.6704 3.45556 45.814 3.8295C45.9577 4.20343 46.0211 4.60342 46 5.00345C46 5.26867 46.1054 5.52302 46.2929 5.71056C46.4804 5.8981 46.7348 6.00345 47 6.00345C47.2652 6.00345 47.5196 5.8981 47.7071 5.71056C47.8946 5.52302 48 5.26867 48 5.00345C48.0251 4.3401 47.913 3.67871 47.6706 3.06071C47.4282 2.44272 47.0608 1.88144 46.5914 1.41204C46.122 0.942641 45.5607 0.575241 44.9427 0.332858C44.3247 0.0904742 43.6634 -0.021669 43 0.00345399H5C3.67441 0.00504185 2.40356 0.532336 1.46622 1.46967C0.528882 2.40701 0.00158786 3.67786 0 5.00345L0 43.0035C0.00158786 44.329 0.528882 45.5999 1.46622 46.5372C2.40356 47.4746 3.67441 48.0019 5 48.0035H43C44.3256 48.0019 45.5964 47.4746 46.5338 46.5372C47.4711 45.5999 47.9984 44.329 48 43.0035V9.00345C48 8.73824 47.8946 8.48388 47.7071 8.29635C47.5196 8.10881 47.2652 8.00345 47 8.00345Z" fill="white"/>
<path d="M6 4.00342C5.73478 4.00342 5.48043 4.10878 5.29289 4.29631C5.10536 4.48385 5 4.7382 5 5.00342C5 5.26863 5.10536 5.52299 5.29289 5.71052C5.48043 5.89806 5.73478 6.00342 6 6.00342H8C8.26522 6.00342 8.51957 5.89806 8.70711 5.71052C8.89464 5.52299 9 5.26863 9 5.00342C9 4.7382 8.89464 4.48385 8.70711 4.29631C8.51957 4.10878 8.26522 4.00342 8 4.00342H6Z" fill="white"/>
<path d="M12 4.00342C11.7348 4.00342 11.4804 4.10878 11.2929 4.29631C11.1054 4.48385 11 4.7382 11 5.00342C11 5.26863 11.1054 5.52299 11.2929 5.71052C11.4804 5.89806 11.7348 6.00342 12 6.00342H14C14.2652 6.00342 14.5196 5.89806 14.7071 5.71052C14.8946 5.52299 15 5.26863 15 5.00342C15 4.7382 14.8946 4.48385 14.7071 4.29631C14.5196 4.10878 14.2652 4.00342 14 4.00342H12Z" fill="white"/>
<path d="M41 4.00342C40.7348 4.00342 40.4804 4.10878 40.2929 4.29631C40.1054 4.48385 40 4.7382 40 5.00342C40 5.26863 40.1054 5.52299 40.2929 5.71052C40.4804 5.89806 40.7348 6.00342 41 6.00342H43C43.2652 6.00342 43.5196 5.89806 43.7071 5.71052C43.8946 5.52299 44 5.26863 44 5.00342C44 4.7382 43.8946 4.48385 43.7071 4.29631C43.5196 4.10878 43.2652 4.00342 43 4.00342H41Z" fill="white"/>
</svg>
