<svg width="413" height="413" viewBox="0 0 413 413" fill="none" xmlns="http://www.w3.org/2000/svg">
<path d="M313.417 118.212C329.999 138.69 340.443 163.446 343.538 189.614C346.633 215.781 342.254 242.291 330.906 266.072C319.559 289.854 301.709 309.936 279.421 323.992C257.134 338.049 231.321 345.506 204.971 345.5C178.62 345.494 152.811 338.025 130.53 323.957C108.249 309.89 90.408 289.8 79.0722 266.013C67.7364 242.226 63.3695 215.714 66.477 189.548C69.5845 163.382 80.0394 138.631 96.6313 118.161" stroke="#13CFFE"/>
<mask id="path-2-inside-1_816_3081" fill="white">
<path d="M106.513 106.522C104.907 104.917 104.904 102.31 106.553 100.751C119.427 88.5845 134.424 78.8629 150.81 72.0755C168.463 64.7635 187.383 61 206.49 61C225.598 61 244.518 64.7635 262.171 72.0755C278.557 78.8629 293.553 88.5845 306.427 100.751C308.077 102.31 308.073 104.917 306.468 106.522C304.863 108.128 302.264 108.123 300.612 106.566C288.503 95.1618 274.413 86.0447 259.025 79.6705C242.369 72.7716 224.518 69.2207 206.49 69.2207C188.462 69.2207 170.611 72.7716 153.956 79.6705C138.567 86.0447 124.478 95.1618 112.369 106.566C110.716 108.123 108.118 108.128 106.513 106.522Z"/>
</mask>
<path d="M106.513 106.522C104.907 104.917 104.904 102.31 106.553 100.751C119.427 88.5845 134.424 78.8629 150.81 72.0755C168.463 64.7635 187.383 61 206.49 61C225.598 61 244.518 64.7635 262.171 72.0755C278.557 78.8629 293.553 88.5845 306.427 100.751C308.077 102.31 308.073 104.917 306.468 106.522C304.863 108.128 302.264 108.123 300.612 106.566C288.503 95.1618 274.413 86.0447 259.025 79.6705C242.369 72.7716 224.518 69.2207 206.49 69.2207C188.462 69.2207 170.611 72.7716 153.956 79.6705C138.567 86.0447 124.478 95.1618 112.369 106.566C110.716 108.123 108.118 108.128 106.513 106.522Z" stroke="#FF6700" stroke-width="12" mask="url(#path-2-inside-1_816_3081)"/>
<g filter="url(#filter0_d_816_3081)">
<circle cx="205.5" cy="205.5" r="128.5" fill="white"/>
</g>
<ellipse cx="97.2852" cy="117.458" rx="3.28521" ry="3.45791" fill="#13CFFE"/>
<ellipse cx="313.285" cy="117.458" rx="3.28521" ry="3.45791" fill="#13CFFE"/>
<defs>
<filter id="filter0_d_816_3081" x="66" y="67" width="279" height="279" filterUnits="userSpaceOnUse" color-interpolation-filters="sRGB">
<feFlood flood-opacity="0" result="BackgroundImageFix"/>
<feColorMatrix in="SourceAlpha" type="matrix" values="0 0 0 0 0 0 0 0 0 0 0 0 0 0 0 0 0 0 127 0" result="hardAlpha"/>
<feMorphology radius="1" operator="dilate" in="SourceAlpha" result="effect1_dropShadow_816_3081"/>
<feOffset dy="1"/>
<feGaussianBlur stdDeviation="5"/>
<feComposite in2="hardAlpha" operator="out"/>
<feColorMatrix type="matrix" values="0 0 0 0 0 0 0 0 0 0 0 0 0 0 0 0 0 0 0.1 0"/>
<feBlend mode="normal" in2="BackgroundImageFix" result="effect1_dropShadow_816_3081"/>
<feBlend mode="normal" in="SourceGraphic" in2="effect1_dropShadow_816_3081" result="shape"/>
</filter>
</defs>
</svg>
