<svg width="45" height="40" viewBox="0 0 45 40" fill="none" xmlns="http://www.w3.org/2000/svg">
<path d="M33.2707 23.0054L22.5372 15.8498C22.3226 15.7067 21.9648 15.7067 21.7501 15.8498L11.0167 23.0054C10.8736 23.1485 10.7305 23.3632 10.7305 23.5778V32.1646C10.7305 32.3793 10.8736 32.5939 11.0882 32.737L21.8217 39.8927C22.0364 40.0358 22.3941 40.0358 22.6088 39.8927L33.3422 32.737C33.5569 32.5939 33.7 32.3793 33.7 32.1646V23.5778C33.6285 23.3632 33.4853 23.1485 33.2707 23.0054ZM15.2385 27.3703L18.1008 24.5081C18.7448 23.8641 19.7466 24.8658 19.1025 25.5099L16.7412 27.8712L19.1025 30.2326C19.3888 30.5188 19.3888 30.9481 19.1025 31.2344C18.8163 31.5206 18.387 31.5206 18.1008 31.2344L15.2385 28.3721C14.9523 28.0859 14.9523 27.6565 15.2385 27.3703ZM20.7483 31.449C20.6052 31.449 20.5337 31.449 20.3906 31.3775C20.0328 31.2344 19.8897 30.805 20.1043 30.4472L22.9666 24.7227C23.3959 23.8641 24.6839 24.5081 24.2546 25.3667L21.3923 31.0912C21.2492 31.3059 21.0346 31.449 20.7483 31.449ZM29.1204 28.3721L26.2582 31.2344C25.9719 31.5206 25.5426 31.5206 25.2564 31.2344C24.9702 30.9481 24.9702 30.5188 25.2564 30.2326L27.6177 27.8712L25.2564 25.5099C24.6124 24.8658 25.6142 23.8641 26.2582 24.5081L29.1204 27.3703C29.4066 27.6565 29.4066 28.0859 29.1204 28.3721Z" fill="#13CFFE"/>
<path d="M1.43112 16.0644V8.19319L11.449 1.53846L21.4669 8.19319V13.5599C21.4669 14.4901 22.898 14.4901 22.898 13.5599V7.83541C22.898 7.62074 22.7549 7.40607 22.6118 7.26296L11.8783 0.107334C11.6637 -0.0357781 11.3059 -0.0357781 11.0912 0.107334L0.357781 7.26296C0.143112 7.40607 0 7.62074 0 7.83541V16.4222C0 16.6368 0.143112 16.8515 0.286225 16.9946L8.6583 22.576C8.80141 22.6475 8.94453 22.7191 9.08764 22.7191C9.8032 22.7191 10.0894 21.7889 9.51698 21.4311C9.44542 21.3595 1.43112 16.0644 1.43112 16.0644Z" fill="#13CFFE"/>
<path d="M44.0757 7.26296L33.3423 0.107334C33.1276 -0.0357781 32.7698 -0.0357781 32.5552 0.107334L24.1831 5.68872C23.8253 5.90339 23.7537 6.33272 23.9684 6.69051C24.1831 7.04829 24.6124 7.11984 24.9702 6.90517L32.9129 1.53846L42.9308 8.19319V15.9928L34.9165 21.3595C34.1294 21.8604 34.9165 23.0769 35.7036 22.576L44.0757 16.9946C44.2904 16.8515 44.3619 16.6368 44.3619 16.4222V7.83541C44.3619 7.62074 44.2188 7.40607 44.0757 7.26296Z" fill="#FF6700"/>
<path d="M6.58409 15.4202C6.87031 15.7064 7.29965 15.778 7.58587 15.4917L11.8792 11.9139C12.0224 11.7708 12.1655 11.5562 12.1655 11.3415C12.1655 11.1268 12.0939 10.9121 11.8792 10.769L7.58587 7.19122C6.87031 6.61877 5.94008 7.69212 6.65564 8.26457L10.305 11.2699L6.65564 14.2753C6.36942 14.7046 6.36942 15.134 6.58409 15.4202Z" fill="#13CFFE"/>
<path d="M12.8813 15.7066H17.1746C18.1049 15.7066 18.1049 14.2755 17.1746 14.2755H12.8813C11.951 14.2755 11.951 15.7066 12.8813 15.7066Z" fill="#13CFFE"/>
<path d="M30.0551 14.9909H35.7796C36.7098 14.9909 36.7098 13.5598 35.7796 13.5598H30.0551C29.1249 13.5598 29.1249 14.9909 30.0551 14.9909Z" fill="#FF6700"/>
<path d="M30.0551 10.6977H35.7796C36.7098 10.6977 36.7098 9.2666 35.7796 9.2666H30.0551C29.1249 9.2666 29.1249 10.6977 30.0551 10.6977Z" fill="#FF6700"/>
</svg>
