<svg width="58" height="56" viewBox="0 0 58 56" fill="none" xmlns="http://www.w3.org/2000/svg">
<path d="M54.6595 23.115H50.0858C50.0316 23.1111 49.9804 23.089 49.9404 23.0523C49.9003 23.0156 49.8739 22.9664 49.8654 22.9128C49.3594 21.0017 48.6027 19.166 47.615 17.4535C47.5846 17.4092 47.5701 17.356 47.5738 17.3024C47.5775 17.2488 47.5991 17.198 47.6352 17.1583L50.8703 13.9636C51.0994 13.7359 51.2812 13.4651 51.4052 13.1668C51.5293 12.8686 51.5931 12.5488 51.5931 12.2257C51.5931 11.9027 51.5293 11.5829 51.4052 11.2846C51.2812 10.9864 51.0994 10.7156 50.8703 10.4879L46.6181 6.23166C46.3914 6.00301 46.1214 5.82179 45.8239 5.69856C45.5264 5.57532 45.2073 5.51254 44.8853 5.51387C44.5602 5.50954 44.2376 5.5719 43.9375 5.6971C43.6374 5.82229 43.3661 6.00766 43.1404 6.24177L39.9497 9.47689C39.9096 9.51282 39.8587 9.53448 39.8049 9.5385C39.7512 9.54252 39.6976 9.52868 39.6525 9.49913C37.9406 8.50982 36.1047 7.75238 34.1932 7.24668C34.1396 7.23815 34.0905 7.21173 34.0537 7.17172C34.017 7.1317 33.9949 7.08045 33.991 7.02629V2.45061C33.99 1.80099 33.7314 1.17829 33.2721 0.718947C32.8128 0.259601 32.1901 0.00106932 31.5404 0H25.5676C24.918 0.00106932 24.2953 0.259601 23.8359 0.718947C23.3766 1.17829 23.1181 1.80099 23.117 2.45061V7.02426C23.1131 7.07843 23.091 7.12968 23.0543 7.16969C23.0176 7.20971 22.9684 7.23613 22.9148 7.24466C21.0033 7.75036 19.1675 8.5078 17.4555 9.49711C17.4111 9.52754 17.3577 9.54192 17.304 9.53788C17.2503 9.53383 17.1997 9.51161 17.1603 9.47487L13.9656 6.23975C13.7395 6.00903 13.4695 5.8258 13.1716 5.70081C12.8737 5.57581 12.5539 5.51157 12.2308 5.51184C11.9086 5.51103 11.5893 5.57404 11.2916 5.69724C10.9938 5.82044 10.7234 6.00139 10.496 6.22964L6.23368 10.4919C6.00461 10.7197 5.82283 10.9904 5.69878 11.2887C5.57473 11.5869 5.51087 11.9068 5.51087 12.2298C5.51087 12.5528 5.57473 12.8726 5.69878 13.1709C5.82283 13.4691 6.00461 13.7399 6.23368 13.9677L9.46881 17.1623C9.5049 17.2021 9.52654 17.2529 9.5302 17.3064C9.53387 17.36 9.51937 17.4132 9.48903 17.4575C8.50153 19.1702 7.74483 21.0058 7.23859 22.9168C7.23006 22.9704 7.20364 23.0196 7.16363 23.0563C7.12361 23.093 7.07236 23.1151 7.0182 23.119H2.45263C1.80267 23.1195 1.17945 23.3778 0.719663 23.8372C0.25988 24.2966 0.00107056 24.9197 0 25.5696V31.5465C0.00213904 32.1958 0.26142 32.8177 0.721088 33.2763C1.18076 33.7348 1.80336 33.9925 2.45263 33.9931H7.02629C7.08033 33.9973 7.1314 34.0195 7.17134 34.0562C7.21129 34.0928 7.23781 34.1418 7.24668 34.1953C7.75287 36.1063 8.50957 37.942 9.49711 39.6545C9.52765 39.6984 9.54229 39.7514 9.53861 39.8047C9.53494 39.858 9.51316 39.9085 9.47689 39.9477L6.24177 43.1424C6.01221 43.3699 5.83 43.6406 5.70564 43.9389C5.58129 44.2371 5.51726 44.5571 5.51726 44.8803C5.51726 45.2034 5.58129 45.5234 5.70564 45.8217C5.83 46.12 6.01221 46.3907 6.24177 46.6181L10.5 50.8764C10.7266 51.1054 10.9965 51.287 11.294 51.4106C11.5915 51.5342 11.9107 51.5973 12.2328 51.5962C12.5567 51.5967 12.8774 51.5324 13.1761 51.4071C13.4747 51.2817 13.7452 51.0978 13.9717 50.8663L17.1644 47.6311L15.6155 46.1025L12.4229 49.3377C12.3966 49.3644 12.3651 49.3854 12.3303 49.3993C12.2955 49.4132 12.2581 49.4198 12.2207 49.4185C12.1494 49.4185 12.081 49.3901 12.0306 49.3397L7.77441 45.0734C7.74922 45.0485 7.72922 45.019 7.71557 44.9863C7.70192 44.9537 7.69489 44.9187 7.69489 44.8833C7.69489 44.8479 7.70192 44.8129 7.71557 44.7803C7.72922 44.7477 7.74922 44.7181 7.77441 44.6932L11.0095 41.4986C11.3872 41.1196 11.629 40.6265 11.6974 40.0959C11.7658 39.5653 11.6569 39.027 11.3876 38.5647C10.4929 37.0203 9.80687 35.364 9.34749 33.6392C9.21388 33.1217 8.91313 32.6628 8.49193 32.3337C8.07074 32.0047 7.55268 31.8239 7.0182 31.8195H2.45263C2.38077 31.8195 2.31186 31.7909 2.26104 31.7401C2.21023 31.6893 2.18169 31.6204 2.18169 31.5485V25.5696C2.18169 25.4978 2.21023 25.4288 2.26104 25.378C2.31186 25.3272 2.38077 25.2987 2.45263 25.2987H7.02629C7.56076 25.2943 8.07883 25.1135 8.50002 24.7844C8.92122 24.4554 9.22197 23.9964 9.35558 23.4789C9.81286 21.7553 10.4961 20.0998 11.3876 18.5555C11.6569 18.0932 11.7658 17.5548 11.6974 17.0243C11.629 16.4937 11.3872 16.0005 11.0095 15.6216L7.77441 12.4249C7.74856 12.4009 7.72801 12.3718 7.71408 12.3394C7.70015 12.307 7.69315 12.2721 7.69353 12.2369C7.69217 12.1994 7.69866 12.162 7.71259 12.1272C7.72652 12.0924 7.74757 12.0609 7.77441 12.0347L12.0347 7.77643C12.061 7.74986 12.0926 7.72911 12.1274 7.71552C12.1622 7.70194 12.1995 7.69582 12.2369 7.69757C12.3055 7.69887 12.3709 7.72721 12.4188 7.77643L15.6155 11.0116C15.9944 11.39 16.4878 11.6325 17.0188 11.7012C17.5498 11.77 18.0887 11.6612 18.5514 11.3917C20.0959 10.5029 21.7515 9.82301 23.4749 9.36973C23.9924 9.23612 24.4513 8.93537 24.7804 8.51417C25.1094 8.09298 25.2902 7.57492 25.2946 7.04044V2.45061C25.2946 2.37875 25.3232 2.30983 25.374 2.25902C25.4248 2.20821 25.4937 2.17967 25.5656 2.17967H31.5425C31.6143 2.17967 31.6832 2.20821 31.7341 2.25902C31.7849 2.30983 31.8134 2.37875 31.8134 2.45061V7.02426C31.8178 7.55874 31.9986 8.07681 32.3276 8.498C32.6567 8.9192 33.1156 9.21995 33.6332 9.35355C35.3565 9.80684 37.0121 10.4868 38.5566 11.3755C39.0181 11.648 39.5567 11.7601 40.0886 11.6943C40.6204 11.6284 41.1155 11.3884 41.4965 11.0116L44.6912 7.77643C44.7174 7.7496 44.7489 7.72854 44.7838 7.71461C44.8186 7.70068 44.8559 7.69419 44.8934 7.69555C44.9629 7.69751 45.029 7.72653 45.0774 7.77643L49.3377 12.0367C49.3882 12.0878 49.4166 12.1569 49.4165 12.2288C49.4184 12.2663 49.4122 12.3038 49.3982 12.3387C49.3842 12.3736 49.3629 12.4051 49.3356 12.431L46.1005 15.6257C45.7229 16.0046 45.4811 16.4977 45.4127 17.0283C45.3443 17.5589 45.4532 18.0972 45.7224 18.5595C46.6108 20.1049 47.2907 21.7611 47.7444 23.485C47.878 24.0025 48.1787 24.4614 48.5999 24.7905C49.0211 25.1196 49.5392 25.3003 50.0737 25.3047H54.6595C54.7313 25.3047 54.8002 25.3333 54.851 25.3841C54.9018 25.4349 54.9304 25.5038 54.9304 25.5757V31.5526C54.9304 31.6244 54.9018 31.6933 54.851 31.7442C54.8002 31.795 54.7313 31.8235 54.6595 31.8235H50.0858C49.5513 31.8279 49.0333 32.0087 48.6121 32.3378C48.1909 32.6668 47.8901 33.1257 47.7565 33.6433C47.3029 35.3659 46.623 37.0207 45.7346 38.5647C45.4648 39.0272 45.3556 39.566 45.424 40.097C45.4924 40.628 45.7345 41.1215 46.1127 41.5006L49.3478 44.6953C49.3735 44.7198 49.3939 44.7493 49.4078 44.782C49.4217 44.8146 49.4288 44.8498 49.4287 44.8853C49.4287 44.9211 49.4216 44.9566 49.4077 44.9896C49.3938 45.0226 49.3735 45.0525 49.3478 45.0774L45.0895 49.3377C45.0644 49.3629 45.0344 49.3829 45.0014 49.3964C44.9684 49.4099 44.9331 49.4168 44.8975 49.4165C44.8617 49.4174 44.8262 49.4108 44.7932 49.3972C44.7601 49.3836 44.7302 49.3634 44.7054 49.3377L41.5127 46.1025L39.9599 47.6352L43.1545 50.8703C43.3817 51.1006 43.6525 51.2834 43.951 51.408C44.2496 51.5326 44.5699 51.5966 44.8934 51.5962C45.2159 51.5975 45.5354 51.5346 45.8333 51.411C46.1312 51.2874 46.4014 51.1056 46.6283 50.8764L50.8784 46.6181C51.1075 46.3902 51.2894 46.1193 51.4134 45.8209C51.5375 45.5224 51.6014 45.2024 51.6014 44.8793C51.6014 44.5561 51.5375 44.2361 51.4134 43.9377C51.2894 43.6393 51.1075 43.3683 50.8784 43.1404L47.6433 39.9457C47.6072 39.9059 47.5855 39.8552 47.5819 39.8016C47.5782 39.748 47.5927 39.6948 47.6231 39.6505C48.6109 37.9381 49.3676 36.1023 49.8735 34.1912C49.8824 34.1377 49.9089 34.0888 49.9488 34.0521C49.9888 34.0155 50.0398 33.9933 50.0939 33.989H54.6595C55.3094 33.9885 55.9326 33.7302 56.3924 33.2708C56.8522 32.8114 57.111 32.1884 57.1121 31.5384V25.5696C57.1121 24.919 56.8537 24.2949 56.3938 23.8346C55.9339 23.3744 55.3101 23.1155 54.6595 23.115Z" fill="white"/>
<path d="M43.6615 26.9851C43.6615 19.7465 38.9908 12.427 28.5576 12.427C18.1243 12.427 13.4536 19.7465 13.4536 26.9851C13.4151 29.1494 13.8389 31.297 14.6967 33.2845C15.5544 35.272 16.8264 37.0535 18.4276 38.5102C20.4495 40.2682 21.7167 42.7374 21.966 45.4051C21.5406 45.7128 21.1942 46.1169 20.9553 46.5844C20.7163 47.0518 20.5915 47.5693 20.5911 48.0943C20.5982 48.9075 20.8987 49.6908 21.4374 50.3001C21.9761 50.9093 22.7167 51.3036 23.5229 51.4103C23.3688 51.8035 23.2866 52.2213 23.2803 52.6436C23.285 53.5324 23.6402 54.3833 24.2686 55.0117C24.897 55.6402 25.748 55.9953 26.6367 56.0001H30.2762C31.1661 55.999 32.0192 55.6451 32.6484 55.0158C33.2776 54.3866 33.6316 53.5335 33.6327 52.6436C33.6312 52.2293 33.5559 51.8184 33.4102 51.4305C34.0943 51.3853 34.7478 51.1305 35.2817 50.7006C35.8157 50.2707 36.2041 49.6866 36.3942 49.028C36.5843 48.3694 36.5667 47.6682 36.3439 47.0199C36.1211 46.3716 35.7039 45.8077 35.1491 45.4051C35.3984 42.7374 36.6656 40.2682 38.6875 38.5102C40.2888 37.0535 41.5607 35.272 42.4185 33.2845C43.2762 31.297 43.7 29.1494 43.6615 26.9851ZM33.1676 49.267H23.9475C23.6365 49.267 23.3382 49.1434 23.1183 48.9235C22.8983 48.7036 22.7748 48.4053 22.7748 48.0943C22.7748 47.7832 22.8983 47.4849 23.1183 47.265C23.3382 47.0451 23.6365 46.9215 23.9475 46.9215H33.1676C33.4786 46.9215 33.7769 47.0451 33.9969 47.265C34.2168 47.4849 34.3403 47.7832 34.3403 48.0943C34.3403 48.4053 34.2168 48.7036 33.9969 48.9235C33.7769 49.1434 33.4786 49.267 33.1676 49.267ZM25.4235 31.9591H24.1093C23.8493 31.9591 23.5952 31.882 23.3791 31.7376C23.163 31.5932 22.9945 31.3879 22.895 31.1477C22.7956 30.9076 22.7695 30.6433 22.8203 30.3884C22.871 30.1335 22.9961 29.8993 23.1799 29.7155C23.3637 29.5317 23.5979 29.4065 23.8529 29.3558C24.1078 29.3051 24.3721 29.3311 24.6122 29.4306C24.8524 29.53 25.0576 29.6985 25.202 29.9146C25.3465 30.1308 25.4235 30.3849 25.4235 30.6448V31.9591ZM27.587 44.7378V34.1226H29.5281V44.7378H27.587ZM33.0059 44.7378H31.6916V34.1226H33.0059C33.6937 34.1226 34.3661 33.9186 34.938 33.5364C35.5099 33.1543 35.9557 32.6112 36.2189 31.9757C36.4821 31.3402 36.551 30.6409 36.4168 29.9663C36.2826 29.2917 35.9514 28.672 35.465 28.1857C34.9786 27.6993 34.359 27.3681 33.6843 27.2339C33.0097 27.0997 32.3105 27.1685 31.675 27.4318C31.0395 27.695 30.4964 28.1407 30.1142 28.7127C29.7321 29.2846 29.5281 29.957 29.5281 30.6448V31.9591H27.587V30.6448C27.587 29.957 27.3831 29.2846 27.0009 28.7127C26.6188 28.1407 26.0756 27.695 25.4401 27.4318C24.8047 27.1685 24.1054 27.0997 23.4308 27.2339C22.7562 27.3681 22.1365 27.6993 21.6501 28.1857C21.1637 28.672 20.8325 29.2917 20.6983 29.9663C20.5641 30.6409 20.633 31.3402 20.8962 31.9757C21.1595 32.6112 21.6052 33.1543 22.1771 33.5364C22.749 33.9186 23.4214 34.1226 24.1093 34.1226H25.4235V44.7378H24.1093C23.7034 41.7729 22.2555 39.0493 20.0249 37.0544C18.6095 35.7927 17.4843 34.2392 16.7269 32.5009C15.9695 30.7626 15.5977 28.8808 15.6373 26.9851C15.6373 21.2832 19.0139 14.6107 28.5576 14.6107C38.1012 14.6107 41.4778 21.2832 41.4778 26.9851C41.5174 28.8808 41.1457 30.7626 40.3882 32.5009C39.6308 34.2392 38.5056 35.7927 37.0902 37.0544C34.8613 39.0472 33.4136 41.7677 33.0059 44.7297V44.7378ZM31.6916 31.9591V30.6448C31.6916 30.3849 31.7687 30.1308 31.9131 29.9146C32.0575 29.6985 32.2628 29.53 32.5029 29.4306C32.7431 29.3311 33.0073 29.3051 33.2623 29.3558C33.5172 29.4065 33.7514 29.5317 33.9352 29.7155C34.119 29.8993 34.2442 30.1335 34.2949 30.3884C34.3456 30.6433 34.3196 30.9076 34.2201 31.1477C34.1206 31.3879 33.9522 31.5932 33.736 31.7376C33.5199 31.882 33.2658 31.9591 33.0059 31.9591H31.6916Z" fill="white"/>
</svg>
