<svg width="56" height="56" viewBox="0 0 56 56" fill="none" xmlns="http://www.w3.org/2000/svg">
<path d="M34.68 15.7888C33.5867 15.7888 32.518 16.113 31.609 16.7204C30.7 17.3278 29.9915 18.1912 29.5731 19.2012C29.1547 20.2113 29.0453 21.3227 29.2586 22.395C29.4718 23.4672 29.9983 24.4522 30.7713 25.2252C31.4141 25.868 32.2055 26.3424 33.0754 26.6063C33.9453 26.8702 34.8669 26.9155 35.7585 26.7381C36.6501 26.5608 37.4842 26.1663 38.1869 25.5896C38.8896 25.0129 39.4392 24.2718 39.7871 23.4319C40.135 22.5921 40.2703 21.6794 40.1812 20.7747C40.0921 19.87 39.7813 19.0013 39.2762 18.2455C38.7712 17.4896 38.0875 16.87 37.2858 16.4415C36.4841 16.013 35.589 15.7888 34.68 15.7888ZM36.5559 23.2067C36.311 23.4695 36.0157 23.6803 35.6876 23.8265C35.3595 23.9726 35.0053 24.0513 34.6462 24.0576C34.2871 24.0639 33.9303 23.9979 33.5973 23.8633C33.2642 23.7288 32.9617 23.5286 32.7077 23.2746C32.4537 23.0206 32.2535 22.7181 32.119 22.385C31.9844 22.052 31.9184 21.6952 31.9247 21.3361C31.931 20.977 32.0096 20.6228 32.1558 20.2947C32.302 19.9666 32.5128 19.6713 32.7756 19.4264C33.2868 18.9426 33.9647 18.6742 34.6686 18.6768C35.3725 18.6795 36.0483 18.953 36.5559 19.4407C37.0567 19.9422 37.3381 20.622 37.3381 21.3308C37.3381 22.0396 37.0567 22.7195 36.5559 23.221V23.2067Z" fill="white"/>
<path d="M7.91816 46.0597L2.4332 51.5375C2.16458 51.8061 2.01367 52.1704 2.01367 52.5503C2.01367 52.9302 2.16458 53.2945 2.4332 53.5631C2.70182 53.8317 3.06614 53.9827 3.44603 53.9827C3.82591 53.9827 4.19023 53.8317 4.45885 53.5631L9.94381 48.0782C10.2115 47.8105 10.3619 47.4475 10.3619 47.0689C10.3619 46.6904 10.2115 46.3273 9.94381 46.0597C9.67614 45.792 9.31309 45.6416 8.93455 45.6416C8.556 45.6416 8.19296 45.792 7.92529 46.0597H7.91816Z" fill="white"/>
<path d="M55.5779 0.41822C55.4237 0.263869 55.2361 0.146955 55.0296 0.0764726C54.8231 0.00599027 54.6032 -0.0161815 54.3868 0.011663L40.6637 1.69495C38.7745 1.93527 37.0185 2.79573 35.6709 4.14143L31.2986 8.5137L23.9021 8.02869C21.3122 7.84267 18.7522 8.67722 16.7696 10.3539L6.55569 18.9487C6.35999 19.1143 6.21255 19.3296 6.12888 19.572C6.04521 19.8143 6.0284 20.0748 6.08023 20.3259C6.13205 20.577 6.25059 20.8095 6.42338 20.9989C6.59617 21.1883 6.81682 21.3277 7.06211 21.4023L15.7639 24.0199L13.0178 26.8016C12.8852 26.9341 12.78 27.0915 12.7082 27.2646C12.6364 27.4378 12.5994 27.6234 12.5994 27.8109C12.5994 27.9984 12.6364 28.184 12.7082 28.3572C12.78 28.5304 12.8852 28.6877 13.0178 28.8202L13.3744 29.1768L8.96651 31.5662C8.48108 31.8325 8.06432 32.2082 7.74924 32.6634C7.43416 33.1187 7.22941 33.6411 7.1512 34.1892C7.073 34.7373 7.12349 35.2961 7.29868 35.8214C7.47387 36.3466 7.76894 36.8238 8.16052 37.2152L18.7667 47.8356C19.4321 48.5032 20.3348 48.8801 21.2773 48.8841C21.4492 48.8843 21.6208 48.8723 21.7909 48.8485C22.3422 48.7722 22.868 48.5681 23.3263 48.2522C23.7845 47.9364 24.1625 47.5177 24.4299 47.0297L26.8336 42.6502L27.1903 43.0069C27.3227 43.1395 27.4801 43.2447 27.6532 43.3165C27.8264 43.3883 28.0121 43.4253 28.1995 43.4253C28.387 43.4253 28.5726 43.3883 28.7458 43.3165C28.919 43.2447 29.0763 43.1395 29.2088 43.0069L31.9834 40.2323L34.601 48.9341C34.6753 49.1799 34.8146 49.4011 35.0042 49.5743C35.1937 49.7476 35.4265 49.8664 35.678 49.9184C35.7753 49.9284 35.8732 49.9284 35.9705 49.9184C36.1783 49.9185 36.3836 49.8733 36.5721 49.7858C36.7606 49.6983 36.9277 49.5707 37.0618 49.4119L45.6636 39.2123C47.341 37.23 48.1756 34.6698 47.9889 32.0798L47.4825 24.6975L51.8547 20.3253C53.1978 18.9767 54.0557 17.2208 54.2941 15.3325L55.9845 1.60936C56.0123 1.39295 55.9902 1.17303 55.9197 0.966529C55.8492 0.760028 55.7323 0.572448 55.5779 0.41822ZM10.4073 19.4408L18.6169 12.5151C20.0402 11.3289 21.8691 10.7432 23.7167 10.8817L28.6168 11.217L18.0605 21.7375L10.4073 19.4408ZM21.9121 45.6531C21.8591 45.7499 21.7842 45.833 21.6935 45.896C21.6028 45.9589 21.4988 45.9999 21.3895 46.0158C21.2803 46.0317 21.1689 46.0221 21.064 45.9876C20.9591 45.9531 20.8637 45.8948 20.7852 45.8171L10.1648 35.211C10.0871 35.1325 10.0288 35.037 9.9943 34.9322C9.95982 34.8273 9.95015 34.7159 9.96605 34.6066C9.98195 34.4974 10.023 34.3933 10.0859 34.3026C10.1489 34.2119 10.232 34.1371 10.3288 34.084L15.4358 31.2809L24.7081 40.5533L21.9121 45.6531ZM45.1144 32.2795C45.2413 34.1261 44.6454 35.9497 43.4525 37.365L36.5553 45.5889L34.2586 37.9356L44.8077 27.3865L45.1144 32.2795ZM51.4339 14.9758C51.2791 16.2387 50.7067 17.4136 49.8077 18.3139L28.1888 39.9755L16.0206 27.8073L37.668 6.15995C38.5683 5.26088 39.7432 4.68848 41.0061 4.53372L52.9603 3.03588L51.4339 14.9758Z" fill="white"/>
<path d="M9.49414 55.5817C9.62663 55.7143 9.78396 55.8196 9.95713 55.8913C10.1303 55.9631 10.3159 56.0001 10.5034 56.0001C10.6909 56.0001 10.8765 55.9631 11.0497 55.8913C11.2228 55.8196 11.3802 55.7143 11.5127 55.5817L14.4442 52.6146C14.7118 52.3469 14.8622 51.9838 14.8622 51.6053C14.8622 51.2267 14.7118 50.8637 14.4442 50.596C14.1765 50.3284 13.8134 50.178 13.4349 50.178C13.0563 50.178 12.6933 50.3284 12.4256 50.596L9.45848 53.5632C9.32816 53.698 9.2257 53.8572 9.15695 54.0316C9.08821 54.2061 9.05453 54.3924 9.05784 54.5798C9.06115 54.7673 9.10139 54.9523 9.17626 55.1242C9.25112 55.2961 9.35914 55.4516 9.49414 55.5817Z" fill="white"/>
<path d="M1.42053 46.9227C1.79825 46.9211 2.15993 46.7698 2.42622 46.5019L5.39338 43.5347C5.59752 43.2585 5.69517 42.918 5.66841 42.5756C5.64165 42.2332 5.49227 41.912 5.2477 41.6709C5.00313 41.4298 4.67979 41.285 4.33706 41.2632C3.99433 41.2413 3.65522 41.3438 3.38199 41.5519L0.414834 44.519C0.216537 44.7185 0.0816347 44.9721 0.0270854 45.2481C-0.0274639 45.524 0.000774692 45.8099 0.108251 46.0698C0.215727 46.3297 0.397644 46.5521 0.631133 46.7089C0.864622 46.8657 1.13926 46.95 1.42053 46.9512V46.9227Z" fill="white"/>
</svg>
