<svg width="43" height="48" viewBox="0 0 43 48" fill="none" xmlns="http://www.w3.org/2000/svg">
<path d="M21.5 0C18.4706 0 16.0041 2.4684 16.0041 5.5C16.0041 8.36315 18.2039 10.7153 21.0004 10.9688V17.0156C18.7962 17.1717 16.8783 18.3451 15.7074 20.0781L10.4769 17.0469C11.6516 14.4977 10.72 11.4149 8.24422 9.98441C5.62069 8.46861 2.24887 9.3745 0.73417 12C-0.780525 14.6255 0.124765 17.9841 2.7483 19.5C5.22841 20.9329 8.3611 20.2083 9.97731 17.9062L15.2078 20.9375C14.7585 21.861 14.5052 22.9056 14.5052 24C14.5052 25.0944 14.7585 26.1235 15.2078 27.0469L9.97731 30.0781C8.36083 27.777 5.22795 27.0517 2.7483 28.4844C0.12477 30.0002 -0.780525 33.3745 0.73417 36C2.24887 38.6255 5.62069 39.5159 8.24422 38C10.724 36.5672 11.6603 33.4891 10.4769 30.9375L15.7074 27.9062C16.8783 29.6388 18.7963 30.8127 21.0004 30.9688V37.0156C18.2039 37.2691 16.0041 39.6368 16.0041 42.5C16.0041 45.5316 18.4706 48 21.5 48C24.5294 48 26.9959 45.5316 26.9959 42.5C26.9959 39.6368 24.7961 37.2691 21.9996 37.0156V30.9688C24.2037 30.8127 26.1217 29.6388 27.2926 27.9062L32.5231 30.9375C31.3397 33.4891 32.276 36.5672 34.7558 38C37.3793 39.5159 40.7511 38.6255 42.2658 36C43.7805 33.3745 42.8752 30.0002 40.2517 28.4844C37.772 27.0517 34.6392 27.777 33.0227 30.0781L27.7922 27.0469C28.2415 26.1235 28.4948 25.0944 28.4948 24C28.4948 22.9056 28.2415 21.861 27.7922 20.9375L33.0227 17.9062C34.6389 20.2083 37.7716 20.9329 40.2517 19.5C42.8752 17.9841 43.7805 14.6255 42.2658 12C40.7511 9.3745 37.3793 8.46861 34.7558 9.98441C32.28 11.4149 31.3484 14.4977 32.5231 17.0469L27.2926 20.0781C26.1217 18.3451 24.2038 17.1717 21.9996 17.0156V10.9688C24.7961 10.7153 26.9959 8.36315 26.9959 5.5C26.9959 2.4684 24.5294 0 21.5 0ZM21.5 1C23.9894 1 25.9967 3.0088 25.9967 5.5C25.9967 7.99125 23.9894 10 21.5 10C19.0106 10 17.0033 7.99125 17.0033 5.5C17.0033 3.0088 19.0106 1 21.5 1ZM7.74459 10.8438C9.90043 12.0893 10.6287 14.8426 9.384 17C8.13932 19.1574 5.40377 19.8862 3.24793 18.6406C1.09208 17.395 0.348225 14.6574 1.59291 12.5C3.20449 10.201 5.65256 9.66765 7.74459 10.8438ZM41.4071 12.5C42.6518 14.6574 41.9079 17.395 39.7521 18.6406C37.5962 19.8862 34.8607 19.1574 33.616 17C32.3713 14.8426 33.0996 12.0893 35.2554 10.8438C37.46 9.6562 40.2971 10.5176 41.4071 12.5ZM9.384 31C10.6287 33.1575 9.90043 35.8951 7.74459 37.1406C5.58874 38.3862 2.83758 37.6575 1.5929 35.5C0.348225 33.3425 1.09208 30.5893 3.24793 29.3438C5.38579 27.9781 8.31458 29.232 9.384 31ZM39.7521 29.3438C41.9079 30.5893 42.6518 33.3425 41.4071 35.5C40.1624 37.6575 37.4113 38.3862 35.2554 37.1406C33.0996 35.8951 32.3713 33.1575 33.616 31C35.2047 28.8771 37.6426 28.1509 39.7521 29.3438ZM21.5 38C23.9894 38 25.9967 40.0088 25.9967 42.5C25.9967 44.9912 23.9894 47 21.5 47C19.0106 47 17.0033 44.9912 17.0033 42.5C17.0033 40.0088 19.0106 38 21.5 38Z" fill="#13CFFE"/>
<circle cx="21.5" cy="24.5" r="7.5" fill="white"/>
<path d="M21.4921 25.2741C22.8253 25.2741 23.9061 24.1934 23.9061 22.8602C23.9061 21.5269 22.8253 20.4462 21.4921 20.4462C20.1589 20.4462 19.0781 21.5269 19.0781 22.8602C19.0781 24.1934 20.1589 25.2741 21.4921 25.2741Z" fill="#FF6700"/>
<path d="M21.4917 17C17.3463 17 14 20.3463 14 24.4917C14 26.9889 15.2153 29.1865 17.0966 30.5516C17.1964 30.6182 17.2797 30.6848 17.3796 30.7514C17.4795 30.818 17.5794 30.8679 17.6792 30.9345C17.6792 30.9345 17.6959 30.9345 17.6959 30.9512C17.7958 31.0011 17.8957 31.0677 17.9956 31.1176C18.0122 31.1176 18.0122 31.1343 18.0289 31.1343C18.1287 31.1842 18.2286 31.2342 18.3119 31.2841C18.3285 31.2841 18.3452 31.3008 18.3452 31.3008C18.4451 31.3507 18.5283 31.384 18.6282 31.434C18.6448 31.434 18.6615 31.4506 18.6781 31.4506C18.7614 31.4839 18.8613 31.5172 18.9612 31.5505C18.9945 31.5671 19.0111 31.5671 19.0444 31.5838C19.1276 31.6171 19.2275 31.6504 19.3108 31.667C19.3441 31.6837 19.3774 31.6837 19.4107 31.7003C19.4939 31.717 19.5771 31.7503 19.6604 31.7669C19.6937 31.7836 19.7436 31.7836 19.7769 31.8002C19.8602 31.8169 19.9267 31.8335 20.01 31.8502C20.0599 31.8668 20.1099 31.8668 20.1598 31.8835C20.2264 31.9001 20.3097 31.9168 20.3762 31.9168C20.4428 31.9334 20.4928 31.9334 20.5594 31.9334C20.626 31.9334 20.6926 31.9501 20.7592 31.9501C20.8257 31.9501 20.909 31.9667 20.9756 31.9667C21.0255 31.9667 21.0755 31.9834 21.1254 31.9834C21.2586 31.9834 21.3751 32 21.5083 32C21.6415 32 21.7747 32 21.8912 31.9834C21.9245 31.9834 21.9578 31.9834 21.9911 31.9834C22.091 31.9834 22.1743 31.9667 22.2741 31.9667C22.3074 31.9667 22.3574 31.9501 22.3907 31.9501C22.4739 31.9334 22.5738 31.9334 22.657 31.9168C22.6903 31.9168 22.7236 31.9001 22.7569 31.9001C22.8402 31.8835 22.9401 31.8668 23.0233 31.8502C23.0566 31.8502 23.0899 31.8335 23.1232 31.8335C23.2064 31.8169 23.3063 31.8002 23.3896 31.7669C23.4229 31.7669 23.4395 31.7503 23.4728 31.7503C23.5727 31.717 23.6559 31.7003 23.7558 31.667C23.7725 31.667 23.8058 31.6504 23.8224 31.6504C23.9223 31.6171 24.0222 31.5838 24.1054 31.5505C24.1221 31.5505 24.1387 31.5339 24.1554 31.5339C24.2553 31.5006 24.3552 31.4506 24.4551 31.4173C24.4717 31.4173 24.4717 31.4007 24.4883 31.4007C24.5882 31.3507 24.6881 31.3174 24.788 31.2675C24.8047 31.2675 24.8047 31.2508 24.8213 31.2508C24.9212 31.2009 25.0211 31.1509 25.121 31.0844C25.121 31.0844 25.1376 31.0844 25.1376 31.0677C25.2375 31.0178 25.3374 30.9512 25.4373 30.8846C25.5372 30.818 25.6371 30.7514 25.737 30.6848C27.7014 29.303 28.9834 27.0555 28.9834 24.4917C28.9834 20.3463 25.6371 17 21.4917 17ZM26.7525 28.5538C26.6027 27.1387 25.5705 25.9734 24.1554 25.6903C23.6726 25.5905 23.1565 25.5239 22.6071 25.4739C22.2741 25.6071 21.9245 25.6903 21.5416 25.6903C21.1754 25.6903 20.8091 25.6238 20.4928 25.4906C19.96 25.5405 19.4772 25.6071 19.0111 25.6903C17.5627 25.9734 16.4972 27.222 16.414 28.687C16.414 28.7203 16.414 28.7536 16.414 28.7869C15.4317 27.6215 14.8324 26.1232 14.8324 24.4917C14.8324 20.8124 17.8124 17.8324 21.4917 17.8324C25.1709 17.8324 28.1509 20.8124 28.1509 24.4917C28.1509 26.0233 27.6349 27.4384 26.7525 28.5538Z" fill="#FF6700"/>
</svg>
