<svg width="48" height="48" viewBox="0 0 48 48" fill="none" xmlns="http://www.w3.org/2000/svg">
<path d="M15.2002 16.8V31.2C15.2002 31.6243 15.3688 32.0313 15.6688 32.3313C15.9689 32.6314 16.3758 32.8 16.8002 32.8H31.2002C31.6245 32.8 32.0315 32.6314 32.3316 32.3313C32.6316 32.0313 32.8002 31.6243 32.8002 31.2V16.8C32.8002 16.3756 32.6316 15.9686 32.3316 15.6686C32.0315 15.3685 31.6245 15.2 31.2002 15.2H16.8002C16.3758 15.2 15.9689 15.3685 15.6688 15.6686C15.3688 15.9686 15.2002 16.3756 15.2002 16.8ZM17.6002 19.2C17.6002 18.7756 17.7688 18.3686 18.0688 18.0686C18.3689 17.7685 18.7758 17.6 19.2002 17.6H24.8002C25.0124 17.6 25.2159 17.6842 25.3659 17.8343C25.5159 17.9843 25.6002 18.1878 25.6002 18.4C25.6002 18.6121 25.5159 18.8156 25.3659 18.9656C25.2159 19.1157 25.0124 19.2 24.8002 19.2H19.2002V21.6C19.2002 21.8121 19.1159 22.0156 18.9659 22.1656C18.8159 22.3157 18.6124 22.4 18.4002 22.4C18.188 22.4 17.9845 22.3157 17.8345 22.1656C17.6845 22.0156 17.6002 21.8121 17.6002 21.6V19.2ZM17.6002 24.8C17.6002 24.5878 17.6845 24.3843 17.8345 24.2343C17.9845 24.0842 18.188 24 18.4002 24C18.6124 24 18.8159 24.0842 18.9659 24.2343C19.1159 24.3843 19.2002 24.5878 19.2002 24.8V27.2C19.2002 27.4121 19.1159 27.6156 18.9659 27.7656C18.8159 27.9157 18.6124 28 18.4002 28C18.188 28 17.9845 27.9157 17.8345 27.7656C17.6845 27.6156 17.6002 27.4121 17.6002 27.2V24.8Z" fill="#FF6700"/>
<path d="M0.8 4C1.01217 4 1.21566 3.91571 1.36569 3.76569C1.51571 3.61566 1.6 3.41217 1.6 3.2V1.6H3.2C3.41217 1.6 3.61566 1.51571 3.76569 1.36569C3.91571 1.21566 4 1.01217 4 0.8C4 0.587827 3.91571 0.384344 3.76569 0.234315C3.61566 0.0842855 3.41217 0 3.2 0L1.6 0C1.17565 0 0.768687 0.168571 0.468629 0.468629C0.168571 0.768687 0 1.17565 0 1.6L0 3.2C0 3.41217 0.0842855 3.61566 0.234315 3.76569C0.384344 3.91571 0.587827 4 0.8 4Z" fill="#13CFFE"/>
<path d="M22.4 1.6C22.6122 1.6 22.8157 1.51571 22.9657 1.36569C23.1157 1.21566 23.2 1.01217 23.2 0.8C23.2 0.587827 23.1157 0.384344 22.9657 0.234315C22.8157 0.0842855 22.6122 0 22.4 0L20.8 0C20.5878 0 20.3843 0.0842855 20.2343 0.234315C20.0843 0.384344 20 0.587827 20 0.8C20 1.01217 20.0843 1.21566 20.2343 1.36569C20.3843 1.51571 20.5878 1.6 20.8 1.6H22.4Z" fill="#13CFFE"/>
<path d="M17.6002 0H16.0002C15.788 0 15.5845 0.0842855 15.4345 0.234315C15.2845 0.384344 15.2002 0.587827 15.2002 0.8C15.2002 1.01217 15.2845 1.21566 15.4345 1.36569C15.5845 1.51571 15.788 1.6 16.0002 1.6H17.6002C17.8124 1.6 18.0159 1.51571 18.1659 1.36569C18.3159 1.21566 18.4002 1.01217 18.4002 0.8C18.4002 0.587827 18.3159 0.384344 18.1659 0.234315C18.0159 0.0842855 17.8124 0 17.6002 0Z" fill="#13CFFE"/>
<path d="M12.8004 0H11.2004C10.9882 0 10.7847 0.0842855 10.6347 0.234315C10.4847 0.384344 10.4004 0.587827 10.4004 0.8C10.4004 1.01217 10.4847 1.21566 10.6347 1.36569C10.7847 1.51571 10.9882 1.6 11.2004 1.6H12.8004C13.0126 1.6 13.216 1.51571 13.3661 1.36569C13.5161 1.21566 13.6004 1.01217 13.6004 0.8C13.6004 0.587827 13.5161 0.384344 13.3661 0.234315C13.216 0.0842855 13.0126 0 12.8004 0Z" fill="#13CFFE"/>
<path d="M7.99961 1.6C8.21178 1.6 8.41527 1.51571 8.56529 1.36569C8.71532 1.21566 8.79961 1.01217 8.79961 0.8C8.79961 0.587827 8.71532 0.384344 8.56529 0.234315C8.41527 0.0842855 8.21178 0 7.99961 0L6.39961 0C6.18744 0 5.98395 0.0842855 5.83392 0.234315C5.6839 0.384344 5.59961 0.587827 5.59961 0.8C5.59961 1.01217 5.6839 1.21566 5.83392 1.36569C5.98395 1.51571 6.18744 1.6 6.39961 1.6H7.99961Z" fill="#13CFFE"/>
<path d="M46.4 0H44.8C44.5878 0 44.3843 0.0842855 44.2343 0.234315C44.0843 0.384344 44 0.587827 44 0.8C44 1.01217 44.0843 1.21566 44.2343 1.36569C44.3843 1.51571 44.5878 1.6 44.8 1.6H46.4V3.2C46.4 3.41217 46.4843 3.61566 46.6343 3.76569C46.7843 3.91571 46.9878 4 47.2 4C47.4122 4 47.6157 3.91571 47.7657 3.76569C47.9157 3.61566 48 3.41217 48 3.2V1.6C48 1.17565 47.8314 0.768687 47.5314 0.468629C47.2313 0.168571 46.8243 0 46.4 0Z" fill="#13CFFE"/>
<path d="M27.1998 1.6C27.412 1.6 27.6155 1.51571 27.7655 1.36569C27.9155 1.21566 27.9998 1.01217 27.9998 0.8C27.9998 0.587827 27.9155 0.384344 27.7655 0.234315C27.6155 0.0842855 27.412 0 27.1998 0L25.5998 0C25.3876 0 25.1841 0.0842855 25.0341 0.234315C24.8841 0.384344 24.7998 0.587827 24.7998 0.8C24.7998 1.01217 24.8841 1.21566 25.0341 1.36569C25.1841 1.51571 25.3876 1.6 25.5998 1.6H27.1998Z" fill="#13CFFE"/>
<path d="M31.9996 1.6C32.2118 1.6 32.4153 1.51571 32.5653 1.36569C32.7153 1.21566 32.7996 1.01217 32.7996 0.8C32.7996 0.587827 32.7153 0.384344 32.5653 0.234315C32.4153 0.0842855 32.2118 0 31.9996 0L30.3996 0C30.1874 0 29.984 0.0842855 29.8339 0.234315C29.6839 0.384344 29.5996 0.587827 29.5996 0.8C29.5996 1.01217 29.6839 1.21566 29.8339 1.36569C29.984 1.51571 30.1874 1.6 30.3996 1.6H31.9996Z" fill="#13CFFE"/>
<path d="M36.8004 1.6C37.0126 1.6 37.216 1.51571 37.3661 1.36569C37.5161 1.21566 37.6004 1.01217 37.6004 0.8C37.6004 0.587827 37.5161 0.384344 37.3661 0.234315C37.216 0.0842855 37.0126 0 36.8004 0L35.2004 0C34.9882 0 34.7847 0.0842855 34.6347 0.234315C34.4847 0.384344 34.4004 0.587827 34.4004 0.8C34.4004 1.01217 34.4847 1.21566 34.6347 1.36569C34.7847 1.51571 34.9882 1.6 35.2004 1.6H36.8004Z" fill="#13CFFE"/>
<path d="M41.6002 1.6C41.8124 1.6 42.0159 1.51571 42.1659 1.36569C42.3159 1.21566 42.4002 1.01217 42.4002 0.8C42.4002 0.587827 42.3159 0.384344 42.1659 0.234315C42.0159 0.0842855 41.8124 0 41.6002 0L40.0002 0C39.788 0 39.5845 0.0842855 39.4345 0.234315C39.2845 0.384344 39.2002 0.587827 39.2002 0.8C39.2002 1.01217 39.2845 1.21566 39.4345 1.36569C39.5845 1.51571 39.788 1.6 40.0002 1.6H41.6002Z" fill="#13CFFE"/>
<path d="M0.8 23.2C1.01217 23.2 1.21566 23.1157 1.36569 22.9657C1.51571 22.8157 1.6 22.6122 1.6 22.4V20.8C1.6 20.5878 1.51571 20.3843 1.36569 20.2343C1.21566 20.0843 1.01217 20 0.8 20C0.587827 20 0.384344 20.0843 0.234315 20.2343C0.0842855 20.3843 0 20.5878 0 20.8L0 22.4C0 22.6122 0.0842855 22.8157 0.234315 22.9657C0.384344 23.1157 0.587827 23.2 0.8 23.2Z" fill="#13CFFE"/>
<path d="M0.8 18.4C1.01217 18.4 1.21566 18.3157 1.36569 18.1656C1.51571 18.0156 1.6 17.8121 1.6 17.6V16C1.6 15.7878 1.51571 15.5843 1.36569 15.4343C1.21566 15.2842 1.01217 15.2 0.8 15.2C0.587827 15.2 0.384344 15.2842 0.234315 15.4343C0.0842855 15.5843 0 15.7878 0 16L0 17.6C0 17.8121 0.0842855 18.0156 0.234315 18.1656C0.384344 18.3157 0.587827 18.4 0.8 18.4Z" fill="#13CFFE"/>
<path d="M0.8 13.6C1.01217 13.6 1.21566 13.5157 1.36569 13.3657C1.51571 13.2157 1.6 13.0122 1.6 12.8V11.2C1.6 10.9879 1.51571 10.7844 1.36569 10.6343C1.21566 10.4843 1.01217 10.4 0.8 10.4C0.587827 10.4 0.384344 10.4843 0.234315 10.6343C0.0842855 10.7844 0 10.9879 0 11.2L0 12.8C0 13.0122 0.0842855 13.2157 0.234315 13.3657C0.384344 13.5157 0.587827 13.6 0.8 13.6Z" fill="#13CFFE"/>
<path d="M0.8 8.79998C1.01217 8.79998 1.21566 8.71569 1.36569 8.56566C1.51571 8.41563 1.6 8.21215 1.6 7.99998V6.39998C1.6 6.1878 1.51571 5.98432 1.36569 5.83429C1.21566 5.68426 1.01217 5.59998 0.8 5.59998C0.587827 5.59998 0.384344 5.68426 0.234315 5.83429C0.0842855 5.98432 0 6.1878 0 6.39998L0 7.99998C0 8.21215 0.0842855 8.41563 0.234315 8.56566C0.384344 8.71569 0.587827 8.79998 0.8 8.79998Z" fill="#13CFFE"/>
<path d="M0.8 28C1.01217 28 1.21566 27.9158 1.36569 27.7657C1.51571 27.6157 1.6 27.4122 1.6 27.2V25.6C1.6 25.3879 1.51571 25.1844 1.36569 25.0344C1.21566 24.8843 1.01217 24.8 0.8 24.8C0.587827 24.8 0.384344 24.8843 0.234315 25.0344C0.0842855 25.1844 0 25.3879 0 25.6L0 27.2C0 27.4122 0.0842855 27.6157 0.234315 27.7657C0.384344 27.9158 0.587827 28 0.8 28Z" fill="#13CFFE"/>
<path d="M0.8 32.8C1.01217 32.8 1.21566 32.7157 1.36569 32.5657C1.51571 32.4156 1.6 32.2121 1.6 32V30.4C1.6 30.1878 1.51571 29.9843 1.36569 29.8343C1.21566 29.6843 1.01217 29.6 0.8 29.6C0.587827 29.6 0.384344 29.6843 0.234315 29.8343C0.0842855 29.9843 0 30.1878 0 30.4L0 32C0 32.2121 0.0842855 32.4156 0.234315 32.5657C0.384344 32.7157 0.587827 32.8 0.8 32.8Z" fill="#13CFFE"/>
<path d="M0.8 37.6C1.01217 37.6 1.21566 37.5157 1.36569 37.3657C1.51571 37.2157 1.6 37.0122 1.6 36.8V35.2C1.6 34.9879 1.51571 34.7844 1.36569 34.6343C1.21566 34.4843 1.01217 34.4 0.8 34.4C0.587827 34.4 0.384344 34.4843 0.234315 34.6343C0.0842855 34.7844 0 34.9879 0 35.2L0 36.8C0 37.0122 0.0842855 37.2157 0.234315 37.3657C0.384344 37.5157 0.587827 37.6 0.8 37.6Z" fill="#13CFFE"/>
<path d="M0.8 42.4C1.01217 42.4 1.21566 42.3157 1.36569 42.1656C1.51571 42.0156 1.6 41.8121 1.6 41.6V40C1.6 39.7878 1.51571 39.5843 1.36569 39.4343C1.21566 39.2842 1.01217 39.2 0.8 39.2C0.587827 39.2 0.384344 39.2842 0.234315 39.4343C0.0842855 39.5843 0 39.7878 0 40L0 41.6C0 41.8121 0.0842855 42.0156 0.234315 42.1656C0.384344 42.3157 0.587827 42.4 0.8 42.4Z" fill="#13CFFE"/>
<path d="M47.2004 20C46.9882 20 46.7847 20.0843 46.6347 20.2343C46.4847 20.3843 46.4004 20.5878 46.4004 20.8V22.4C46.4004 22.6122 46.4847 22.8157 46.6347 22.9657C46.7847 23.1157 46.9882 23.2 47.2004 23.2C47.4126 23.2 47.616 23.1157 47.7661 22.9657C47.9161 22.8157 48.0004 22.6122 48.0004 22.4V20.8C48.0004 20.5878 47.9161 20.3843 47.7661 20.2343C47.616 20.0843 47.4126 20 47.2004 20Z" fill="#13CFFE"/>
<path d="M47.2004 15.2C46.9882 15.2 46.7847 15.2842 46.6347 15.4343C46.4847 15.5843 46.4004 15.7878 46.4004 16V17.6C46.4004 17.8121 46.4847 18.0156 46.6347 18.1656C46.7847 18.3157 46.9882 18.4 47.2004 18.4C47.4126 18.4 47.616 18.3157 47.7661 18.1656C47.9161 18.0156 48.0004 17.8121 48.0004 17.6V16C48.0004 15.7878 47.9161 15.5843 47.7661 15.4343C47.616 15.2842 47.4126 15.2 47.2004 15.2Z" fill="#13CFFE"/>
<path d="M47.2004 10.4C46.9882 10.4 46.7847 10.4843 46.6347 10.6343C46.4847 10.7844 46.4004 10.9879 46.4004 11.2V12.8C46.4004 13.0122 46.4847 13.2157 46.6347 13.3657C46.7847 13.5157 46.9882 13.6 47.2004 13.6C47.4126 13.6 47.616 13.5157 47.7661 13.3657C47.9161 13.2157 48.0004 13.0122 48.0004 12.8V11.2C48.0004 10.9879 47.9161 10.7844 47.7661 10.6343C47.616 10.4843 47.4126 10.4 47.2004 10.4Z" fill="#13CFFE"/>
<path d="M47.2004 5.59998C46.9882 5.59998 46.7847 5.68426 46.6347 5.83429C46.4847 5.98432 46.4004 6.1878 46.4004 6.39998V7.99998C46.4004 8.21215 46.4847 8.41563 46.6347 8.56566C46.7847 8.71569 46.9882 8.79998 47.2004 8.79998C47.4126 8.79998 47.616 8.71569 47.7661 8.56566C47.9161 8.41563 48.0004 8.21215 48.0004 7.99998V6.39998C48.0004 6.1878 47.9161 5.98432 47.7661 5.83429C47.616 5.68426 47.4126 5.59998 47.2004 5.59998Z" fill="#13CFFE"/>
<path d="M47.2004 24.8C46.9882 24.8 46.7847 24.8843 46.6347 25.0344C46.4847 25.1844 46.4004 25.3879 46.4004 25.6V27.2C46.4004 27.4122 46.4847 27.6157 46.6347 27.7657C46.7847 27.9158 46.9882 28 47.2004 28C47.4126 28 47.616 27.9158 47.7661 27.7657C47.9161 27.6157 48.0004 27.4122 48.0004 27.2V25.6C48.0004 25.3879 47.9161 25.1844 47.7661 25.0344C47.616 24.8843 47.4126 24.8 47.2004 24.8Z" fill="#13CFFE"/>
<path d="M47.2004 29.6C46.9882 29.6 46.7847 29.6843 46.6347 29.8343C46.4847 29.9843 46.4004 30.1878 46.4004 30.4V32C46.4004 32.2121 46.4847 32.4156 46.6347 32.5657C46.7847 32.7157 46.9882 32.8 47.2004 32.8C47.4126 32.8 47.616 32.7157 47.7661 32.5657C47.9161 32.4156 48.0004 32.2121 48.0004 32V30.4C48.0004 30.1878 47.9161 29.9843 47.7661 29.8343C47.616 29.6843 47.4126 29.6 47.2004 29.6Z" fill="#13CFFE"/>
<path d="M47.2004 34.4C46.9882 34.4 46.7847 34.4843 46.6347 34.6343C46.4847 34.7844 46.4004 34.9879 46.4004 35.2V36.8C46.4004 37.0122 46.4847 37.2157 46.6347 37.3657C46.7847 37.5157 46.9882 37.6 47.2004 37.6C47.4126 37.6 47.616 37.5157 47.7661 37.3657C47.9161 37.2157 48.0004 37.0122 48.0004 36.8V35.2C48.0004 34.9879 47.9161 34.7844 47.7661 34.6343C47.616 34.4843 47.4126 34.4 47.2004 34.4Z" fill="#13CFFE"/>
<path d="M47.2004 39.2C46.9882 39.2 46.7847 39.2842 46.6347 39.4343C46.4847 39.5843 46.4004 39.7878 46.4004 40V41.6C46.4004 41.8121 46.4847 42.0156 46.6347 42.1656C46.7847 42.3157 46.9882 42.4 47.2004 42.4C47.4126 42.4 47.616 42.3157 47.7661 42.1656C47.9161 42.0156 48.0004 41.8121 48.0004 41.6V40C48.0004 39.7878 47.9161 39.5843 47.7661 39.4343C47.616 39.2842 47.4126 39.2 47.2004 39.2Z" fill="#13CFFE"/>
<path d="M3.2 48C3.41217 48 3.61566 47.9157 3.76569 47.7657C3.91571 47.6157 4 47.4122 4 47.2C4 46.9878 3.91571 46.7843 3.76569 46.6343C3.61566 46.4843 3.41217 46.4 3.2 46.4H1.6V44.8C1.6 44.5878 1.51571 44.3843 1.36569 44.2343C1.21566 44.0843 1.01217 44 0.8 44C0.587827 44 0.384344 44.0843 0.234315 44.2343C0.0842855 44.3843 0 44.5878 0 44.8L0 46.4C0 46.8243 0.168571 47.2313 0.468629 47.5314C0.768687 47.8314 1.17565 48 1.6 48H3.2Z" fill="#13CFFE"/>
<path d="M22.4 48C22.6122 48 22.8157 47.9157 22.9657 47.7657C23.1157 47.6157 23.2 47.4122 23.2 47.2C23.2 46.9879 23.1157 46.7844 22.9657 46.6343C22.8157 46.4843 22.6122 46.4 22.4 46.4H20.8C20.5878 46.4 20.3843 46.4843 20.2343 46.6343C20.0843 46.7844 20 46.9879 20 47.2C20 47.4122 20.0843 47.6157 20.2343 47.7657C20.3843 47.9157 20.5878 48 20.8 48H22.4Z" fill="#13CFFE"/>
<path d="M18.4002 47.2C18.4002 46.9879 18.3159 46.7844 18.1659 46.6343C18.0159 46.4843 17.8124 46.4 17.6002 46.4H16.0002C15.788 46.4 15.5845 46.4843 15.4345 46.6343C15.2845 46.7844 15.2002 46.9879 15.2002 47.2C15.2002 47.4122 15.2845 47.6157 15.4345 47.7657C15.5845 47.9157 15.788 48 16.0002 48H17.6002C17.8124 48 18.0159 47.9157 18.1659 47.7657C18.3159 47.6157 18.4002 47.4122 18.4002 47.2Z" fill="#13CFFE"/>
<path d="M11.2004 46.4C10.9882 46.4 10.7847 46.4843 10.6347 46.6343C10.4847 46.7844 10.4004 46.9879 10.4004 47.2C10.4004 47.4122 10.4847 47.6157 10.6347 47.7657C10.7847 47.9157 10.9882 48 11.2004 48H12.8004C13.0126 48 13.216 47.9157 13.3661 47.7657C13.5161 47.6157 13.6004 47.4122 13.6004 47.2C13.6004 46.9879 13.5161 46.7844 13.3661 46.6343C13.216 46.4843 13.0126 46.4 12.8004 46.4H11.2004Z" fill="#13CFFE"/>
<path d="M6.39961 48H7.99961C8.21178 48 8.41527 47.9157 8.56529 47.7657C8.71532 47.6157 8.79961 47.4122 8.79961 47.2C8.79961 46.9879 8.71532 46.7844 8.56529 46.6343C8.41527 46.4843 8.21178 46.4 7.99961 46.4H6.39961C6.18744 46.4 5.98395 46.4843 5.83392 46.6343C5.6839 46.7844 5.59961 46.9879 5.59961 47.2C5.59961 47.4122 5.6839 47.6157 5.83392 47.7657C5.98395 47.9157 6.18744 48 6.39961 48Z" fill="#13CFFE"/>
<path d="M47.2 44C46.9878 44 46.7843 44.0843 46.6343 44.2343C46.4843 44.3843 46.4 44.5878 46.4 44.8V46.4H44.8C44.5878 46.4 44.3843 46.4843 44.2343 46.6343C44.0843 46.7843 44 46.9878 44 47.2C44 47.4122 44.0843 47.6157 44.2343 47.7657C44.3843 47.9157 44.5878 48 44.8 48H46.4C46.8243 48 47.2313 47.8314 47.5314 47.5314C47.8314 47.2313 48 46.8243 48 46.4V44.8C48 44.5878 47.9157 44.3843 47.7657 44.2343C47.6157 44.0843 47.4122 44 47.2 44Z" fill="#13CFFE"/>
<path d="M27.1998 48C27.412 48 27.6155 47.9157 27.7655 47.7657C27.9155 47.6157 27.9998 47.4122 27.9998 47.2C27.9998 46.9879 27.9155 46.7844 27.7655 46.6343C27.6155 46.4843 27.412 46.4 27.1998 46.4H25.5998C25.3876 46.4 25.1841 46.4843 25.0341 46.6343C24.8841 46.7844 24.7998 46.9879 24.7998 47.2C24.7998 47.4122 24.8841 47.6157 25.0341 47.7657C25.1841 47.9157 25.3876 48 25.5998 48H27.1998Z" fill="#13CFFE"/>
<path d="M32.7996 47.2C32.7996 46.9879 32.7153 46.7844 32.5653 46.6343C32.4153 46.4843 32.2118 46.4 31.9996 46.4H30.3996C30.1874 46.4 29.984 46.4843 29.8339 46.6343C29.6839 46.7844 29.5996 46.9879 29.5996 47.2C29.5996 47.4122 29.6839 47.6157 29.8339 47.7657C29.984 47.9157 30.1874 48 30.3996 48H31.9996C32.2118 48 32.4153 47.9157 32.5653 47.7657C32.7153 47.6157 32.7996 47.4122 32.7996 47.2Z" fill="#13CFFE"/>
<path d="M36.8004 48C37.0126 48 37.216 47.9157 37.3661 47.7657C37.5161 47.6157 37.6004 47.4122 37.6004 47.2C37.6004 46.9879 37.5161 46.7844 37.3661 46.6343C37.216 46.4843 37.0126 46.4 36.8004 46.4H35.2004C34.9882 46.4 34.7847 46.4843 34.6347 46.6343C34.4847 46.7844 34.4004 46.9879 34.4004 47.2C34.4004 47.4122 34.4847 47.6157 34.6347 47.7657C34.7847 47.9157 34.9882 48 35.2004 48H36.8004Z" fill="#13CFFE"/>
<path d="M42.4002 47.2C42.4002 46.9879 42.3159 46.7844 42.1659 46.6343C42.0159 46.4843 41.8124 46.4 41.6002 46.4H40.0002C39.788 46.4 39.5845 46.4843 39.4345 46.6343C39.2845 46.7844 39.2002 46.9879 39.2002 47.2C39.2002 47.4122 39.2845 47.6157 39.4345 47.7657C39.5845 47.9157 39.788 48 40.0002 48H41.6002C41.8124 48 42.0159 47.9157 42.1659 47.7657C42.3159 47.6157 42.4002 47.4122 42.4002 47.2Z" fill="#13CFFE"/>
<path d="M4.7998 5.60005V9.60005C4.7998 9.81222 4.88409 10.0157 5.03412 10.1657C5.18415 10.3158 5.38763 10.4 5.5998 10.4C5.81198 10.4 6.01546 10.3158 6.16549 10.1657C6.31552 10.0157 6.3998 9.81222 6.3998 9.60005V7.53125L12.2342 13.3656C12.3851 13.5114 12.5872 13.592 12.7969 13.5902C13.0067 13.5884 13.2073 13.5042 13.3557 13.3559C13.504 13.2076 13.5881 13.0069 13.5899 12.7972C13.5918 12.5874 13.5111 12.3853 13.3654 12.2344L7.531 6.40005H9.5998C9.81198 6.40005 10.0155 6.31576 10.1655 6.16573C10.3155 6.0157 10.3998 5.81222 10.3998 5.60005C10.3998 5.38788 10.3155 5.18439 10.1655 5.03436C10.0155 4.88433 9.81198 4.80005 9.5998 4.80005H5.5998C5.38763 4.80005 5.18415 4.88433 5.03412 5.03436C4.88409 5.18439 4.7998 5.38788 4.7998 5.60005Z" fill="#13CFFE"/>
<path d="M5.5998 43.2H9.5998C9.81198 43.2 10.0155 43.1157 10.1655 42.9656C10.3155 42.8156 10.3998 42.6121 10.3998 42.4C10.3998 42.1878 10.3155 41.9843 10.1655 41.8343C10.0155 41.6842 9.81198 41.6 9.5998 41.6H7.531L13.3654 35.7656C13.5111 35.6147 13.5918 35.4126 13.5899 35.2028C13.5881 34.9931 13.504 34.7924 13.3557 34.6441C13.2073 34.4958 13.0067 34.4116 12.7969 34.4098C12.5872 34.408 12.3851 34.4886 12.2342 34.6344L6.3998 40.4688V38.4C6.3998 38.1878 6.31552 37.9843 6.16549 37.8343C6.01546 37.6842 5.81198 37.6 5.5998 37.6C5.38763 37.6 5.18415 37.6842 5.03412 37.8343C4.88409 37.9843 4.7998 38.1878 4.7998 38.4V42.4C4.7998 42.6121 4.88409 42.8156 5.03412 42.9656C5.18415 43.1157 5.38763 43.2 5.5998 43.2Z" fill="#13CFFE"/>
<path d="M43.2003 42.4V38.4C43.2003 38.1878 43.116 37.9843 42.966 37.8343C42.816 37.6842 42.6125 37.6 42.4003 37.6C42.1882 37.6 41.9847 37.6842 41.8346 37.8343C41.6846 37.9843 41.6003 38.1878 41.6003 38.4V40.4688L35.7659 34.6344C35.615 34.4886 35.413 34.408 35.2032 34.4098C34.9934 34.4116 34.7928 34.4958 34.6445 34.6441C34.4961 34.7924 34.412 34.9931 34.4102 35.2028C34.4084 35.4126 34.489 35.6147 34.6347 35.7656L40.4691 41.6H38.4003C38.1882 41.6 37.9847 41.6842 37.8346 41.8343C37.6846 41.9843 37.6003 42.1878 37.6003 42.4C37.6003 42.6121 37.6846 42.8156 37.8346 42.9656C37.9847 43.1157 38.1882 43.2 38.4003 43.2H42.4003C42.6125 43.2 42.816 43.1157 42.966 42.9656C43.116 42.8156 43.2003 42.6121 43.2003 42.4Z" fill="#13CFFE"/>
<path d="M43.1995 5.60005C43.1995 5.38788 43.1152 5.18439 42.9652 5.03436C42.8151 4.88433 42.6117 4.80005 42.3995 4.80005H38.3995C38.1873 4.80005 37.9838 4.88433 37.8338 5.03436C37.6838 5.18439 37.5995 5.38788 37.5995 5.60005C37.5995 5.81222 37.6838 6.0157 37.8338 6.16573C37.9838 6.31576 38.1873 6.40005 38.3995 6.40005H40.4683L34.6339 12.2344C34.5575 12.3082 34.4965 12.3965 34.4546 12.4941C34.4127 12.5917 34.3906 12.6967 34.3897 12.8029C34.3888 12.9092 34.409 13.0145 34.4492 13.1128C34.4894 13.2111 34.5488 13.3005 34.624 13.3756C34.6991 13.4507 34.7884 13.5101 34.8867 13.5503C34.985 13.5905 35.0904 13.6108 35.1966 13.6098C35.3028 13.6089 35.4078 13.5869 35.5054 13.5449C35.603 13.503 35.6913 13.4421 35.7651 13.3656L41.5995 7.53125V9.60005C41.5995 9.81222 41.6838 10.0157 41.8338 10.1657C41.9838 10.3158 42.1873 10.4 42.3995 10.4C42.6117 10.4 42.8151 10.3158 42.9652 10.1657C43.1152 10.0157 43.1995 9.81222 43.1995 9.60005V5.60005Z" fill="#13CFFE"/>
</svg>
