<svg width="48" height="48" viewBox="0 0 48 48" fill="none" xmlns="http://www.w3.org/2000/svg">
<path d="M22.5999 30.9677H20.2773V33.2902H22.5999V30.9677Z" fill="#FF6700"/>
<path d="M27.2435 30.9677H24.9209V33.2902H27.2435V30.9677Z" fill="#FF6700"/>
<path d="M22.5999 35.6128H20.2773V37.9354H22.5999V35.6128Z" fill="#FF6700"/>
<path d="M27.2435 35.6128H24.9209V37.9354H27.2435V35.6128Z" fill="#FF6700"/>
<path d="M8.27612 47.2258H16.7922C16.7922 47.4311 16.8738 47.6281 17.019 47.7732C17.1642 47.9184 17.3611 48 17.5664 48H29.9535C30.1588 48 30.3558 47.9184 30.5009 47.7732C30.6461 47.6281 30.7277 47.4311 30.7277 47.2258H39.2438C39.4492 47.2258 39.6461 47.1442 39.7913 46.9991C39.9364 46.8539 40.018 46.6569 40.018 46.4516V40.6761C41.9872 43.1982 44.1374 45.5735 46.4516 47.7832L47.5199 46.6684C44.771 44.0444 42.2605 41.1816 40.018 38.1136V34.0645C40.018 33.8592 39.9364 33.6623 39.7913 33.5171C39.6461 33.3719 39.4492 33.2903 39.2438 33.2903H36.8051C33.0359 27.122 30.4816 20.2895 29.28 13.1613H33.8245C33.9725 13.1613 34.1174 13.1189 34.242 13.0391C34.3666 12.9593 34.4658 12.8455 34.5277 12.711C34.5896 12.5766 34.6117 12.4273 34.5914 12.2807C34.571 12.1341 34.5091 11.9964 34.4129 11.8839L24.3484 0.271027C24.2757 0.186037 24.1854 0.1178 24.0839 0.0710137C23.9823 0.0242269 23.8718 0 23.76 0C23.6481 0 23.5376 0.0242269 23.4361 0.0710137C23.3345 0.1178 23.2443 0.186037 23.1716 0.271027L13.1071 11.8839C13.0109 11.9964 12.9489 12.1341 12.9286 12.2807C12.9082 12.4273 12.9303 12.5766 12.9922 12.711C13.0541 12.8455 13.1533 12.9593 13.2779 13.0391C13.4026 13.1189 13.5475 13.1613 13.6955 13.1613H18.24C17.0384 20.2895 14.4841 27.122 10.7148 33.2903H8.27612C8.07079 33.2903 7.87387 33.3719 7.72868 33.5171C7.58349 33.6623 7.50193 33.8592 7.50193 34.0645V38.1136C5.25942 41.1816 2.74892 44.0444 0 46.6684L1.06839 47.7832C3.38254 45.5735 5.53274 43.1982 7.50193 40.6761V46.4516C7.50193 46.6569 7.58349 46.8539 7.72868 46.9991C7.87387 47.1442 8.07079 47.2258 8.27612 47.2258ZM29.1793 46.4516H26.8567V41.8065C26.8567 41.6011 26.7752 41.4042 26.63 41.259C26.4848 41.1138 26.2879 41.0323 26.0825 41.0323H21.4374C21.2321 41.0323 21.0351 41.1138 20.89 41.259C20.7448 41.4042 20.6632 41.6011 20.6632 41.8065V46.4516H18.3406V28.6452H29.1793V46.4516ZM38.4696 34.8387V45.6774H30.7277V34.8387H38.4696ZM19.889 12.4491C19.898 12.3424 19.8847 12.2351 19.85 12.1338C19.8154 12.0325 19.7601 11.9395 19.6877 11.8607C19.6146 11.7819 19.526 11.7192 19.4273 11.6765C19.3287 11.6339 19.2223 11.6122 19.1148 11.6129H15.3909L23.76 1.95877L32.129 11.6129H28.4051C28.2977 11.6122 28.1912 11.6339 28.0926 11.6765C27.994 11.7192 27.9053 11.7819 27.8322 11.8607C27.7598 11.9395 27.7045 12.0325 27.6699 12.1338C27.6353 12.2351 27.622 12.3424 27.6309 12.4491C27.6309 12.8517 28.498 22.0723 35.0012 33.2903H30.7277V27.871C30.7277 27.6657 30.6461 27.4687 30.5009 27.3236C30.3558 27.1784 30.1588 27.0968 29.9535 27.0968H17.5664C17.3611 27.0968 17.1642 27.1784 17.019 27.3236C16.8738 27.4687 16.7922 27.6657 16.7922 27.871V33.2903H12.5187C19.0219 22.0723 19.889 12.8517 19.889 12.4491ZM9.05031 34.8387H16.7922V45.6774H9.05031V34.8387Z" fill="#13CFFE"/>
<path d="M27.4004 41H20.4004V46.5H27.4004V41Z" fill="#FF6700"/>
<path d="M12.148 37.5483H10.5996V39.0967H12.148V37.5483Z" fill="#13CFFE"/>
<path d="M15.2437 37.5483H13.6953V39.0967H15.2437V37.5483Z" fill="#13CFFE"/>
<path d="M12.148 41.4193H10.5996V42.9677H12.148V41.4193Z" fill="#13CFFE"/>
<path d="M15.2437 41.4193H13.6953V42.9677H15.2437V41.4193Z" fill="#13CFFE"/>
<path d="M33.8257 37.5483H32.2773V39.0967H33.8257V37.5483Z" fill="#13CFFE"/>
<path d="M36.9214 37.5483H35.373V39.0967H36.9214V37.5483Z" fill="#13CFFE"/>
<path d="M33.8257 41.4193H32.2773V42.9677H33.8257V41.4193Z" fill="#13CFFE"/>
<path d="M36.9214 41.4193H35.373V42.9677H36.9214V41.4193Z" fill="#13CFFE"/>
</svg>
