<svg width="54" height="48" viewBox="0 0 54 48" fill="none" xmlns="http://www.w3.org/2000/svg">
<path fill-rule="evenodd" clip-rule="evenodd" d="M6.96673 33.6244L1.48609 36.9105L7.24437 46.5149L12.725 43.2294L12.3467 42.5983C12.3355 42.5812 12.3248 42.5634 12.3148 42.5445L7.37579 34.3069C7.3681 34.2951 7.3604 34.2833 7.3533 34.2708L7.34264 34.2519L6.96673 33.6244ZM8.94042 34.1666L14.4376 30.9628C14.4456 30.9578 14.4544 30.9544 14.4637 30.9527C14.4758 30.951 14.4882 30.9522 14.4998 30.9563L24.9336 33.9991L24.9969 34.021C25.1556 34.0792 25.301 34.1685 25.4246 34.2837C25.5482 34.3989 25.6476 34.5376 25.7168 34.6917C25.7844 34.8364 25.8287 34.9908 25.8482 35.1493C25.8482 35.1671 25.85 35.1849 25.8535 35.2026C25.8701 35.3877 25.8518 35.5742 25.7997 35.7526C25.7997 35.7626 25.7884 35.7881 25.7742 35.8289C25.7133 36.0021 25.6186 36.1614 25.4956 36.2977C25.3727 36.4339 25.2239 36.5445 25.0579 36.6228C24.6961 36.7919 24.284 36.8193 23.9029 36.6998L19.3286 35.3074C19.1493 35.253 18.9558 35.2721 18.7905 35.3604C18.6253 35.4487 18.5019 35.599 18.4475 35.7783C18.3931 35.9576 18.4121 36.1512 18.5004 36.3165C18.5887 36.4817 18.7391 36.6051 18.9184 36.6595L23.4927 38.0536C24.2115 38.2758 24.9875 38.2207 25.6677 37.8991C26.0018 37.7415 26.3013 37.519 26.5488 37.2446C26.7962 36.9702 26.9867 36.6494 27.1091 36.3008C27.1216 36.2658 27.1376 36.2143 27.1571 36.1474C27.2124 35.9576 27.2479 35.7626 27.2631 35.5655L35.5918 31.9331C36.0571 31.6937 36.5745 31.5731 37.0978 31.582C37.2195 31.59 37.3368 31.6309 37.437 31.7004C37.513 31.7606 37.5724 31.8393 37.6093 31.9289C37.695 32.1553 37.7223 32.3996 37.6886 32.6393C37.6531 32.9779 37.1907 33.3225 36.8426 33.5812L36.7627 33.6404C36.7473 33.6522 36.7319 33.664 36.7177 33.6771C34.6854 35.2008 33.1143 36.4002 31.7711 37.4238C28.0895 40.2304 26.0815 41.7601 24.6559 42.3929C23.1446 43.0613 22.2016 42.6208 20.1249 41.6506C19.704 41.454 20.1249 41.6506 19.6761 41.4398C19.1191 41.1805 18.8 41.0254 18.5259 40.8964C17.3419 40.3281 16.786 40.0629 16.1508 40.0753C15.4965 40.1443 14.8685 40.3706 14.3204 40.7348C14.0203 40.8904 13.6609 41.0769 13.2128 41.2942L8.94042 34.1666ZM0.592783 35.7964L6.40375 32.3131C6.54126 32.2304 6.69376 32.1756 6.85249 32.152C7.01121 32.1283 7.17305 32.1363 7.32871 32.1753C7.48436 32.2144 7.63078 32.2838 7.75954 32.3796C7.88831 32.4753 7.9969 32.5956 8.07907 32.7334L8.21109 32.9531L13.7266 29.7386C13.9011 29.6355 14.095 29.5698 14.2961 29.5456C14.4962 29.5226 14.6989 29.5408 14.8917 29.5989L25.3267 32.6435C25.39 32.6618 25.4368 32.676 25.4676 32.6873C25.8031 32.8081 26.1111 32.9948 26.3734 33.2364C26.6358 33.4779 26.8473 33.7694 26.9955 34.0938L27.0121 34.1305L35.0258 30.6378C35.7126 30.2969 36.4753 30.138 37.241 30.176C37.6201 30.2083 37.9828 30.345 38.2889 30.5709C38.5594 30.7774 38.7714 31.0508 38.9039 31.3642C39.0872 31.8126 39.1529 32.3005 39.0946 32.7814C39.012 33.1857 38.8435 33.5676 38.6007 33.9013C38.3578 34.2349 38.0462 34.5126 37.6868 34.7154L37.6075 34.7746C37.5927 34.7859 37.5773 34.7959 37.5619 34.806C35.7474 36.1676 34.065 37.4498 32.6265 38.5474C28.8585 41.4221 26.8013 42.9914 25.2266 43.6882C23.1328 44.6141 22.0062 44.0878 19.527 42.9287C19.3932 42.8665 19.8395 43.0749 19.0836 42.7238C18.7426 42.5652 18.2992 42.3527 17.9167 42.1697C17.3802 41.8415 16.79 41.6103 16.1733 41.4866C15.7445 41.5801 15.3362 41.751 14.9686 41.991C14.6845 42.1384 14.3494 42.3124 13.9433 42.5107L14.0368 42.667C14.1193 42.8046 14.1739 42.9571 14.1974 43.1158C14.221 43.2744 14.213 43.4362 14.1739 43.5918C14.1349 43.7474 14.0656 43.8938 13.9699 44.0225C13.8743 44.1513 13.7542 44.26 13.6165 44.3423L7.80558 47.8256C7.66811 47.9083 7.51566 47.9631 7.35697 47.9867C7.19829 48.0103 7.0365 48.0024 6.88089 47.9634C6.72528 47.9243 6.57892 47.8549 6.45021 47.7591C6.32149 47.6634 6.21296 47.5431 6.13084 47.4053L0.174247 37.4717C0.0916773 37.3342 0.0370038 37.1819 0.0133509 37.0232C-0.0103019 36.8646 -0.00247062 36.7029 0.0363973 36.5473C0.0752652 36.3917 0.144408 36.2453 0.239875 36.1165C0.335342 35.9877 0.455262 35.8789 0.592783 35.7964ZM49.7965 12.9924C48.6428 11.8385 47.1246 11.1203 45.5007 10.9603C43.8768 10.8003 42.2477 11.2083 40.8909 12.1148C39.5341 13.0212 38.5336 14.3701 38.0598 15.9316C37.5861 17.4931 37.6685 19.1705 38.2929 20.6781C38.9172 22.1857 40.0451 23.4301 41.4841 24.1993C42.9232 24.9686 44.5844 25.215 46.1849 24.8967C47.7853 24.5784 49.2258 23.715 50.261 22.4537C51.2962 21.1923 51.862 19.611 51.862 17.9793C51.8631 17.053 51.6813 16.1356 51.3268 15.2798C50.9724 14.4239 50.4523 13.6466 49.7965 12.9924ZM37.1741 21.652H23.054C22.8712 21.6521 22.6954 21.7227 22.5633 21.8491L17.9854 25.5869V22.3612C17.9854 22.1739 17.911 21.9943 17.7786 21.8618C17.6461 21.7294 17.4665 21.655 17.2792 21.655H14.2144C13.8011 21.6532 13.4053 21.488 13.1133 21.1954C12.8214 20.9028 12.6571 20.5066 12.6563 20.0933V2.97593C12.658 2.56322 12.8228 2.1679 13.1146 1.87607C13.4064 1.58424 13.8017 1.41953 14.2144 1.41781H37.8502C38.2629 1.41953 38.6582 1.58424 38.9501 1.87607C39.2419 2.1679 39.4066 2.56322 39.4083 2.97593V11.4532C39.2043 11.6225 39.0069 11.8013 38.8163 11.9896C37.5751 13.2314 36.7502 14.828 36.4555 16.5589C36.1608 18.2897 36.4109 20.0694 37.1712 21.652H37.1741ZM44.8108 9.50853C46.2038 9.50882 47.5751 9.85262 48.8035 10.5095C50.0318 11.1663 51.0792 12.116 51.8529 13.2743C52.6266 14.4326 53.1027 15.7639 53.2391 17.1501C53.3755 18.5364 53.1678 19.9349 52.6346 21.2217C52.1014 22.5086 51.2591 23.6441 50.1823 24.5277C49.1055 25.4113 47.8273 26.0157 46.4611 26.2874C45.0949 26.5591 43.6828 26.4896 42.3499 26.0853C41.0169 25.6809 39.8042 24.954 38.8193 23.969C38.5365 23.6861 38.2741 23.3836 38.0337 23.0639C37.9745 23.068 37.91 23.0704 37.8502 23.0704H23.3033L17.7249 27.6246C17.6196 27.7105 17.4916 27.7642 17.3564 27.7792C17.2213 27.7942 17.0847 27.7698 16.963 27.7091C16.8414 27.6483 16.7399 27.5537 16.6707 27.4366C16.6015 27.3196 16.5675 27.185 16.5729 27.0492V23.0704H14.2144C13.4256 23.0685 12.6695 22.7542 12.1118 22.1963C11.5541 21.6383 11.2401 20.8822 11.2385 20.0933V2.97593C11.2404 2.18724 11.5545 1.43139 12.1122 0.873702C12.6699 0.316013 13.4258 0.00187598 14.2144 0H37.8502C38.639 0.00171968 39.395 0.315787 39.9528 0.873493C40.5106 1.4312 40.8248 2.18714 40.8267 2.97593V10.5031C42.0522 9.84933 43.4201 9.50832 44.809 9.5103L44.8108 9.50853ZM41.2713 18.7317C41.1974 18.6757 41.1353 18.6057 41.0886 18.5257C41.0418 18.4457 41.0112 18.3572 40.9986 18.2654C40.9859 18.1736 40.9915 18.0801 41.015 17.9905C41.0385 17.9008 41.0794 17.8167 41.1354 17.7428C41.1914 17.6689 41.2615 17.6068 41.3415 17.56C41.4215 17.5133 41.5099 17.4827 41.6018 17.4701C41.6936 17.4574 41.787 17.463 41.8767 17.4865C41.9663 17.51 42.0505 17.5509 42.1244 17.6069L44.2413 19.2154L47.3694 15.3171C47.4922 15.188 47.6592 15.1097 47.837 15.0979C48.0149 15.0862 48.1907 15.1417 48.3296 15.2535C48.4684 15.3652 48.5602 15.5252 48.5866 15.7014C48.613 15.8777 48.5722 16.0575 48.4722 16.2051L44.9138 20.6385C44.7986 20.7815 44.6321 20.8739 44.4498 20.896C44.2674 20.9181 44.0837 20.8682 43.9376 20.7569L41.2737 18.7317H41.2713ZM22.5053 7.28857H34.9483C35.1367 7.28857 35.3174 7.21372 35.4506 7.0805C35.5838 6.94728 35.6587 6.76659 35.6587 6.57818C35.6587 6.38977 35.5838 6.20908 35.4506 6.07586C35.3174 5.94264 35.1367 5.86779 34.9483 5.86779H22.5035C22.3151 5.86779 22.1344 5.94264 22.0012 6.07586C21.8679 6.20908 21.7931 6.38977 21.7931 6.57818C21.7931 6.76659 21.8679 6.94728 22.0012 7.0805C22.1344 7.21372 22.3151 7.28857 22.5035 7.28857H22.5053ZM17.1182 7.28857H19.2191C19.4075 7.28857 19.5882 7.21372 19.7214 7.0805C19.8547 6.94728 19.9295 6.76659 19.9295 6.57818C19.9295 6.38977 19.8547 6.20908 19.7214 6.07586C19.5882 5.94264 19.4075 5.86779 19.2191 5.86779H17.1164C16.928 5.86779 16.7473 5.94264 16.6141 6.07586C16.4808 6.20908 16.406 6.38977 16.406 6.57818C16.406 6.76659 16.4808 6.94728 16.6141 7.0805C16.7473 7.21372 16.928 7.28857 17.1164 7.28857H17.1182ZM17.1182 12.3335H34.9483C35.1367 12.3335 35.3174 12.2587 35.4506 12.1254C35.5838 11.9922 35.6587 11.8115 35.6587 11.6231C35.6587 11.4347 35.5838 11.254 35.4506 11.1208C35.3174 10.9876 35.1367 10.9127 34.9483 10.9127H17.1164C16.928 10.9127 16.7473 10.9876 16.6141 11.1208C16.4808 11.254 16.406 11.4347 16.406 11.6231C16.406 11.8115 16.4808 11.9922 16.6141 12.1254C16.7473 12.2587 16.928 12.3335 17.1164 12.3335H17.1182ZM30.8375 17.3796H34.9483C35.1367 17.3796 35.3174 17.3048 35.4506 17.1715C35.5838 17.0383 35.6587 16.8576 35.6587 16.6692C35.6587 16.4808 35.5838 16.3001 35.4506 16.1669C35.3174 16.0337 35.1367 15.9588 34.9483 15.9588H30.8375C30.6491 15.9588 30.4684 16.0337 30.3352 16.1669C30.202 16.3001 30.1271 16.4808 30.1271 16.6692C30.1271 16.8576 30.202 17.0383 30.3352 17.1715C30.4684 17.3048 30.6491 17.3796 30.8375 17.3796ZM17.1164 17.3796H27.5508C27.7392 17.3796 27.9199 17.3048 28.0531 17.1715C28.1863 17.0383 28.2612 16.8576 28.2612 16.6692C28.2612 16.4808 28.1863 16.3001 28.0531 16.1669C27.9199 16.0337 27.7392 15.9588 27.5508 15.9588H17.1164C16.928 15.9588 16.7473 16.0337 16.6141 16.1669C16.4808 16.3001 16.406 16.4808 16.406 16.6692C16.406 16.8576 16.4808 17.0383 16.6141 17.1715C16.7473 17.3048 16.928 17.3796 17.1164 17.3796Z" fill="#13CFFE"/>
<circle cx="44.7" cy="17.7" r="8.7" fill="#FF6700"/>
<path d="M39.5 17.5L43 21L49.5 14.5" stroke="white" stroke-width="1.2" stroke-linecap="round"/>
</svg>
