<svg width="56" height="61" viewBox="0 0 56 61" fill="none" xmlns="http://www.w3.org/2000/svg">
<path d="M38.8031 58.2372H34.7752V53.6975C34.7752 53.0582 34.2633 52.4839 33.5617 52.4839C32.9224 52.4839 32.3481 52.9958 32.3481 53.6975V58.2372H23.6529V53.6975C23.6529 53.0582 23.141 52.4839 22.4393 52.4839C21.8001 52.4839 21.2258 52.9958 21.2258 53.6975V58.2372H17.1979C16.5587 58.2372 15.9844 58.7491 15.9844 59.4508C15.9844 60.155 16.4963 60.6643 17.1979 60.6643H38.8055C39.4448 60.6643 40.0191 60.1524 40.0191 59.4508C40.0191 58.7491 39.5072 58.2372 38.8031 58.2372Z" fill="white"/>
<path d="M50.374 9.3338H46.6658C46.0266 9.3338 45.4522 9.84571 45.4522 10.5474C45.4522 11.2516 45.9642 11.7609 46.6658 11.7609L50.374 11.7634C52.1645 11.7634 53.5703 13.1693 53.5703 14.9597V39.8908H2.42969V14.9597C2.42969 13.1693 3.83555 11.7634 5.62598 11.7634H9.33419C9.97344 11.7634 10.5478 11.2515 10.5478 10.5499C10.5478 9.84566 10.0358 9.3363 9.33419 9.3363L5.62598 9.3338C2.55703 9.3338 0 11.8259 0 14.9598V44.3004C0 47.3694 2.49208 49.8615 5.62598 49.8615L50.374 49.864C53.443 49.864 56 47.3719 56 44.3029V14.9597C56 11.8908 53.5054 9.3338 50.374 9.3338ZM53.5703 44.3006C53.5703 46.026 52.1645 47.4969 50.374 47.4969H5.62598C3.83555 47.4969 2.42969 46.091 2.42969 44.3006V42.3178L53.5703 42.3203V44.3006Z" fill="white"/>
<path d="M10.4854 18.9879C10.4854 20.5211 11.6365 21.7996 13.1073 22.0568L14.9602 22.3115L15.3447 23.3354L14.1935 24.8062C13.2996 26.0197 13.4269 27.7478 14.5132 28.834L16.6232 30.9441C17.7095 32.0303 19.4349 32.1576 20.6511 31.1988L22.1219 30.1126L23.1457 30.4971L23.4004 32.3499C23.5927 33.8831 24.9336 34.9719 26.4694 34.9719H29.4734C31.0065 34.9719 32.2851 33.8207 32.5423 32.3499L32.797 30.4971L33.7559 30.1126L35.2267 31.2637C36.4403 32.1577 38.1683 32.0303 39.2545 30.9441L41.3646 28.834C42.4508 27.7478 42.5782 26.0223 41.6842 24.8062L40.593 23.2705L40.9776 22.3116L42.8304 22.0569C44.3636 21.8646 45.4524 20.5237 45.4524 18.988V15.984C45.4524 14.4508 44.3012 13.1723 42.8304 12.915L40.9776 12.6603L40.593 11.7014L41.6792 10.2306C42.5732 9.01706 42.4458 7.28902 41.3596 6.20279L39.2496 4.09273C38.2282 2.94156 36.5027 2.81422 35.2867 3.70818L33.8159 4.85936L32.857 4.4748L32.6023 2.62198C32.41 1.08878 31.0691 0 29.5333 0H26.5293C24.9961 0 23.7176 1.15118 23.4604 2.62198L23.2057 4.4748L22.1818 4.85936L20.711 3.77313C19.4975 2.81424 17.7719 2.94158 16.6857 4.02784L14.5756 6.1379C13.4894 7.22412 13.3621 8.94961 14.256 10.1657L15.4072 11.6365L15.0226 12.5954L13.1698 12.8501C11.699 13.0424 10.5478 14.3833 10.5478 15.9191V18.988L10.4854 18.9879ZM12.9125 15.9839C12.9125 15.6643 13.1673 15.3446 13.4869 15.3446L16.0439 14.9601C16.4909 14.8952 16.8105 14.6404 17.0028 14.2559L17.9617 12.0185C18.154 11.6339 18.089 11.1869 17.8343 10.8049L16.3011 8.75979C16.1089 8.50508 16.1089 8.12053 16.3661 7.86585L18.4761 5.75579C18.7308 5.50108 19.1154 5.50108 19.3701 5.69086L21.4152 7.22406C21.7348 7.47877 22.1818 7.54369 22.6287 7.35141L24.8661 6.39253C25.2507 6.20025 25.5054 5.88062 25.5704 5.43364L25.9549 2.87661C26.0198 2.55698 26.2745 2.30227 26.5942 2.30227H29.5982C29.9178 2.30227 30.2374 2.55698 30.2374 2.87661L30.622 5.43364C30.6869 5.88062 30.9416 6.20024 31.3262 6.39253L33.5636 7.35141C33.9481 7.54369 34.3951 7.47877 34.7148 7.22406L36.7599 5.69086C37.0146 5.49859 37.3991 5.49859 37.6538 5.75579L39.7639 7.86585C40.0186 8.12056 40.0186 8.44018 39.8288 8.75979L38.2956 10.8049C38.0409 11.1245 37.976 11.5715 38.1682 11.9561L39.1271 14.1935C39.3194 14.578 39.639 14.8327 40.086 14.8977L42.643 15.2822C42.9627 15.3472 43.2174 15.6019 43.2174 15.9215V18.9255C43.2174 19.2451 42.9627 19.5648 42.643 19.5648L40.086 19.9493C39.639 20.0142 39.3194 20.2689 39.1271 20.6535L38.1682 22.8909C37.976 23.2755 38.0409 23.7225 38.2956 24.0421L39.8288 26.0872C40.0211 26.3419 40.0211 26.7265 39.7639 26.9811L37.6538 29.0912C37.3991 29.3459 37.0146 29.3459 36.7599 29.1561L34.7123 27.7453C34.3926 27.4906 33.9457 27.4257 33.5611 27.6179L31.3237 28.5768C30.9391 28.7691 30.6844 29.0887 30.6195 29.5357L30.2349 32.0927C30.17 32.4124 29.9153 32.6671 29.5957 32.6671H26.5917C26.272 32.6671 25.9524 32.4124 25.9524 32.0927L25.5679 29.5357C25.5029 29.0887 25.2482 28.7691 24.8637 28.5768L22.6263 27.6179C22.4989 27.553 22.3066 27.553 22.1793 27.553C21.9246 27.553 21.6674 27.6179 21.4751 27.8077L19.4299 29.3409C19.1752 29.5332 18.7907 29.5332 18.536 29.276L16.2386 27.106C15.9839 26.8513 15.9839 26.5317 16.1737 26.2121L17.7069 24.167C17.9616 23.8473 18.0265 23.4004 17.8343 22.9534L16.9403 20.7135C16.7481 20.329 16.4284 20.0743 15.9814 20.0093L13.4244 19.6248C13.1048 19.5598 12.8501 19.3051 12.8501 18.9855V15.984L12.9125 15.9839Z" fill="white"/>
<path d="M28 25.7001C32.5398 25.7001 36.2452 21.9919 36.2452 17.455C36.2452 12.9152 32.5395 9.20728 28 9.20728C23.4606 9.20728 19.7549 12.9155 19.7549 17.4524C19.7549 21.9922 23.4606 25.7001 28 25.7001ZM28 11.5713C31.2613 11.5713 33.8807 14.1932 33.8807 17.4519C33.8807 20.7131 31.2587 23.3326 28 23.3326C24.7388 23.3326 22.1194 20.7106 22.1194 17.4519C22.1194 14.1932 24.7389 11.5713 28 11.5713Z" fill="white"/>
</svg>
