<svg width="70" height="76" viewBox="0 0 70 76" fill="none" xmlns="http://www.w3.org/2000/svg">
<path d="M48.5029 72.7966H43.4681V67.1219C43.4681 66.3229 42.8282 65.605 41.9511 65.605C41.152 65.605 40.4341 66.2449 40.4341 67.1219V72.7966H29.5652V67.1219C29.5652 66.3229 28.9253 65.605 28.0482 65.605C27.2491 65.605 26.5312 66.2449 26.5312 67.1219V72.7966H21.4965C20.6974 72.7966 19.9795 73.4365 19.9795 74.3136C19.9795 75.1938 20.6194 75.8305 21.4965 75.8305H48.5059C49.305 75.8305 50.0229 75.1907 50.0229 74.3136C50.0229 73.4365 49.383 72.7966 48.5029 72.7966Z" fill="#00A7FA" fill-opacity="0.25"/>
<path d="M62.9675 11.6673H58.3323C57.5332 11.6673 56.8153 12.3072 56.8153 13.1843C56.8153 14.0645 57.4552 14.7012 58.3323 14.7012L62.9675 14.7044C65.2056 14.7044 66.9629 16.4617 66.9629 18.6997V49.8635H3.03711V18.6997C3.03711 16.4617 4.79443 14.7044 7.03247 14.7044H11.6677C12.4668 14.7044 13.1847 14.0645 13.1847 13.1874C13.1847 12.3071 12.5448 11.6704 11.6677 11.6704L7.03247 11.6673C3.19629 11.6673 0 14.7824 0 18.6998V55.3756C0 59.2118 3.1151 62.3269 7.03247 62.3269L62.9675 62.33C66.8037 62.33 70 59.2149 70 55.3787V18.6997C70 14.8635 66.8818 11.6673 62.9675 11.6673ZM66.9629 55.3758C66.9629 57.5326 65.2056 59.3711 62.9675 59.3711H7.03247C4.79443 59.3711 3.03711 57.6138 3.03711 55.3758V52.8974L66.9629 52.9005V55.3758Z" fill="#00A7FA" fill-opacity="0.25"/>
<path d="M13.1064 23.7349C13.1064 25.6514 14.5454 27.2495 16.3839 27.571L18.7 27.8894L19.1806 29.1692L17.7417 31.0077C16.6242 32.5247 16.7834 34.6847 18.1412 36.0425L20.7788 38.6801C22.1366 40.0379 24.2934 40.1971 25.8136 38.9985L27.6521 37.6407L28.9319 38.1214L29.2503 40.4374C29.4906 42.3539 31.1668 43.7149 33.0864 43.7149H36.8414C38.7579 43.7149 40.3561 42.2759 40.6776 40.4374L40.996 38.1214L42.1946 37.6407L44.0331 39.0797C45.5501 40.1971 47.7101 40.0379 49.0679 38.6801L51.7055 36.0426C53.0633 34.6848 53.2225 32.5279 52.105 31.0078L50.741 29.0881L51.2217 27.8895L53.5377 27.5712C55.4542 27.3308 56.8152 25.6547 56.8152 23.735V19.98C56.8152 18.0635 55.3763 16.4653 53.5377 16.1438L51.2217 15.8254L50.741 14.6268L52.0988 12.7883C53.2162 11.2713 53.0571 9.11128 51.6993 7.75349L49.0617 5.11592C47.785 3.67695 45.6282 3.51777 44.1081 4.63523L42.2696 6.0742L41.071 5.59351L40.7526 3.27747C40.5122 1.36098 38.8361 0 36.9164 0H33.1614C31.2449 0 29.6468 1.43897 29.3252 3.27747L29.0068 5.59351L27.727 6.0742L25.8885 4.71641C24.3716 3.5178 22.2146 3.67698 20.8569 5.03479L18.2193 7.67237C16.8615 9.03016 16.7023 11.187 17.8197 12.7072L19.2587 14.5457L18.778 15.7443L16.462 16.0627C14.6235 16.303 13.1845 17.9792 13.1845 19.8988V23.735L13.1064 23.7349ZM16.1404 19.9799C16.1404 19.5803 16.4588 19.1808 16.8584 19.1808L20.0547 18.7001C20.6134 18.6189 21.0129 18.3006 21.2533 17.8198L22.4519 15.0231C22.6922 14.5424 22.6111 13.9837 22.2927 13.5061L20.3762 10.9497C20.1358 10.6314 20.1358 10.1507 20.4573 9.83231L23.0949 7.19474C23.4133 6.87635 23.894 6.87635 24.2123 7.11358L26.7687 9.03008C27.1683 9.34846 27.727 9.42961 28.2857 9.18927L31.0824 7.99066C31.5631 7.75031 31.8815 7.35078 31.9627 6.79205L32.4434 3.59576C32.5245 3.19623 32.8429 2.87784 33.2425 2.87784H36.9975C37.397 2.87784 37.7965 3.19623 37.7965 3.59576L38.2772 6.79205C38.3584 7.35078 38.6768 7.7503 39.1575 7.99066L41.9542 9.18927C42.4349 9.42961 42.9937 9.34846 43.3932 9.03008L45.9496 7.11358C46.268 6.87324 46.7487 6.87324 47.067 7.19474L49.7046 9.83231C50.023 10.1507 50.023 10.5502 49.7857 10.9497L47.8693 13.5061C47.5509 13.9057 47.4697 14.4644 47.7101 14.9451L48.9087 17.7418C49.149 18.2225 49.5486 18.5409 50.1073 18.6221L53.3036 19.1028C53.7031 19.184 54.0215 19.5023 54.0215 19.9019V23.6569C54.0215 24.0564 53.7031 24.4559 53.3036 24.4559L50.1073 24.9366C49.5486 25.0178 49.149 25.3362 48.9087 25.8169L47.7101 28.6136C47.4697 29.0943 47.5509 29.6531 47.8693 30.0526L49.7857 32.609C50.0261 32.9274 50.0261 33.4081 49.7046 33.7264L47.067 36.364C46.7486 36.6824 46.2679 36.6824 45.9496 36.4452L43.3901 34.6816C42.9905 34.3632 42.4318 34.2821 41.9511 34.5224L39.1544 35.721C38.6737 35.9614 38.3553 36.3609 38.2741 36.9196L37.7934 40.1159C37.7123 40.5155 37.3939 40.8338 36.9943 40.8338H33.2393C32.8398 40.8338 32.4403 40.5155 32.4403 40.1159L31.9596 36.9196C31.8784 36.3609 31.56 35.9614 31.0793 35.721L28.2826 34.5224C28.1234 34.4413 27.883 34.4413 27.7238 34.4413C27.4055 34.4413 27.084 34.5224 26.8436 34.7596L24.2872 36.6761C23.9688 36.9165 23.4881 36.9165 23.1698 36.595L20.2981 33.8825C19.9797 33.5642 19.9797 33.1646 20.2169 32.7651L22.1334 30.2087C22.4518 29.8092 22.5329 29.2505 22.2926 28.6918L21.1752 25.8919C20.9348 25.4112 20.5353 25.0928 19.9766 25.0116L16.7803 24.5309C16.3807 24.4498 16.0624 24.1314 16.0624 23.7319V19.98L16.1404 19.9799Z" fill="#00A7FA" fill-opacity="0.25"/>
<path d="M34.9998 32.1253C40.6745 32.1253 45.3062 27.4901 45.3062 21.8189C45.3062 16.1442 40.6741 11.5093 34.9998 11.5093C29.3255 11.5093 24.6934 16.1445 24.6934 21.8157C24.6934 27.4904 29.3255 32.1253 34.9998 32.1253ZM34.9998 14.4642C39.0763 14.4642 42.3506 17.7417 42.3506 21.8151C42.3506 25.8916 39.0731 29.1659 34.9998 29.1659C30.9232 29.1659 27.649 25.8884 27.649 21.8151C27.649 17.7416 30.9233 14.4642 34.9998 14.4642Z" fill="#00A7FA" fill-opacity="0.25"/>
</svg>
