<svg width="56" height="60" viewBox="0 0 56 60" fill="none" xmlns="http://www.w3.org/2000/svg">
<path d="M15.0069 11.5293H14.9844C13.4474 11.5881 11.9662 12.1207 10.7438 13.0542C9.52142 13.9877 8.61761 15.2764 8.15627 16.7437C8.07365 16.9957 8.09439 17.2702 8.21395 17.5069C8.33351 17.7436 8.54211 17.9233 8.79397 18.0064C9.04606 18.0772 9.31556 18.0511 9.54931 17.933C9.78305 17.815 9.96408 17.6136 10.0567 17.3687C10.3883 16.2939 11.0441 15.348 11.9344 14.6605C12.8246 13.9731 13.9056 13.5778 15.0293 13.5288C15.2925 13.5229 15.5428 13.4135 15.7258 13.2242C15.9088 13.035 16.0097 12.7812 16.0068 12.518C16.0038 12.2547 15.8972 12.0033 15.71 11.8182C15.5228 11.6331 15.2701 11.5293 15.0069 11.5293Z" fill="white"/>
<path d="M55 44H48V40C48 39.8687 47.9742 39.7386 47.924 39.6173C47.8737 39.4959 47.8 39.3857 47.7072 39.2928C47.6143 39.2 47.5041 39.1263 47.3827 39.076C47.2614 39.0258 47.1313 39 47 39H33.9097C33.7005 37.774 33.1157 36.6432 32.2363 35.7637C31.3568 34.8843 30.226 34.2995 29 34.0903V30H48.2422C50.0917 29.9376 51.8412 29.1451 53.1077 27.7958C54.3742 26.4466 55.0546 24.6505 55 22.8008C54.9905 21.5819 54.702 20.3813 54.1568 19.2911C53.6116 18.201 52.824 17.25 51.8545 16.5112C50.7479 15.7143 49.3862 15.3537 48.0303 15.4985C47.9823 14.245 47.6541 13.0182 47.0697 11.9083C46.4853 10.7983 45.6596 9.8334 44.6533 9.08447C43.5449 8.18083 42.2403 7.54928 40.844 7.24039C39.4476 6.9315 37.9984 6.95385 36.6123 7.30566C35.9191 5.21368 34.5947 3.38792 32.8212 2.07962C31.0477 0.771324 28.9124 0.0447918 26.709 0C24.4327 0.0601942 22.2341 0.840656 20.4294 2.22917C18.6246 3.61769 17.3067 5.54274 16.665 7.72754C15.2998 7.33484 13.8642 7.25173 12.4628 7.48428C11.0614 7.71683 9.72959 8.25918 8.56441 9.07178C7.34386 9.93489 6.33061 11.0587 5.59808 12.3618C4.86555 13.6649 4.43208 15.1147 4.3291 16.606C3.29825 17.2755 2.45282 18.1942 1.87095 19.2769C1.28907 20.3597 0.989527 21.5716 1 22.8008C0.945384 24.6505 1.6258 26.4466 2.89232 27.7958C4.15884 29.1451 5.90831 29.9376 7.75781 30H27V34.0903C25.774 34.2995 24.6432 34.8843 23.7637 35.7637C22.8843 36.6432 22.2996 37.774 22.0903 39H9C8.86867 39 8.73862 39.0258 8.61728 39.076C8.49594 39.1263 8.38568 39.2 8.29282 39.2928C8.19995 39.3857 8.12629 39.4959 8.07605 39.6173C8.02581 39.7386 7.99997 39.8687 8 40V44H1C0.868668 44 0.738617 44.0258 0.617276 44.076C0.495935 44.1263 0.385683 44.2 0.292817 44.2928C0.199952 44.3857 0.126293 44.4959 0.0760508 44.6173C0.0258082 44.7386 -3.41257e-05 44.8687 3.38209e-08 45V59C-3.41257e-05 59.1313 0.0258082 59.2614 0.0760508 59.3827C0.126293 59.5041 0.199952 59.6143 0.292817 59.7072C0.385683 59.8 0.495935 59.8737 0.617276 59.924C0.738617 59.9742 0.868668 60 1 60H17C17.1313 60 17.2614 59.9742 17.3827 59.924C17.5041 59.8737 17.6143 59.8 17.7072 59.7072C17.8 59.6143 17.8737 59.5041 17.9239 59.3827C17.9742 59.2614 18 59.1313 18 59V45C18 44.8687 17.9742 44.7386 17.9239 44.6173C17.8737 44.4959 17.8 44.3857 17.7072 44.2928C17.6143 44.2 17.5041 44.1263 17.3827 44.076C17.2614 44.0258 17.1313 44 17 44H10V41H22.0903C22.325 42.3977 23.0475 43.6669 24.1295 44.5823C25.2114 45.4977 26.5828 46 28 46C29.4172 46 30.7886 45.4977 31.8705 44.5823C32.9525 43.6669 33.675 42.3977 33.9097 41H46V44H39C38.8687 44 38.7386 44.0258 38.6173 44.076C38.4959 44.1263 38.3857 44.2 38.2928 44.2928C38.2 44.3857 38.1263 44.4959 38.076 44.6173C38.0258 44.7386 38 44.8687 38 45V59C38 59.1313 38.0258 59.2614 38.076 59.3827C38.1263 59.5041 38.2 59.6143 38.2928 59.7072C38.3857 59.8 38.4959 59.8737 38.6173 59.924C38.7386 59.9742 38.8687 60 39 60H55C55.1313 60 55.2614 59.9742 55.3827 59.924C55.5041 59.8737 55.6143 59.8 55.7072 59.7072C55.8 59.6143 55.8737 59.5041 55.924 59.3827C55.9742 59.2614 56 59.1313 56 59V45C56 44.8687 55.9742 44.7386 55.924 44.6173C55.8737 44.4959 55.8 44.3857 55.7072 44.2928C55.6143 44.2 55.5041 44.1263 55.3827 44.076C55.2614 44.0258 55.1313 44 55 44ZM3 22.8008C2.98321 21.8386 3.23178 20.8905 3.71844 20.0603C4.2051 19.2301 4.91104 18.5501 5.75879 18.0947C5.9246 18.0115 6.06401 17.8838 6.16144 17.726C6.25888 17.5681 6.3105 17.3862 6.31055 17.2007C6.32163 15.9272 6.63551 14.6746 7.22625 13.5463C7.81699 12.4181 8.66766 11.4465 9.708 10.7119C10.7541 9.95891 11.9782 9.49133 13.2599 9.3552C14.5416 9.21907 15.8367 9.41908 17.0176 9.93554C17.152 9.98509 17.2956 10.0052 17.4385 9.99436C17.5814 9.98357 17.7203 9.94217 17.8458 9.87299C17.9713 9.8038 18.0804 9.70844 18.1658 9.59337C18.2513 9.4783 18.3109 9.3462 18.3408 9.20605C18.71 7.23314 19.7398 5.44467 21.2607 4.13495C22.7817 2.82522 24.7031 2.07227 26.709 2C28.6532 2.05815 30.5227 2.76208 32.0224 4.00071C33.5222 5.23934 34.5667 6.94213 34.9912 8.84033C35.0268 8.98079 35.0924 9.11184 35.1837 9.22439C35.2749 9.33695 35.3895 9.42833 35.5196 9.4922C35.6496 9.55606 35.792 9.59089 35.9368 9.59426C36.0817 9.59763 36.2255 9.56946 36.3584 9.51172C37.5313 9.05995 38.8033 8.92808 40.0439 9.12963C41.2846 9.33118 42.4494 9.85889 43.419 10.6587C44.3428 11.3237 45.0671 12.2287 45.5135 13.2758C45.9598 14.3229 46.1112 15.4722 45.9512 16.5991C45.9145 16.7723 45.9254 16.9521 45.9829 17.1195C46.0403 17.2869 46.1422 17.4355 46.2775 17.5496C46.4129 17.6636 46.5766 17.7388 46.7513 17.767C46.926 17.7953 47.1051 17.7756 47.2695 17.71C47.8313 17.487 48.4405 17.4098 49.0402 17.4856C49.6398 17.5614 50.2106 17.7878 50.6992 18.1436C51.4078 18.6973 51.9825 19.4035 52.3808 20.2097C52.7791 21.016 52.9908 21.9016 53 22.8008C53.0543 24.1201 52.5845 25.4073 51.6931 26.3813C50.8017 27.3554 49.5611 27.9373 48.2422 28H7.75781C6.4389 27.9373 5.19833 27.3554 4.30694 26.3813C3.41554 25.4073 2.9457 24.1201 3 22.8008ZM16 58H2V46H16V58ZM28 44C27.2089 44 26.4355 43.7654 25.7777 43.3259C25.1199 42.8864 24.6072 42.2616 24.3045 41.5307C24.0017 40.7998 23.9225 39.9956 24.0769 39.2196C24.2312 38.4437 24.6122 37.731 25.1716 37.1716C25.731 36.6122 26.4437 36.2312 27.2196 36.0769C27.9956 35.9225 28.7998 36.0017 29.5307 36.3045C30.2616 36.6072 30.8864 37.1199 31.3259 37.7777C31.7654 38.4355 32 39.2089 32 40C31.9989 41.0605 31.5771 42.0773 30.8272 42.8272C30.0773 43.5771 29.0605 43.9989 28 44ZM54 58H40V46H54V58Z" fill="white"/>
<path d="M43 51H51C51.2652 51 51.5196 50.8946 51.7071 50.7071C51.8946 50.5196 52 50.2652 52 50C52 49.7348 51.8946 49.4804 51.7071 49.2929C51.5196 49.1054 51.2652 49 51 49H43C42.7348 49 42.4804 49.1054 42.2929 49.2929C42.1054 49.4804 42 49.7348 42 50C42 50.2652 42.1054 50.5196 42.2929 50.7071C42.4804 50.8946 42.7348 51 43 51Z" fill="white"/>
<path d="M43 55H51C51.2652 55 51.5196 54.8946 51.7071 54.7071C51.8946 54.5196 52 54.2652 52 54C52 53.7348 51.8946 53.4804 51.7071 53.2929C51.5196 53.1054 51.2652 53 51 53H43C42.7348 53 42.4804 53.1054 42.2929 53.2929C42.1054 53.4804 42 53.7348 42 54C42 54.2652 42.1054 54.5196 42.2929 54.7071C42.4804 54.8946 42.7348 55 43 55Z" fill="white"/>
<path d="M5 51H13C13.2652 51 13.5196 50.8946 13.7071 50.7071C13.8946 50.5196 14 50.2652 14 50C14 49.7348 13.8946 49.4804 13.7071 49.2929C13.5196 49.1054 13.2652 49 13 49H5C4.73478 49 4.48043 49.1054 4.29289 49.2929C4.10536 49.4804 4 49.7348 4 50C4 50.2652 4.10536 50.5196 4.29289 50.7071C4.48043 50.8946 4.73478 51 5 51Z" fill="white"/>
<path d="M5 55H13C13.2652 55 13.5196 54.8946 13.7071 54.7071C13.8946 54.5196 14 54.2652 14 54C14 53.7348 13.8946 53.4804 13.7071 53.2929C13.5196 53.1054 13.2652 53 13 53H5C4.73478 53 4.48043 53.1054 4.29289 53.2929C4.10536 53.4804 4 53.7348 4 54C4 54.2652 4.10536 54.5196 4.29289 54.7071C4.48043 54.8946 4.73478 55 5 55Z" fill="white"/>
</svg>
