<svg width="70" height="75" viewBox="0 0 70 75" fill="none" xmlns="http://www.w3.org/2000/svg">
<path d="M18.7583 14.4116H18.7302C16.809 14.4851 14.9576 15.1509 13.4295 16.3177C11.9015 17.4846 10.7718 19.0955 10.1951 20.9296C10.0918 21.2446 10.1177 21.5877 10.2672 21.8836C10.4166 22.1796 10.6774 22.4041 10.9922 22.5079C11.3073 22.5965 11.6442 22.5638 11.9364 22.4163C12.2286 22.2687 12.4548 22.017 12.5706 21.7108C12.9851 20.3674 13.8049 19.185 14.9177 18.3257C16.0305 17.4664 17.3818 16.9723 18.7864 16.911C19.1154 16.9037 19.4282 16.7669 19.657 16.5303C19.8857 16.2937 20.0119 15.9765 20.0082 15.6474C20.0045 15.3184 19.8712 15.0041 19.6372 14.7727C19.4032 14.5413 19.0874 14.4116 18.7583 14.4116Z" fill="#00A7FA" fill-opacity="0.25"/>
<path d="M68.75 55H60V50C60 49.8358 59.9677 49.6733 59.9049 49.5216C59.8421 49.3699 59.7501 49.2321 59.634 49.116C59.5179 48.9999 59.3801 48.9079 59.2284 48.8451C59.0767 48.7823 58.9142 48.75 58.75 48.75H42.3871C42.1256 47.2175 41.3947 45.804 40.2954 44.7046C39.196 43.6053 37.7825 42.8744 36.25 42.6129V37.5H60.3027C62.6146 37.422 64.8015 36.4313 66.3846 34.7448C67.9678 33.0582 68.8183 30.8132 68.75 28.501C68.7381 26.9774 68.3775 25.4767 67.696 24.1139C67.0145 22.7512 66.03 21.5625 64.8181 20.639C63.4349 19.6429 61.7328 19.1922 60.0378 19.3732C59.9779 17.8063 59.5676 16.2728 58.8371 14.8853C58.1066 13.4979 57.0745 12.2917 55.8166 11.3556C54.4311 10.226 52.8003 9.43659 51.055 9.05048C49.3096 8.66437 47.498 8.69231 45.7653 9.13208C44.8989 6.5171 43.2433 4.2349 41.0265 2.59953C38.8096 0.964155 36.1405 0.0559898 33.3862 0C30.5409 0.0752427 27.7927 1.05082 25.5367 2.78647C23.2808 4.52212 21.6334 6.92843 20.8313 9.65942C19.1248 9.16855 17.3302 9.06466 15.5785 9.35535C13.8268 9.64604 12.162 10.324 10.7055 11.3397C9.17983 12.4186 7.91326 13.8234 6.9976 15.4523C6.08193 17.0811 5.5401 18.8933 5.41137 20.7575C4.12282 21.5944 3.06603 22.7427 2.33868 24.0961C1.61134 25.4496 1.23691 26.9645 1.25 28.501C1.18173 30.8132 2.03225 33.0582 3.6154 34.7448C5.19855 36.4313 7.38538 37.422 9.69726 37.5H33.75V42.6129C32.2175 42.8744 30.804 43.6053 29.7046 44.7046C28.6053 45.804 27.8744 47.2175 27.6129 48.75H11.25C11.0858 48.75 10.9233 48.7823 10.7716 48.8451C10.6199 48.9079 10.4821 48.9999 10.366 49.116C10.2499 49.2321 10.1579 49.3699 10.0951 49.5216C10.0323 49.6733 9.99996 49.8358 10 50V55H1.25C1.08584 55 0.923272 55.0323 0.771595 55.0951C0.619919 55.1579 0.482103 55.2499 0.366021 55.366C0.24994 55.4821 0.157867 55.6199 0.0950635 55.7716C0.0322602 55.9233 -4.26571e-05 56.0858 4.22761e-08 56.25V73.75C-4.26571e-05 73.9142 0.0322602 74.0767 0.0950635 74.2284C0.157867 74.3801 0.24994 74.5179 0.366021 74.634C0.482103 74.7501 0.619919 74.8421 0.771595 74.9049C0.923272 74.9677 1.08584 75 1.25 75H21.25C21.4142 75 21.5767 74.9677 21.7284 74.9049C21.8801 74.8421 22.0179 74.7501 22.134 74.634C22.2501 74.5179 22.3421 74.3801 22.4049 74.2284C22.4677 74.0767 22.5 73.9142 22.5 73.75V56.25C22.5 56.0858 22.4677 55.9233 22.4049 55.7716C22.3421 55.6199 22.2501 55.4821 22.134 55.366C22.0179 55.2499 21.8801 55.1579 21.7284 55.0951C21.5767 55.0323 21.4142 55 21.25 55H12.5V51.25H27.6129C27.9063 52.9971 28.8094 54.5836 30.1618 55.7279C31.5143 56.8721 33.2285 57.5 35 57.5C36.7715 57.5 38.4857 56.8721 39.8382 55.7279C41.1906 54.5836 42.0937 52.9971 42.3871 51.25H57.5V55H48.75C48.5858 55 48.4233 55.0323 48.2716 55.0951C48.1199 55.1579 47.9821 55.2499 47.866 55.366C47.7499 55.4821 47.6579 55.6199 47.5951 55.7716C47.5323 55.9233 47.5 56.0858 47.5 56.25V73.75C47.5 73.9142 47.5323 74.0767 47.5951 74.2284C47.6579 74.3801 47.7499 74.5179 47.866 74.634C47.9821 74.7501 48.1199 74.8421 48.2716 74.9049C48.4233 74.9677 48.5858 75 48.75 75H68.75C68.9142 75 69.0767 74.9677 69.2284 74.9049C69.3801 74.8421 69.5179 74.7501 69.634 74.634C69.7501 74.5179 69.8421 74.3801 69.9049 74.2284C69.9677 74.0767 70 73.9142 70 73.75V56.25C70 56.0858 69.9677 55.9233 69.9049 55.7716C69.8421 55.6199 69.7501 55.4821 69.634 55.366C69.5179 55.2499 69.3801 55.1579 69.2284 55.0951C69.0767 55.0323 68.9142 55 68.75 55ZM3.75 28.501C3.72901 27.2983 4.03973 26.1131 4.64805 25.0754C5.25638 24.0377 6.1388 23.1876 7.19849 22.6184C7.40575 22.5144 7.58001 22.3548 7.70181 22.1575C7.8236 21.9601 7.88813 21.7328 7.88819 21.5009C7.90204 19.909 8.29438 18.3433 9.03281 16.9329C9.77124 15.5226 10.8346 14.3082 12.135 13.3899C13.4426 12.4486 14.9728 11.8642 16.5749 11.694C18.177 11.5238 19.7958 11.7738 21.272 12.4194C21.44 12.4814 21.6195 12.5064 21.7981 12.4929C21.9767 12.4795 22.1504 12.4277 22.3072 12.3412C22.4641 12.2548 22.6005 12.1356 22.7073 11.9917C22.8141 11.8479 22.8887 11.6828 22.926 11.5076C23.3875 9.04142 24.6747 6.80584 26.5759 5.16868C28.4771 3.53153 30.8789 2.59034 33.3862 2.5C35.8165 2.57268 38.1534 3.4526 40.0281 5.00089C41.9027 6.54918 43.2084 8.67766 43.739 11.0504C43.7835 11.226 43.8656 11.3898 43.9796 11.5305C44.0936 11.6712 44.2369 11.7854 44.3995 11.8652C44.562 11.9451 44.74 11.9886 44.9211 11.9928C45.1021 11.997 45.2819 11.9618 45.448 11.8896C46.9142 11.3249 48.5041 11.1601 50.0549 11.412C51.6057 11.664 53.0617 12.3236 54.2737 13.3234C55.4285 14.1546 56.3339 15.2859 56.8918 16.5948C57.4498 17.9037 57.639 19.3402 57.439 20.7489C57.3931 20.9653 57.4067 21.1902 57.4786 21.3994C57.5504 21.6086 57.6777 21.7944 57.8469 21.937C58.0161 22.0795 58.2208 22.1735 58.4392 22.2088C58.6576 22.2441 58.8814 22.2195 59.0869 22.1375C59.7892 21.8587 60.5506 21.7622 61.3002 21.857C62.0498 21.9517 62.7632 22.2347 63.374 22.6795C64.2597 23.3717 64.9782 24.2544 65.476 25.2622C65.9739 26.27 66.2384 27.377 66.25 28.501C66.3179 30.1501 65.7306 31.7591 64.6163 32.9767C63.5021 34.1943 61.9514 34.9217 60.3027 35H9.69726C8.04862 34.9217 6.49792 34.1943 5.38367 32.9767C4.26942 31.7591 3.68213 30.1501 3.75 28.501ZM20 72.5H2.5V57.5H20V72.5ZM35 55C34.0111 55 33.0444 54.7068 32.2221 54.1573C31.3999 53.6079 30.759 52.827 30.3806 51.9134C30.0022 50.9998 29.9031 49.9945 30.0961 49.0245C30.289 48.0546 30.7652 47.1637 31.4645 46.4645C32.1637 45.7652 33.0546 45.289 34.0245 45.0961C34.9945 44.9031 35.9998 45.0022 36.9134 45.3806C37.827 45.759 38.6079 46.3999 39.1573 47.2221C39.7068 48.0444 40 49.0111 40 50C39.9986 51.3256 39.4713 52.5966 38.534 53.534C37.5966 54.4713 36.3256 54.9986 35 55ZM67.5 72.5H50V57.5H67.5V72.5Z" fill="#00A7FA" fill-opacity="0.25"/>
<path d="M53.75 63.75H63.75C64.0815 63.75 64.3995 63.6183 64.6339 63.3839C64.8683 63.1495 65 62.8315 65 62.5C65 62.1685 64.8683 61.8505 64.6339 61.6161C64.3995 61.3817 64.0815 61.25 63.75 61.25H53.75C53.4185 61.25 53.1005 61.3817 52.8661 61.6161C52.6317 61.8505 52.5 62.1685 52.5 62.5C52.5 62.8315 52.6317 63.1495 52.8661 63.3839C53.1005 63.6183 53.4185 63.75 53.75 63.75Z" fill="#00A7FA" fill-opacity="0.25"/>
<path d="M53.75 68.75H63.75C64.0815 68.75 64.3995 68.6183 64.6339 68.3839C64.8683 68.1495 65 67.8315 65 67.5C65 67.1685 64.8683 66.8505 64.6339 66.6161C64.3995 66.3817 64.0815 66.25 63.75 66.25H53.75C53.4185 66.25 53.1005 66.3817 52.8661 66.6161C52.6317 66.8505 52.5 67.1685 52.5 67.5C52.5 67.8315 52.6317 68.1495 52.8661 68.3839C53.1005 68.6183 53.4185 68.75 53.75 68.75Z" fill="#00A7FA" fill-opacity="0.25"/>
<path d="M6.25 63.75H16.25C16.5815 63.75 16.8995 63.6183 17.1339 63.3839C17.3683 63.1495 17.5 62.8315 17.5 62.5C17.5 62.1685 17.3683 61.8505 17.1339 61.6161C16.8995 61.3817 16.5815 61.25 16.25 61.25H6.25C5.91848 61.25 5.60054 61.3817 5.36612 61.6161C5.1317 61.8505 5 62.1685 5 62.5C5 62.8315 5.1317 63.1495 5.36612 63.3839C5.60054 63.6183 5.91848 63.75 6.25 63.75Z" fill="#00A7FA" fill-opacity="0.25"/>
<path d="M6.25 68.75H16.25C16.5815 68.75 16.8995 68.6183 17.1339 68.3839C17.3683 68.1495 17.5 67.8315 17.5 67.5C17.5 67.1685 17.3683 66.8505 17.1339 66.6161C16.8995 66.3817 16.5815 66.25 16.25 66.25H6.25C5.91848 66.25 5.60054 66.3817 5.36612 66.6161C5.1317 66.8505 5 67.1685 5 67.5C5 67.8315 5.1317 68.1495 5.36612 68.3839C5.60054 68.6183 5.91848 68.75 6.25 68.75Z" fill="#00A7FA" fill-opacity="0.25"/>
</svg>
