<svg width="80" height="89" viewBox="0 0 80 89" fill="none" xmlns="http://www.w3.org/2000/svg">
<path d="M40.0032 66.5043C45.9383 66.5043 51.6262 64.1465 55.8234 59.9494C60.0207 55.7522 62.3784 50.0643 62.3784 44.1291C62.3784 38.1939 60.0206 32.5061 55.8234 28.3088C51.6263 24.1116 45.9384 21.7539 40.0032 21.7539C34.0679 21.7539 28.3802 24.1117 24.1829 28.3088C19.9857 32.506 17.628 38.1939 17.628 44.1291C17.6361 50.0602 19.9939 55.748 24.187 59.9452C28.3841 64.1383 34.0721 66.4962 40.0032 66.5043ZM40.0032 26.0773C46.2502 26.0651 52.0597 29.2859 55.3619 34.5889C58.6641 39.8919 58.9878 46.5241 56.2208 52.1267C53.4537 57.7255 47.9886 61.4973 41.7695 62.0968C35.5508 62.7005 29.4661 60.0428 25.6775 55.072L32.982 47.7675L36.5998 51.3975V51.4015C37.0049 51.8066 37.5559 52.0335 38.1272 52.0335C38.7024 52.0335 39.2534 51.8066 39.6586 51.4015L48.1298 42.9303V45.9444H48.1257C48.1257 47.1395 49.094 48.1037 50.2891 48.1037C51.4801 48.1037 52.4484 47.1395 52.4484 45.9444V37.7122C52.4484 37.141 52.2215 36.5901 51.8163 36.1849C51.4112 35.7797 50.8602 35.5529 50.289 35.5529H42.0568C40.8617 35.5529 39.8935 36.5171 39.8935 37.7121C39.8935 38.9072 40.8617 39.8714 42.0568 39.8714H45.0709L38.1352 46.8193L34.5052 43.1894C34.1001 42.7843 33.5491 42.5574 32.9738 42.5574C32.4026 42.5574 31.8516 42.7843 31.4464 43.1894L23.4087 51.2392C21.0185 45.6606 21.5938 39.2553 24.9321 34.191C28.2744 29.1229 33.934 26.0764 40.0025 26.0764L40.0032 26.0773ZM0.993914 65.0222L2.91829 68.2632H2.91424C4.82234 71.484 8.82905 72.7804 12.2605 71.2896L16.0849 69.6164C20.1118 73.3881 24.9774 76.1511 30.281 77.6743L30.7995 81.8349C31.2816 85.5378 34.4335 88.3088 38.1688 88.3169H41.9284C45.6596 88.3088 48.8115 85.5378 49.2936 81.8349L49.7271 77.6743C55.014 76.1429 59.8633 73.384 63.8786 69.6164L67.703 71.2896C71.1385 72.7804 75.1411 71.484 77.0492 68.2632L78.9736 65.0222C80.8696 61.7934 80.0756 57.657 77.1141 55.364L73.8731 52.8239V52.828C75.3437 47.1238 75.3437 41.1365 73.8731 35.4323L77.1141 32.8922V32.8963C80.0756 30.6033 80.8696 26.4669 78.9736 23.2381L77.0492 19.9971C75.1411 16.7763 71.1385 15.4799 67.703 16.9707L63.8786 18.6439C59.8598 14.8965 55.0104 12.1538 49.7271 10.6386L49.2085 6.47796V6.48201C48.7264 2.77918 45.5746 0.00404478 41.8393 0H38.1243C34.389 0.004051 31.2372 2.77918 30.755 6.48201L30.281 10.6386C24.9941 12.17 20.1448 14.9329 16.1295 18.7006L12.3051 17.0274V17.0233C8.86965 15.5325 4.86698 16.8289 2.95888 20.0496L1.0345 23.2906C-0.861463 26.5195 -0.0674422 30.6559 2.89406 32.9488L6.13507 35.489C4.66443 41.1931 4.66443 47.1773 6.13507 52.8815L2.89406 55.4216C-0.0511592 57.6944 -0.865646 61.7974 0.993914 65.0222ZM5.48673 58.7874L9.92685 55.3519V55.356C10.6399 54.809 10.9397 53.8813 10.6844 53.0224C8.91003 47.2251 8.91003 41.0343 10.6844 35.2379C10.9397 34.379 10.6399 33.4512 9.92685 32.9043L5.48673 29.4689C4.2511 28.5128 3.91891 26.787 4.70889 25.4419L6.63326 22.2009C7.42731 20.8559 9.10047 20.3131 10.5306 20.9369L15.6959 23.1854V23.1813C16.5184 23.5419 17.4744 23.3596 18.1064 22.7195C22.101 18.6277 27.1651 15.7432 32.7236 14.3901C33.5906 14.1754 34.2388 13.4502 34.3522 12.563L35.045 6.95615C35.2394 5.40451 36.5601 4.2418 38.124 4.24584H41.8836C43.4473 4.24179 44.768 5.40451 44.9626 6.95615L45.6553 12.563C45.7688 13.4503 46.417 14.1755 47.2839 14.3901C52.8423 15.7433 57.9061 18.6277 61.9011 22.7195C62.5331 23.3596 63.4892 23.5419 64.3116 23.1813L69.477 20.9328V20.9369C70.9071 20.3089 72.5843 20.8518 73.3743 22.2009L75.2987 25.4419C76.1008 26.7748 75.7889 28.4966 74.5735 29.4689L70.1334 32.9043C69.4244 33.4513 69.1205 34.379 69.3798 35.2379C71.1502 41.0352 71.1502 47.226 69.3798 53.0224C69.1205 53.8813 69.4244 54.8091 70.1334 55.356L74.5735 58.7914C75.8091 59.7475 76.1413 61.4733 75.3513 62.8184L73.4269 66.0594H73.431C72.6329 67.4044 70.9638 67.9472 69.5297 67.3234L64.3117 65.079C63.4893 64.7184 62.5332 64.9007 61.9012 65.5408C57.9066 69.6326 52.8426 72.5171 47.284 73.8702C46.417 74.0849 45.7689 74.8101 45.6554 75.6973L44.9627 81.3041C44.7682 82.8558 43.4475 84.0185 41.8836 84.0145H38.1241C36.5603 84.0185 35.2396 82.8558 35.0451 81.3041L34.3523 75.6973C34.2389 74.81 33.5907 74.0848 32.7237 73.8702C27.1654 72.517 22.1015 69.6326 18.1065 65.5408C17.6973 65.1276 17.1423 64.8926 16.5589 64.8926C16.2632 64.8926 15.9674 64.9534 15.696 65.079L10.5306 67.3275V67.3234C9.10053 67.9473 7.42734 67.4044 6.63332 66.0594L4.70894 62.8184C3.91895 61.4733 4.25115 59.7475 5.48679 58.7914L5.48673 58.7874Z" fill="#FF6700"/>
</svg>
