<svg width="52" height="62" viewBox="0 0 52 62" fill="none" xmlns="http://www.w3.org/2000/svg">
<mask id="path-1-outside-1_1063_2161" maskUnits="userSpaceOnUse" x="0" y="0" width="52" height="62" fill="black">
<rect fill="white" width="52" height="62"/>
<path d="M47.3722 14.0981H43.2446C42.9913 8.812 38.6118 4.58942 33.2637 4.58942C32.3416 4.58942 31.4323 4.71471 30.5533 4.96258C28.4538 2.43671 25.4032 1 22.0933 1C16.0225 1 11.0833 5.93925 11.0833 12.0101C11.0833 12.5186 11.1183 13.0265 11.1877 13.529C10.5599 13.6354 9.95436 13.8274 9.38385 14.0988H4.62782C2.62733 14.0988 1 15.7261 1 17.7266V47.4207C1 49.4212 2.62733 51.0485 4.62782 51.0485H17.6067L16.6853 54.873H14.1116C12.2788 54.873 10.7876 56.3643 10.7876 58.197C10.7876 60.0298 12.2788 61.5211 14.1116 61.5211H37.8884C39.7212 61.5211 41.2124 60.0298 41.2124 58.197C41.2124 56.3643 39.7212 54.873 37.8884 54.873H35.3147L34.3933 51.0485H47.3722C49.3727 51.0485 51 49.4212 51 47.4207V17.7259C51 15.7255 49.372 14.0981 47.3722 14.0981ZM12.1771 15.0984C12.3886 15.0957 12.5941 15.0128 12.7483 14.8613C12.9551 14.6592 13.042 14.3642 12.978 14.0826C12.8251 13.4057 12.747 12.7086 12.747 12.0101C12.747 6.85664 16.9392 2.66438 22.0927 2.66438C25.0712 2.66438 27.8031 4.03575 29.5874 6.42623C29.8043 6.71721 30.1849 6.83374 30.5277 6.71452C31.406 6.40939 32.3261 6.25447 33.263 6.25447C37.8554 6.25447 41.591 9.99073 41.591 14.5824C41.591 15.5362 41.4307 16.4724 41.1141 17.3656C41.0326 17.5953 41.0562 17.8499 41.1788 18.0607C41.3014 18.2722 41.5102 18.4184 41.75 18.4621C41.7634 18.4648 41.7762 18.4669 41.7897 18.4682C43.578 18.704 44.9265 20.2424 44.9265 22.0455C44.9265 24.0352 43.3079 25.6538 41.3182 25.6538H12.3509C9.43976 25.6538 7.07151 23.2855 7.07151 20.3744C7.07151 17.5542 9.36028 15.19 12.1771 15.0984ZM4.62782 15.7625H7.16985C6.03085 17.0382 5.40713 18.6635 5.40713 20.3737C5.40713 24.2023 8.52236 27.3175 12.3509 27.3175H41.3195C44.2273 27.3175 46.5922 24.9519 46.5922 22.0448C46.5922 19.7379 45.0821 17.728 42.9529 17.0322C43.0587 16.6146 43.1355 16.1909 43.186 15.7625H47.3715C48.4539 15.7625 49.3343 16.6428 49.3343 17.7253V45.6741H2.66505V17.7259C2.66505 16.6435 3.5454 15.7625 4.62782 15.7625ZM39.5481 58.195C39.5481 59.1097 38.8038 59.854 37.8891 59.854H14.1116C13.1969 59.854 12.4526 59.1097 12.4526 58.195C12.4526 57.2803 13.1969 56.536 14.1116 56.536H37.8884C38.8038 56.536 39.5481 57.2803 39.5481 58.195ZM33.6025 54.8716H18.3975L19.3189 51.0472H32.6818L33.6025 54.8716ZM47.3722 49.3828H4.62782C3.5454 49.3828 2.66505 48.5024 2.66505 47.42V47.3399H49.3349V47.42C49.3349 48.5018 48.4546 49.3828 47.3722 49.3828ZM14.4922 38.9257C13.9688 36.9717 14.2376 34.9301 15.2492 33.1782C16.1855 31.5562 17.6532 30.3708 19.3721 29.7901C19.2165 29.5416 19.197 29.2176 19.3499 28.9428C19.5735 28.5414 20.0807 28.3972 20.4822 28.6202L22.0597 29.4985C22.2833 29.6231 22.4368 29.8427 22.4766 30.0953C22.5163 30.3479 22.4382 30.6045 22.2644 30.7917L21.0729 32.0749C20.9092 32.2513 20.6863 32.3409 20.4626 32.3409C20.2599 32.3409 20.0565 32.2675 19.8962 32.1187C19.7096 31.9449 19.6207 31.7058 19.6315 31.47C18.4096 31.9516 17.3703 32.832 16.69 34.01C15.9006 35.3774 15.6911 36.9697 16.0993 38.4946C16.5081 40.0196 17.4855 41.2939 18.8528 42.0834C20.2201 42.8728 21.8125 43.0823 23.3374 42.6741C24.8624 42.2652 26.1367 41.2879 26.9262 39.9206C27.5573 38.8267 27.82 37.588 27.6846 36.3372C27.6354 35.8798 27.9655 35.4696 28.4228 35.4205C28.8802 35.3713 29.2904 35.702 29.3395 36.1587C29.5126 37.7631 29.1765 39.3521 28.3676 40.7531C27.3559 42.505 25.7225 43.7585 23.7685 44.2826C23.1158 44.457 22.4537 44.5439 21.7956 44.5439C20.4828 44.5439 19.1876 44.1997 18.0203 43.5261C16.2697 42.5131 15.0162 40.8797 14.4922 38.9257ZM22.6591 36.835C22.486 35.2305 22.8221 33.6416 23.6311 32.2406C24.6428 30.4886 26.2762 29.2351 28.2302 28.7111C30.1842 28.1871 32.2258 28.4565 33.9777 29.4675C35.7296 30.4792 36.9831 32.1126 37.5072 34.0666C38.0305 36.0206 37.7618 38.0622 36.7501 39.8141C35.8132 41.4361 34.3461 42.6215 32.6272 43.2022C32.7828 43.4507 32.8023 43.7747 32.6494 44.0495C32.4972 44.323 32.2136 44.4772 31.9213 44.4772C31.7846 44.4772 31.6451 44.4435 31.5172 44.3721L29.9397 43.4938C29.7161 43.3692 29.5625 43.1496 29.5227 42.897C29.483 42.6444 29.5611 42.3878 29.7349 42.2006L30.9264 40.9174C31.239 40.5806 31.7657 40.5611 32.1025 40.8743C32.2891 41.0481 32.378 41.2872 32.3672 41.523C33.5884 41.0414 34.6284 40.161 35.308 38.9829C36.0974 37.6156 36.3069 36.0233 35.8987 34.4984C35.4898 32.9734 34.5125 31.699 33.1452 30.9096C31.7778 30.1202 30.1849 29.9107 28.6606 30.3189C27.1356 30.7277 25.8612 31.7051 25.0718 33.0724C24.4407 34.1663 24.178 35.405 24.3134 36.6565C24.3626 37.1138 24.0325 37.524 23.5752 37.5732C23.1192 37.623 22.7083 37.2923 22.6591 36.835Z"/>
</mask>
<path d="M47.3722 14.0981H43.2446C42.9913 8.812 38.6118 4.58942 33.2637 4.58942C32.3416 4.58942 31.4323 4.71471 30.5533 4.96258C28.4538 2.43671 25.4032 1 22.0933 1C16.0225 1 11.0833 5.93925 11.0833 12.0101C11.0833 12.5186 11.1183 13.0265 11.1877 13.529C10.5599 13.6354 9.95436 13.8274 9.38385 14.0988H4.62782C2.62733 14.0988 1 15.7261 1 17.7266V47.4207C1 49.4212 2.62733 51.0485 4.62782 51.0485H17.6067L16.6853 54.873H14.1116C12.2788 54.873 10.7876 56.3643 10.7876 58.197C10.7876 60.0298 12.2788 61.5211 14.1116 61.5211H37.8884C39.7212 61.5211 41.2124 60.0298 41.2124 58.197C41.2124 56.3643 39.7212 54.873 37.8884 54.873H35.3147L34.3933 51.0485H47.3722C49.3727 51.0485 51 49.4212 51 47.4207V17.7259C51 15.7255 49.372 14.0981 47.3722 14.0981ZM12.1771 15.0984C12.3886 15.0957 12.5941 15.0128 12.7483 14.8613C12.9551 14.6592 13.042 14.3642 12.978 14.0826C12.8251 13.4057 12.747 12.7086 12.747 12.0101C12.747 6.85664 16.9392 2.66438 22.0927 2.66438C25.0712 2.66438 27.8031 4.03575 29.5874 6.42623C29.8043 6.71721 30.1849 6.83374 30.5277 6.71452C31.406 6.40939 32.3261 6.25447 33.263 6.25447C37.8554 6.25447 41.591 9.99073 41.591 14.5824C41.591 15.5362 41.4307 16.4724 41.1141 17.3656C41.0326 17.5953 41.0562 17.8499 41.1788 18.0607C41.3014 18.2722 41.5102 18.4184 41.75 18.4621C41.7634 18.4648 41.7762 18.4669 41.7897 18.4682C43.578 18.704 44.9265 20.2424 44.9265 22.0455C44.9265 24.0352 43.3079 25.6538 41.3182 25.6538H12.3509C9.43976 25.6538 7.07151 23.2855 7.07151 20.3744C7.07151 17.5542 9.36028 15.19 12.1771 15.0984ZM4.62782 15.7625H7.16985C6.03085 17.0382 5.40713 18.6635 5.40713 20.3737C5.40713 24.2023 8.52236 27.3175 12.3509 27.3175H41.3195C44.2273 27.3175 46.5922 24.9519 46.5922 22.0448C46.5922 19.7379 45.0821 17.728 42.9529 17.0322C43.0587 16.6146 43.1355 16.1909 43.186 15.7625H47.3715C48.4539 15.7625 49.3343 16.6428 49.3343 17.7253V45.6741H2.66505V17.7259C2.66505 16.6435 3.5454 15.7625 4.62782 15.7625ZM39.5481 58.195C39.5481 59.1097 38.8038 59.854 37.8891 59.854H14.1116C13.1969 59.854 12.4526 59.1097 12.4526 58.195C12.4526 57.2803 13.1969 56.536 14.1116 56.536H37.8884C38.8038 56.536 39.5481 57.2803 39.5481 58.195ZM33.6025 54.8716H18.3975L19.3189 51.0472H32.6818L33.6025 54.8716ZM47.3722 49.3828H4.62782C3.5454 49.3828 2.66505 48.5024 2.66505 47.42V47.3399H49.3349V47.42C49.3349 48.5018 48.4546 49.3828 47.3722 49.3828ZM14.4922 38.9257C13.9688 36.9717 14.2376 34.9301 15.2492 33.1782C16.1855 31.5562 17.6532 30.3708 19.3721 29.7901C19.2165 29.5416 19.197 29.2176 19.3499 28.9428C19.5735 28.5414 20.0807 28.3972 20.4822 28.6202L22.0597 29.4985C22.2833 29.6231 22.4368 29.8427 22.4766 30.0953C22.5163 30.3479 22.4382 30.6045 22.2644 30.7917L21.0729 32.0749C20.9092 32.2513 20.6863 32.3409 20.4626 32.3409C20.2599 32.3409 20.0565 32.2675 19.8962 32.1187C19.7096 31.9449 19.6207 31.7058 19.6315 31.47C18.4096 31.9516 17.3703 32.832 16.69 34.01C15.9006 35.3774 15.6911 36.9697 16.0993 38.4946C16.5081 40.0196 17.4855 41.2939 18.8528 42.0834C20.2201 42.8728 21.8125 43.0823 23.3374 42.6741C24.8624 42.2652 26.1367 41.2879 26.9262 39.9206C27.5573 38.8267 27.82 37.588 27.6846 36.3372C27.6354 35.8798 27.9655 35.4696 28.4228 35.4205C28.8802 35.3713 29.2904 35.702 29.3395 36.1587C29.5126 37.7631 29.1765 39.3521 28.3676 40.7531C27.3559 42.505 25.7225 43.7585 23.7685 44.2826C23.1158 44.457 22.4537 44.5439 21.7956 44.5439C20.4828 44.5439 19.1876 44.1997 18.0203 43.5261C16.2697 42.5131 15.0162 40.8797 14.4922 38.9257ZM22.6591 36.835C22.486 35.2305 22.8221 33.6416 23.6311 32.2406C24.6428 30.4886 26.2762 29.2351 28.2302 28.7111C30.1842 28.1871 32.2258 28.4565 33.9777 29.4675C35.7296 30.4792 36.9831 32.1126 37.5072 34.0666C38.0305 36.0206 37.7618 38.0622 36.7501 39.8141C35.8132 41.4361 34.3461 42.6215 32.6272 43.2022C32.7828 43.4507 32.8023 43.7747 32.6494 44.0495C32.4972 44.323 32.2136 44.4772 31.9213 44.4772C31.7846 44.4772 31.6451 44.4435 31.5172 44.3721L29.9397 43.4938C29.7161 43.3692 29.5625 43.1496 29.5227 42.897C29.483 42.6444 29.5611 42.3878 29.7349 42.2006L30.9264 40.9174C31.239 40.5806 31.7657 40.5611 32.1025 40.8743C32.2891 41.0481 32.378 41.2872 32.3672 41.523C33.5884 41.0414 34.6284 40.161 35.308 38.9829C36.0974 37.6156 36.3069 36.0233 35.8987 34.4984C35.4898 32.9734 34.5125 31.699 33.1452 30.9096C31.7778 30.1202 30.1849 29.9107 28.6606 30.3189C27.1356 30.7277 25.8612 31.7051 25.0718 33.0724C24.4407 34.1663 24.178 35.405 24.3134 36.6565C24.3626 37.1138 24.0325 37.524 23.5752 37.5732C23.1192 37.623 22.7083 37.2923 22.6591 36.835Z" fill="white"/>
<path d="M47.3722 14.0981H43.2446C42.9913 8.812 38.6118 4.58942 33.2637 4.58942C32.3416 4.58942 31.4323 4.71471 30.5533 4.96258C28.4538 2.43671 25.4032 1 22.0933 1C16.0225 1 11.0833 5.93925 11.0833 12.0101C11.0833 12.5186 11.1183 13.0265 11.1877 13.529C10.5599 13.6354 9.95436 13.8274 9.38385 14.0988H4.62782C2.62733 14.0988 1 15.7261 1 17.7266V47.4207C1 49.4212 2.62733 51.0485 4.62782 51.0485H17.6067L16.6853 54.873H14.1116C12.2788 54.873 10.7876 56.3643 10.7876 58.197C10.7876 60.0298 12.2788 61.5211 14.1116 61.5211H37.8884C39.7212 61.5211 41.2124 60.0298 41.2124 58.197C41.2124 56.3643 39.7212 54.873 37.8884 54.873H35.3147L34.3933 51.0485H47.3722C49.3727 51.0485 51 49.4212 51 47.4207V17.7259C51 15.7255 49.372 14.0981 47.3722 14.0981ZM12.1771 15.0984C12.3886 15.0957 12.5941 15.0128 12.7483 14.8613C12.9551 14.6592 13.042 14.3642 12.978 14.0826C12.8251 13.4057 12.747 12.7086 12.747 12.0101C12.747 6.85664 16.9392 2.66438 22.0927 2.66438C25.0712 2.66438 27.8031 4.03575 29.5874 6.42623C29.8043 6.71721 30.1849 6.83374 30.5277 6.71452C31.406 6.40939 32.3261 6.25447 33.263 6.25447C37.8554 6.25447 41.591 9.99073 41.591 14.5824C41.591 15.5362 41.4307 16.4724 41.1141 17.3656C41.0326 17.5953 41.0562 17.8499 41.1788 18.0607C41.3014 18.2722 41.5102 18.4184 41.75 18.4621C41.7634 18.4648 41.7762 18.4669 41.7897 18.4682C43.578 18.704 44.9265 20.2424 44.9265 22.0455C44.9265 24.0352 43.3079 25.6538 41.3182 25.6538H12.3509C9.43976 25.6538 7.07151 23.2855 7.07151 20.3744C7.07151 17.5542 9.36028 15.19 12.1771 15.0984ZM4.62782 15.7625H7.16985C6.03085 17.0382 5.40713 18.6635 5.40713 20.3737C5.40713 24.2023 8.52236 27.3175 12.3509 27.3175H41.3195C44.2273 27.3175 46.5922 24.9519 46.5922 22.0448C46.5922 19.7379 45.0821 17.728 42.9529 17.0322C43.0587 16.6146 43.1355 16.1909 43.186 15.7625H47.3715C48.4539 15.7625 49.3343 16.6428 49.3343 17.7253V45.6741H2.66505V17.7259C2.66505 16.6435 3.5454 15.7625 4.62782 15.7625ZM39.5481 58.195C39.5481 59.1097 38.8038 59.854 37.8891 59.854H14.1116C13.1969 59.854 12.4526 59.1097 12.4526 58.195C12.4526 57.2803 13.1969 56.536 14.1116 56.536H37.8884C38.8038 56.536 39.5481 57.2803 39.5481 58.195ZM33.6025 54.8716H18.3975L19.3189 51.0472H32.6818L33.6025 54.8716ZM47.3722 49.3828H4.62782C3.5454 49.3828 2.66505 48.5024 2.66505 47.42V47.3399H49.3349V47.42C49.3349 48.5018 48.4546 49.3828 47.3722 49.3828ZM14.4922 38.9257C13.9688 36.9717 14.2376 34.9301 15.2492 33.1782C16.1855 31.5562 17.6532 30.3708 19.3721 29.7901C19.2165 29.5416 19.197 29.2176 19.3499 28.9428C19.5735 28.5414 20.0807 28.3972 20.4822 28.6202L22.0597 29.4985C22.2833 29.6231 22.4368 29.8427 22.4766 30.0953C22.5163 30.3479 22.4382 30.6045 22.2644 30.7917L21.0729 32.0749C20.9092 32.2513 20.6863 32.3409 20.4626 32.3409C20.2599 32.3409 20.0565 32.2675 19.8962 32.1187C19.7096 31.9449 19.6207 31.7058 19.6315 31.47C18.4096 31.9516 17.3703 32.832 16.69 34.01C15.9006 35.3774 15.6911 36.9697 16.0993 38.4946C16.5081 40.0196 17.4855 41.2939 18.8528 42.0834C20.2201 42.8728 21.8125 43.0823 23.3374 42.6741C24.8624 42.2652 26.1367 41.2879 26.9262 39.9206C27.5573 38.8267 27.82 37.588 27.6846 36.3372C27.6354 35.8798 27.9655 35.4696 28.4228 35.4205C28.8802 35.3713 29.2904 35.702 29.3395 36.1587C29.5126 37.7631 29.1765 39.3521 28.3676 40.7531C27.3559 42.505 25.7225 43.7585 23.7685 44.2826C23.1158 44.457 22.4537 44.5439 21.7956 44.5439C20.4828 44.5439 19.1876 44.1997 18.0203 43.5261C16.2697 42.5131 15.0162 40.8797 14.4922 38.9257ZM22.6591 36.835C22.486 35.2305 22.8221 33.6416 23.6311 32.2406C24.6428 30.4886 26.2762 29.2351 28.2302 28.7111C30.1842 28.1871 32.2258 28.4565 33.9777 29.4675C35.7296 30.4792 36.9831 32.1126 37.5072 34.0666C38.0305 36.0206 37.7618 38.0622 36.7501 39.8141C35.8132 41.4361 34.3461 42.6215 32.6272 43.2022C32.7828 43.4507 32.8023 43.7747 32.6494 44.0495C32.4972 44.323 32.2136 44.4772 31.9213 44.4772C31.7846 44.4772 31.6451 44.4435 31.5172 44.3721L29.9397 43.4938C29.7161 43.3692 29.5625 43.1496 29.5227 42.897C29.483 42.6444 29.5611 42.3878 29.7349 42.2006L30.9264 40.9174C31.239 40.5806 31.7657 40.5611 32.1025 40.8743C32.2891 41.0481 32.378 41.2872 32.3672 41.523C33.5884 41.0414 34.6284 40.161 35.308 38.9829C36.0974 37.6156 36.3069 36.0233 35.8987 34.4984C35.4898 32.9734 34.5125 31.699 33.1452 30.9096C31.7778 30.1202 30.1849 29.9107 28.6606 30.3189C27.1356 30.7277 25.8612 31.7051 25.0718 33.0724C24.4407 34.1663 24.178 35.405 24.3134 36.6565C24.3626 37.1138 24.0325 37.524 23.5752 37.5732C23.1192 37.623 22.7083 37.2923 22.6591 36.835Z" stroke="white" stroke-width="0.2" mask="url(#path-1-outside-1_1063_2161)"/>
</svg>
