<svg width="70" height="85" viewBox="0 0 70 85" fill="none" xmlns="http://www.w3.org/2000/svg">
<path d="M64.9211 18.3374H59.1424C58.7879 10.9368 52.6565 5.02519 45.1692 5.02519C43.8783 5.02519 42.6052 5.20059 41.3746 5.54761C38.4353 2.0114 34.1645 0 29.5307 0C21.0315 0 14.1166 6.91494 14.1166 15.4141C14.1166 16.1261 14.1656 16.8371 14.2627 17.5405C13.3839 17.6895 12.5361 17.9583 11.7374 18.3383H5.07894C2.27826 18.3383 0 20.6166 0 23.4173V64.989C0 67.7896 2.27826 70.0679 5.07894 70.0679H23.2494L21.9594 75.4222H18.3562C15.7904 75.4222 13.7026 77.51 13.7026 80.0758C13.7026 82.6417 15.7904 84.7295 18.3562 84.7295H51.6438C54.2096 84.7295 56.2974 82.6417 56.2974 80.0758C56.2974 77.51 54.2096 75.4222 51.6438 75.4222H48.0406L46.7506 70.0679H64.9211C67.7217 70.0679 70 67.7896 70 64.989V23.4163C70 20.6156 67.7208 18.3374 64.9211 18.3374ZM15.648 19.7377C15.9441 19.7339 16.2317 19.618 16.4476 19.4058C16.7371 19.1229 16.8588 18.7099 16.7692 18.3157C16.5551 17.368 16.4457 16.392 16.4457 15.4141C16.4457 8.1993 22.3149 2.33013 29.5297 2.33013C33.6996 2.33013 37.5244 4.25005 40.0224 7.59672C40.326 8.0041 40.8588 8.16723 41.3388 8.00032C42.5684 7.57315 43.8566 7.35626 45.1683 7.35626C51.5976 7.35626 56.8274 12.587 56.8274 19.0154C56.8274 20.3507 56.603 21.6614 56.1597 22.9118C56.0456 23.2334 56.0787 23.5898 56.2503 23.885C56.4219 24.1811 56.7142 24.3857 57.0499 24.447C57.0688 24.4508 57.0867 24.4536 57.1056 24.4555C59.6092 24.7855 61.4971 26.9393 61.4971 29.4637C61.4971 32.2493 59.2311 34.5153 56.4455 34.5153H15.8913C11.8157 34.5153 8.50011 31.1998 8.50011 27.1242C8.50011 23.1759 11.7044 19.866 15.648 19.7377ZM5.07894 20.6675H8.63778C7.04319 22.4535 6.16998 24.729 6.16998 27.1232C6.16998 32.4832 10.5313 36.8445 15.8913 36.8445H56.4474C60.5182 36.8445 63.8291 33.5327 63.8291 29.4628C63.8291 26.233 61.7149 23.4191 58.7341 22.445C58.8822 21.8604 58.9897 21.2672 59.0604 20.6675H64.9201C66.4355 20.6675 67.668 21.9 67.668 23.4154V62.5438H2.33107V23.4163C2.33107 21.9009 3.56356 20.6675 5.07894 20.6675ZM53.9673 80.073C53.9673 81.3536 52.9253 82.3956 51.6447 82.3956H18.3562C17.0757 82.3956 16.0337 81.3536 16.0337 80.073C16.0337 78.7924 17.0757 77.7504 18.3562 77.7504H51.6438C52.9253 77.7504 53.9673 78.7924 53.9673 80.073ZM45.6435 75.4203H24.3565L25.6465 70.066H44.3545L45.6435 75.4203ZM64.9211 67.7359H5.07894C3.56356 67.7359 2.33107 66.5034 2.33107 64.988V64.8758H67.6689V64.988C67.6689 66.5024 66.4364 67.7359 64.9211 67.7359ZM18.889 53.096C18.1563 50.3604 18.5326 47.5022 19.9489 45.0494C21.2597 42.7787 23.3145 41.1191 25.721 40.3062C25.5032 39.9582 25.4758 39.5047 25.6899 39.1199C26.0029 38.5579 26.713 38.3561 27.275 38.6682L29.4835 39.8979C29.7966 40.0723 30.0116 40.3798 30.0672 40.7334C30.1229 41.087 30.0135 41.4463 29.7702 41.7084L28.102 43.5048C27.8729 43.7519 27.5608 43.8773 27.2477 43.8773C26.9638 43.8773 26.6791 43.7745 26.4546 43.5661C26.1934 43.3228 26.0689 42.9881 26.084 42.658C24.3735 43.3323 22.9184 44.5647 21.966 46.214C20.8608 48.1283 20.5675 50.3575 21.139 52.4925C21.7114 54.6274 23.0797 56.4115 24.9939 57.5167C26.9082 58.6219 29.1374 58.9152 31.2724 58.3437C33.4073 57.7713 35.1914 56.403 36.2966 54.4888C37.1802 52.9574 37.548 51.2232 37.3584 49.4721C37.2896 48.8318 37.7516 48.2575 38.3919 48.1887C39.0322 48.1198 39.6065 48.5828 39.6753 49.2222C39.9177 51.4684 39.4471 53.6929 38.3146 55.6543C36.8982 58.107 34.6115 59.8619 31.8759 60.5956C30.9621 60.8398 30.0352 60.9615 29.1139 60.9615C27.276 60.9615 25.4626 60.4796 23.8284 59.5366C21.3776 58.1183 19.6227 55.8316 18.889 53.096ZM30.3228 50.1689C30.0804 47.9227 30.551 45.6982 31.6835 43.7368C33.0999 41.2841 35.3866 39.5292 38.1222 38.7955C40.8579 38.0619 43.7161 38.4391 46.1688 39.8545C48.6215 41.2709 50.3764 43.5576 51.11 46.2932C51.8427 49.0289 51.4665 51.8871 50.0501 54.3398C48.7384 56.6105 46.6846 58.2702 44.2781 59.083C44.4959 59.431 44.5233 59.8846 44.3092 60.2693C44.0961 60.6521 43.6991 60.8681 43.2898 60.8681C43.0984 60.8681 42.9032 60.8209 42.724 60.721L40.5155 59.4913C40.2025 59.3169 39.9875 59.0095 39.9318 58.6558C39.8762 58.3022 39.9856 57.9429 40.2289 57.6808L41.897 55.8844C42.3346 55.4129 43.072 55.3856 43.5435 55.824C43.8047 56.0673 43.9292 56.4021 43.9141 56.7321C45.6237 56.0579 47.0797 54.8254 48.0312 53.1761C49.1364 51.2619 49.4296 49.0326 48.8582 46.8977C48.2858 44.7628 46.9175 42.9786 45.0032 41.8735C43.089 40.7683 40.8588 40.475 38.7248 41.0465C36.5899 41.6188 34.8057 42.9871 33.7006 44.9014C32.817 46.4328 32.4492 48.167 32.6388 49.919C32.7076 50.5593 32.2455 51.1336 31.6052 51.2024C30.9668 51.2722 30.3916 50.8092 30.3228 50.1689Z" fill="#00A7FA" fill-opacity="0.25"/>
</svg>
