<svg width="82" height="81" viewBox="0 0 82 81" fill="none" xmlns="http://www.w3.org/2000/svg">
<path d="M42.433 73.3517C42.433 74.1249 43.0598 74.7517 43.833 74.7517C44.6061 74.7517 45.233 74.1249 45.233 73.3517V53.7923C45.233 51.458 43.3342 49.5592 41 49.5592C38.6658 49.5592 36.767 51.458 36.767 53.7923V73.3517C36.767 74.1249 37.3938 74.7517 38.167 74.7517C38.9402 74.7517 39.567 74.1249 39.567 73.3517V53.7923C39.567 53.0022 40.21 52.3592 41 52.3592C41.79 52.3592 42.433 53.0023 42.433 53.7923V73.3517Z" fill="#FF6700" stroke="#FF6700" stroke-width="0.3"/>
<path d="M38.0063 2.09017L38.0062 2.09022C37.2073 2.88991 36.767 3.95325 36.767 5.08291V10.9388C36.767 11.712 37.3938 12.3387 38.167 12.3387C38.9402 12.3387 39.567 11.712 39.567 10.9388V5.08284C39.567 4.70004 39.716 4.34046 39.9867 4.06946C40.2574 3.79873 40.6168 3.64993 40.9999 3.64993C41.79 3.64993 42.4329 4.2929 42.4329 5.0829V10.9389C42.4329 11.7121 43.0596 12.3389 43.8329 12.3389C44.606 12.3389 45.2329 11.7121 45.2329 10.9389V5.08297C45.2329 2.74878 43.3341 0.85 40.9999 0.85C39.8695 0.85 38.806 1.29045 38.0063 2.09017Z" fill="#FF6700" stroke="#FF6700" stroke-width="0.3"/>
<path d="M34.4174 15.2789C34.4174 18.9085 37.37 21.8612 40.9996 21.8612C44.6292 21.8612 47.5818 18.9085 47.5818 15.2789C47.5818 11.6493 44.6292 8.69668 40.9996 8.69668C37.37 8.69668 34.4174 11.6493 34.4174 15.2789ZM37.2174 15.2789C37.2174 13.1935 38.9142 11.4967 40.9996 11.4967C43.085 11.4967 44.7818 13.1935 44.7818 15.2789C44.7818 17.3643 43.085 19.0612 40.9996 19.0612C38.9142 19.0612 37.2174 17.3643 37.2174 15.2789Z" fill="#FF6700" stroke="#FF6700" stroke-width="0.3"/>
<path d="M4.53982 46.0578C6.86522 48.0826 9.94303 49.1955 13.2044 49.1955C16.4657 49.1955 19.5436 48.0826 21.8691 46.0578C24.2449 43.9891 25.5579 41.219 25.5579 38.2579C25.5579 37.4847 24.9311 36.8579 24.1579 36.8579H2.25097C1.47774 36.8579 0.850977 37.4847 0.850977 38.2579C0.850977 41.219 2.16401 43.9891 4.53982 46.0578ZM13.2043 46.3955C8.48052 46.3955 4.57119 43.4649 3.79246 39.6579H22.6162C21.8376 43.4649 17.9282 46.3955 13.2043 46.3955Z" fill="#FF6700" stroke="#FF6700" stroke-width="0.3"/>
<path d="M24.7181 39.5403C25.4265 39.2305 25.7497 38.4051 25.4398 37.6967L15.3909 14.7178C15.168 14.2081 14.6646 13.8788 14.1082 13.8788H12.2992C11.743 13.8788 11.2394 14.2082 11.0165 14.7178L0.96759 37.6967L0.967588 37.6967C0.657828 38.405 0.980948 39.2305 1.68936 39.5403C2.39775 39.85 3.22315 39.527 3.53298 38.8185L3.39555 38.7584L3.53298 38.8185L13.2037 16.7045L22.8745 38.8185L23.0087 38.7598L22.8745 38.8185C23.1045 39.3446 23.6187 39.6579 24.1578 39.6579C24.3453 39.6579 24.5358 39.62 24.7181 39.5403ZM24.7181 39.5403L24.658 39.4028L24.7181 39.5403C24.7181 39.5403 24.7181 39.5403 24.7181 39.5403Z" fill="#FF6700" stroke="#FF6700" stroke-width="0.3"/>
<path d="M60.1316 46.0578L60.2301 45.9447L60.1316 46.0579C62.4571 48.0826 65.5349 49.1955 68.7963 49.1955C72.0576 49.1955 75.1354 48.0826 77.4609 46.0579C79.8367 43.9891 81.1497 41.219 81.1497 38.2579C81.1497 37.4847 80.5229 36.8579 79.7497 36.8579H57.8428C57.0695 36.8579 56.4428 37.4847 56.4428 38.2579C56.4428 41.219 57.7558 43.9891 60.1316 46.0578ZM68.7963 46.3955C64.0724 46.3955 60.1631 43.4649 59.3844 39.6579H78.2082C77.4295 43.4649 73.5201 46.3955 68.7963 46.3955Z" fill="#FF6700" stroke="#FF6700" stroke-width="0.3"/>
<path d="M59.1258 38.8185L58.9883 38.7584L59.1258 38.8185L68.7965 16.7043L78.4672 38.8185C78.6972 39.3446 79.2115 39.6579 79.7506 39.6579C79.938 39.6579 80.1285 39.62 80.3108 39.5403C81.0192 39.2305 81.3424 38.4051 81.0326 37.6967L70.9837 14.7178C70.7608 14.2081 70.2573 13.8788 69.7011 13.8788H67.8919C67.3357 13.8788 66.8321 14.2082 66.6092 14.7178L56.5604 37.6967L56.5604 37.6967C56.2506 38.405 56.5737 39.2304 57.2821 39.5403C57.9904 39.85 58.8159 39.527 59.1258 38.8185Z" fill="#FF6700" stroke="#FF6700" stroke-width="0.3"/>
<path d="M24.5107 80.4178H57.4889C58.2621 80.4178 58.8888 79.7909 58.8888 79.0177C58.8888 75.1214 55.7191 71.9518 51.8228 71.9518L30.1767 71.9519C26.2804 71.9519 23.1107 75.1215 23.1107 79.0178C23.1107 79.791 23.7375 80.4178 24.5107 80.4178ZM55.8529 77.6178H26.1467C26.7274 75.9509 28.315 74.7518 30.1767 74.7518L51.8228 74.7519C53.6845 74.7519 55.2722 75.9509 55.8529 77.6178Z" fill="#FF6700" stroke="#FF6700" stroke-width="0.3"/>
<path d="M39.6 50.9593C39.6 51.7326 40.2268 52.3593 40.9999 52.3593C41.7732 52.3593 42.3999 51.7325 42.3999 50.9593V20.4612C42.3999 19.6879 41.7732 19.0612 40.9999 19.0612C40.2268 19.0612 39.6 19.688 39.6 20.4612V50.9593Z" fill="#FF6700" stroke="#FF6700" stroke-width="0.3"/>
<path d="M46.1816 16.6788H67.8911C68.6643 16.6788 69.2911 16.052 69.2911 15.2788C69.2911 14.5056 68.6643 13.8788 67.8911 13.8788H46.1816C45.4084 13.8788 44.7816 14.5056 44.7816 15.2788C44.7816 16.052 45.4084 16.6788 46.1816 16.6788Z" fill="#FF6700" stroke="#FF6700" stroke-width="0.3"/>
<path d="M14.1084 16.6788H35.8178C36.591 16.6788 37.2178 16.052 37.2178 15.2788C37.2178 14.5056 36.5911 13.8788 35.8178 13.8788H14.1084C13.3352 13.8788 12.7084 14.5056 12.7084 15.2788C12.7084 16.052 13.3352 16.6788 14.1084 16.6788Z" fill="#FF6700" stroke="#FF6700" stroke-width="0.3"/>
</svg>
