<svg width="82" height="95" viewBox="0 0 82 95" fill="none" xmlns="http://www.w3.org/2000/svg">
<mask id="path-1-outside-1_1056_1844" maskUnits="userSpaceOnUse" x="0" y="0" width="82" height="95" fill="black">
<rect fill="white" width="82" height="95"/>
<path d="M77.9444 61.6648C76.6502 60.9553 75.185 60.6176 73.7108 60.6893C72.2367 60.7609 70.8111 61.239 69.5918 62.0707L53.0489 71.0834C52.9854 71.1171 52.9251 71.1565 52.8687 71.201C52.5932 71.4107 52.2892 71.5802 51.9659 71.7044C52.5139 70.9926 52.8328 70.1312 52.8804 69.2342C52.9705 67.1297 51.5028 65.1205 48.506 63.2628C42.204 59.3504 29.8553 56.7743 24.9659 59.4574L24.9192 59.485L14.1919 65.965L13.98 65.5952C13.3711 64.5461 12.3715 63.7808 11.1999 63.4666C10.0282 63.1525 8.77988 63.315 7.72778 63.9188L3.28553 66.4822C2.2362 67.0909 1.47071 68.0905 1.15653 69.2622C0.842352 70.4339 1.00507 71.6824 1.60909 72.7344L12.4498 91.5133C13.0575 92.5637 14.0572 93.3301 15.2294 93.6442C16.4015 93.9583 17.6505 93.7945 18.702 93.1887L23.1411 90.6263C24.161 90.0358 24.9143 89.0752 25.2446 87.9439C25.575 86.8127 25.4569 85.5976 24.915 84.5511L25.8878 83.9216C25.9864 83.9545 26.0997 83.9905 26.2428 84.0276L42.152 88.3988C43.4623 88.867 44.8416 89.1127 46.2329 89.1258C48.24 89.1235 50.2042 88.5445 51.8917 87.4578L76.4343 72.6581C80.2397 70.8852 80.9274 68.3419 80.9984 66.9781C81.0236 65.8979 80.7522 64.8315 80.2138 63.8947C79.6753 62.958 78.8904 62.1867 77.9444 61.6648ZM21.8281 88.348L17.389 90.9114C16.9415 91.1691 16.41 91.2388 15.9111 91.1051C15.4122 90.9714 14.9868 90.6452 14.7281 90.1982L3.88744 71.4214C3.63188 70.9732 3.56344 70.4423 3.69696 69.9439C3.83048 69.4455 4.1552 69.0199 4.60061 68.7595L9.03969 66.1971C9.33258 66.027 9.66529 65.9374 10.004 65.9375C10.1772 65.938 10.3497 65.9611 10.5169 66.0064C10.7643 66.071 10.9964 66.1842 11.1996 66.3394C11.4028 66.4946 11.5731 66.6886 11.7006 66.9103L22.5413 85.6871C22.7991 86.1346 22.8687 86.6662 22.735 87.165C22.6013 87.6639 22.2752 88.0893 21.8281 88.348ZM78.3735 66.8435C78.3047 68.1862 77.2026 69.4144 75.2707 70.3003C75.226 70.3207 75.1825 70.3437 75.1404 70.3691L50.5247 85.2123L50.5035 85.2261C49.3942 85.9306 48.1324 86.3595 46.8235 86.477C45.5146 86.5944 44.1967 86.3969 42.9797 85.9011L42.8938 85.8746L26.9411 81.4928C26.7695 81.4451 26.6476 81.4027 26.5406 81.3656C26.2011 81.2241 25.8288 81.1802 25.4658 81.239C25.1027 81.2978 24.7633 81.4569 24.4858 81.6984L23.6042 82.2674L15.5081 68.2434L26.2534 61.7517C29.8924 59.787 41.1803 61.811 47.1188 65.4977C49.1545 66.7619 50.2979 68.0834 50.2534 69.1229C50.2131 70.0682 49.1556 71.1268 47.2735 72.1134C43.4804 71.6647 39.75 70.7895 36.1531 69.5044C35.988 69.4462 35.813 69.4216 35.6383 69.4319C35.4636 69.4422 35.2927 69.4873 35.1356 69.5645C34.9786 69.6417 34.8385 69.7495 34.7236 69.8815C34.6087 70.0135 34.5214 70.1672 34.4667 70.3334C34.4119 70.4997 34.3909 70.6752 34.4049 70.8496C34.4189 71.0241 34.4675 71.194 34.548 71.3494C34.6285 71.5048 34.7392 71.6426 34.8736 71.7547C35.008 71.8668 35.1634 71.9509 35.3308 72.0021C45.0673 75.2098 51.3068 75.6496 54.3947 73.3448L70.8857 64.3628C70.908 64.3511 70.9292 64.3384 70.9504 64.3257C71.7579 63.7279 72.7192 63.3731 73.7215 63.3029C74.7237 63.2327 75.7251 63.45 76.6081 63.9294C77.1395 64.2086 77.5848 64.6276 77.8959 65.1411C78.2069 65.6545 78.3721 66.2432 78.3735 66.8435ZM11.2598 72.5659C11.4266 72.8674 11.4685 73.2224 11.3763 73.5545C11.2841 73.8866 11.0652 74.1692 10.7668 74.3415C10.4683 74.5139 10.1142 74.5622 9.78046 74.4761C9.44676 74.3899 9.16021 74.1762 8.98246 73.881L7.40245 71.1438C7.31234 70.9941 7.25296 70.828 7.22777 70.6551C7.20259 70.4822 7.21211 70.306 7.25577 70.1368C7.29944 69.9677 7.37637 69.8089 7.48209 69.6698C7.5878 69.5307 7.72017 69.414 7.87147 69.3267C8.02277 69.2393 8.18996 69.183 8.36328 69.1609C8.5366 69.1389 8.71257 69.1516 8.88092 69.1983C9.04927 69.2451 9.20661 69.3249 9.34377 69.4331C9.48092 69.5414 9.59514 69.6758 9.67974 69.8287L11.2598 72.5659ZM16.5233 35.2116C16.6002 35.057 16.7069 34.919 16.8372 34.8057C16.9674 34.6923 17.1188 34.6057 17.2826 34.5509C17.4463 34.4961 17.6193 34.4741 17.7916 34.4862C17.9639 34.4983 18.1321 34.5442 18.2866 34.6213L19.8009 35.3758C17.9091 29.8406 17.9411 23.8289 19.8916 18.314C21.8421 12.7992 25.5969 8.10423 30.5482 4.98926C35.4994 1.87429 41.3571 0.521721 47.1728 1.15057C52.9884 1.77943 58.4216 4.35288 62.5925 8.45423C62.841 8.69917 62.9819 9.03277 62.9844 9.38164C62.9869 9.73051 62.8507 10.0661 62.6058 10.3145C62.3608 10.563 62.0272 10.7039 61.6784 10.7064C61.3295 10.7089 60.9939 10.5727 60.7455 10.3278C57.0165 6.6605 52.164 4.35169 46.9662 3.77159C41.7683 3.1915 36.5262 4.37372 32.0805 7.12868C27.6348 9.88364 24.243 14.0517 22.4491 18.9646C20.6551 23.8774 20.563 29.2503 22.1873 34.2218L22.5985 32.8442C22.6984 32.51 22.927 32.2293 23.2339 32.0636C23.5409 31.898 23.901 31.861 24.2352 31.961C24.5694 32.0609 24.8502 32.2894 25.0158 32.5964C25.1815 32.9033 25.2184 33.2635 25.1185 33.5977L23.6497 38.5094C23.5948 38.693 23.5003 38.8623 23.373 39.0056C23.2458 39.1489 23.0887 39.2626 22.9129 39.3388C22.737 39.415 22.5466 39.4519 22.355 39.4468C22.1635 39.4417 21.9753 39.3948 21.8037 39.3094L17.1135 36.9707C16.8026 36.8151 16.5659 36.5426 16.4553 36.213C16.3447 35.8833 16.3691 35.5233 16.5233 35.2116ZM63.5738 20.2328L65.0415 15.3221C65.0963 15.1383 65.1907 14.9687 65.318 14.8252C65.4453 14.6817 65.6024 14.5678 65.7784 14.4914C65.9544 14.4151 66.145 14.3782 66.3368 14.3833C66.5285 14.3884 66.7169 14.4354 66.8885 14.521L71.5788 16.8597C71.7432 16.9304 71.8915 17.0338 72.0146 17.1637C72.1377 17.2936 72.233 17.4473 72.2946 17.6153C72.3563 17.7834 72.3829 17.9622 72.373 18.1409C72.3631 18.3196 72.3169 18.4944 72.2371 18.6546C72.1573 18.8148 72.0456 18.957 71.9089 19.0725C71.7722 19.1881 71.6134 19.2745 71.4421 19.3265C71.2709 19.3785 71.0908 19.395 70.913 19.375C70.7351 19.355 70.5632 19.2989 70.4078 19.2102L68.9179 18.4684C70.8397 24.016 70.8255 30.051 68.8777 35.5895C66.9299 41.128 63.1633 45.8433 58.1921 48.9667C53.2208 52.0901 47.3381 53.4373 41.503 52.7888C35.6679 52.1402 30.2246 49.5341 26.0605 45.3953C25.9369 45.2737 25.8386 45.1288 25.7712 44.969C25.7038 44.8092 25.6686 44.6377 25.6678 44.4643C25.6669 44.2909 25.7004 44.119 25.7662 43.9586C25.832 43.7982 25.9289 43.6523 26.0513 43.5295C26.1737 43.4067 26.3192 43.3093 26.4794 43.2429C26.6397 43.1765 26.8114 43.1425 26.9848 43.1427C27.1582 43.143 27.3299 43.1775 27.4899 43.2444C27.6499 43.3113 27.7951 43.4091 27.9171 43.5323C31.6438 47.2337 36.5097 49.5702 41.7285 50.1642C46.9472 50.7582 52.2138 49.5749 56.6769 46.8056C61.14 44.0363 64.5388 39.8428 66.3239 34.9031C68.109 29.9633 68.1762 24.5658 66.5145 19.5832L66.0906 20.9883C66.0095 21.2593 65.8433 21.497 65.6165 21.6661C65.3898 21.8352 65.1145 21.9268 64.8317 21.9272C64.7038 21.9273 64.5767 21.9083 64.4544 21.8711C64.2889 21.8214 64.1349 21.7397 64.001 21.6305C63.8672 21.5212 63.7562 21.3867 63.6744 21.2345C63.5926 21.0823 63.5416 20.9155 63.5243 20.7437C63.5071 20.5718 63.5239 20.3982 63.5738 20.2328ZM51.7052 17.769C51.7052 16.3228 51.2764 14.9091 50.4729 13.7067C49.6695 12.5043 48.5275 11.5671 47.1914 11.0136C45.8554 10.4602 44.3852 10.3154 42.9668 10.5976C41.5484 10.8797 40.2456 11.5761 39.223 12.5987C38.2004 13.6213 37.504 14.9241 37.2219 16.3425C36.9397 17.7609 37.0845 19.231 37.638 20.5671C38.1914 21.9032 39.1286 23.0452 40.331 23.8486C41.5335 24.652 42.9471 25.0809 44.3933 25.0809C45.3541 25.0819 46.3057 24.8934 47.1937 24.5264C48.0817 24.1594 48.8886 23.621 49.5684 22.9419C50.2481 22.2628 50.7874 21.4564 51.1553 20.5688C51.5232 19.6812 51.7126 18.7298 51.7126 17.769H51.7052ZM39.7179 17.769C39.7179 16.8436 39.9923 15.9391 40.5064 15.1697C41.0205 14.4003 41.7512 13.8007 42.6061 13.4465C43.461 13.0924 44.4017 12.9998 45.3092 13.1803C46.2168 13.3608 47.0504 13.8064 47.7047 14.4607C48.359 15.115 48.8046 15.9487 48.9851 16.8562C49.1657 17.7638 49.073 18.7045 48.7189 19.5594C48.3648 20.4143 47.7651 21.145 46.9957 21.659C46.2264 22.1731 45.3218 22.4475 44.3965 22.4475C43.1583 22.4428 41.9723 21.9479 41.098 21.0712C40.2236 20.1945 39.732 19.0072 39.7306 17.769H39.7179ZM31.3294 37.3797C31.2612 37.9183 31.3085 38.4652 31.4681 38.9841C31.6276 39.503 31.8958 39.982 32.2547 40.3892C32.6136 40.7965 33.0552 41.1227 33.5499 41.3461C34.0446 41.5696 34.5813 41.6852 35.1241 41.6853H53.6847C54.2275 41.685 54.764 41.5693 55.2586 41.3458C55.7532 41.1223 56.1946 40.7961 56.5534 40.3888C56.9123 39.9816 57.1803 39.5026 57.3398 38.9838C57.4993 38.465 57.5465 37.9182 57.4784 37.3797C57.0726 34.1987 55.521 31.2747 53.1142 29.1555C50.7075 27.0363 47.6107 25.8672 44.4039 25.8672C41.1971 25.8672 38.1003 27.0363 35.6935 29.1555C33.2868 31.2747 31.7352 34.1987 31.3294 37.3797ZM44.4039 28.4942C46.9705 28.4974 49.4482 29.4349 51.3741 31.1315C53.3 32.8281 54.5425 35.1678 54.8695 37.7135C54.8906 37.8817 54.8758 38.0524 54.826 38.2144C54.7762 38.3764 54.6924 38.526 54.5804 38.6531C54.4684 38.7803 54.3306 38.8822 54.1761 38.952C54.0217 39.0219 53.8542 39.0581 53.6847 39.0583H35.1241C34.9545 39.0583 34.7869 39.0222 34.6324 38.9524C34.4778 38.8826 34.3399 38.7807 34.2277 38.6535C34.1156 38.5263 34.0318 38.3767 33.9819 38.2147C33.932 38.0526 33.9171 37.8818 33.9383 37.7135C34.2653 35.1678 35.5077 32.8281 37.4337 31.1315C39.3596 29.4349 41.8373 28.4974 44.4039 28.4942Z"/>
</mask>
<path d="M77.9444 61.6648C76.6502 60.9553 75.185 60.6176 73.7108 60.6893C72.2367 60.7609 70.8111 61.239 69.5918 62.0707L53.0489 71.0834C52.9854 71.1171 52.9251 71.1565 52.8687 71.201C52.5932 71.4107 52.2892 71.5802 51.9659 71.7044C52.5139 70.9926 52.8328 70.1312 52.8804 69.2342C52.9705 67.1297 51.5028 65.1205 48.506 63.2628C42.204 59.3504 29.8553 56.7743 24.9659 59.4574L24.9192 59.485L14.1919 65.965L13.98 65.5952C13.3711 64.5461 12.3715 63.7808 11.1999 63.4666C10.0282 63.1525 8.77988 63.315 7.72778 63.9188L3.28553 66.4822C2.2362 67.0909 1.47071 68.0905 1.15653 69.2622C0.842352 70.4339 1.00507 71.6824 1.60909 72.7344L12.4498 91.5133C13.0575 92.5637 14.0572 93.3301 15.2294 93.6442C16.4015 93.9583 17.6505 93.7945 18.702 93.1887L23.1411 90.6263C24.161 90.0358 24.9143 89.0752 25.2446 87.9439C25.575 86.8127 25.4569 85.5976 24.915 84.5511L25.8878 83.9216C25.9864 83.9545 26.0997 83.9905 26.2428 84.0276L42.152 88.3988C43.4623 88.867 44.8416 89.1127 46.2329 89.1258C48.24 89.1235 50.2042 88.5445 51.8917 87.4578L76.4343 72.6581C80.2397 70.8852 80.9274 68.3419 80.9984 66.9781C81.0236 65.8979 80.7522 64.8315 80.2138 63.8947C79.6753 62.958 78.8904 62.1867 77.9444 61.6648ZM21.8281 88.348L17.389 90.9114C16.9415 91.1691 16.41 91.2388 15.9111 91.1051C15.4122 90.9714 14.9868 90.6452 14.7281 90.1982L3.88744 71.4214C3.63188 70.9732 3.56344 70.4423 3.69696 69.9439C3.83048 69.4455 4.1552 69.0199 4.60061 68.7595L9.03969 66.1971C9.33258 66.027 9.66529 65.9374 10.004 65.9375C10.1772 65.938 10.3497 65.9611 10.5169 66.0064C10.7643 66.071 10.9964 66.1842 11.1996 66.3394C11.4028 66.4946 11.5731 66.6886 11.7006 66.9103L22.5413 85.6871C22.7991 86.1346 22.8687 86.6662 22.735 87.165C22.6013 87.6639 22.2752 88.0893 21.8281 88.348ZM78.3735 66.8435C78.3047 68.1862 77.2026 69.4144 75.2707 70.3003C75.226 70.3207 75.1825 70.3437 75.1404 70.3691L50.5247 85.2123L50.5035 85.2261C49.3942 85.9306 48.1324 86.3595 46.8235 86.477C45.5146 86.5944 44.1967 86.3969 42.9797 85.9011L42.8938 85.8746L26.9411 81.4928C26.7695 81.4451 26.6476 81.4027 26.5406 81.3656C26.2011 81.2241 25.8288 81.1802 25.4658 81.239C25.1027 81.2978 24.7633 81.4569 24.4858 81.6984L23.6042 82.2674L15.5081 68.2434L26.2534 61.7517C29.8924 59.787 41.1803 61.811 47.1188 65.4977C49.1545 66.7619 50.2979 68.0834 50.2534 69.1229C50.2131 70.0682 49.1556 71.1268 47.2735 72.1134C43.4804 71.6647 39.75 70.7895 36.1531 69.5044C35.988 69.4462 35.813 69.4216 35.6383 69.4319C35.4636 69.4422 35.2927 69.4873 35.1356 69.5645C34.9786 69.6417 34.8385 69.7495 34.7236 69.8815C34.6087 70.0135 34.5214 70.1672 34.4667 70.3334C34.4119 70.4997 34.3909 70.6752 34.4049 70.8496C34.4189 71.0241 34.4675 71.194 34.548 71.3494C34.6285 71.5048 34.7392 71.6426 34.8736 71.7547C35.008 71.8668 35.1634 71.9509 35.3308 72.0021C45.0673 75.2098 51.3068 75.6496 54.3947 73.3448L70.8857 64.3628C70.908 64.3511 70.9292 64.3384 70.9504 64.3257C71.7579 63.7279 72.7192 63.3731 73.7215 63.3029C74.7237 63.2327 75.7251 63.45 76.6081 63.9294C77.1395 64.2086 77.5848 64.6276 77.8959 65.1411C78.2069 65.6545 78.3721 66.2432 78.3735 66.8435ZM11.2598 72.5659C11.4266 72.8674 11.4685 73.2224 11.3763 73.5545C11.2841 73.8866 11.0652 74.1692 10.7668 74.3415C10.4683 74.5139 10.1142 74.5622 9.78046 74.4761C9.44676 74.3899 9.16021 74.1762 8.98246 73.881L7.40245 71.1438C7.31234 70.9941 7.25296 70.828 7.22777 70.6551C7.20259 70.4822 7.21211 70.306 7.25577 70.1368C7.29944 69.9677 7.37637 69.8089 7.48209 69.6698C7.5878 69.5307 7.72017 69.414 7.87147 69.3267C8.02277 69.2393 8.18996 69.183 8.36328 69.1609C8.5366 69.1389 8.71257 69.1516 8.88092 69.1983C9.04927 69.2451 9.20661 69.3249 9.34377 69.4331C9.48092 69.5414 9.59514 69.6758 9.67974 69.8287L11.2598 72.5659ZM16.5233 35.2116C16.6002 35.057 16.7069 34.919 16.8372 34.8057C16.9674 34.6923 17.1188 34.6057 17.2826 34.5509C17.4463 34.4961 17.6193 34.4741 17.7916 34.4862C17.9639 34.4983 18.1321 34.5442 18.2866 34.6213L19.8009 35.3758C17.9091 29.8406 17.9411 23.8289 19.8916 18.314C21.8421 12.7992 25.5969 8.10423 30.5482 4.98926C35.4994 1.87429 41.3571 0.521721 47.1728 1.15057C52.9884 1.77943 58.4216 4.35288 62.5925 8.45423C62.841 8.69917 62.9819 9.03277 62.9844 9.38164C62.9869 9.73051 62.8507 10.0661 62.6058 10.3145C62.3608 10.563 62.0272 10.7039 61.6784 10.7064C61.3295 10.7089 60.9939 10.5727 60.7455 10.3278C57.0165 6.6605 52.164 4.35169 46.9662 3.77159C41.7683 3.1915 36.5262 4.37372 32.0805 7.12868C27.6348 9.88364 24.243 14.0517 22.4491 18.9646C20.6551 23.8774 20.563 29.2503 22.1873 34.2218L22.5985 32.8442C22.6984 32.51 22.927 32.2293 23.2339 32.0636C23.5409 31.898 23.901 31.861 24.2352 31.961C24.5694 32.0609 24.8502 32.2894 25.0158 32.5964C25.1815 32.9033 25.2184 33.2635 25.1185 33.5977L23.6497 38.5094C23.5948 38.693 23.5003 38.8623 23.373 39.0056C23.2458 39.1489 23.0887 39.2626 22.9129 39.3388C22.737 39.415 22.5466 39.4519 22.355 39.4468C22.1635 39.4417 21.9753 39.3948 21.8037 39.3094L17.1135 36.9707C16.8026 36.8151 16.5659 36.5426 16.4553 36.213C16.3447 35.8833 16.3691 35.5233 16.5233 35.2116ZM63.5738 20.2328L65.0415 15.3221C65.0963 15.1383 65.1907 14.9687 65.318 14.8252C65.4453 14.6817 65.6024 14.5678 65.7784 14.4914C65.9544 14.4151 66.145 14.3782 66.3368 14.3833C66.5285 14.3884 66.7169 14.4354 66.8885 14.521L71.5788 16.8597C71.7432 16.9304 71.8915 17.0338 72.0146 17.1637C72.1377 17.2936 72.233 17.4473 72.2946 17.6153C72.3563 17.7834 72.3829 17.9622 72.373 18.1409C72.3631 18.3196 72.3169 18.4944 72.2371 18.6546C72.1573 18.8148 72.0456 18.957 71.9089 19.0725C71.7722 19.1881 71.6134 19.2745 71.4421 19.3265C71.2709 19.3785 71.0908 19.395 70.913 19.375C70.7351 19.355 70.5632 19.2989 70.4078 19.2102L68.9179 18.4684C70.8397 24.016 70.8255 30.051 68.8777 35.5895C66.9299 41.128 63.1633 45.8433 58.1921 48.9667C53.2208 52.0901 47.3381 53.4373 41.503 52.7888C35.6679 52.1402 30.2246 49.5341 26.0605 45.3953C25.9369 45.2737 25.8386 45.1288 25.7712 44.969C25.7038 44.8092 25.6686 44.6377 25.6678 44.4643C25.6669 44.2909 25.7004 44.119 25.7662 43.9586C25.832 43.7982 25.9289 43.6523 26.0513 43.5295C26.1737 43.4067 26.3192 43.3093 26.4794 43.2429C26.6397 43.1765 26.8114 43.1425 26.9848 43.1427C27.1582 43.143 27.3299 43.1775 27.4899 43.2444C27.6499 43.3113 27.7951 43.4091 27.9171 43.5323C31.6438 47.2337 36.5097 49.5702 41.7285 50.1642C46.9472 50.7582 52.2138 49.5749 56.6769 46.8056C61.14 44.0363 64.5388 39.8428 66.3239 34.9031C68.109 29.9633 68.1762 24.5658 66.5145 19.5832L66.0906 20.9883C66.0095 21.2593 65.8433 21.497 65.6165 21.6661C65.3898 21.8352 65.1145 21.9268 64.8317 21.9272C64.7038 21.9273 64.5767 21.9083 64.4544 21.8711C64.2889 21.8214 64.1349 21.7397 64.001 21.6305C63.8672 21.5212 63.7562 21.3867 63.6744 21.2345C63.5926 21.0823 63.5416 20.9155 63.5243 20.7437C63.5071 20.5718 63.5239 20.3982 63.5738 20.2328ZM51.7052 17.769C51.7052 16.3228 51.2764 14.9091 50.4729 13.7067C49.6695 12.5043 48.5275 11.5671 47.1914 11.0136C45.8554 10.4602 44.3852 10.3154 42.9668 10.5976C41.5484 10.8797 40.2456 11.5761 39.223 12.5987C38.2004 13.6213 37.504 14.9241 37.2219 16.3425C36.9397 17.7609 37.0845 19.231 37.638 20.5671C38.1914 21.9032 39.1286 23.0452 40.331 23.8486C41.5335 24.652 42.9471 25.0809 44.3933 25.0809C45.3541 25.0819 46.3057 24.8934 47.1937 24.5264C48.0817 24.1594 48.8886 23.621 49.5684 22.9419C50.2481 22.2628 50.7874 21.4564 51.1553 20.5688C51.5232 19.6812 51.7126 18.7298 51.7126 17.769H51.7052ZM39.7179 17.769C39.7179 16.8436 39.9923 15.9391 40.5064 15.1697C41.0205 14.4003 41.7512 13.8007 42.6061 13.4465C43.461 13.0924 44.4017 12.9998 45.3092 13.1803C46.2168 13.3608 47.0504 13.8064 47.7047 14.4607C48.359 15.115 48.8046 15.9487 48.9851 16.8562C49.1657 17.7638 49.073 18.7045 48.7189 19.5594C48.3648 20.4143 47.7651 21.145 46.9957 21.659C46.2264 22.1731 45.3218 22.4475 44.3965 22.4475C43.1583 22.4428 41.9723 21.9479 41.098 21.0712C40.2236 20.1945 39.732 19.0072 39.7306 17.769H39.7179ZM31.3294 37.3797C31.2612 37.9183 31.3085 38.4652 31.4681 38.9841C31.6276 39.503 31.8958 39.982 32.2547 40.3892C32.6136 40.7965 33.0552 41.1227 33.5499 41.3461C34.0446 41.5696 34.5813 41.6852 35.1241 41.6853H53.6847C54.2275 41.685 54.764 41.5693 55.2586 41.3458C55.7532 41.1223 56.1946 40.7961 56.5534 40.3888C56.9123 39.9816 57.1803 39.5026 57.3398 38.9838C57.4993 38.465 57.5465 37.9182 57.4784 37.3797C57.0726 34.1987 55.521 31.2747 53.1142 29.1555C50.7075 27.0363 47.6107 25.8672 44.4039 25.8672C41.1971 25.8672 38.1003 27.0363 35.6935 29.1555C33.2868 31.2747 31.7352 34.1987 31.3294 37.3797ZM44.4039 28.4942C46.9705 28.4974 49.4482 29.4349 51.3741 31.1315C53.3 32.8281 54.5425 35.1678 54.8695 37.7135C54.8906 37.8817 54.8758 38.0524 54.826 38.2144C54.7762 38.3764 54.6924 38.526 54.5804 38.6531C54.4684 38.7803 54.3306 38.8822 54.1761 38.952C54.0217 39.0219 53.8542 39.0581 53.6847 39.0583H35.1241C34.9545 39.0583 34.7869 39.0222 34.6324 38.9524C34.4778 38.8826 34.3399 38.7807 34.2277 38.6535C34.1156 38.5263 34.0318 38.3767 33.9819 38.2147C33.932 38.0526 33.9171 37.8818 33.9383 37.7135C34.2653 35.1678 35.5077 32.8281 37.4337 31.1315C39.3596 29.4349 41.8373 28.4974 44.4039 28.4942Z" fill="#00A7FA"/>
<path d="M77.9444 61.6648C76.6502 60.9553 75.185 60.6176 73.7108 60.6893C72.2367 60.7609 70.8111 61.239 69.5918 62.0707L53.0489 71.0834C52.9854 71.1171 52.9251 71.1565 52.8687 71.201C52.5932 71.4107 52.2892 71.5802 51.9659 71.7044C52.5139 70.9926 52.8328 70.1312 52.8804 69.2342C52.9705 67.1297 51.5028 65.1205 48.506 63.2628C42.204 59.3504 29.8553 56.7743 24.9659 59.4574L24.9192 59.485L14.1919 65.965L13.98 65.5952C13.3711 64.5461 12.3715 63.7808 11.1999 63.4666C10.0282 63.1525 8.77988 63.315 7.72778 63.9188L3.28553 66.4822C2.2362 67.0909 1.47071 68.0905 1.15653 69.2622C0.842352 70.4339 1.00507 71.6824 1.60909 72.7344L12.4498 91.5133C13.0575 92.5637 14.0572 93.3301 15.2294 93.6442C16.4015 93.9583 17.6505 93.7945 18.702 93.1887L23.1411 90.6263C24.161 90.0358 24.9143 89.0752 25.2446 87.9439C25.575 86.8127 25.4569 85.5976 24.915 84.5511L25.8878 83.9216C25.9864 83.9545 26.0997 83.9905 26.2428 84.0276L42.152 88.3988C43.4623 88.867 44.8416 89.1127 46.2329 89.1258C48.24 89.1235 50.2042 88.5445 51.8917 87.4578L76.4343 72.6581C80.2397 70.8852 80.9274 68.3419 80.9984 66.9781C81.0236 65.8979 80.7522 64.8315 80.2138 63.8947C79.6753 62.958 78.8904 62.1867 77.9444 61.6648ZM21.8281 88.348L17.389 90.9114C16.9415 91.1691 16.41 91.2388 15.9111 91.1051C15.4122 90.9714 14.9868 90.6452 14.7281 90.1982L3.88744 71.4214C3.63188 70.9732 3.56344 70.4423 3.69696 69.9439C3.83048 69.4455 4.1552 69.0199 4.60061 68.7595L9.03969 66.1971C9.33258 66.027 9.66529 65.9374 10.004 65.9375C10.1772 65.938 10.3497 65.9611 10.5169 66.0064C10.7643 66.071 10.9964 66.1842 11.1996 66.3394C11.4028 66.4946 11.5731 66.6886 11.7006 66.9103L22.5413 85.6871C22.7991 86.1346 22.8687 86.6662 22.735 87.165C22.6013 87.6639 22.2752 88.0893 21.8281 88.348ZM78.3735 66.8435C78.3047 68.1862 77.2026 69.4144 75.2707 70.3003C75.226 70.3207 75.1825 70.3437 75.1404 70.3691L50.5247 85.2123L50.5035 85.2261C49.3942 85.9306 48.1324 86.3595 46.8235 86.477C45.5146 86.5944 44.1967 86.3969 42.9797 85.9011L42.8938 85.8746L26.9411 81.4928C26.7695 81.4451 26.6476 81.4027 26.5406 81.3656C26.2011 81.2241 25.8288 81.1802 25.4658 81.239C25.1027 81.2978 24.7633 81.4569 24.4858 81.6984L23.6042 82.2674L15.5081 68.2434L26.2534 61.7517C29.8924 59.787 41.1803 61.811 47.1188 65.4977C49.1545 66.7619 50.2979 68.0834 50.2534 69.1229C50.2131 70.0682 49.1556 71.1268 47.2735 72.1134C43.4804 71.6647 39.75 70.7895 36.1531 69.5044C35.988 69.4462 35.813 69.4216 35.6383 69.4319C35.4636 69.4422 35.2927 69.4873 35.1356 69.5645C34.9786 69.6417 34.8385 69.7495 34.7236 69.8815C34.6087 70.0135 34.5214 70.1672 34.4667 70.3334C34.4119 70.4997 34.3909 70.6752 34.4049 70.8496C34.4189 71.0241 34.4675 71.194 34.548 71.3494C34.6285 71.5048 34.7392 71.6426 34.8736 71.7547C35.008 71.8668 35.1634 71.9509 35.3308 72.0021C45.0673 75.2098 51.3068 75.6496 54.3947 73.3448L70.8857 64.3628C70.908 64.3511 70.9292 64.3384 70.9504 64.3257C71.7579 63.7279 72.7192 63.3731 73.7215 63.3029C74.7237 63.2327 75.7251 63.45 76.6081 63.9294C77.1395 64.2086 77.5848 64.6276 77.8959 65.1411C78.2069 65.6545 78.3721 66.2432 78.3735 66.8435ZM11.2598 72.5659C11.4266 72.8674 11.4685 73.2224 11.3763 73.5545C11.2841 73.8866 11.0652 74.1692 10.7668 74.3415C10.4683 74.5139 10.1142 74.5622 9.78046 74.4761C9.44676 74.3899 9.16021 74.1762 8.98246 73.881L7.40245 71.1438C7.31234 70.9941 7.25296 70.828 7.22777 70.6551C7.20259 70.4822 7.21211 70.306 7.25577 70.1368C7.29944 69.9677 7.37637 69.8089 7.48209 69.6698C7.5878 69.5307 7.72017 69.414 7.87147 69.3267C8.02277 69.2393 8.18996 69.183 8.36328 69.1609C8.5366 69.1389 8.71257 69.1516 8.88092 69.1983C9.04927 69.2451 9.20661 69.3249 9.34377 69.4331C9.48092 69.5414 9.59514 69.6758 9.67974 69.8287L11.2598 72.5659ZM16.5233 35.2116C16.6002 35.057 16.7069 34.919 16.8372 34.8057C16.9674 34.6923 17.1188 34.6057 17.2826 34.5509C17.4463 34.4961 17.6193 34.4741 17.7916 34.4862C17.9639 34.4983 18.1321 34.5442 18.2866 34.6213L19.8009 35.3758C17.9091 29.8406 17.9411 23.8289 19.8916 18.314C21.8421 12.7992 25.5969 8.10423 30.5482 4.98926C35.4994 1.87429 41.3571 0.521721 47.1728 1.15057C52.9884 1.77943 58.4216 4.35288 62.5925 8.45423C62.841 8.69917 62.9819 9.03277 62.9844 9.38164C62.9869 9.73051 62.8507 10.0661 62.6058 10.3145C62.3608 10.563 62.0272 10.7039 61.6784 10.7064C61.3295 10.7089 60.9939 10.5727 60.7455 10.3278C57.0165 6.6605 52.164 4.35169 46.9662 3.77159C41.7683 3.1915 36.5262 4.37372 32.0805 7.12868C27.6348 9.88364 24.243 14.0517 22.4491 18.9646C20.6551 23.8774 20.563 29.2503 22.1873 34.2218L22.5985 32.8442C22.6984 32.51 22.927 32.2293 23.2339 32.0636C23.5409 31.898 23.901 31.861 24.2352 31.961C24.5694 32.0609 24.8502 32.2894 25.0158 32.5964C25.1815 32.9033 25.2184 33.2635 25.1185 33.5977L23.6497 38.5094C23.5948 38.693 23.5003 38.8623 23.373 39.0056C23.2458 39.1489 23.0887 39.2626 22.9129 39.3388C22.737 39.415 22.5466 39.4519 22.355 39.4468C22.1635 39.4417 21.9753 39.3948 21.8037 39.3094L17.1135 36.9707C16.8026 36.8151 16.5659 36.5426 16.4553 36.213C16.3447 35.8833 16.3691 35.5233 16.5233 35.2116ZM63.5738 20.2328L65.0415 15.3221C65.0963 15.1383 65.1907 14.9687 65.318 14.8252C65.4453 14.6817 65.6024 14.5678 65.7784 14.4914C65.9544 14.4151 66.145 14.3782 66.3368 14.3833C66.5285 14.3884 66.7169 14.4354 66.8885 14.521L71.5788 16.8597C71.7432 16.9304 71.8915 17.0338 72.0146 17.1637C72.1377 17.2936 72.233 17.4473 72.2946 17.6153C72.3563 17.7834 72.3829 17.9622 72.373 18.1409C72.3631 18.3196 72.3169 18.4944 72.2371 18.6546C72.1573 18.8148 72.0456 18.957 71.9089 19.0725C71.7722 19.1881 71.6134 19.2745 71.4421 19.3265C71.2709 19.3785 71.0908 19.395 70.913 19.375C70.7351 19.355 70.5632 19.2989 70.4078 19.2102L68.9179 18.4684C70.8397 24.016 70.8255 30.051 68.8777 35.5895C66.9299 41.128 63.1633 45.8433 58.1921 48.9667C53.2208 52.0901 47.3381 53.4373 41.503 52.7888C35.6679 52.1402 30.2246 49.5341 26.0605 45.3953C25.9369 45.2737 25.8386 45.1288 25.7712 44.969C25.7038 44.8092 25.6686 44.6377 25.6678 44.4643C25.6669 44.2909 25.7004 44.119 25.7662 43.9586C25.832 43.7982 25.9289 43.6523 26.0513 43.5295C26.1737 43.4067 26.3192 43.3093 26.4794 43.2429C26.6397 43.1765 26.8114 43.1425 26.9848 43.1427C27.1582 43.143 27.3299 43.1775 27.4899 43.2444C27.6499 43.3113 27.7951 43.4091 27.9171 43.5323C31.6438 47.2337 36.5097 49.5702 41.7285 50.1642C46.9472 50.7582 52.2138 49.5749 56.6769 46.8056C61.14 44.0363 64.5388 39.8428 66.3239 34.9031C68.109 29.9633 68.1762 24.5658 66.5145 19.5832L66.0906 20.9883C66.0095 21.2593 65.8433 21.497 65.6165 21.6661C65.3898 21.8352 65.1145 21.9268 64.8317 21.9272C64.7038 21.9273 64.5767 21.9083 64.4544 21.8711C64.2889 21.8214 64.1349 21.7397 64.001 21.6305C63.8672 21.5212 63.7562 21.3867 63.6744 21.2345C63.5926 21.0823 63.5416 20.9155 63.5243 20.7437C63.5071 20.5718 63.5239 20.3982 63.5738 20.2328ZM51.7052 17.769C51.7052 16.3228 51.2764 14.9091 50.4729 13.7067C49.6695 12.5043 48.5275 11.5671 47.1914 11.0136C45.8554 10.4602 44.3852 10.3154 42.9668 10.5976C41.5484 10.8797 40.2456 11.5761 39.223 12.5987C38.2004 13.6213 37.504 14.9241 37.2219 16.3425C36.9397 17.7609 37.0845 19.231 37.638 20.5671C38.1914 21.9032 39.1286 23.0452 40.331 23.8486C41.5335 24.652 42.9471 25.0809 44.3933 25.0809C45.3541 25.0819 46.3057 24.8934 47.1937 24.5264C48.0817 24.1594 48.8886 23.621 49.5684 22.9419C50.2481 22.2628 50.7874 21.4564 51.1553 20.5688C51.5232 19.6812 51.7126 18.7298 51.7126 17.769H51.7052ZM39.7179 17.769C39.7179 16.8436 39.9923 15.9391 40.5064 15.1697C41.0205 14.4003 41.7512 13.8007 42.6061 13.4465C43.461 13.0924 44.4017 12.9998 45.3092 13.1803C46.2168 13.3608 47.0504 13.8064 47.7047 14.4607C48.359 15.115 48.8046 15.9487 48.9851 16.8562C49.1657 17.7638 49.073 18.7045 48.7189 19.5594C48.3648 20.4143 47.7651 21.145 46.9957 21.659C46.2264 22.1731 45.3218 22.4475 44.3965 22.4475C43.1583 22.4428 41.9723 21.9479 41.098 21.0712C40.2236 20.1945 39.732 19.0072 39.7306 17.769H39.7179ZM31.3294 37.3797C31.2612 37.9183 31.3085 38.4652 31.4681 38.9841C31.6276 39.503 31.8958 39.982 32.2547 40.3892C32.6136 40.7965 33.0552 41.1227 33.5499 41.3461C34.0446 41.5696 34.5813 41.6852 35.1241 41.6853H53.6847C54.2275 41.685 54.764 41.5693 55.2586 41.3458C55.7532 41.1223 56.1946 40.7961 56.5534 40.3888C56.9123 39.9816 57.1803 39.5026 57.3398 38.9838C57.4993 38.465 57.5465 37.9182 57.4784 37.3797C57.0726 34.1987 55.521 31.2747 53.1142 29.1555C50.7075 27.0363 47.6107 25.8672 44.4039 25.8672C41.1971 25.8672 38.1003 27.0363 35.6935 29.1555C33.2868 31.2747 31.7352 34.1987 31.3294 37.3797ZM44.4039 28.4942C46.9705 28.4974 49.4482 29.4349 51.3741 31.1315C53.3 32.8281 54.5425 35.1678 54.8695 37.7135C54.8906 37.8817 54.8758 38.0524 54.826 38.2144C54.7762 38.3764 54.6924 38.526 54.5804 38.6531C54.4684 38.7803 54.3306 38.8822 54.1761 38.952C54.0217 39.0219 53.8542 39.0581 53.6847 39.0583H35.1241C34.9545 39.0583 34.7869 39.0222 34.6324 38.9524C34.4778 38.8826 34.3399 38.7807 34.2277 38.6535C34.1156 38.5263 34.0318 38.3767 33.9819 38.2147C33.932 38.0526 33.9171 37.8818 33.9383 37.7135C34.2653 35.1678 35.5077 32.8281 37.4337 31.1315C39.3596 29.4349 41.8373 28.4974 44.4039 28.4942Z" stroke="#00A7FA" stroke-width="0.6" mask="url(#path-1-outside-1_1056_1844)"/>
</svg>
