<svg width="82" height="96" viewBox="0 0 82 96" fill="none" xmlns="http://www.w3.org/2000/svg">
<mask id="path-1-outside-1_1063_2132" maskUnits="userSpaceOnUse" x="0" y="0" width="82" height="96" fill="black">
<rect fill="white" width="82" height="96"/>
<path fill-rule="evenodd" clip-rule="evenodd" d="M11.2171 77.5415C11.231 77.4674 11.2511 77.3946 11.277 77.3238L17.3881 54.9405C17.401 54.8778 17.4179 54.816 17.4385 54.7555L18.2555 51.763H11.686L4.30483 78.8085H10.8754L11.2213 77.5467L11.2171 77.5415ZM38.4371 60.7466L61.8845 77.0105C62.128 77.1742 62.337 77.3843 62.4994 77.6287C62.6617 77.8732 62.7743 78.1472 62.8308 78.4352C63.1378 80.3278 60.5596 81.6074 58.7837 80.4098L47.2178 72.606C47.0622 72.501 46.8874 72.4278 46.7035 72.3904C46.5195 72.353 46.33 72.3522 46.1458 72.388C45.9616 72.4238 45.7862 72.4956 45.6297 72.5992C45.4732 72.7028 45.3386 72.8362 45.2337 72.9918C45.1287 73.1475 45.0555 73.3222 45.0181 73.5062C44.9807 73.6901 44.9799 73.8796 45.0157 74.0638C45.0515 74.2481 45.1233 74.4234 45.2269 74.5799C45.3305 74.7364 45.4639 74.871 45.6196 74.9759L57.0299 82.6726C57.2746 82.8298 57.4845 83.0356 57.6463 83.2772C57.8082 83.5189 57.9187 83.7912 57.971 84.0773C58.2738 85.9699 55.7072 87.2685 53.9187 86.0625L42.421 78.3122C42.2654 78.2073 42.0907 78.134 41.9067 78.0966C41.7228 78.0592 41.5333 78.0584 41.3491 78.0942C41.1648 78.1301 40.9895 78.2018 40.833 78.3054C40.6765 78.409 40.5419 78.5425 40.437 78.6981C40.332 78.8537 40.2587 79.0285 40.2213 79.2124C40.1839 79.3963 40.1831 79.5858 40.219 79.7701C40.2548 79.9543 40.3266 80.1297 40.4302 80.2862C40.5338 80.4427 40.6672 80.5772 40.8228 80.6822L49.9904 86.8647C50.2347 87.022 50.4441 87.2277 50.6056 87.4691C50.7671 87.7106 50.8773 87.9826 50.9294 88.2684C51.2322 90.161 48.6656 91.4596 46.8771 90.2535L33.1031 80.9629C32.7887 80.7618 32.4082 80.6916 32.0427 80.7672C31.6773 80.8428 31.3559 81.0583 31.1471 81.3676C30.9384 81.677 30.8589 82.0557 30.9255 82.4229C30.9921 82.79 31.1997 83.1166 31.5038 83.3329L39.518 88.7374C39.7615 88.895 39.9702 89.1007 40.1313 89.3419C40.2924 89.5831 40.4025 89.8547 40.4548 90.14C40.7566 92.0326 38.191 93.3311 36.4015 92.1241L14.2673 77.1935L19.8947 56.585L26.6366 56.1423L24.2299 58.6301C23.7292 59.1389 23.3351 59.7426 23.0709 60.4057C22.8066 61.0689 22.6773 61.7781 22.6907 62.4918C22.7042 63.2056 22.86 63.9095 23.149 64.5622C23.438 65.2149 23.8545 65.8034 24.3739 66.2931C25.5801 67.4164 27.1744 68.029 28.8225 68.0023C30.4706 67.9757 32.0443 67.3118 33.2135 66.1501L38.4371 60.7466ZM64.9968 76.2324L67.3331 75.7235L62.1673 56.8047C56.2171 54.332 50.0105 52.5282 43.6618 51.4266C39.0911 50.7757 35.7275 51.0543 34.1419 52.4833L26.2865 60.61C24.5159 62.4416 26.0951 65.312 28.9393 65.147C29.7744 65.1107 30.5655 64.763 31.1568 64.1723L38.21 56.8752C38.4567 56.617 38.7912 56.4608 39.1474 56.4372C39.5037 56.4137 39.8559 56.5246 40.1344 56.748C40.4129 56.9714 40.5975 57.2912 40.6518 57.6441C40.706 57.997 40.626 58.3575 40.4275 58.6542L63.5016 74.6626C64.1067 75.072 64.6161 75.6075 64.9947 76.2324H64.9968ZM70.4486 76.3155L63.7456 51.763H70.315L77.6962 78.8085H71.1299L70.4486 76.3155ZM17.3081 13.8592C17.3081 13.5933 17.3823 13.3326 17.5224 13.1065C17.6624 12.8805 17.8628 12.698 18.1009 12.5796L41.0825 1.1503C41.2804 1.05146 41.4985 1 41.7197 1C41.9409 1 42.159 1.05146 42.3569 1.1503C50.0325 4.92607 57.6787 8.77333 65.3385 12.5838C65.5765 12.7024 65.7767 12.8849 65.9167 13.1109C66.0568 13.337 66.1311 13.5975 66.1313 13.8634V26.2706C66.1436 35.7093 62.4255 44.7704 55.7871 51.4802C57.5462 52.0501 59.362 52.6894 61.2347 53.3938L60.5365 50.8356C60.4545 50.6191 60.4264 50.3858 60.4546 50.156C60.4828 49.9262 60.5664 49.7066 60.6984 49.5163C60.8303 49.326 61.0066 49.1707 61.2119 49.0637C61.4173 48.9566 61.6456 48.9012 61.8771 48.902H71.4022C71.7385 48.9021 72.064 49.0206 72.3217 49.2367C72.5793 49.4528 72.7526 49.7527 72.8112 50.0839L80.9074 79.7348C80.9894 79.9513 81.0176 80.1845 80.9894 80.4143C80.9612 80.6441 80.8775 80.8636 80.7456 81.0538C80.6136 81.2441 80.4373 81.3993 80.2319 81.5062C80.0266 81.6131 79.7983 81.6684 79.5668 81.6674H70.0427C69.73 81.6671 69.4262 81.564 69.1778 81.374C68.9295 81.184 68.7505 80.9176 68.6684 80.6159L68.087 78.4867L65.6981 79.0072C65.5858 80.2508 65.0272 81.4118 64.1256 82.2757C63.2241 83.1396 62.0403 83.648 60.7931 83.7072C61.3314 87.4598 57.4631 90.2577 53.7746 89.1285C53.3204 92.9621 48.5615 94.8389 45.2778 92.6246L43.2601 91.264C42.6114 94.9441 37.9955 96.6495 34.8033 94.4951L13.4714 80.106L13.3326 80.6149C13.2505 80.9166 13.0715 81.1829 12.8232 81.3729C12.5749 81.5629 12.271 81.666 11.9584 81.6663H2.43325C2.20173 81.6674 1.97343 81.6121 1.76806 81.5052C1.56269 81.3983 1.38642 81.243 1.25446 81.0528C1.1225 80.8625 1.03881 80.6431 1.01062 80.4133C0.982426 80.1835 1.01058 79.9503 1.09265 79.7338L9.22353 49.9535C9.30566 49.6516 9.4848 49.3851 9.73333 49.1951C9.98186 49.0051 10.286 48.9021 10.5988 48.902V48.8957H20.1239C20.3555 48.8949 20.5838 48.9503 20.7891 49.0573C20.9945 49.1644 21.1707 49.3197 21.3027 49.51C21.4346 49.7003 21.5183 49.9199 21.5465 50.1497C21.5747 50.3795 21.5466 50.6128 21.4645 50.8293L20.6907 53.6619L28.9603 53.1194C29.1234 53.109 29.287 53.1268 29.444 53.172C25.6277 49.8068 22.5716 45.6676 20.479 41.0298C18.3863 36.392 17.305 31.3618 17.3071 26.2737V13.8666L17.3081 13.8592ZM57.3149 19.0828L41.7197 11.3284L26.1246 19.087V27.3935C26.1159 31.6925 27.2628 35.9148 29.4451 39.6187C31.5678 43.2188 34.5853 46.2089 38.2047 48.2985C40.1631 48.198 42.1266 48.2984 44.0645 48.5982C44.2274 48.6213 44.3904 48.6455 44.5555 48.6718C48.4115 46.6171 51.636 43.5523 53.8836 39.8055C56.1312 36.0587 57.3173 31.7711 57.3149 27.4019V19.0954V19.0828ZM23.2636 18.2017V27.4019C23.2617 31.6313 24.2561 35.8016 26.1661 39.5751C28.0762 43.3486 30.8482 46.6191 34.2576 49.1218C33.5039 49.4177 32.8087 49.8449 32.2041 50.3835L31.4607 51.149C27.9075 48.0527 25.0607 44.2295 23.1127 39.938C21.1646 35.6465 20.1608 30.9867 20.1691 26.2737V14.7487L41.7239 4.02392L63.2787 14.7487V26.2737C63.2834 30.8296 62.3432 35.3369 60.5174 39.511C58.6917 43.6851 56.0202 47.4352 52.6716 50.5244C51.2942 50.1259 49.9621 49.7768 48.6835 49.4793C52.2325 46.9935 55.1298 43.6886 57.1299 39.8448C59.1299 36.0011 60.1737 31.7317 60.1727 27.3988V18.2017C60.1724 17.9358 60.098 17.6753 59.958 17.4493C59.818 17.2233 59.6178 17.0408 59.3799 16.9221C53.7021 14.0989 48.0389 11.2442 42.3537 8.45159C42.1559 8.35274 41.9377 8.30129 41.7166 8.30129C41.4954 8.30129 41.2772 8.35274 41.0794 8.45159L24.0564 16.9221C23.8182 17.0404 23.6177 17.2229 23.4777 17.4489C23.3376 17.675 23.2634 17.9357 23.2636 18.2017ZM33.4259 31.0294L39.5863 36.5801C39.868 36.8334 40.2386 36.9645 40.6169 36.9448C40.9952 36.9251 41.3503 36.7561 41.6041 36.4749L50.1208 27.0244C50.367 26.7417 50.4922 26.3735 50.4694 25.9993C50.4466 25.6251 50.2777 25.2748 49.999 25.024C49.7204 24.7732 49.3543 24.642 48.9798 24.6586C48.6052 24.6753 48.2522 24.8384 47.9969 25.1129L40.4391 33.5003L35.3406 28.9065C35.2011 28.781 35.0383 28.6841 34.8614 28.6214C34.6845 28.5588 34.497 28.5316 34.3095 28.5414C34.1221 28.5512 33.9385 28.5978 33.7691 28.6786C33.5997 28.7594 33.4479 28.8728 33.3223 29.0122C33.1967 29.1517 33.0998 29.3145 33.0372 29.4914C32.9745 29.6683 32.9473 29.8558 32.9571 30.0432C32.9669 30.2306 33.0136 30.4143 33.0944 30.5837C33.1751 30.7531 33.2885 30.9049 33.428 31.0305L33.4259 31.0294Z"/>
</mask>
<path fill-rule="evenodd" clip-rule="evenodd" d="M11.2171 77.5415C11.231 77.4674 11.2511 77.3946 11.277 77.3238L17.3881 54.9405C17.401 54.8778 17.4179 54.816 17.4385 54.7555L18.2555 51.763H11.686L4.30483 78.8085H10.8754L11.2213 77.5467L11.2171 77.5415ZM38.4371 60.7466L61.8845 77.0105C62.128 77.1742 62.337 77.3843 62.4994 77.6287C62.6617 77.8732 62.7743 78.1472 62.8308 78.4352C63.1378 80.3278 60.5596 81.6074 58.7837 80.4098L47.2178 72.606C47.0622 72.501 46.8874 72.4278 46.7035 72.3904C46.5195 72.353 46.33 72.3522 46.1458 72.388C45.9616 72.4238 45.7862 72.4956 45.6297 72.5992C45.4732 72.7028 45.3386 72.8362 45.2337 72.9918C45.1287 73.1475 45.0555 73.3222 45.0181 73.5062C44.9807 73.6901 44.9799 73.8796 45.0157 74.0638C45.0515 74.2481 45.1233 74.4234 45.2269 74.5799C45.3305 74.7364 45.4639 74.871 45.6196 74.9759L57.0299 82.6726C57.2746 82.8298 57.4845 83.0356 57.6463 83.2772C57.8082 83.5189 57.9187 83.7912 57.971 84.0773C58.2738 85.9699 55.7072 87.2685 53.9187 86.0625L42.421 78.3122C42.2654 78.2073 42.0907 78.134 41.9067 78.0966C41.7228 78.0592 41.5333 78.0584 41.3491 78.0942C41.1648 78.1301 40.9895 78.2018 40.833 78.3054C40.6765 78.409 40.5419 78.5425 40.437 78.6981C40.332 78.8537 40.2587 79.0285 40.2213 79.2124C40.1839 79.3963 40.1831 79.5858 40.219 79.7701C40.2548 79.9543 40.3266 80.1297 40.4302 80.2862C40.5338 80.4427 40.6672 80.5772 40.8228 80.6822L49.9904 86.8647C50.2347 87.022 50.4441 87.2277 50.6056 87.4691C50.7671 87.7106 50.8773 87.9826 50.9294 88.2684C51.2322 90.161 48.6656 91.4596 46.8771 90.2535L33.1031 80.9629C32.7887 80.7618 32.4082 80.6916 32.0427 80.7672C31.6773 80.8428 31.3559 81.0583 31.1471 81.3676C30.9384 81.677 30.8589 82.0557 30.9255 82.4229C30.9921 82.79 31.1997 83.1166 31.5038 83.3329L39.518 88.7374C39.7615 88.895 39.9702 89.1007 40.1313 89.3419C40.2924 89.5831 40.4025 89.8547 40.4548 90.14C40.7566 92.0326 38.191 93.3311 36.4015 92.1241L14.2673 77.1935L19.8947 56.585L26.6366 56.1423L24.2299 58.6301C23.7292 59.1389 23.3351 59.7426 23.0709 60.4057C22.8066 61.0689 22.6773 61.7781 22.6907 62.4918C22.7042 63.2056 22.86 63.9095 23.149 64.5622C23.438 65.2149 23.8545 65.8034 24.3739 66.2931C25.5801 67.4164 27.1744 68.029 28.8225 68.0023C30.4706 67.9757 32.0443 67.3118 33.2135 66.1501L38.4371 60.7466ZM64.9968 76.2324L67.3331 75.7235L62.1673 56.8047C56.2171 54.332 50.0105 52.5282 43.6618 51.4266C39.0911 50.7757 35.7275 51.0543 34.1419 52.4833L26.2865 60.61C24.5159 62.4416 26.0951 65.312 28.9393 65.147C29.7744 65.1107 30.5655 64.763 31.1568 64.1723L38.21 56.8752C38.4567 56.617 38.7912 56.4608 39.1474 56.4372C39.5037 56.4137 39.8559 56.5246 40.1344 56.748C40.4129 56.9714 40.5975 57.2912 40.6518 57.6441C40.706 57.997 40.626 58.3575 40.4275 58.6542L63.5016 74.6626C64.1067 75.072 64.6161 75.6075 64.9947 76.2324H64.9968ZM70.4486 76.3155L63.7456 51.763H70.315L77.6962 78.8085H71.1299L70.4486 76.3155ZM17.3081 13.8592C17.3081 13.5933 17.3823 13.3326 17.5224 13.1065C17.6624 12.8805 17.8628 12.698 18.1009 12.5796L41.0825 1.1503C41.2804 1.05146 41.4985 1 41.7197 1C41.9409 1 42.159 1.05146 42.3569 1.1503C50.0325 4.92607 57.6787 8.77333 65.3385 12.5838C65.5765 12.7024 65.7767 12.8849 65.9167 13.1109C66.0568 13.337 66.1311 13.5975 66.1313 13.8634V26.2706C66.1436 35.7093 62.4255 44.7704 55.7871 51.4802C57.5462 52.0501 59.362 52.6894 61.2347 53.3938L60.5365 50.8356C60.4545 50.6191 60.4264 50.3858 60.4546 50.156C60.4828 49.9262 60.5664 49.7066 60.6984 49.5163C60.8303 49.326 61.0066 49.1707 61.2119 49.0637C61.4173 48.9566 61.6456 48.9012 61.8771 48.902H71.4022C71.7385 48.9021 72.064 49.0206 72.3217 49.2367C72.5793 49.4528 72.7526 49.7527 72.8112 50.0839L80.9074 79.7348C80.9894 79.9513 81.0176 80.1845 80.9894 80.4143C80.9612 80.6441 80.8775 80.8636 80.7456 81.0538C80.6136 81.2441 80.4373 81.3993 80.2319 81.5062C80.0266 81.6131 79.7983 81.6684 79.5668 81.6674H70.0427C69.73 81.6671 69.4262 81.564 69.1778 81.374C68.9295 81.184 68.7505 80.9176 68.6684 80.6159L68.087 78.4867L65.6981 79.0072C65.5858 80.2508 65.0272 81.4118 64.1256 82.2757C63.2241 83.1396 62.0403 83.648 60.7931 83.7072C61.3314 87.4598 57.4631 90.2577 53.7746 89.1285C53.3204 92.9621 48.5615 94.8389 45.2778 92.6246L43.2601 91.264C42.6114 94.9441 37.9955 96.6495 34.8033 94.4951L13.4714 80.106L13.3326 80.6149C13.2505 80.9166 13.0715 81.1829 12.8232 81.3729C12.5749 81.5629 12.271 81.666 11.9584 81.6663H2.43325C2.20173 81.6674 1.97343 81.6121 1.76806 81.5052C1.56269 81.3983 1.38642 81.243 1.25446 81.0528C1.1225 80.8625 1.03881 80.6431 1.01062 80.4133C0.982426 80.1835 1.01058 79.9503 1.09265 79.7338L9.22353 49.9535C9.30566 49.6516 9.4848 49.3851 9.73333 49.1951C9.98186 49.0051 10.286 48.9021 10.5988 48.902V48.8957H20.1239C20.3555 48.8949 20.5838 48.9503 20.7891 49.0573C20.9945 49.1644 21.1707 49.3197 21.3027 49.51C21.4346 49.7003 21.5183 49.9199 21.5465 50.1497C21.5747 50.3795 21.5466 50.6128 21.4645 50.8293L20.6907 53.6619L28.9603 53.1194C29.1234 53.109 29.287 53.1268 29.444 53.172C25.6277 49.8068 22.5716 45.6676 20.479 41.0298C18.3863 36.392 17.305 31.3618 17.3071 26.2737V13.8666L17.3081 13.8592ZM57.3149 19.0828L41.7197 11.3284L26.1246 19.087V27.3935C26.1159 31.6925 27.2628 35.9148 29.4451 39.6187C31.5678 43.2188 34.5853 46.2089 38.2047 48.2985C40.1631 48.198 42.1266 48.2984 44.0645 48.5982C44.2274 48.6213 44.3904 48.6455 44.5555 48.6718C48.4115 46.6171 51.636 43.5523 53.8836 39.8055C56.1312 36.0587 57.3173 31.7711 57.3149 27.4019V19.0954V19.0828ZM23.2636 18.2017V27.4019C23.2617 31.6313 24.2561 35.8016 26.1661 39.5751C28.0762 43.3486 30.8482 46.6191 34.2576 49.1218C33.5039 49.4177 32.8087 49.8449 32.2041 50.3835L31.4607 51.149C27.9075 48.0527 25.0607 44.2295 23.1127 39.938C21.1646 35.6465 20.1608 30.9867 20.1691 26.2737V14.7487L41.7239 4.02392L63.2787 14.7487V26.2737C63.2834 30.8296 62.3432 35.3369 60.5174 39.511C58.6917 43.6851 56.0202 47.4352 52.6716 50.5244C51.2942 50.1259 49.9621 49.7768 48.6835 49.4793C52.2325 46.9935 55.1298 43.6886 57.1299 39.8448C59.1299 36.0011 60.1737 31.7317 60.1727 27.3988V18.2017C60.1724 17.9358 60.098 17.6753 59.958 17.4493C59.818 17.2233 59.6178 17.0408 59.3799 16.9221C53.7021 14.0989 48.0389 11.2442 42.3537 8.45159C42.1559 8.35274 41.9377 8.30129 41.7166 8.30129C41.4954 8.30129 41.2772 8.35274 41.0794 8.45159L24.0564 16.9221C23.8182 17.0404 23.6177 17.2229 23.4777 17.4489C23.3376 17.675 23.2634 17.9357 23.2636 18.2017ZM33.4259 31.0294L39.5863 36.5801C39.868 36.8334 40.2386 36.9645 40.6169 36.9448C40.9952 36.9251 41.3503 36.7561 41.6041 36.4749L50.1208 27.0244C50.367 26.7417 50.4922 26.3735 50.4694 25.9993C50.4466 25.6251 50.2777 25.2748 49.999 25.024C49.7204 24.7732 49.3543 24.642 48.9798 24.6586C48.6052 24.6753 48.2522 24.8384 47.9969 25.1129L40.4391 33.5003L35.3406 28.9065C35.2011 28.781 35.0383 28.6841 34.8614 28.6214C34.6845 28.5588 34.497 28.5316 34.3095 28.5414C34.1221 28.5512 33.9385 28.5978 33.7691 28.6786C33.5997 28.7594 33.4479 28.8728 33.3223 29.0122C33.1967 29.1517 33.0998 29.3145 33.0372 29.4914C32.9745 29.6683 32.9473 29.8558 32.9571 30.0432C32.9669 30.2306 33.0136 30.4143 33.0944 30.5837C33.1751 30.7531 33.2885 30.9049 33.428 31.0305L33.4259 31.0294Z" fill="#FF6700"/>
<path fill-rule="evenodd" clip-rule="evenodd" d="M11.2171 77.5415C11.231 77.4674 11.2511 77.3946 11.277 77.3238L17.3881 54.9405C17.401 54.8778 17.4179 54.816 17.4385 54.7555L18.2555 51.763H11.686L4.30483 78.8085H10.8754L11.2213 77.5467L11.2171 77.5415ZM38.4371 60.7466L61.8845 77.0105C62.128 77.1742 62.337 77.3843 62.4994 77.6287C62.6617 77.8732 62.7743 78.1472 62.8308 78.4352C63.1378 80.3278 60.5596 81.6074 58.7837 80.4098L47.2178 72.606C47.0622 72.501 46.8874 72.4278 46.7035 72.3904C46.5195 72.353 46.33 72.3522 46.1458 72.388C45.9616 72.4238 45.7862 72.4956 45.6297 72.5992C45.4732 72.7028 45.3386 72.8362 45.2337 72.9918C45.1287 73.1475 45.0555 73.3222 45.0181 73.5062C44.9807 73.6901 44.9799 73.8796 45.0157 74.0638C45.0515 74.2481 45.1233 74.4234 45.2269 74.5799C45.3305 74.7364 45.4639 74.871 45.6196 74.9759L57.0299 82.6726C57.2746 82.8298 57.4845 83.0356 57.6463 83.2772C57.8082 83.5189 57.9187 83.7912 57.971 84.0773C58.2738 85.9699 55.7072 87.2685 53.9187 86.0625L42.421 78.3122C42.2654 78.2073 42.0907 78.134 41.9067 78.0966C41.7228 78.0592 41.5333 78.0584 41.3491 78.0942C41.1648 78.1301 40.9895 78.2018 40.833 78.3054C40.6765 78.409 40.5419 78.5425 40.437 78.6981C40.332 78.8537 40.2587 79.0285 40.2213 79.2124C40.1839 79.3963 40.1831 79.5858 40.219 79.7701C40.2548 79.9543 40.3266 80.1297 40.4302 80.2862C40.5338 80.4427 40.6672 80.5772 40.8228 80.6822L49.9904 86.8647C50.2347 87.022 50.4441 87.2277 50.6056 87.4691C50.7671 87.7106 50.8773 87.9826 50.9294 88.2684C51.2322 90.161 48.6656 91.4596 46.8771 90.2535L33.1031 80.9629C32.7887 80.7618 32.4082 80.6916 32.0427 80.7672C31.6773 80.8428 31.3559 81.0583 31.1471 81.3676C30.9384 81.677 30.8589 82.0557 30.9255 82.4229C30.9921 82.79 31.1997 83.1166 31.5038 83.3329L39.518 88.7374C39.7615 88.895 39.9702 89.1007 40.1313 89.3419C40.2924 89.5831 40.4025 89.8547 40.4548 90.14C40.7566 92.0326 38.191 93.3311 36.4015 92.1241L14.2673 77.1935L19.8947 56.585L26.6366 56.1423L24.2299 58.6301C23.7292 59.1389 23.3351 59.7426 23.0709 60.4057C22.8066 61.0689 22.6773 61.7781 22.6907 62.4918C22.7042 63.2056 22.86 63.9095 23.149 64.5622C23.438 65.2149 23.8545 65.8034 24.3739 66.2931C25.5801 67.4164 27.1744 68.029 28.8225 68.0023C30.4706 67.9757 32.0443 67.3118 33.2135 66.1501L38.4371 60.7466ZM64.9968 76.2324L67.3331 75.7235L62.1673 56.8047C56.2171 54.332 50.0105 52.5282 43.6618 51.4266C39.0911 50.7757 35.7275 51.0543 34.1419 52.4833L26.2865 60.61C24.5159 62.4416 26.0951 65.312 28.9393 65.147C29.7744 65.1107 30.5655 64.763 31.1568 64.1723L38.21 56.8752C38.4567 56.617 38.7912 56.4608 39.1474 56.4372C39.5037 56.4137 39.8559 56.5246 40.1344 56.748C40.4129 56.9714 40.5975 57.2912 40.6518 57.6441C40.706 57.997 40.626 58.3575 40.4275 58.6542L63.5016 74.6626C64.1067 75.072 64.6161 75.6075 64.9947 76.2324H64.9968ZM70.4486 76.3155L63.7456 51.763H70.315L77.6962 78.8085H71.1299L70.4486 76.3155ZM17.3081 13.8592C17.3081 13.5933 17.3823 13.3326 17.5224 13.1065C17.6624 12.8805 17.8628 12.698 18.1009 12.5796L41.0825 1.1503C41.2804 1.05146 41.4985 1 41.7197 1C41.9409 1 42.159 1.05146 42.3569 1.1503C50.0325 4.92607 57.6787 8.77333 65.3385 12.5838C65.5765 12.7024 65.7767 12.8849 65.9167 13.1109C66.0568 13.337 66.1311 13.5975 66.1313 13.8634V26.2706C66.1436 35.7093 62.4255 44.7704 55.7871 51.4802C57.5462 52.0501 59.362 52.6894 61.2347 53.3938L60.5365 50.8356C60.4545 50.6191 60.4264 50.3858 60.4546 50.156C60.4828 49.9262 60.5664 49.7066 60.6984 49.5163C60.8303 49.326 61.0066 49.1707 61.2119 49.0637C61.4173 48.9566 61.6456 48.9012 61.8771 48.902H71.4022C71.7385 48.9021 72.064 49.0206 72.3217 49.2367C72.5793 49.4528 72.7526 49.7527 72.8112 50.0839L80.9074 79.7348C80.9894 79.9513 81.0176 80.1845 80.9894 80.4143C80.9612 80.6441 80.8775 80.8636 80.7456 81.0538C80.6136 81.2441 80.4373 81.3993 80.2319 81.5062C80.0266 81.6131 79.7983 81.6684 79.5668 81.6674H70.0427C69.73 81.6671 69.4262 81.564 69.1778 81.374C68.9295 81.184 68.7505 80.9176 68.6684 80.6159L68.087 78.4867L65.6981 79.0072C65.5858 80.2508 65.0272 81.4118 64.1256 82.2757C63.2241 83.1396 62.0403 83.648 60.7931 83.7072C61.3314 87.4598 57.4631 90.2577 53.7746 89.1285C53.3204 92.9621 48.5615 94.8389 45.2778 92.6246L43.2601 91.264C42.6114 94.9441 37.9955 96.6495 34.8033 94.4951L13.4714 80.106L13.3326 80.6149C13.2505 80.9166 13.0715 81.1829 12.8232 81.3729C12.5749 81.5629 12.271 81.666 11.9584 81.6663H2.43325C2.20173 81.6674 1.97343 81.6121 1.76806 81.5052C1.56269 81.3983 1.38642 81.243 1.25446 81.0528C1.1225 80.8625 1.03881 80.6431 1.01062 80.4133C0.982426 80.1835 1.01058 79.9503 1.09265 79.7338L9.22353 49.9535C9.30566 49.6516 9.4848 49.3851 9.73333 49.1951C9.98186 49.0051 10.286 48.9021 10.5988 48.902V48.8957H20.1239C20.3555 48.8949 20.5838 48.9503 20.7891 49.0573C20.9945 49.1644 21.1707 49.3197 21.3027 49.51C21.4346 49.7003 21.5183 49.9199 21.5465 50.1497C21.5747 50.3795 21.5466 50.6128 21.4645 50.8293L20.6907 53.6619L28.9603 53.1194C29.1234 53.109 29.287 53.1268 29.444 53.172C25.6277 49.8068 22.5716 45.6676 20.479 41.0298C18.3863 36.392 17.305 31.3618 17.3071 26.2737V13.8666L17.3081 13.8592ZM57.3149 19.0828L41.7197 11.3284L26.1246 19.087V27.3935C26.1159 31.6925 27.2628 35.9148 29.4451 39.6187C31.5678 43.2188 34.5853 46.2089 38.2047 48.2985C40.1631 48.198 42.1266 48.2984 44.0645 48.5982C44.2274 48.6213 44.3904 48.6455 44.5555 48.6718C48.4115 46.6171 51.636 43.5523 53.8836 39.8055C56.1312 36.0587 57.3173 31.7711 57.3149 27.4019V19.0954V19.0828ZM23.2636 18.2017V27.4019C23.2617 31.6313 24.2561 35.8016 26.1661 39.5751C28.0762 43.3486 30.8482 46.6191 34.2576 49.1218C33.5039 49.4177 32.8087 49.8449 32.2041 50.3835L31.4607 51.149C27.9075 48.0527 25.0607 44.2295 23.1127 39.938C21.1646 35.6465 20.1608 30.9867 20.1691 26.2737V14.7487L41.7239 4.02392L63.2787 14.7487V26.2737C63.2834 30.8296 62.3432 35.3369 60.5174 39.511C58.6917 43.6851 56.0202 47.4352 52.6716 50.5244C51.2942 50.1259 49.9621 49.7768 48.6835 49.4793C52.2325 46.9935 55.1298 43.6886 57.1299 39.8448C59.1299 36.0011 60.1737 31.7317 60.1727 27.3988V18.2017C60.1724 17.9358 60.098 17.6753 59.958 17.4493C59.818 17.2233 59.6178 17.0408 59.3799 16.9221C53.7021 14.0989 48.0389 11.2442 42.3537 8.45159C42.1559 8.35274 41.9377 8.30129 41.7166 8.30129C41.4954 8.30129 41.2772 8.35274 41.0794 8.45159L24.0564 16.9221C23.8182 17.0404 23.6177 17.2229 23.4777 17.4489C23.3376 17.675 23.2634 17.9357 23.2636 18.2017ZM33.4259 31.0294L39.5863 36.5801C39.868 36.8334 40.2386 36.9645 40.6169 36.9448C40.9952 36.9251 41.3503 36.7561 41.6041 36.4749L50.1208 27.0244C50.367 26.7417 50.4922 26.3735 50.4694 25.9993C50.4466 25.6251 50.2777 25.2748 49.999 25.024C49.7204 24.7732 49.3543 24.642 48.9798 24.6586C48.6052 24.6753 48.2522 24.8384 47.9969 25.1129L40.4391 33.5003L35.3406 28.9065C35.2011 28.781 35.0383 28.6841 34.8614 28.6214C34.6845 28.5588 34.497 28.5316 34.3095 28.5414C34.1221 28.5512 33.9385 28.5978 33.7691 28.6786C33.5997 28.7594 33.4479 28.8728 33.3223 29.0122C33.1967 29.1517 33.0998 29.3145 33.0372 29.4914C32.9745 29.6683 32.9473 29.8558 32.9571 30.0432C32.9669 30.2306 33.0136 30.4143 33.0944 30.5837C33.1751 30.7531 33.2885 30.9049 33.428 31.0305L33.4259 31.0294Z" stroke="#FF6700" stroke-width="0.6" mask="url(#path-1-outside-1_1063_2132)"/>
</svg>
