<svg width="70" height="70" viewBox="0 0 70 70" fill="none" xmlns="http://www.w3.org/2000/svg">
<path d="M56.4123 42.7955C55.9065 42.7955 55.4786 42.7955 54.9728 42.7955C52.9403 38.8502 50.0266 35.4258 46.4576 32.7879C42.8886 30.1499 38.7601 28.3692 34.392 27.5837C34.0176 27.5103 33.6299 27.5486 33.2771 27.6938C32.9243 27.8391 32.622 28.0849 32.4079 28.4007L29.1788 33.4583L25.9497 28.5563C25.7355 28.2405 25.4332 27.9947 25.0804 27.8495C24.7276 27.7042 24.3399 27.6659 23.9655 27.7393C17.2404 28.945 11.154 32.4785 6.77232 37.7208C2.39069 42.9631 -0.00673691 49.58 1.42195e-05 56.4123C1.42195e-05 56.9282 0.20496 57.423 0.569765 57.7878C0.93457 58.1526 1.42935 58.3575 1.94526 58.3575H42.99C43.3702 60.9307 44.4814 63.3406 46.1916 65.3005C47.9017 67.2604 50.1389 68.6878 52.6369 69.4129C55.1349 70.1381 57.7886 70.1304 60.2824 69.3909C62.7762 68.6514 65.0051 67.2111 66.7039 65.2414C68.4028 63.2717 69.5002 60.8555 69.8654 58.2801C70.2307 55.7048 69.8486 53.0787 68.7645 50.7143C67.6803 48.3499 65.9399 46.3466 63.7501 44.9427C61.5603 43.5389 59.0134 42.7936 56.4123 42.7955ZM23.343 31.8243L27.467 38.0491C27.6595 38.2993 27.907 38.502 28.1903 38.6414C28.4736 38.7809 28.7852 38.8534 29.101 38.8534C29.4167 38.8534 29.7283 38.7809 30.0116 38.6414C30.2949 38.502 30.5424 38.2993 30.735 38.0491L35.0145 31.8243C38.3968 32.6002 41.5814 34.0691 44.3671 36.1383C47.1529 38.2075 49.4791 40.832 51.199 43.846C48.9999 44.7392 47.0698 46.1871 45.597 48.0486C44.1242 49.91 43.159 52.1214 42.7955 54.467H3.89052C4.29313 49.1113 6.39822 44.0248 9.89811 39.9509C13.398 35.8771 18.1092 33.0295 23.343 31.8243ZM56.4123 66.1385C54.0313 66.0978 51.748 65.185 49.9952 63.5731C48.2423 61.9612 47.1417 59.7623 46.9019 57.3931C46.6621 55.0239 47.2998 52.6491 48.6941 50.7187C50.0885 48.7883 52.1425 47.4365 54.467 46.9194C55.1045 46.7684 55.7571 46.6901 56.4123 46.686C58.9918 46.686 61.4657 47.7107 63.2898 49.5348C65.1138 51.3588 66.1385 53.8327 66.1385 56.4123C66.1385 58.9918 65.1138 61.4657 63.2898 63.2898C61.4657 65.1138 58.9918 66.1385 56.4123 66.1385ZM62.248 56.4123C62.248 56.9282 62.0431 57.423 61.6783 57.7878C61.3135 58.1526 60.8187 58.3575 60.3028 58.3575H52.5218C52.0059 58.3575 51.5111 58.1526 51.1463 57.7878C50.7815 57.423 50.5765 56.9282 50.5765 56.4123C50.5765 55.8964 50.7815 55.4016 51.1463 55.0368C51.5111 54.672 52.0059 54.467 52.5218 54.467H60.3028C60.8187 54.467 61.3135 54.672 61.6783 55.0368C62.0431 55.4016 62.248 55.8964 62.248 56.4123ZM29.1788 27.2335C31.8719 27.2335 34.5046 26.4349 36.7438 24.9387C38.9831 23.4424 40.7284 21.3158 41.759 18.8277C42.7896 16.3395 43.0593 13.6017 42.5339 10.9603C42.0085 8.31887 40.7116 5.8926 38.8073 3.98826C36.9029 2.08392 34.4767 0.787054 31.8353 0.261648C29.1939 -0.263757 26.456 0.00589991 23.9679 1.03652C21.4797 2.06714 19.3531 3.81243 17.8569 6.0517C16.3606 8.29096 15.562 10.9236 15.562 13.6168C15.562 17.2281 16.9966 20.6916 19.5503 23.2453C22.1039 25.7989 25.5674 27.2335 29.1788 27.2335ZM29.1788 3.89051C31.1024 3.89051 32.9829 4.46094 34.5824 5.52968C36.1819 6.59841 37.4285 8.11744 38.1647 9.89468C38.9008 11.6719 39.0934 13.6275 38.7181 15.5143C38.3428 17.401 37.4165 19.134 36.0563 20.4943C34.696 21.8545 32.963 22.7808 31.0763 23.1561C29.1896 23.5314 27.2339 23.3388 25.4567 22.6026C23.6795 21.8665 22.1604 20.6198 21.0917 19.0204C20.023 17.4209 19.4525 15.5404 19.4525 13.6168C19.4525 11.0372 20.4772 8.56329 22.3013 6.73926C24.1253 4.91523 26.5992 3.89051 29.1788 3.89051Z" fill="white"/>
</svg>
