<svg width="82" height="88" viewBox="0 0 82 88" fill="none" xmlns="http://www.w3.org/2000/svg">
<mask id="path-1-outside-1_1056_1983" maskUnits="userSpaceOnUse" x="0" y="0" width="82" height="88" fill="black">
<rect fill="white" width="82" height="88"/>
<path fill-rule="evenodd" clip-rule="evenodd" d="M35.5262 44.282C35.5262 44.5873 35.4049 44.8801 35.1891 45.096C34.9732 45.3118 34.6804 45.4331 34.3751 45.4331C34.0699 45.4331 33.7771 45.3118 33.5612 45.096C33.3453 44.8801 33.2241 44.5873 33.2241 44.282V35.7191C33.2241 35.4138 33.3453 35.121 33.5612 34.9051C33.7771 34.6893 34.0699 34.568 34.3751 34.568C34.6804 34.568 34.9732 34.6893 35.1891 34.9051C35.4049 35.121 35.5262 35.4138 35.5262 35.7191V44.282ZM35.5262 47.6988C35.5262 48.0041 35.4049 48.2968 35.1891 48.5127C34.9732 48.7286 34.6804 48.8498 34.3751 48.8498C34.0699 48.8498 33.7771 48.7286 33.5612 48.5127C33.3453 48.2968 33.2241 48.0041 33.2241 47.6988C33.2241 47.3935 33.3453 47.1007 33.5612 46.8849C33.7771 46.669 34.0699 46.5477 34.3751 46.5477C34.6804 46.5477 34.9732 46.669 35.1891 46.8849C35.4049 47.1007 35.5262 47.3935 35.5262 47.6988ZM70.7507 33.0227C69.7917 32.0632 68.5297 31.466 67.1797 31.3328C65.8297 31.1995 64.4753 31.5386 63.3473 32.2922C62.2193 33.0457 61.3875 34.1671 60.9937 35.4653C60.5999 36.7634 60.6685 38.158 61.1877 39.4112C61.707 40.6645 62.6447 41.6989 63.8412 42.3381C65.0377 42.9774 66.4189 43.182 67.7493 42.917C69.0797 42.652 70.2771 41.9338 71.1373 40.8849C71.9975 39.836 72.4674 38.5212 72.4668 37.1646C72.4679 36.3948 72.3168 35.6323 72.0223 34.921C71.7278 34.2097 71.2957 33.5636 70.7507 33.0198V33.0227ZM66.6059 29.0084C68.4939 29.0082 70.3235 29.6627 71.7829 30.8603C73.2424 32.0579 74.2415 33.7245 74.6099 35.5762C74.9782 37.4279 74.6932 39.35 73.8032 41.015C72.9133 42.68 71.4735 43.985 69.7293 44.7074C67.985 45.4299 66.0442 45.5252 64.2376 44.9771C62.431 44.429 60.8703 43.2714 59.8215 41.7015C58.7727 40.1317 58.3007 38.2468 58.4859 36.3679C58.6711 34.4891 59.5021 32.7326 60.8372 31.3978C61.5939 30.6391 62.4931 30.0374 63.4831 29.6273C64.4731 29.2173 65.5344 29.0069 66.6059 29.0084ZM62.9724 37.932C62.7806 37.7181 62.6758 37.4403 62.6784 37.153C62.6811 36.8658 62.791 36.5899 62.9867 36.3796C63.1823 36.1692 63.4495 36.0397 63.7359 36.0163C64.0222 35.993 64.3069 36.0775 64.534 36.2533L65.7906 37.4246L68.6376 34.5009C68.8493 34.283 69.139 34.1581 69.4429 34.1538C69.7467 34.1495 70.0398 34.266 70.2577 34.4778C70.4756 34.6896 70.6004 34.9793 70.6047 35.2831C70.609 35.587 70.4925 35.8801 70.2807 36.098L66.6683 39.8073C66.4605 40.0287 66.1737 40.1592 65.8703 40.1701C65.5668 40.1811 65.2713 40.0717 65.0482 39.8658L62.9724 37.932ZM41.5117 38.7512L36.1535 29.4707C35.9816 29.1528 35.7249 28.8888 35.412 28.708C35.0991 28.5272 34.7422 28.4366 34.3809 28.4462C34.0383 28.4413 33.6998 28.5214 33.3958 28.6793L33.3517 28.7072C33.0395 28.8907 32.7816 29.1539 32.6044 29.4697L27.2462 38.7502L21.8909 48.0268C21.7038 48.3374 21.6033 48.6925 21.6 49.0551C21.5967 49.4177 21.6906 49.7745 21.8719 50.0885C22.0533 50.4025 22.3155 50.6621 22.6313 50.8404C22.9471 51.0186 23.3048 51.109 23.6674 51.1021H45.0935C45.4549 51.1061 45.8108 51.0138 46.1248 50.8348C46.4388 50.6558 46.6996 50.3965 46.8803 50.0835C47.061 49.7705 47.1552 49.4151 47.1532 49.0537C47.1512 48.6922 47.0531 48.3378 46.869 48.0268L41.5482 38.8097C41.5357 38.7905 41.5233 38.7713 41.5117 38.7512ZM38.1372 28.3206C37.5667 27.3357 36.6336 26.6131 35.5374 26.3072C34.4411 26.0012 33.2687 26.1362 32.2706 26.6832C32.2457 26.696 32.2207 26.7094 32.1958 26.7235C31.5367 27.1068 30.991 27.6579 30.614 28.3206L25.2587 37.6011L19.8986 46.8854C19.5142 47.5449 19.3109 48.2943 19.3093 49.0577C19.3077 49.8211 19.5079 50.5714 19.8896 51.2325C20.2713 51.8936 20.8209 52.4422 21.4828 52.8225C22.1447 53.2029 22.8953 53.4016 23.6587 53.3985H45.0935C45.8586 53.4062 46.6121 53.2104 47.2766 52.8311C47.9412 52.4518 48.493 51.9027 48.8755 51.2399C49.258 50.5772 49.4575 49.8247 49.4535 49.0596C49.4494 48.2944 49.2421 47.544 48.8527 46.8854L43.529 37.6634C43.5184 37.6423 43.5069 37.6212 43.4954 37.6001L38.1372 28.3206ZM27.8831 7.28295H21.3518V14.6229H47.4023V7.28487H40.871V7.28007C40.6026 7.28003 40.3428 7.18567 40.137 7.01349C39.9311 6.84131 39.7923 6.60225 39.7449 6.33812C39.6306 5.89716 39.4257 5.48487 39.1431 5.12762C38.8605 4.77036 38.5065 4.47599 38.1036 4.26332C36.9638 3.63021 35.6814 3.29798 34.3775 3.29798C33.0737 3.29798 31.7913 3.63021 30.6514 4.26332C30.2608 4.47027 29.9154 4.75307 29.6354 5.09517C29.3554 5.43727 29.1464 5.83178 29.0208 6.25563C28.9899 6.53716 28.8562 6.7974 28.6455 6.98659C28.4347 7.17577 28.1616 7.2806 27.8783 7.28103L27.8831 7.28295ZM58.8266 70.8553H53.6776C53.1837 70.8571 52.7106 71.054 52.3613 71.4031C52.012 71.7522 51.8148 72.2253 51.8128 72.7191V78.2193L58.8266 70.8592V70.8553ZM15.1207 61.9288C14.8154 61.9288 14.5226 61.8076 14.3068 61.5917C14.0909 61.3758 13.9696 61.083 13.9696 60.7778C13.9696 60.4725 14.0909 60.1797 14.3068 59.9638C14.5226 59.748 14.8154 59.6267 15.1207 59.6267H53.6334C53.9387 59.6267 54.2315 59.748 54.4474 59.9638C54.6632 60.1797 54.7845 60.4725 54.7845 60.7778C54.7845 61.083 54.6632 61.3758 54.4474 61.5917C54.2315 61.8076 53.9387 61.9288 53.6334 61.9288H15.1207ZM15.1207 70.4582C14.9695 70.4582 14.8199 70.4285 14.6802 70.3706C14.5405 70.3128 14.4137 70.228 14.3068 70.1211C14.1999 70.0142 14.1151 69.8873 14.0572 69.7477C13.9994 69.608 13.9696 69.4583 13.9696 69.3072C13.9696 69.156 13.9994 69.0063 14.0572 68.8667C14.1151 68.727 14.1999 68.6001 14.3068 68.4932C14.4137 68.3863 14.5405 68.3016 14.6802 68.2437C14.8199 68.1859 14.9695 68.1561 15.1207 68.1561H41.648C41.7991 68.1561 41.9488 68.1859 42.0885 68.2437C42.2281 68.3016 42.355 68.3863 42.4619 68.4932C42.5688 68.6001 42.6536 68.727 42.7114 68.8667C42.7693 69.0063 42.799 69.156 42.799 69.3072C42.799 69.4583 42.7693 69.608 42.7114 69.7477C42.6536 69.8873 42.5688 70.0142 42.4619 70.1211C42.355 70.228 42.2281 70.3128 42.0885 70.3706C41.9488 70.4285 41.7991 70.4582 41.648 70.4582H15.1207ZM72.8658 25.7815L78.6969 27.7412C78.6537 32.4174 78.2173 37.2298 76.5329 41.3056C75.6752 43.5014 74.3392 45.4787 72.622 47.0938C70.9047 48.7088 68.8493 49.9211 66.605 50.6426C64.3607 49.921 62.3054 48.7087 60.5881 47.0936C58.8709 45.4786 57.5348 43.5014 56.677 41.3056C54.9936 37.2298 54.5562 32.4174 54.513 27.7412L66.605 23.6799L72.8639 25.7815H72.8658ZM62.6539 22.5912L65.4568 21.6492V16.5279C65.451 14.6825 64.7153 12.9143 63.4104 11.6094C62.1055 10.3045 60.3373 9.56884 58.4919 9.56302H49.7006V12.3659H58.4919C59.5949 12.3687 60.6519 12.808 61.4318 13.588C62.2118 14.3679 62.6511 15.4249 62.6539 16.5279V22.5912ZM60.3518 49.9079C57.76 47.8986 55.7579 45.2278 54.5562 42.1765C52.6262 37.5042 52.208 32.0865 52.208 26.9249C52.2084 26.6682 52.2946 26.4189 52.4529 26.2167C52.6113 26.0146 52.8327 25.8712 53.0819 25.8093L60.3518 23.3672V16.5279C60.3498 16.0342 60.1528 15.5614 59.8037 15.2123C59.4546 14.8632 58.9817 14.6662 58.488 14.6642H49.7006V15.774C49.7006 16.0793 49.5793 16.372 49.3635 16.5879C49.1476 16.8038 48.8548 16.925 48.5496 16.925H20.2027C19.8974 16.925 19.6046 16.8038 19.3887 16.5879C19.1729 16.372 19.0516 16.0793 19.0516 15.774V14.6642H10.2622C9.76856 14.6662 9.29568 14.8632 8.94659 15.2123C8.5975 15.5614 8.40049 16.0342 8.39847 16.5279V78.0687C8.40049 78.5624 8.5975 79.0352 8.94659 79.3843C9.29568 79.7334 9.76856 79.9304 10.2622 79.9324H49.5155V72.7191C49.5178 71.616 49.957 70.5586 50.737 69.7786C51.5171 68.9986 52.5744 68.5593 53.6776 68.557H60.3556V49.9079H60.3518ZM65.4597 52.6666C64.4953 52.3134 63.5585 51.8892 62.6568 51.3975V69.7062C62.6568 69.8661 62.6234 70.0243 62.5588 70.1706C62.4943 70.317 62.3999 70.4482 62.2818 70.5561L51.551 81.8125L51.5366 81.8288C51.5261 81.842 51.5149 81.8544 51.503 81.8662L51.4953 81.8739L51.4848 81.8854L51.4752 81.895L51.4656 81.9046L51.4474 81.9209L51.4291 81.9363L51.4234 81.942L51.408 81.9545L51.3889 81.9698L51.3697 81.9842L51.3514 81.9977L51.3303 82.012L51.3092 82.0264L51.292 82.037L51.2814 82.0437L51.268 82.0514L51.2507 82.061H51.2459L51.2239 82.0725L51.2037 82.0821H51.1989H51.1932L51.1759 82.0907H51.1701L51.151 82.0993H51.1442L51.1299 82.106H51.1251L51.104 82.1137L51.0857 82.1195L51.0666 82.1252H51.057H51.0416H51.0339H51.0148H51.008L50.9879 82.13H50.9831H50.9773H50.962H50.9505H50.9303H50.8603H50.8411H50.8306H50.8143H50.8056H50.7903H50.7778H50.7606H10.2622C9.15926 82.1275 8.10219 81.6881 7.32236 80.9081C6.54252 80.1281 6.10342 79.0709 6.10114 77.968V16.5279C6.10342 15.4249 6.54252 14.3678 7.32236 13.5878C8.10219 12.8077 9.15926 12.3684 10.2622 12.3659H19.0535V9.56302H10.2622C8.41765 9.5701 6.65071 10.3063 5.34683 11.6111C4.04295 12.9159 3.30794 14.6833 3.30213 16.5279V78.0687C3.3082 79.9141 4.04392 81.6822 5.34875 82.9872C6.65358 84.2923 8.42161 85.0282 10.267 85.0345H58.4967C60.3418 85.0277 62.1093 84.2915 63.4137 82.9866C64.7181 81.6816 65.4536 79.9138 65.4597 78.0687V52.6666ZM67.7618 21.6492V16.5279C67.7552 14.0732 66.7772 11.7209 65.0414 9.98513C63.3056 8.24936 60.9533 7.27131 58.4986 7.26473H49.7006V6.1338C49.7006 5.82852 49.5793 5.53574 49.3635 5.31988C49.1476 5.10401 48.8548 4.98274 48.5496 4.98274H41.7151C41.2085 3.85986 40.3629 2.92394 39.2969 2.30651C37.7986 1.45034 36.1028 1 34.3771 1C32.6514 1 30.9555 1.45034 29.4572 2.30651C28.3913 2.92394 27.5456 3.85986 27.039 4.98274H20.2027C19.8974 4.98274 19.6046 5.10401 19.3887 5.31988C19.1729 5.53574 19.0516 5.82852 19.0516 6.1338V7.26473H10.2622C7.80768 7.27156 5.45561 8.24973 3.72006 9.98546C1.9845 11.7212 1.00658 14.0734 1 16.5279V78.0687C1.00658 80.5232 1.9845 82.8754 3.72006 84.6111C5.45561 86.3469 7.80768 87.325 10.2622 87.3319H58.4919C60.9466 87.3253 63.2989 86.3472 65.0347 84.6115C66.7704 82.8757 67.7485 80.5234 67.7551 78.0687V52.6666C70.2232 51.8125 72.4762 50.432 74.3578 48.6206C76.2393 46.8093 77.7045 44.6105 78.6518 42.1765C80.5818 37.5042 81 32.0865 81 26.9249C80.9991 26.685 80.9233 26.4514 80.7831 26.2568C80.6429 26.0621 80.4454 25.916 80.2182 25.8391L67.7618 21.6492Z"/>
</mask>
<path fill-rule="evenodd" clip-rule="evenodd" d="M35.5262 44.282C35.5262 44.5873 35.4049 44.8801 35.1891 45.096C34.9732 45.3118 34.6804 45.4331 34.3751 45.4331C34.0699 45.4331 33.7771 45.3118 33.5612 45.096C33.3453 44.8801 33.2241 44.5873 33.2241 44.282V35.7191C33.2241 35.4138 33.3453 35.121 33.5612 34.9051C33.7771 34.6893 34.0699 34.568 34.3751 34.568C34.6804 34.568 34.9732 34.6893 35.1891 34.9051C35.4049 35.121 35.5262 35.4138 35.5262 35.7191V44.282ZM35.5262 47.6988C35.5262 48.0041 35.4049 48.2968 35.1891 48.5127C34.9732 48.7286 34.6804 48.8498 34.3751 48.8498C34.0699 48.8498 33.7771 48.7286 33.5612 48.5127C33.3453 48.2968 33.2241 48.0041 33.2241 47.6988C33.2241 47.3935 33.3453 47.1007 33.5612 46.8849C33.7771 46.669 34.0699 46.5477 34.3751 46.5477C34.6804 46.5477 34.9732 46.669 35.1891 46.8849C35.4049 47.1007 35.5262 47.3935 35.5262 47.6988ZM70.7507 33.0227C69.7917 32.0632 68.5297 31.466 67.1797 31.3328C65.8297 31.1995 64.4753 31.5386 63.3473 32.2922C62.2193 33.0457 61.3875 34.1671 60.9937 35.4653C60.5999 36.7634 60.6685 38.158 61.1877 39.4112C61.707 40.6645 62.6447 41.6989 63.8412 42.3381C65.0377 42.9774 66.4189 43.182 67.7493 42.917C69.0797 42.652 70.2771 41.9338 71.1373 40.8849C71.9975 39.836 72.4674 38.5212 72.4668 37.1646C72.4679 36.3948 72.3168 35.6323 72.0223 34.921C71.7278 34.2097 71.2957 33.5636 70.7507 33.0198V33.0227ZM66.6059 29.0084C68.4939 29.0082 70.3235 29.6627 71.7829 30.8603C73.2424 32.0579 74.2415 33.7245 74.6099 35.5762C74.9782 37.4279 74.6932 39.35 73.8032 41.015C72.9133 42.68 71.4735 43.985 69.7293 44.7074C67.985 45.4299 66.0442 45.5252 64.2376 44.9771C62.431 44.429 60.8703 43.2714 59.8215 41.7015C58.7727 40.1317 58.3007 38.2468 58.4859 36.3679C58.6711 34.4891 59.5021 32.7326 60.8372 31.3978C61.5939 30.6391 62.4931 30.0374 63.4831 29.6273C64.4731 29.2173 65.5344 29.0069 66.6059 29.0084ZM62.9724 37.932C62.7806 37.7181 62.6758 37.4403 62.6784 37.153C62.6811 36.8658 62.791 36.5899 62.9867 36.3796C63.1823 36.1692 63.4495 36.0397 63.7359 36.0163C64.0222 35.993 64.3069 36.0775 64.534 36.2533L65.7906 37.4246L68.6376 34.5009C68.8493 34.283 69.139 34.1581 69.4429 34.1538C69.7467 34.1495 70.0398 34.266 70.2577 34.4778C70.4756 34.6896 70.6004 34.9793 70.6047 35.2831C70.609 35.587 70.4925 35.8801 70.2807 36.098L66.6683 39.8073C66.4605 40.0287 66.1737 40.1592 65.8703 40.1701C65.5668 40.1811 65.2713 40.0717 65.0482 39.8658L62.9724 37.932ZM41.5117 38.7512L36.1535 29.4707C35.9816 29.1528 35.7249 28.8888 35.412 28.708C35.0991 28.5272 34.7422 28.4366 34.3809 28.4462C34.0383 28.4413 33.6998 28.5214 33.3958 28.6793L33.3517 28.7072C33.0395 28.8907 32.7816 29.1539 32.6044 29.4697L27.2462 38.7502L21.8909 48.0268C21.7038 48.3374 21.6033 48.6925 21.6 49.0551C21.5967 49.4177 21.6906 49.7745 21.8719 50.0885C22.0533 50.4025 22.3155 50.6621 22.6313 50.8404C22.9471 51.0186 23.3048 51.109 23.6674 51.1021H45.0935C45.4549 51.1061 45.8108 51.0138 46.1248 50.8348C46.4388 50.6558 46.6996 50.3965 46.8803 50.0835C47.061 49.7705 47.1552 49.4151 47.1532 49.0537C47.1512 48.6922 47.0531 48.3378 46.869 48.0268L41.5482 38.8097C41.5357 38.7905 41.5233 38.7713 41.5117 38.7512ZM38.1372 28.3206C37.5667 27.3357 36.6336 26.6131 35.5374 26.3072C34.4411 26.0012 33.2687 26.1362 32.2706 26.6832C32.2457 26.696 32.2207 26.7094 32.1958 26.7235C31.5367 27.1068 30.991 27.6579 30.614 28.3206L25.2587 37.6011L19.8986 46.8854C19.5142 47.5449 19.3109 48.2943 19.3093 49.0577C19.3077 49.8211 19.5079 50.5714 19.8896 51.2325C20.2713 51.8936 20.8209 52.4422 21.4828 52.8225C22.1447 53.2029 22.8953 53.4016 23.6587 53.3985H45.0935C45.8586 53.4062 46.6121 53.2104 47.2766 52.8311C47.9412 52.4518 48.493 51.9027 48.8755 51.2399C49.258 50.5772 49.4575 49.8247 49.4535 49.0596C49.4494 48.2944 49.2421 47.544 48.8527 46.8854L43.529 37.6634C43.5184 37.6423 43.5069 37.6212 43.4954 37.6001L38.1372 28.3206ZM27.8831 7.28295H21.3518V14.6229H47.4023V7.28487H40.871V7.28007C40.6026 7.28003 40.3428 7.18567 40.137 7.01349C39.9311 6.84131 39.7923 6.60225 39.7449 6.33812C39.6306 5.89716 39.4257 5.48487 39.1431 5.12762C38.8605 4.77036 38.5065 4.47599 38.1036 4.26332C36.9638 3.63021 35.6814 3.29798 34.3775 3.29798C33.0737 3.29798 31.7913 3.63021 30.6514 4.26332C30.2608 4.47027 29.9154 4.75307 29.6354 5.09517C29.3554 5.43727 29.1464 5.83178 29.0208 6.25563C28.9899 6.53716 28.8562 6.7974 28.6455 6.98659C28.4347 7.17577 28.1616 7.2806 27.8783 7.28103L27.8831 7.28295ZM58.8266 70.8553H53.6776C53.1837 70.8571 52.7106 71.054 52.3613 71.4031C52.012 71.7522 51.8148 72.2253 51.8128 72.7191V78.2193L58.8266 70.8592V70.8553ZM15.1207 61.9288C14.8154 61.9288 14.5226 61.8076 14.3068 61.5917C14.0909 61.3758 13.9696 61.083 13.9696 60.7778C13.9696 60.4725 14.0909 60.1797 14.3068 59.9638C14.5226 59.748 14.8154 59.6267 15.1207 59.6267H53.6334C53.9387 59.6267 54.2315 59.748 54.4474 59.9638C54.6632 60.1797 54.7845 60.4725 54.7845 60.7778C54.7845 61.083 54.6632 61.3758 54.4474 61.5917C54.2315 61.8076 53.9387 61.9288 53.6334 61.9288H15.1207ZM15.1207 70.4582C14.9695 70.4582 14.8199 70.4285 14.6802 70.3706C14.5405 70.3128 14.4137 70.228 14.3068 70.1211C14.1999 70.0142 14.1151 69.8873 14.0572 69.7477C13.9994 69.608 13.9696 69.4583 13.9696 69.3072C13.9696 69.156 13.9994 69.0063 14.0572 68.8667C14.1151 68.727 14.1999 68.6001 14.3068 68.4932C14.4137 68.3863 14.5405 68.3016 14.6802 68.2437C14.8199 68.1859 14.9695 68.1561 15.1207 68.1561H41.648C41.7991 68.1561 41.9488 68.1859 42.0885 68.2437C42.2281 68.3016 42.355 68.3863 42.4619 68.4932C42.5688 68.6001 42.6536 68.727 42.7114 68.8667C42.7693 69.0063 42.799 69.156 42.799 69.3072C42.799 69.4583 42.7693 69.608 42.7114 69.7477C42.6536 69.8873 42.5688 70.0142 42.4619 70.1211C42.355 70.228 42.2281 70.3128 42.0885 70.3706C41.9488 70.4285 41.7991 70.4582 41.648 70.4582H15.1207ZM72.8658 25.7815L78.6969 27.7412C78.6537 32.4174 78.2173 37.2298 76.5329 41.3056C75.6752 43.5014 74.3392 45.4787 72.622 47.0938C70.9047 48.7088 68.8493 49.9211 66.605 50.6426C64.3607 49.921 62.3054 48.7087 60.5881 47.0936C58.8709 45.4786 57.5348 43.5014 56.677 41.3056C54.9936 37.2298 54.5562 32.4174 54.513 27.7412L66.605 23.6799L72.8639 25.7815H72.8658ZM62.6539 22.5912L65.4568 21.6492V16.5279C65.451 14.6825 64.7153 12.9143 63.4104 11.6094C62.1055 10.3045 60.3373 9.56884 58.4919 9.56302H49.7006V12.3659H58.4919C59.5949 12.3687 60.6519 12.808 61.4318 13.588C62.2118 14.3679 62.6511 15.4249 62.6539 16.5279V22.5912ZM60.3518 49.9079C57.76 47.8986 55.7579 45.2278 54.5562 42.1765C52.6262 37.5042 52.208 32.0865 52.208 26.9249C52.2084 26.6682 52.2946 26.4189 52.4529 26.2167C52.6113 26.0146 52.8327 25.8712 53.0819 25.8093L60.3518 23.3672V16.5279C60.3498 16.0342 60.1528 15.5614 59.8037 15.2123C59.4546 14.8632 58.9817 14.6662 58.488 14.6642H49.7006V15.774C49.7006 16.0793 49.5793 16.372 49.3635 16.5879C49.1476 16.8038 48.8548 16.925 48.5496 16.925H20.2027C19.8974 16.925 19.6046 16.8038 19.3887 16.5879C19.1729 16.372 19.0516 16.0793 19.0516 15.774V14.6642H10.2622C9.76856 14.6662 9.29568 14.8632 8.94659 15.2123C8.5975 15.5614 8.40049 16.0342 8.39847 16.5279V78.0687C8.40049 78.5624 8.5975 79.0352 8.94659 79.3843C9.29568 79.7334 9.76856 79.9304 10.2622 79.9324H49.5155V72.7191C49.5178 71.616 49.957 70.5586 50.737 69.7786C51.5171 68.9986 52.5744 68.5593 53.6776 68.557H60.3556V49.9079H60.3518ZM65.4597 52.6666C64.4953 52.3134 63.5585 51.8892 62.6568 51.3975V69.7062C62.6568 69.8661 62.6234 70.0243 62.5588 70.1706C62.4943 70.317 62.3999 70.4482 62.2818 70.5561L51.551 81.8125L51.5366 81.8288C51.5261 81.842 51.5149 81.8544 51.503 81.8662L51.4953 81.8739L51.4848 81.8854L51.4752 81.895L51.4656 81.9046L51.4474 81.9209L51.4291 81.9363L51.4234 81.942L51.408 81.9545L51.3889 81.9698L51.3697 81.9842L51.3514 81.9977L51.3303 82.012L51.3092 82.0264L51.292 82.037L51.2814 82.0437L51.268 82.0514L51.2507 82.061H51.2459L51.2239 82.0725L51.2037 82.0821H51.1989H51.1932L51.1759 82.0907H51.1701L51.151 82.0993H51.1442L51.1299 82.106H51.1251L51.104 82.1137L51.0857 82.1195L51.0666 82.1252H51.057H51.0416H51.0339H51.0148H51.008L50.9879 82.13H50.9831H50.9773H50.962H50.9505H50.9303H50.8603H50.8411H50.8306H50.8143H50.8056H50.7903H50.7778H50.7606H10.2622C9.15926 82.1275 8.10219 81.6881 7.32236 80.9081C6.54252 80.1281 6.10342 79.0709 6.10114 77.968V16.5279C6.10342 15.4249 6.54252 14.3678 7.32236 13.5878C8.10219 12.8077 9.15926 12.3684 10.2622 12.3659H19.0535V9.56302H10.2622C8.41765 9.5701 6.65071 10.3063 5.34683 11.6111C4.04295 12.9159 3.30794 14.6833 3.30213 16.5279V78.0687C3.3082 79.9141 4.04392 81.6822 5.34875 82.9872C6.65358 84.2923 8.42161 85.0282 10.267 85.0345H58.4967C60.3418 85.0277 62.1093 84.2915 63.4137 82.9866C64.7181 81.6816 65.4536 79.9138 65.4597 78.0687V52.6666ZM67.7618 21.6492V16.5279C67.7552 14.0732 66.7772 11.7209 65.0414 9.98513C63.3056 8.24936 60.9533 7.27131 58.4986 7.26473H49.7006V6.1338C49.7006 5.82852 49.5793 5.53574 49.3635 5.31988C49.1476 5.10401 48.8548 4.98274 48.5496 4.98274H41.7151C41.2085 3.85986 40.3629 2.92394 39.2969 2.30651C37.7986 1.45034 36.1028 1 34.3771 1C32.6514 1 30.9555 1.45034 29.4572 2.30651C28.3913 2.92394 27.5456 3.85986 27.039 4.98274H20.2027C19.8974 4.98274 19.6046 5.10401 19.3887 5.31988C19.1729 5.53574 19.0516 5.82852 19.0516 6.1338V7.26473H10.2622C7.80768 7.27156 5.45561 8.24973 3.72006 9.98546C1.9845 11.7212 1.00658 14.0734 1 16.5279V78.0687C1.00658 80.5232 1.9845 82.8754 3.72006 84.6111C5.45561 86.3469 7.80768 87.325 10.2622 87.3319H58.4919C60.9466 87.3253 63.2989 86.3472 65.0347 84.6115C66.7704 82.8757 67.7485 80.5234 67.7551 78.0687V52.6666C70.2232 51.8125 72.4762 50.432 74.3578 48.6206C76.2393 46.8093 77.7045 44.6105 78.6518 42.1765C80.5818 37.5042 81 32.0865 81 26.9249C80.9991 26.685 80.9233 26.4514 80.7831 26.2568C80.6429 26.0621 80.4454 25.916 80.2182 25.8391L67.7618 21.6492Z" fill="white"/>
<path fill-rule="evenodd" clip-rule="evenodd" d="M35.5262 44.282C35.5262 44.5873 35.4049 44.8801 35.1891 45.096C34.9732 45.3118 34.6804 45.4331 34.3751 45.4331C34.0699 45.4331 33.7771 45.3118 33.5612 45.096C33.3453 44.8801 33.2241 44.5873 33.2241 44.282V35.7191C33.2241 35.4138 33.3453 35.121 33.5612 34.9051C33.7771 34.6893 34.0699 34.568 34.3751 34.568C34.6804 34.568 34.9732 34.6893 35.1891 34.9051C35.4049 35.121 35.5262 35.4138 35.5262 35.7191V44.282ZM35.5262 47.6988C35.5262 48.0041 35.4049 48.2968 35.1891 48.5127C34.9732 48.7286 34.6804 48.8498 34.3751 48.8498C34.0699 48.8498 33.7771 48.7286 33.5612 48.5127C33.3453 48.2968 33.2241 48.0041 33.2241 47.6988C33.2241 47.3935 33.3453 47.1007 33.5612 46.8849C33.7771 46.669 34.0699 46.5477 34.3751 46.5477C34.6804 46.5477 34.9732 46.669 35.1891 46.8849C35.4049 47.1007 35.5262 47.3935 35.5262 47.6988ZM70.7507 33.0227C69.7917 32.0632 68.5297 31.466 67.1797 31.3328C65.8297 31.1995 64.4753 31.5386 63.3473 32.2922C62.2193 33.0457 61.3875 34.1671 60.9937 35.4653C60.5999 36.7634 60.6685 38.158 61.1877 39.4112C61.707 40.6645 62.6447 41.6989 63.8412 42.3381C65.0377 42.9774 66.4189 43.182 67.7493 42.917C69.0797 42.652 70.2771 41.9338 71.1373 40.8849C71.9975 39.836 72.4674 38.5212 72.4668 37.1646C72.4679 36.3948 72.3168 35.6323 72.0223 34.921C71.7278 34.2097 71.2957 33.5636 70.7507 33.0198V33.0227ZM66.6059 29.0084C68.4939 29.0082 70.3235 29.6627 71.7829 30.8603C73.2424 32.0579 74.2415 33.7245 74.6099 35.5762C74.9782 37.4279 74.6932 39.35 73.8032 41.015C72.9133 42.68 71.4735 43.985 69.7293 44.7074C67.985 45.4299 66.0442 45.5252 64.2376 44.9771C62.431 44.429 60.8703 43.2714 59.8215 41.7015C58.7727 40.1317 58.3007 38.2468 58.4859 36.3679C58.6711 34.4891 59.5021 32.7326 60.8372 31.3978C61.5939 30.6391 62.4931 30.0374 63.4831 29.6273C64.4731 29.2173 65.5344 29.0069 66.6059 29.0084ZM62.9724 37.932C62.7806 37.7181 62.6758 37.4403 62.6784 37.153C62.6811 36.8658 62.791 36.5899 62.9867 36.3796C63.1823 36.1692 63.4495 36.0397 63.7359 36.0163C64.0222 35.993 64.3069 36.0775 64.534 36.2533L65.7906 37.4246L68.6376 34.5009C68.8493 34.283 69.139 34.1581 69.4429 34.1538C69.7467 34.1495 70.0398 34.266 70.2577 34.4778C70.4756 34.6896 70.6004 34.9793 70.6047 35.2831C70.609 35.587 70.4925 35.8801 70.2807 36.098L66.6683 39.8073C66.4605 40.0287 66.1737 40.1592 65.8703 40.1701C65.5668 40.1811 65.2713 40.0717 65.0482 39.8658L62.9724 37.932ZM41.5117 38.7512L36.1535 29.4707C35.9816 29.1528 35.7249 28.8888 35.412 28.708C35.0991 28.5272 34.7422 28.4366 34.3809 28.4462C34.0383 28.4413 33.6998 28.5214 33.3958 28.6793L33.3517 28.7072C33.0395 28.8907 32.7816 29.1539 32.6044 29.4697L27.2462 38.7502L21.8909 48.0268C21.7038 48.3374 21.6033 48.6925 21.6 49.0551C21.5967 49.4177 21.6906 49.7745 21.8719 50.0885C22.0533 50.4025 22.3155 50.6621 22.6313 50.8404C22.9471 51.0186 23.3048 51.109 23.6674 51.1021H45.0935C45.4549 51.1061 45.8108 51.0138 46.1248 50.8348C46.4388 50.6558 46.6996 50.3965 46.8803 50.0835C47.061 49.7705 47.1552 49.4151 47.1532 49.0537C47.1512 48.6922 47.0531 48.3378 46.869 48.0268L41.5482 38.8097C41.5357 38.7905 41.5233 38.7713 41.5117 38.7512ZM38.1372 28.3206C37.5667 27.3357 36.6336 26.6131 35.5374 26.3072C34.4411 26.0012 33.2687 26.1362 32.2706 26.6832C32.2457 26.696 32.2207 26.7094 32.1958 26.7235C31.5367 27.1068 30.991 27.6579 30.614 28.3206L25.2587 37.6011L19.8986 46.8854C19.5142 47.5449 19.3109 48.2943 19.3093 49.0577C19.3077 49.8211 19.5079 50.5714 19.8896 51.2325C20.2713 51.8936 20.8209 52.4422 21.4828 52.8225C22.1447 53.2029 22.8953 53.4016 23.6587 53.3985H45.0935C45.8586 53.4062 46.6121 53.2104 47.2766 52.8311C47.9412 52.4518 48.493 51.9027 48.8755 51.2399C49.258 50.5772 49.4575 49.8247 49.4535 49.0596C49.4494 48.2944 49.2421 47.544 48.8527 46.8854L43.529 37.6634C43.5184 37.6423 43.5069 37.6212 43.4954 37.6001L38.1372 28.3206ZM27.8831 7.28295H21.3518V14.6229H47.4023V7.28487H40.871V7.28007C40.6026 7.28003 40.3428 7.18567 40.137 7.01349C39.9311 6.84131 39.7923 6.60225 39.7449 6.33812C39.6306 5.89716 39.4257 5.48487 39.1431 5.12762C38.8605 4.77036 38.5065 4.47599 38.1036 4.26332C36.9638 3.63021 35.6814 3.29798 34.3775 3.29798C33.0737 3.29798 31.7913 3.63021 30.6514 4.26332C30.2608 4.47027 29.9154 4.75307 29.6354 5.09517C29.3554 5.43727 29.1464 5.83178 29.0208 6.25563C28.9899 6.53716 28.8562 6.7974 28.6455 6.98659C28.4347 7.17577 28.1616 7.2806 27.8783 7.28103L27.8831 7.28295ZM58.8266 70.8553H53.6776C53.1837 70.8571 52.7106 71.054 52.3613 71.4031C52.012 71.7522 51.8148 72.2253 51.8128 72.7191V78.2193L58.8266 70.8592V70.8553ZM15.1207 61.9288C14.8154 61.9288 14.5226 61.8076 14.3068 61.5917C14.0909 61.3758 13.9696 61.083 13.9696 60.7778C13.9696 60.4725 14.0909 60.1797 14.3068 59.9638C14.5226 59.748 14.8154 59.6267 15.1207 59.6267H53.6334C53.9387 59.6267 54.2315 59.748 54.4474 59.9638C54.6632 60.1797 54.7845 60.4725 54.7845 60.7778C54.7845 61.083 54.6632 61.3758 54.4474 61.5917C54.2315 61.8076 53.9387 61.9288 53.6334 61.9288H15.1207ZM15.1207 70.4582C14.9695 70.4582 14.8199 70.4285 14.6802 70.3706C14.5405 70.3128 14.4137 70.228 14.3068 70.1211C14.1999 70.0142 14.1151 69.8873 14.0572 69.7477C13.9994 69.608 13.9696 69.4583 13.9696 69.3072C13.9696 69.156 13.9994 69.0063 14.0572 68.8667C14.1151 68.727 14.1999 68.6001 14.3068 68.4932C14.4137 68.3863 14.5405 68.3016 14.6802 68.2437C14.8199 68.1859 14.9695 68.1561 15.1207 68.1561H41.648C41.7991 68.1561 41.9488 68.1859 42.0885 68.2437C42.2281 68.3016 42.355 68.3863 42.4619 68.4932C42.5688 68.6001 42.6536 68.727 42.7114 68.8667C42.7693 69.0063 42.799 69.156 42.799 69.3072C42.799 69.4583 42.7693 69.608 42.7114 69.7477C42.6536 69.8873 42.5688 70.0142 42.4619 70.1211C42.355 70.228 42.2281 70.3128 42.0885 70.3706C41.9488 70.4285 41.7991 70.4582 41.648 70.4582H15.1207ZM72.8658 25.7815L78.6969 27.7412C78.6537 32.4174 78.2173 37.2298 76.5329 41.3056C75.6752 43.5014 74.3392 45.4787 72.622 47.0938C70.9047 48.7088 68.8493 49.9211 66.605 50.6426C64.3607 49.921 62.3054 48.7087 60.5881 47.0936C58.8709 45.4786 57.5348 43.5014 56.677 41.3056C54.9936 37.2298 54.5562 32.4174 54.513 27.7412L66.605 23.6799L72.8639 25.7815H72.8658ZM62.6539 22.5912L65.4568 21.6492V16.5279C65.451 14.6825 64.7153 12.9143 63.4104 11.6094C62.1055 10.3045 60.3373 9.56884 58.4919 9.56302H49.7006V12.3659H58.4919C59.5949 12.3687 60.6519 12.808 61.4318 13.588C62.2118 14.3679 62.6511 15.4249 62.6539 16.5279V22.5912ZM60.3518 49.9079C57.76 47.8986 55.7579 45.2278 54.5562 42.1765C52.6262 37.5042 52.208 32.0865 52.208 26.9249C52.2084 26.6682 52.2946 26.4189 52.4529 26.2167C52.6113 26.0146 52.8327 25.8712 53.0819 25.8093L60.3518 23.3672V16.5279C60.3498 16.0342 60.1528 15.5614 59.8037 15.2123C59.4546 14.8632 58.9817 14.6662 58.488 14.6642H49.7006V15.774C49.7006 16.0793 49.5793 16.372 49.3635 16.5879C49.1476 16.8038 48.8548 16.925 48.5496 16.925H20.2027C19.8974 16.925 19.6046 16.8038 19.3887 16.5879C19.1729 16.372 19.0516 16.0793 19.0516 15.774V14.6642H10.2622C9.76856 14.6662 9.29568 14.8632 8.94659 15.2123C8.5975 15.5614 8.40049 16.0342 8.39847 16.5279V78.0687C8.40049 78.5624 8.5975 79.0352 8.94659 79.3843C9.29568 79.7334 9.76856 79.9304 10.2622 79.9324H49.5155V72.7191C49.5178 71.616 49.957 70.5586 50.737 69.7786C51.5171 68.9986 52.5744 68.5593 53.6776 68.557H60.3556V49.9079H60.3518ZM65.4597 52.6666C64.4953 52.3134 63.5585 51.8892 62.6568 51.3975V69.7062C62.6568 69.8661 62.6234 70.0243 62.5588 70.1706C62.4943 70.317 62.3999 70.4482 62.2818 70.5561L51.551 81.8125L51.5366 81.8288C51.5261 81.842 51.5149 81.8544 51.503 81.8662L51.4953 81.8739L51.4848 81.8854L51.4752 81.895L51.4656 81.9046L51.4474 81.9209L51.4291 81.9363L51.4234 81.942L51.408 81.9545L51.3889 81.9698L51.3697 81.9842L51.3514 81.9977L51.3303 82.012L51.3092 82.0264L51.292 82.037L51.2814 82.0437L51.268 82.0514L51.2507 82.061H51.2459L51.2239 82.0725L51.2037 82.0821H51.1989H51.1932L51.1759 82.0907H51.1701L51.151 82.0993H51.1442L51.1299 82.106H51.1251L51.104 82.1137L51.0857 82.1195L51.0666 82.1252H51.057H51.0416H51.0339H51.0148H51.008L50.9879 82.13H50.9831H50.9773H50.962H50.9505H50.9303H50.8603H50.8411H50.8306H50.8143H50.8056H50.7903H50.7778H50.7606H10.2622C9.15926 82.1275 8.10219 81.6881 7.32236 80.9081C6.54252 80.1281 6.10342 79.0709 6.10114 77.968V16.5279C6.10342 15.4249 6.54252 14.3678 7.32236 13.5878C8.10219 12.8077 9.15926 12.3684 10.2622 12.3659H19.0535V9.56302H10.2622C8.41765 9.5701 6.65071 10.3063 5.34683 11.6111C4.04295 12.9159 3.30794 14.6833 3.30213 16.5279V78.0687C3.3082 79.9141 4.04392 81.6822 5.34875 82.9872C6.65358 84.2923 8.42161 85.0282 10.267 85.0345H58.4967C60.3418 85.0277 62.1093 84.2915 63.4137 82.9866C64.7181 81.6816 65.4536 79.9138 65.4597 78.0687V52.6666ZM67.7618 21.6492V16.5279C67.7552 14.0732 66.7772 11.7209 65.0414 9.98513C63.3056 8.24936 60.9533 7.27131 58.4986 7.26473H49.7006V6.1338C49.7006 5.82852 49.5793 5.53574 49.3635 5.31988C49.1476 5.10401 48.8548 4.98274 48.5496 4.98274H41.7151C41.2085 3.85986 40.3629 2.92394 39.2969 2.30651C37.7986 1.45034 36.1028 1 34.3771 1C32.6514 1 30.9555 1.45034 29.4572 2.30651C28.3913 2.92394 27.5456 3.85986 27.039 4.98274H20.2027C19.8974 4.98274 19.6046 5.10401 19.3887 5.31988C19.1729 5.53574 19.0516 5.82852 19.0516 6.1338V7.26473H10.2622C7.80768 7.27156 5.45561 8.24973 3.72006 9.98546C1.9845 11.7212 1.00658 14.0734 1 16.5279V78.0687C1.00658 80.5232 1.9845 82.8754 3.72006 84.6111C5.45561 86.3469 7.80768 87.325 10.2622 87.3319H58.4919C60.9466 87.3253 63.2989 86.3472 65.0347 84.6115C66.7704 82.8757 67.7485 80.5234 67.7551 78.0687V52.6666C70.2232 51.8125 72.4762 50.432 74.3578 48.6206C76.2393 46.8093 77.7045 44.6105 78.6518 42.1765C80.5818 37.5042 81 32.0865 81 26.9249C80.9991 26.685 80.9233 26.4514 80.7831 26.2568C80.6429 26.0621 80.4454 25.916 80.2182 25.8391L67.7618 21.6492Z" stroke="white" stroke-width="0.6" mask="url(#path-1-outside-1_1056_1983)"/>
</svg>
