<svg width="80" height="78" viewBox="0 0 80 78" fill="none" xmlns="http://www.w3.org/2000/svg">
<path d="M79.993 0.989758C79.99 0.943654 79.9881 0.897447 79.9791 0.85196C79.9718 0.814953 79.9585 0.780517 79.9474 0.745C79.938 0.714521 79.9313 0.683477 79.9191 0.653769C79.9037 0.616711 79.8828 0.582891 79.8635 0.548095C79.8493 0.522344 79.838 0.495566 79.8215 0.470843C79.7851 0.416361 79.7433 0.365888 79.6977 0.319219C79.6946 0.316084 79.6926 0.312332 79.6895 0.309196C79.6771 0.296809 79.6625 0.28838 79.6497 0.276713C79.6115 0.242122 79.5731 0.207788 79.5302 0.179005C79.4926 0.153717 79.4524 0.135008 79.4125 0.115066C79.3911 0.104375 79.3713 0.0910115 79.3491 0.0817599C79.2974 0.0601213 79.2439 0.0453701 79.1899 0.032315C79.1772 0.0292825 79.1655 0.0238343 79.1525 0.0212644C79.08 0.00651316 79.0064 -0.00057975 78.9327 3.70079e-05H27.8848C27.8109 -0.00057975 27.7373 0.00661595 27.6646 0.0213672C27.6566 0.0229606 27.6493 0.0264556 27.6414 0.0282545C27.5823 0.0416695 27.524 0.0585794 27.4674 0.0822225C27.4527 0.0883903 27.4398 0.0975391 27.4255 0.104272C27.3779 0.126836 27.3305 0.149965 27.286 0.179982C27.2682 0.19206 27.2533 0.207685 27.2362 0.22074C27.1993 0.248958 27.1617 0.275531 27.128 0.309196L19.1971 8.24012L19.196 8.24125L11.2662 16.1712C11.2165 16.2208 11.1721 16.2754 11.133 16.334C11.1168 16.3582 11.1059 16.3846 11.0919 16.4097C11.0724 16.4447 11.0514 16.4787 11.0359 16.516C11.0219 16.5499 11.0139 16.5853 11.0035 16.6203C10.9943 16.6513 10.9824 16.6811 10.9759 16.7134C10.9624 16.7817 10.9551 16.851 10.9551 16.9204V30.6965L12.791 29.6357C12.882 29.5832 12.9776 29.5458 13.0715 29.5025V17.9787H62.0202V66.9274H46.8766L45.8422 68.7175C45.7751 68.8336 45.6957 68.9384 45.6172 69.0438H63.0784C63.1479 69.0438 63.2172 69.0365 63.2856 69.0229C63.3174 69.0166 63.3468 69.0048 63.3776 68.9957C63.4129 68.9852 63.4487 68.9771 63.483 68.9629C63.5194 68.9478 63.5525 68.9273 63.5867 68.9083C63.6128 68.8939 63.64 68.8825 63.6651 68.8658C63.7236 68.8267 63.7782 68.7823 63.8277 68.7327L79.6817 52.8785C79.7351 52.8261 79.7828 52.7684 79.8242 52.7058C79.8284 52.6994 79.8309 52.6925 79.8349 52.686C79.8674 52.6345 79.8969 52.5809 79.9203 52.5238C79.9273 52.5068 79.9305 52.4889 79.9365 52.4716C79.9531 52.4243 79.9696 52.3771 79.9793 52.3271C79.986 52.2931 79.9864 52.2587 79.9897 52.2243C79.993 52.1906 79.9999 52.1579 79.9999 52.1233V1.05822C79.9999 1.03473 79.9945 1.01284 79.993 0.989758ZM28.3135 2.1164H76.3859L70.5717 7.93071H22.4992L28.3135 2.1164ZM62.6403 15.8622H14.5678L20.3829 10.0471H68.4553L62.6403 15.8622ZM77.8835 51.6839L64.1366 65.431V17.3586L71.7565 9.73868L71.7597 9.73539L77.8835 3.61157V51.6839Z" fill="#00A7FA" fill-opacity="0.25"/>
<path d="M45.9 62.4883L43.9444 60.3467L44.6537 57.6983L47.4311 56.817C47.8705 56.6777 48.1691 56.2693 48.1691 55.8085L48.1689 51.3954C48.1689 50.9341 47.8703 50.5261 47.4309 50.3868L44.6539 49.5055L43.9446 46.8575L45.9002 44.7159C46.2113 44.3753 46.2658 43.8727 46.035 43.473L43.8268 39.6515C43.5959 39.2518 43.132 39.0492 42.6826 39.1476L39.854 39.7717L37.9148 37.8327L38.5391 35.0041C38.6385 34.5535 38.4345 34.0906 38.035 33.8595L34.2135 31.6513C33.814 31.4211 33.3111 31.4752 32.9706 31.7865L30.8291 33.7421L28.1809 33.0327L27.2995 30.2554C27.16 29.816 26.752 29.5176 26.2909 29.5176H21.878C21.417 29.5176 21.009 29.816 20.8695 30.2558L19.9882 33.0327L17.3398 33.7421L15.1988 31.7865C14.858 31.4756 14.3551 31.4215 13.9558 31.6513L10.1343 33.8595C9.73479 34.0906 9.53084 34.5535 9.63025 35.0041L10.2544 37.8327L8.31513 39.7717L5.48674 39.1472C5.0349 39.0492 4.57299 39.2518 4.34231 39.6511L2.13415 43.4726C1.90332 43.8719 1.95785 44.3749 2.26892 44.7155L4.22451 46.8571L3.51522 49.5055L0.738076 50.3868C0.298674 50.5261 0 50.9341 0 51.3954V55.8085C0 56.2698 0.298674 56.6777 0.738076 56.817L3.51501 57.6983L4.2243 60.3467L2.26871 62.4879C1.95765 62.8285 1.90312 63.3311 2.13394 63.7308L4.34211 67.5523C4.57299 67.9517 5.03614 68.1534 5.48633 68.0563L8.31492 67.4321L10.2542 69.3712L9.62984 72.1998C9.53038 72.6503 9.73438 73.1133 10.1339 73.3443L13.9552 75.5525C14.3547 75.7824 14.8572 75.7286 15.1984 75.4173L17.3398 73.4617L19.988 74.1711L20.8695 76.9484C21.009 77.3882 21.4172 77.6867 21.8783 77.6867L26.2909 77.6863C26.752 77.6863 27.16 77.3878 27.2995 76.948L28.1807 74.1711L30.8291 73.4617L32.9702 75.4173C33.3111 75.729 33.8144 75.7828 34.2131 75.5525L38.0348 73.3443C38.4343 73.1133 38.6383 72.6503 38.5389 72.1998L37.9145 69.3712L39.8538 67.4321L42.6822 68.0567C43.1332 68.1546 43.5957 67.9521 43.8266 67.5528L46.0348 63.7313C46.2656 63.3315 46.2111 62.8289 45.9 62.4883ZM41.9909 61.3458L43.8146 63.3432L42.3819 65.8229L39.7439 65.2405C39.39 65.1636 39.0229 65.2698 38.7675 65.5257L36.0081 68.2848C35.7526 68.5403 35.6452 68.9082 35.7229 69.2612L36.3051 71.8992L33.8254 73.3324L31.8287 71.5086C31.562 71.2651 31.19 71.1759 30.8411 71.2677L27.0738 72.2766C26.7251 72.3701 26.4479 72.6346 26.3388 72.979L25.5165 75.5699L22.6525 75.5703L21.8299 72.979C21.7208 72.6346 21.4438 72.3701 21.0951 72.2766L17.3276 71.2677C17.2373 71.2437 17.1453 71.2317 17.0539 71.2317C16.7931 71.2317 16.5379 71.3284 16.3403 71.5086L14.3433 73.3324L11.8636 71.8992L12.4458 69.2612C12.5235 68.9082 12.4161 68.5403 12.1606 68.2848L9.40142 65.5257C9.14598 65.2698 8.77786 65.1632 8.42527 65.2405L5.78701 65.8224L4.35414 63.3427L6.17784 61.3458C6.42111 61.0796 6.51208 60.7072 6.41864 60.3587L5.40965 56.5914C5.3162 56.2425 5.05145 55.9655 4.70755 55.8564L2.11642 55.0342V52.1696L4.70775 51.3475C5.05166 51.2383 5.31641 50.9614 5.40985 50.6125L6.41885 46.8451C6.51208 46.4967 6.42131 46.1246 6.17805 45.858L4.35434 43.8607L5.78701 41.381L8.42507 41.9634C8.77807 42.0407 9.14618 41.934 9.40142 41.6782L12.1608 38.919C12.4163 38.6636 12.5238 38.2956 12.446 37.9426L11.8638 35.3046L14.3436 33.8715L16.3403 35.6952C16.6069 35.9387 16.9793 36.0292 17.3278 35.9362L21.0951 34.9272C21.4438 34.8338 21.721 34.5692 21.8301 34.2249L22.6525 31.6339H25.5165L26.339 34.2253C26.4482 34.5692 26.7251 34.8338 27.0738 34.9272L30.8414 35.9362C31.1898 36.0288 31.5618 35.9387 31.8287 35.6952L33.8256 33.8715L36.3053 35.3046L35.7231 37.9426C35.6454 38.2956 35.7528 38.6636 36.0083 38.919L38.7675 41.6782C39.0225 41.934 39.3909 42.0403 39.7436 41.9634L42.3819 41.3814L43.8148 43.8611L41.9911 45.858C41.7478 46.1242 41.6571 46.4967 41.7503 46.8451L42.7593 50.6125C42.8527 50.9614 43.1175 51.2383 43.4614 51.3475L46.0526 52.1696L46.0528 55.0342L43.4614 55.8564C43.1175 55.9655 42.8527 56.2425 42.7593 56.5914L41.7501 60.3587C41.6569 60.7072 41.7476 61.0792 41.9909 61.3458Z" fill="#00A7FA" fill-opacity="0.25"/>
<path d="M24.0845 40.4653C16.8408 40.4653 10.9478 46.3582 10.9478 53.6019C10.9478 60.8456 16.8408 66.7384 24.0845 66.7384C31.328 66.7384 37.2211 60.8456 37.2211 53.6019C37.2211 46.3582 31.328 40.4653 24.0845 40.4653ZM24.0845 64.6221C18.0079 64.6221 13.0641 59.6783 13.0641 53.6019C13.0641 47.5255 18.0079 42.5817 24.0845 42.5817C30.1611 42.5817 35.1046 47.5255 35.1046 53.6019C35.1046 59.6783 30.1611 64.6221 24.0845 64.6221Z" fill="#00A7FA" fill-opacity="0.25"/>
</svg>
