<svg width="62" height="60" viewBox="0 0 62 60" fill="none" xmlns="http://www.w3.org/2000/svg">
<path d="M61.1315 1.60994L61.1315 1.61004C61.1395 1.65041 61.1419 1.69144 61.1437 1.72078C61.144 1.72499 61.1442 1.72895 61.1444 1.73265C61.1446 1.73451 61.1448 1.7357 61.1464 1.74767C61.1477 1.75702 61.1499 1.77404 61.1499 1.79367V40.0925C61.1499 40.1151 61.1477 40.1352 61.1458 40.1497C61.1436 40.1672 61.1425 40.1729 61.1416 40.1826L61.1416 40.1828C61.1408 40.1905 61.1384 40.2397 61.1317 40.274C61.1317 40.2741 61.1317 40.2742 61.1317 40.2743L60.9845 40.2453C60.9772 40.2828 60.9648 40.3182 60.9524 40.3537L61.1315 1.60994ZM61.1315 1.60994C61.1255 1.57929 61.114 1.54489 61.1075 1.52548M61.1315 1.60994L61.1075 1.52548M60.6476 1.13425L60.7312 1.00968C60.7312 1.00972 60.7313 1.00977 60.7314 1.00981C60.7733 1.03798 60.8093 1.07037 60.8372 1.09564C60.8377 1.09601 60.8392 1.09718 60.8426 1.09973L60.843 1.10001C60.8484 1.10411 60.8606 1.11333 60.8731 1.12578L21.7186 0.869023L21.7484 1.01603L21.7192 0.868903C21.7191 0.868923 21.719 0.868942 21.7189 0.868962C21.7832 0.855939 21.8485 0.849525 21.9142 0.850028M60.6476 1.13425C60.6237 1.11816 60.5984 1.10562 60.5729 1.09305C60.5684 1.09081 60.5639 1.08856 60.5593 1.0863C60.553 1.08313 60.5469 1.07964 60.5407 1.07616C60.5313 1.07084 60.5219 1.06551 60.5119 1.06132M60.6476 1.13425C60.6798 1.15584 60.7086 1.18159 60.7373 1.20753L60.6476 1.13425ZM60.5119 1.06132L60.5697 0.922928C60.5697 0.922904 60.5696 0.92288 60.5695 0.922856C60.5205 0.902366 60.472 0.889212 60.4296 0.878913L60.4262 0.877765L60.4257 0.877589C60.4208 0.875955 60.4087 0.871877 60.3943 0.868958C60.3298 0.855856 60.2644 0.849525 60.1989 0.850028M60.5119 1.06132C60.473 1.04509 60.4329 1.03403 60.3924 1.02424L60.5119 1.06132ZM60.1989 0.850028H60.1995V1.00003L60.1982 0.850033C60.1985 0.850031 60.1987 0.850029 60.1989 0.850028ZM60.1989 0.850028H21.9142M21.9142 0.850028H21.9136V1.00003L21.9148 0.850033C21.9146 0.850031 21.9144 0.850029 21.9142 0.850028ZM15.2897 7.0761L15.2917 7.074L15.2918 7.07403L21.2399 1.12583L21.346 1.2319L21.2399 1.12583C21.2688 1.09694 21.3018 1.07215 21.3243 1.05522C21.3286 1.05201 21.3325 1.04908 21.3359 1.04646L21.336 1.04642C21.3372 1.04548 21.3382 1.04464 21.3429 1.04051L21.3471 1.0369C21.3536 1.03124 21.3656 1.02082 21.3804 1.01079L21.3806 1.01062C21.4242 0.981233 21.4688 0.95974 21.5044 0.942878M15.2897 7.0761L21.5044 0.942878M15.2897 7.0761L15.2894 7.07649L9.34369 13.0222L15.2897 7.0761ZM21.5044 0.942878C21.5044 0.942898 21.5044 0.942908 21.5044 0.942909C21.5044 0.942914 21.5046 0.942789 21.505 0.942639C21.505 0.942608 21.5051 0.942575 21.5052 0.942542L21.505 0.942638C21.5048 0.942718 21.5046 0.942798 21.5044 0.942878ZM9.25266 13.4652L9.10881 13.4227C9.10961 13.42 9.11068 13.4161 9.11198 13.4113C9.11732 13.3919 9.12667 13.3578 9.13834 13.3297L9.13838 13.3295C9.15148 13.2979 9.16957 13.2664 9.18122 13.246C9.18378 13.2416 9.18604 13.2376 9.18786 13.2344L9.18778 13.2345L9.31892 13.3073C9.31566 13.3132 9.31233 13.319 9.309 13.3248C9.29747 13.3451 9.28595 13.3653 9.27695 13.387C9.26932 13.4054 9.26406 13.4244 9.25879 13.4435C9.25679 13.4507 9.25479 13.458 9.25266 13.4652ZM9.25266 13.4652C9.25038 13.4728 9.24789 13.4804 9.24539 13.4879C9.24029 13.5034 9.2352 13.5188 9.23196 13.535C9.22178 13.5863 9.21631 13.6383 9.21631 13.6903V23.8491L9.14126 23.8925L9.21631 24.0224H9.36631V23.9357L10.5933 23.2268M9.25266 13.4652L9.10891 13.4224C9.10865 13.4232 9.10798 13.4252 9.10701 13.4282C9.10224 13.4426 9.09021 13.4788 9.08485 13.5057L9.08483 13.5058C9.07289 13.566 9.06631 13.6278 9.06631 13.6903V24.0224V24.2823L9.29135 24.1523L10.6682 23.3567M10.5933 23.2268L10.6682 23.3567M10.5933 23.2268C10.6423 23.1985 10.6932 23.176 10.744 23.1536C10.7639 23.1448 10.7838 23.136 10.8036 23.1269M10.5933 23.2268L10.8036 23.1269M10.6682 23.3567C10.7099 23.3326 10.7499 23.315 10.7973 23.2941C10.8186 23.2847 10.8414 23.2746 10.8665 23.263L10.9536 23.2228V23.1269V14.634M10.6682 23.3567L10.9536 14.634M10.9536 14.634H47.3652V51.0455H36.1574H36.0709L36.0275 51.1205L35.2518 52.4631C35.2091 52.5369 35.1587 52.6046 35.1021 52.6805L35.0926 52.6932L34.9141 52.9328H35.2129H48.3088C48.3714 52.9328 48.4332 52.9263 48.4934 52.9143C48.5248 52.9081 48.5707 52.8921 48.5756 52.8906C48.5784 52.8898 48.5824 52.8887 48.5872 52.8874C48.607 52.8819 48.6411 52.8726 48.6696 52.8608C48.6697 52.8607 48.6697 52.8607 48.6697 52.8607L10.9536 14.634ZM10.8036 23.1269V14.634V23.1269ZM61.1075 1.52548C61.1059 1.52073 61.1046 1.51688 61.1038 1.5142M61.1075 1.52548L61.1038 1.5142M61.1038 1.5142L60.9606 1.55875L61.1038 1.5142ZM60.8976 1.41107L61.029 1.33869C61.0266 1.33429 61.0248 1.33087 61.0222 1.32564C61.0206 1.32245 61.0187 1.31858 61.016 1.31342C61.0103 1.30217 61.0019 1.28641 60.9909 1.26986L60.9908 1.26981C60.9594 1.22266 60.9239 1.1795 60.8859 1.14007L60.8856 1.13969C60.8828 1.13622 60.8786 1.13129 60.8732 1.12584L60.8976 1.41107ZM21.6932 0.87598L21.6913 0.876562C21.6892 0.877308 21.6897 0.877101 21.6904 0.876895C21.6914 0.876584 21.6941 0.875766 21.6978 0.874917C21.6962 0.875268 21.6947 0.875622 21.6932 0.87598ZM9.34358 13.0223C9.29905 13.0668 9.25954 13.1155 9.22504 13.1671L9.34358 13.0223ZM54.9234 8.41008L54.9243 8.40919L54.9258 8.40761L54.9267 8.40672L59.2626 4.07082V39.7008L49.2524 49.7111V14.0811L54.9234 8.41008ZM22.2972 2.7373H57.9273L53.8666 6.79803H18.2366L22.2972 2.7373ZM51.9794 8.68534L47.918 12.7467H12.288L16.3493 8.68534H51.9794Z" fill="white" stroke="white" stroke-width="0.3"/>
<mask id="path-2-outside-1_1055_1717" maskUnits="userSpaceOnUse" x="0" y="22.1382" width="38" height="38" fill="black">
<rect fill="white" y="22.1382" width="38" height="38"/>
<path d="M35.425 47.8662L33.9583 46.26L34.4903 44.2737L36.5733 43.6128C36.9029 43.5083 37.1268 43.202 37.1268 42.8563L37.1267 39.5466C37.1267 39.2006 36.9027 38.8946 36.5732 38.7901L34.4904 38.1291L33.9585 36.1432L35.4252 34.5369C35.6585 34.2815 35.6994 33.9045 35.5262 33.6047L33.8701 30.7386C33.697 30.4388 33.349 30.2869 33.012 30.3607L30.8905 30.8288L29.4361 29.3745L29.9043 27.253C29.9789 26.9151 29.8259 26.5679 29.5263 26.3946L26.6601 24.7385C26.3605 24.5658 25.9833 24.6064 25.7279 24.8399L24.1218 26.3066L22.1357 25.7746L21.4746 23.6915C21.37 23.362 21.064 23.1382 20.7182 23.1382H17.4085C17.0627 23.1382 16.7567 23.362 16.6521 23.6919L15.9911 25.7746L14.0049 26.3066L12.3991 24.8399C12.1435 24.6067 11.7663 24.5661 11.4669 24.7385L8.60073 26.3946C8.30109 26.5679 8.14813 26.9151 8.22269 27.253L8.69082 29.3745L7.23634 30.8288L5.11506 30.3604C4.77618 30.2869 4.42974 30.4388 4.25673 30.7383L2.60061 33.6044C2.42749 33.9039 2.46839 34.2812 2.70169 34.5366L4.16838 36.1428L3.63641 38.1291L1.55356 38.7901C1.22401 38.8946 1 39.2006 1 39.5466V42.8563C1 43.2023 1.22401 43.5083 1.55356 43.6128L3.63626 44.2737L4.16823 46.26L2.70153 47.8659C2.46824 48.1214 2.42734 48.4983 2.60046 48.7981L4.25658 51.6643C4.42974 51.9637 4.7771 52.115 5.11475 52.0422L7.23619 51.5741L8.69067 53.0284L8.22238 55.1498C8.14779 55.4877 8.30079 55.835 8.60042 56.0083L11.4664 57.6644C11.766 57.8368 12.1429 57.7964 12.3988 57.563L14.0049 56.0963L15.991 56.6283L16.6521 58.7113C16.7567 59.0412 17.0629 59.265 17.4087 59.265L20.7182 59.2647C21.064 59.2647 21.37 59.0409 21.4746 58.711L22.1355 56.6283L24.1218 56.0963L25.7276 57.563C25.9833 57.7968 26.3608 57.8371 26.6598 57.6644L29.5261 56.0083C29.8258 55.835 29.9788 55.4877 29.9042 55.1498L29.4359 53.0284L30.8903 51.5741L33.0117 52.0425C33.3499 52.116 33.6968 51.9641 33.87 51.6646L35.5261 48.7984C35.6992 48.4987 35.6583 48.1217 35.425 47.8662ZM32.4932 47.0093L33.8609 48.5074L32.7864 50.3671L30.8079 49.9303C30.5425 49.8727 30.2672 49.9524 30.0756 50.1443L28.0061 52.2136C27.8145 52.4052 27.7339 52.6811 27.7922 52.9459L28.2288 54.9244L26.369 55.9993L24.8715 54.6315C24.6715 54.4489 24.3925 54.3819 24.1309 54.4507L21.3053 55.2075C21.0438 55.2776 20.836 55.476 20.7541 55.7342L20.1373 57.6774L17.9894 57.6777L17.3724 55.7342C17.2906 55.476 17.0829 55.2776 16.8214 55.2075L13.9957 54.4507C13.9279 54.4327 13.859 54.4238 13.7904 54.4238C13.5948 54.4238 13.4034 54.4963 13.2552 54.6315L11.7575 55.9993L9.8977 54.9244L10.3344 52.9459C10.3927 52.6811 10.3121 52.4052 10.1205 52.2136L8.05107 50.1443C7.85948 49.9524 7.5834 49.8724 7.31895 49.9303L5.34026 50.3668L4.2656 48.5071L5.63338 47.0093C5.81583 46.8097 5.88406 46.5304 5.81398 46.269L5.05723 43.4435C4.98715 43.1818 4.78859 42.9741 4.53066 42.8923L2.58731 42.2756V40.1272L4.53082 39.5106C4.78874 39.4288 4.98731 39.221 5.05739 38.9594L5.81414 36.1339C5.88406 35.8725 5.81599 35.5935 5.63353 35.3935L4.26576 33.8955L5.34026 32.0357L7.3188 32.4725C7.58355 32.5305 7.85964 32.4505 8.05107 32.2586L10.1206 30.1893C10.3122 29.9977 10.3928 29.7217 10.3345 29.457L9.89785 27.4784L11.7577 26.4036L13.2552 27.7714C13.4552 27.954 13.7345 28.0219 13.9958 27.9522L16.8214 27.1954C17.0829 27.1253 17.2907 26.9269 17.3726 26.6687L17.9894 24.7255H20.1373L20.7543 26.669C20.8361 26.9269 21.0438 27.1253 21.3053 27.1954L24.131 27.9522C24.3923 28.0216 24.6714 27.954 24.8715 27.7714L26.3692 26.4036L28.229 27.4784L27.7923 29.457C27.734 29.7217 27.8146 29.9977 28.0062 30.1893L30.0756 32.2586C30.2669 32.4505 30.5431 32.5302 30.8077 32.4725L32.7864 32.036L33.8611 33.8958L32.4933 35.3935C32.3109 35.5932 32.2428 35.8725 32.3127 36.1339L33.0695 38.9594C33.1395 39.221 33.3381 39.4288 33.596 39.5106L35.5394 40.1272L35.5396 42.2756L33.596 42.8923C33.3381 42.9741 33.1395 43.1818 33.0695 43.4435L32.3126 46.269C32.2427 46.5304 32.3107 46.8094 32.4932 47.0093Z"/>
</mask>
<path d="M35.425 47.8662L33.9583 46.26L34.4903 44.2737L36.5733 43.6128C36.9029 43.5083 37.1268 43.202 37.1268 42.8563L37.1267 39.5466C37.1267 39.2006 36.9027 38.8946 36.5732 38.7901L34.4904 38.1291L33.9585 36.1432L35.4252 34.5369C35.6585 34.2815 35.6994 33.9045 35.5262 33.6047L33.8701 30.7386C33.697 30.4388 33.349 30.2869 33.012 30.3607L30.8905 30.8288L29.4361 29.3745L29.9043 27.253C29.9789 26.9151 29.8259 26.5679 29.5263 26.3946L26.6601 24.7385C26.3605 24.5658 25.9833 24.6064 25.7279 24.8399L24.1218 26.3066L22.1357 25.7746L21.4746 23.6915C21.37 23.362 21.064 23.1382 20.7182 23.1382H17.4085C17.0627 23.1382 16.7567 23.362 16.6521 23.6919L15.9911 25.7746L14.0049 26.3066L12.3991 24.8399C12.1435 24.6067 11.7663 24.5661 11.4669 24.7385L8.60073 26.3946C8.30109 26.5679 8.14813 26.9151 8.22269 27.253L8.69082 29.3745L7.23634 30.8288L5.11506 30.3604C4.77618 30.2869 4.42974 30.4388 4.25673 30.7383L2.60061 33.6044C2.42749 33.9039 2.46839 34.2812 2.70169 34.5366L4.16838 36.1428L3.63641 38.1291L1.55356 38.7901C1.22401 38.8946 1 39.2006 1 39.5466V42.8563C1 43.2023 1.22401 43.5083 1.55356 43.6128L3.63626 44.2737L4.16823 46.26L2.70153 47.8659C2.46824 48.1214 2.42734 48.4983 2.60046 48.7981L4.25658 51.6643C4.42974 51.9637 4.7771 52.115 5.11475 52.0422L7.23619 51.5741L8.69067 53.0284L8.22238 55.1498C8.14779 55.4877 8.30079 55.835 8.60042 56.0083L11.4664 57.6644C11.766 57.8368 12.1429 57.7964 12.3988 57.563L14.0049 56.0963L15.991 56.6283L16.6521 58.7113C16.7567 59.0412 17.0629 59.265 17.4087 59.265L20.7182 59.2647C21.064 59.2647 21.37 59.0409 21.4746 58.711L22.1355 56.6283L24.1218 56.0963L25.7276 57.563C25.9833 57.7968 26.3608 57.8371 26.6598 57.6644L29.5261 56.0083C29.8258 55.835 29.9788 55.4877 29.9042 55.1498L29.4359 53.0284L30.8903 51.5741L33.0117 52.0425C33.3499 52.116 33.6968 51.9641 33.87 51.6646L35.5261 48.7984C35.6992 48.4987 35.6583 48.1217 35.425 47.8662ZM32.4932 47.0093L33.8609 48.5074L32.7864 50.3671L30.8079 49.9303C30.5425 49.8727 30.2672 49.9524 30.0756 50.1443L28.0061 52.2136C27.8145 52.4052 27.7339 52.6811 27.7922 52.9459L28.2288 54.9244L26.369 55.9993L24.8715 54.6315C24.6715 54.4489 24.3925 54.3819 24.1309 54.4507L21.3053 55.2075C21.0438 55.2776 20.836 55.476 20.7541 55.7342L20.1373 57.6774L17.9894 57.6777L17.3724 55.7342C17.2906 55.476 17.0829 55.2776 16.8214 55.2075L13.9957 54.4507C13.9279 54.4327 13.859 54.4238 13.7904 54.4238C13.5948 54.4238 13.4034 54.4963 13.2552 54.6315L11.7575 55.9993L9.8977 54.9244L10.3344 52.9459C10.3927 52.6811 10.3121 52.4052 10.1205 52.2136L8.05107 50.1443C7.85948 49.9524 7.5834 49.8724 7.31895 49.9303L5.34026 50.3668L4.2656 48.5071L5.63338 47.0093C5.81583 46.8097 5.88406 46.5304 5.81398 46.269L5.05723 43.4435C4.98715 43.1818 4.78859 42.9741 4.53066 42.8923L2.58731 42.2756V40.1272L4.53082 39.5106C4.78874 39.4288 4.98731 39.221 5.05739 38.9594L5.81414 36.1339C5.88406 35.8725 5.81599 35.5935 5.63353 35.3935L4.26576 33.8955L5.34026 32.0357L7.3188 32.4725C7.58355 32.5305 7.85964 32.4505 8.05107 32.2586L10.1206 30.1893C10.3122 29.9977 10.3928 29.7217 10.3345 29.457L9.89785 27.4784L11.7577 26.4036L13.2552 27.7714C13.4552 27.954 13.7345 28.0219 13.9958 27.9522L16.8214 27.1954C17.0829 27.1253 17.2907 26.9269 17.3726 26.6687L17.9894 24.7255H20.1373L20.7543 26.669C20.8361 26.9269 21.0438 27.1253 21.3053 27.1954L24.131 27.9522C24.3923 28.0216 24.6714 27.954 24.8715 27.7714L26.3692 26.4036L28.229 27.4784L27.7923 29.457C27.734 29.7217 27.8146 29.9977 28.0062 30.1893L30.0756 32.2586C30.2669 32.4505 30.5431 32.5302 30.8077 32.4725L32.7864 32.036L33.8611 33.8958L32.4933 35.3935C32.3109 35.5932 32.2428 35.8725 32.3127 36.1339L33.0695 38.9594C33.1395 39.221 33.3381 39.4288 33.596 39.5106L35.5394 40.1272L35.5396 42.2756L33.596 42.8923C33.3381 42.9741 33.1395 43.1818 33.0695 43.4435L32.3126 46.269C32.2427 46.5304 32.3107 46.8094 32.4932 47.0093Z" fill="white"/>
<path d="M35.425 47.8662L33.9583 46.26L34.4903 44.2737L36.5733 43.6128C36.9029 43.5083 37.1268 43.202 37.1268 42.8563L37.1267 39.5466C37.1267 39.2006 36.9027 38.8946 36.5732 38.7901L34.4904 38.1291L33.9585 36.1432L35.4252 34.5369C35.6585 34.2815 35.6994 33.9045 35.5262 33.6047L33.8701 30.7386C33.697 30.4388 33.349 30.2869 33.012 30.3607L30.8905 30.8288L29.4361 29.3745L29.9043 27.253C29.9789 26.9151 29.8259 26.5679 29.5263 26.3946L26.6601 24.7385C26.3605 24.5658 25.9833 24.6064 25.7279 24.8399L24.1218 26.3066L22.1357 25.7746L21.4746 23.6915C21.37 23.362 21.064 23.1382 20.7182 23.1382H17.4085C17.0627 23.1382 16.7567 23.362 16.6521 23.6919L15.9911 25.7746L14.0049 26.3066L12.3991 24.8399C12.1435 24.6067 11.7663 24.5661 11.4669 24.7385L8.60073 26.3946C8.30109 26.5679 8.14813 26.9151 8.22269 27.253L8.69082 29.3745L7.23634 30.8288L5.11506 30.3604C4.77618 30.2869 4.42974 30.4388 4.25673 30.7383L2.60061 33.6044C2.42749 33.9039 2.46839 34.2812 2.70169 34.5366L4.16838 36.1428L3.63641 38.1291L1.55356 38.7901C1.22401 38.8946 1 39.2006 1 39.5466V42.8563C1 43.2023 1.22401 43.5083 1.55356 43.6128L3.63626 44.2737L4.16823 46.26L2.70153 47.8659C2.46824 48.1214 2.42734 48.4983 2.60046 48.7981L4.25658 51.6643C4.42974 51.9637 4.7771 52.115 5.11475 52.0422L7.23619 51.5741L8.69067 53.0284L8.22238 55.1498C8.14779 55.4877 8.30079 55.835 8.60042 56.0083L11.4664 57.6644C11.766 57.8368 12.1429 57.7964 12.3988 57.563L14.0049 56.0963L15.991 56.6283L16.6521 58.7113C16.7567 59.0412 17.0629 59.265 17.4087 59.265L20.7182 59.2647C21.064 59.2647 21.37 59.0409 21.4746 58.711L22.1355 56.6283L24.1218 56.0963L25.7276 57.563C25.9833 57.7968 26.3608 57.8371 26.6598 57.6644L29.5261 56.0083C29.8258 55.835 29.9788 55.4877 29.9042 55.1498L29.4359 53.0284L30.8903 51.5741L33.0117 52.0425C33.3499 52.116 33.6968 51.9641 33.87 51.6646L35.5261 48.7984C35.6992 48.4987 35.6583 48.1217 35.425 47.8662ZM32.4932 47.0093L33.8609 48.5074L32.7864 50.3671L30.8079 49.9303C30.5425 49.8727 30.2672 49.9524 30.0756 50.1443L28.0061 52.2136C27.8145 52.4052 27.7339 52.6811 27.7922 52.9459L28.2288 54.9244L26.369 55.9993L24.8715 54.6315C24.6715 54.4489 24.3925 54.3819 24.1309 54.4507L21.3053 55.2075C21.0438 55.2776 20.836 55.476 20.7541 55.7342L20.1373 57.6774L17.9894 57.6777L17.3724 55.7342C17.2906 55.476 17.0829 55.2776 16.8214 55.2075L13.9957 54.4507C13.9279 54.4327 13.859 54.4238 13.7904 54.4238C13.5948 54.4238 13.4034 54.4963 13.2552 54.6315L11.7575 55.9993L9.8977 54.9244L10.3344 52.9459C10.3927 52.6811 10.3121 52.4052 10.1205 52.2136L8.05107 50.1443C7.85948 49.9524 7.5834 49.8724 7.31895 49.9303L5.34026 50.3668L4.2656 48.5071L5.63338 47.0093C5.81583 46.8097 5.88406 46.5304 5.81398 46.269L5.05723 43.4435C4.98715 43.1818 4.78859 42.9741 4.53066 42.8923L2.58731 42.2756V40.1272L4.53082 39.5106C4.78874 39.4288 4.98731 39.221 5.05739 38.9594L5.81414 36.1339C5.88406 35.8725 5.81599 35.5935 5.63353 35.3935L4.26576 33.8955L5.34026 32.0357L7.3188 32.4725C7.58355 32.5305 7.85964 32.4505 8.05107 32.2586L10.1206 30.1893C10.3122 29.9977 10.3928 29.7217 10.3345 29.457L9.89785 27.4784L11.7577 26.4036L13.2552 27.7714C13.4552 27.954 13.7345 28.0219 13.9958 27.9522L16.8214 27.1954C17.0829 27.1253 17.2907 26.9269 17.3726 26.6687L17.9894 24.7255H20.1373L20.7543 26.669C20.8361 26.9269 21.0438 27.1253 21.3053 27.1954L24.131 27.9522C24.3923 28.0216 24.6714 27.954 24.8715 27.7714L26.3692 26.4036L28.229 27.4784L27.7923 29.457C27.734 29.7217 27.8146 29.9977 28.0062 30.1893L30.0756 32.2586C30.2669 32.4505 30.5431 32.5302 30.8077 32.4725L32.7864 32.036L33.8611 33.8958L32.4933 35.3935C32.3109 35.5932 32.2428 35.8725 32.3127 36.1339L33.0695 38.9594C33.1395 39.221 33.3381 39.4288 33.596 39.5106L35.5394 40.1272L35.5396 42.2756L33.596 42.8923C33.3381 42.9741 33.1395 43.1818 33.0695 43.4435L32.3126 46.269C32.2427 46.5304 32.3107 46.8094 32.4932 47.0093Z" stroke="white" stroke-width="0.6" mask="url(#path-2-outside-1_1055_1717)"/>
<path d="M19.0635 31.1989C13.5479 31.1989 9.06094 35.6857 9.06094 41.2013C9.06094 46.7169 13.5479 51.2037 19.0635 51.2037C24.5789 51.2037 29.0659 46.7169 29.0659 41.2013C29.0659 35.6857 24.5789 31.1989 19.0635 31.1989ZM19.0635 49.3164C14.5889 49.3164 10.9482 45.6757 10.9482 41.2013C10.9482 36.7269 14.5889 33.0862 19.0635 33.0862C23.5381 33.0862 27.1786 36.7269 27.1786 41.2013C27.1786 45.6758 23.5381 49.3164 19.0635 49.3164Z" fill="white" stroke="white" stroke-width="0.3"/>
</svg>
