<svg width="62" height="60" viewBox="0 0 62 60" fill="none" xmlns="http://www.w3.org/2000/svg">
<path d="M61.132 1.60994L61.132 1.61004C61.14 1.65041 61.1424 1.69144 61.1442 1.72078C61.1444 1.72499 61.1447 1.72895 61.1449 1.73265C61.145 1.73451 61.1452 1.7357 61.1469 1.74767C61.1481 1.75702 61.1504 1.77404 61.1504 1.79367V40.0925C61.1504 40.1151 61.1481 40.1352 61.1463 40.1497C61.144 40.1672 61.143 40.1729 61.1421 40.1826L61.1421 40.1828C61.1413 40.1905 61.1389 40.2397 61.1322 40.274C61.1322 40.2741 61.1322 40.2742 61.1322 40.2743L60.985 40.2453C60.9777 40.2828 60.9653 40.3182 60.9529 40.3537L61.132 1.60994ZM61.132 1.60994C61.126 1.57929 61.1145 1.54489 61.108 1.52548M61.132 1.60994L61.108 1.52548M60.6481 1.13425L60.7317 1.00968C60.7317 1.00972 60.7318 1.00977 60.7319 1.00981C60.7738 1.03798 60.8098 1.07037 60.8377 1.09564C60.8382 1.09601 60.8397 1.09718 60.8431 1.09973L60.8434 1.10001C60.8489 1.10411 60.8611 1.11333 60.8736 1.12578L21.7191 0.869023L21.7489 1.01603L21.7197 0.868903C21.7196 0.868923 21.7195 0.868942 21.7194 0.868962C21.7837 0.855939 21.849 0.849525 21.9147 0.850028M60.6481 1.13425C60.6242 1.11816 60.5988 1.10562 60.5734 1.09305C60.5689 1.09081 60.5644 1.08856 60.5598 1.0863C60.5535 1.08313 60.5473 1.07964 60.5412 1.07616C60.5318 1.07084 60.5224 1.06551 60.5123 1.06132M60.6481 1.13425C60.6803 1.15584 60.7091 1.18159 60.7378 1.20753L60.6481 1.13425ZM60.5123 1.06132L60.5702 0.922928C60.5701 0.922904 60.5701 0.92288 60.57 0.922856C60.521 0.902366 60.4725 0.889212 60.4301 0.878913L60.4267 0.877765L60.4262 0.877589C60.4213 0.875955 60.4092 0.871877 60.3948 0.868958C60.3303 0.855856 60.2649 0.849525 60.1994 0.850028M60.5123 1.06132C60.4735 1.04509 60.4334 1.03403 60.3929 1.02424L60.5123 1.06132ZM60.1994 0.850028H60.2V1.00003L60.1987 0.850033C60.1989 0.850031 60.1992 0.850029 60.1994 0.850028ZM60.1994 0.850028H21.9147M21.9147 0.850028H21.9141V1.00003L21.9153 0.850033C21.9151 0.850031 21.9149 0.850029 21.9147 0.850028ZM15.2902 7.0761L15.2922 7.074L15.2923 7.07403L21.2404 1.12583L21.3465 1.2319L21.2404 1.12583C21.2693 1.09694 21.3023 1.07215 21.3248 1.05522C21.3291 1.05201 21.333 1.04908 21.3364 1.04646L21.3365 1.04642C21.3377 1.04548 21.3387 1.04464 21.3434 1.04051L21.3475 1.0369C21.3541 1.03124 21.3661 1.02082 21.3809 1.01079L21.3811 1.01062C21.4247 0.981233 21.4693 0.95974 21.5049 0.942878M15.2902 7.0761L21.5049 0.942878M15.2902 7.0761L15.2898 7.07649L9.34418 13.0222L15.2902 7.0761ZM21.5049 0.942878C21.5049 0.942898 21.5049 0.942908 21.5049 0.942909C21.5049 0.942914 21.5051 0.942789 21.5054 0.942639C21.5055 0.942608 21.5056 0.942575 21.5056 0.942542L21.5054 0.942638C21.5053 0.942718 21.5051 0.942798 21.5049 0.942878ZM9.25315 13.4652L9.1093 13.4227C9.1101 13.42 9.11117 13.4161 9.11247 13.4113C9.11781 13.3919 9.12716 13.3578 9.13882 13.3297L9.13887 13.3295C9.15197 13.2979 9.17006 13.2664 9.1817 13.246C9.18427 13.2416 9.18653 13.2376 9.18834 13.2344L9.18826 13.2345L9.31941 13.3073C9.31614 13.3132 9.31282 13.319 9.30949 13.3248C9.29796 13.3451 9.28644 13.3653 9.27743 13.387C9.26981 13.4054 9.26455 13.4244 9.25928 13.4435C9.25728 13.4507 9.25528 13.458 9.25315 13.4652ZM9.25315 13.4652C9.25087 13.4728 9.24837 13.4804 9.24588 13.4879C9.24078 13.5034 9.23568 13.5188 9.23245 13.535C9.22227 13.5863 9.2168 13.6383 9.2168 13.6903V23.8491L9.14175 23.8925L9.2168 24.0224H9.3668V23.9357L10.5938 23.2268M9.25315 13.4652L9.1094 13.4224C9.10914 13.4232 9.10847 13.4252 9.1075 13.4282C9.10273 13.4426 9.0907 13.4788 9.08534 13.5057L9.08532 13.5058C9.07337 13.566 9.0668 13.6278 9.0668 13.6903V24.0224V24.2823L9.29184 24.1523L10.6687 23.3567M10.5938 23.2268L10.6687 23.3567M10.5938 23.2268C10.6428 23.1985 10.6937 23.176 10.7445 23.1536C10.7644 23.1448 10.7843 23.136 10.8041 23.1269M10.5938 23.2268L10.8041 23.1269M10.6687 23.3567C10.7104 23.3326 10.7504 23.315 10.7978 23.2941C10.8191 23.2847 10.8419 23.2746 10.867 23.263L10.9541 23.2228V23.1269V14.634M10.6687 23.3567L10.9541 14.634M10.9541 14.634H47.3657V51.0455H36.1579H36.0713L36.028 51.1205L35.2522 52.4631C35.2096 52.5369 35.1592 52.6046 35.1026 52.6805L35.0931 52.6932L34.9145 52.9328H35.2134H48.3093C48.3719 52.9328 48.4337 52.9263 48.4939 52.9143C48.5253 52.9081 48.5712 52.8921 48.5761 52.8906C48.5789 52.8898 48.5829 52.8887 48.5877 52.8874C48.6075 52.8819 48.6416 52.8726 48.6701 52.8608C48.6701 52.8607 48.6702 52.8607 48.6702 52.8607L10.9541 14.634ZM10.8041 23.1269V14.634V23.1269ZM61.108 1.52548C61.1064 1.52073 61.1051 1.51688 61.1043 1.5142M61.108 1.52548L61.1043 1.5142M61.1043 1.5142L60.961 1.55875L61.1043 1.5142ZM60.8981 1.41107L61.0295 1.33869C61.0271 1.33429 61.0253 1.33087 61.0227 1.32564C61.0211 1.32245 61.0191 1.31858 61.0165 1.31342C61.0107 1.30217 61.0024 1.28641 60.9914 1.26986L60.9913 1.26981C60.9598 1.22266 60.9243 1.1795 60.8864 1.14007L60.8861 1.13969C60.8833 1.13622 60.8791 1.13129 60.8736 1.12584L60.8981 1.41107ZM21.6936 0.87598L21.6918 0.876562C21.6896 0.877308 21.6902 0.877101 21.6909 0.876895C21.6919 0.876584 21.6946 0.875766 21.6983 0.874917C21.6967 0.875268 21.6952 0.875622 21.6936 0.87598ZM9.34406 13.0223C9.29953 13.0668 9.26002 13.1155 9.22553 13.1671L9.34406 13.0223ZM54.9239 8.41008L54.9248 8.40919L54.9263 8.40761L54.9272 8.40672L59.2631 4.07082V39.7008L49.2529 49.7111V14.0811L54.9239 8.41008ZM22.2977 2.7373H57.9278L53.8671 6.79803H18.237L22.2977 2.7373ZM51.9798 8.68534L47.9185 12.7467H12.2885L16.3498 8.68534H51.9798Z" fill="white" stroke="white" stroke-width="0.3"/>
<mask id="path-2-outside-1_1063_2147" maskUnits="userSpaceOnUse" x="0" y="22.1382" width="38" height="38" fill="black">
<rect fill="white" y="22.1382" width="38" height="38"/>
<path d="M35.425 47.8662L33.9583 46.26L34.4903 44.2737L36.5733 43.6128C36.9029 43.5083 37.1268 43.202 37.1268 42.8563L37.1267 39.5466C37.1267 39.2006 36.9027 38.8946 36.5732 38.7901L34.4904 38.1291L33.9585 36.1432L35.4252 34.5369C35.6585 34.2815 35.6994 33.9045 35.5262 33.6047L33.8701 30.7386C33.697 30.4388 33.349 30.2869 33.012 30.3607L30.8905 30.8288L29.4361 29.3745L29.9043 27.253C29.9789 26.9151 29.8259 26.5679 29.5263 26.3946L26.6601 24.7385C26.3605 24.5658 25.9833 24.6064 25.7279 24.8399L24.1218 26.3066L22.1357 25.7746L21.4746 23.6915C21.37 23.362 21.064 23.1382 20.7182 23.1382H17.4085C17.0627 23.1382 16.7567 23.362 16.6521 23.6919L15.9911 25.7746L14.0049 26.3066L12.3991 24.8399C12.1435 24.6067 11.7663 24.5661 11.4669 24.7385L8.60073 26.3946C8.30109 26.5679 8.14813 26.9151 8.22269 27.253L8.69082 29.3745L7.23634 30.8288L5.11506 30.3604C4.77618 30.2869 4.42974 30.4388 4.25673 30.7383L2.60061 33.6044C2.42749 33.9039 2.46839 34.2812 2.70169 34.5366L4.16838 36.1428L3.63641 38.1291L1.55356 38.7901C1.22401 38.8946 1 39.2006 1 39.5466V42.8563C1 43.2023 1.22401 43.5083 1.55356 43.6128L3.63626 44.2737L4.16823 46.26L2.70153 47.8659C2.46824 48.1214 2.42734 48.4983 2.60046 48.7981L4.25658 51.6643C4.42974 51.9637 4.7771 52.115 5.11475 52.0422L7.23619 51.5741L8.69067 53.0284L8.22238 55.1498C8.14779 55.4877 8.30079 55.835 8.60042 56.0083L11.4664 57.6644C11.766 57.8368 12.1429 57.7964 12.3988 57.563L14.0049 56.0963L15.991 56.6283L16.6521 58.7113C16.7567 59.0412 17.0629 59.265 17.4087 59.265L20.7182 59.2647C21.064 59.2647 21.37 59.0409 21.4746 58.711L22.1355 56.6283L24.1218 56.0963L25.7276 57.563C25.9833 57.7968 26.3608 57.8371 26.6598 57.6644L29.5261 56.0083C29.8258 55.835 29.9788 55.4877 29.9042 55.1498L29.4359 53.0284L30.8903 51.5741L33.0117 52.0425C33.3499 52.116 33.6968 51.9641 33.87 51.6646L35.5261 48.7984C35.6992 48.4987 35.6583 48.1217 35.425 47.8662ZM32.4932 47.0093L33.8609 48.5074L32.7864 50.3671L30.8079 49.9303C30.5425 49.8727 30.2672 49.9524 30.0756 50.1443L28.0061 52.2136C27.8145 52.4052 27.7339 52.6811 27.7922 52.9459L28.2288 54.9244L26.369 55.9993L24.8715 54.6315C24.6715 54.4489 24.3925 54.3819 24.1309 54.4507L21.3053 55.2075C21.0438 55.2776 20.836 55.476 20.7541 55.7342L20.1373 57.6774L17.9894 57.6777L17.3724 55.7342C17.2906 55.476 17.0829 55.2776 16.8214 55.2075L13.9957 54.4507C13.9279 54.4327 13.859 54.4238 13.7904 54.4238C13.5948 54.4238 13.4034 54.4963 13.2552 54.6315L11.7575 55.9993L9.8977 54.9244L10.3344 52.9459C10.3927 52.6811 10.3121 52.4052 10.1205 52.2136L8.05107 50.1443C7.85948 49.9524 7.5834 49.8724 7.31895 49.9303L5.34026 50.3668L4.2656 48.5071L5.63338 47.0093C5.81583 46.8097 5.88406 46.5304 5.81398 46.269L5.05723 43.4435C4.98715 43.1818 4.78859 42.9741 4.53066 42.8923L2.58731 42.2756V40.1272L4.53082 39.5106C4.78874 39.4288 4.98731 39.221 5.05739 38.9594L5.81414 36.1339C5.88406 35.8725 5.81599 35.5935 5.63353 35.3935L4.26576 33.8955L5.34026 32.0357L7.3188 32.4725C7.58355 32.5305 7.85964 32.4505 8.05107 32.2586L10.1206 30.1893C10.3122 29.9977 10.3928 29.7217 10.3345 29.457L9.89785 27.4784L11.7577 26.4036L13.2552 27.7714C13.4552 27.954 13.7345 28.0219 13.9958 27.9522L16.8214 27.1954C17.0829 27.1253 17.2907 26.9269 17.3726 26.6687L17.9894 24.7255H20.1373L20.7543 26.669C20.8361 26.9269 21.0438 27.1253 21.3053 27.1954L24.131 27.9522C24.3923 28.0216 24.6714 27.954 24.8715 27.7714L26.3692 26.4036L28.229 27.4784L27.7923 29.457C27.734 29.7217 27.8146 29.9977 28.0062 30.1893L30.0756 32.2586C30.2669 32.4505 30.5431 32.5302 30.8077 32.4725L32.7864 32.036L33.8611 33.8958L32.4933 35.3935C32.3109 35.5932 32.2428 35.8725 32.3127 36.1339L33.0695 38.9594C33.1395 39.221 33.3381 39.4288 33.596 39.5106L35.5394 40.1272L35.5396 42.2756L33.596 42.8923C33.3381 42.9741 33.1395 43.1818 33.0695 43.4435L32.3126 46.269C32.2427 46.5304 32.3107 46.8094 32.4932 47.0093Z"/>
</mask>
<path d="M35.425 47.8662L33.9583 46.26L34.4903 44.2737L36.5733 43.6128C36.9029 43.5083 37.1268 43.202 37.1268 42.8563L37.1267 39.5466C37.1267 39.2006 36.9027 38.8946 36.5732 38.7901L34.4904 38.1291L33.9585 36.1432L35.4252 34.5369C35.6585 34.2815 35.6994 33.9045 35.5262 33.6047L33.8701 30.7386C33.697 30.4388 33.349 30.2869 33.012 30.3607L30.8905 30.8288L29.4361 29.3745L29.9043 27.253C29.9789 26.9151 29.8259 26.5679 29.5263 26.3946L26.6601 24.7385C26.3605 24.5658 25.9833 24.6064 25.7279 24.8399L24.1218 26.3066L22.1357 25.7746L21.4746 23.6915C21.37 23.362 21.064 23.1382 20.7182 23.1382H17.4085C17.0627 23.1382 16.7567 23.362 16.6521 23.6919L15.9911 25.7746L14.0049 26.3066L12.3991 24.8399C12.1435 24.6067 11.7663 24.5661 11.4669 24.7385L8.60073 26.3946C8.30109 26.5679 8.14813 26.9151 8.22269 27.253L8.69082 29.3745L7.23634 30.8288L5.11506 30.3604C4.77618 30.2869 4.42974 30.4388 4.25673 30.7383L2.60061 33.6044C2.42749 33.9039 2.46839 34.2812 2.70169 34.5366L4.16838 36.1428L3.63641 38.1291L1.55356 38.7901C1.22401 38.8946 1 39.2006 1 39.5466V42.8563C1 43.2023 1.22401 43.5083 1.55356 43.6128L3.63626 44.2737L4.16823 46.26L2.70153 47.8659C2.46824 48.1214 2.42734 48.4983 2.60046 48.7981L4.25658 51.6643C4.42974 51.9637 4.7771 52.115 5.11475 52.0422L7.23619 51.5741L8.69067 53.0284L8.22238 55.1498C8.14779 55.4877 8.30079 55.835 8.60042 56.0083L11.4664 57.6644C11.766 57.8368 12.1429 57.7964 12.3988 57.563L14.0049 56.0963L15.991 56.6283L16.6521 58.7113C16.7567 59.0412 17.0629 59.265 17.4087 59.265L20.7182 59.2647C21.064 59.2647 21.37 59.0409 21.4746 58.711L22.1355 56.6283L24.1218 56.0963L25.7276 57.563C25.9833 57.7968 26.3608 57.8371 26.6598 57.6644L29.5261 56.0083C29.8258 55.835 29.9788 55.4877 29.9042 55.1498L29.4359 53.0284L30.8903 51.5741L33.0117 52.0425C33.3499 52.116 33.6968 51.9641 33.87 51.6646L35.5261 48.7984C35.6992 48.4987 35.6583 48.1217 35.425 47.8662ZM32.4932 47.0093L33.8609 48.5074L32.7864 50.3671L30.8079 49.9303C30.5425 49.8727 30.2672 49.9524 30.0756 50.1443L28.0061 52.2136C27.8145 52.4052 27.7339 52.6811 27.7922 52.9459L28.2288 54.9244L26.369 55.9993L24.8715 54.6315C24.6715 54.4489 24.3925 54.3819 24.1309 54.4507L21.3053 55.2075C21.0438 55.2776 20.836 55.476 20.7541 55.7342L20.1373 57.6774L17.9894 57.6777L17.3724 55.7342C17.2906 55.476 17.0829 55.2776 16.8214 55.2075L13.9957 54.4507C13.9279 54.4327 13.859 54.4238 13.7904 54.4238C13.5948 54.4238 13.4034 54.4963 13.2552 54.6315L11.7575 55.9993L9.8977 54.9244L10.3344 52.9459C10.3927 52.6811 10.3121 52.4052 10.1205 52.2136L8.05107 50.1443C7.85948 49.9524 7.5834 49.8724 7.31895 49.9303L5.34026 50.3668L4.2656 48.5071L5.63338 47.0093C5.81583 46.8097 5.88406 46.5304 5.81398 46.269L5.05723 43.4435C4.98715 43.1818 4.78859 42.9741 4.53066 42.8923L2.58731 42.2756V40.1272L4.53082 39.5106C4.78874 39.4288 4.98731 39.221 5.05739 38.9594L5.81414 36.1339C5.88406 35.8725 5.81599 35.5935 5.63353 35.3935L4.26576 33.8955L5.34026 32.0357L7.3188 32.4725C7.58355 32.5305 7.85964 32.4505 8.05107 32.2586L10.1206 30.1893C10.3122 29.9977 10.3928 29.7217 10.3345 29.457L9.89785 27.4784L11.7577 26.4036L13.2552 27.7714C13.4552 27.954 13.7345 28.0219 13.9958 27.9522L16.8214 27.1954C17.0829 27.1253 17.2907 26.9269 17.3726 26.6687L17.9894 24.7255H20.1373L20.7543 26.669C20.8361 26.9269 21.0438 27.1253 21.3053 27.1954L24.131 27.9522C24.3923 28.0216 24.6714 27.954 24.8715 27.7714L26.3692 26.4036L28.229 27.4784L27.7923 29.457C27.734 29.7217 27.8146 29.9977 28.0062 30.1893L30.0756 32.2586C30.2669 32.4505 30.5431 32.5302 30.8077 32.4725L32.7864 32.036L33.8611 33.8958L32.4933 35.3935C32.3109 35.5932 32.2428 35.8725 32.3127 36.1339L33.0695 38.9594C33.1395 39.221 33.3381 39.4288 33.596 39.5106L35.5394 40.1272L35.5396 42.2756L33.596 42.8923C33.3381 42.9741 33.1395 43.1818 33.0695 43.4435L32.3126 46.269C32.2427 46.5304 32.3107 46.8094 32.4932 47.0093Z" fill="white"/>
<path d="M35.425 47.8662L33.9583 46.26L34.4903 44.2737L36.5733 43.6128C36.9029 43.5083 37.1268 43.202 37.1268 42.8563L37.1267 39.5466C37.1267 39.2006 36.9027 38.8946 36.5732 38.7901L34.4904 38.1291L33.9585 36.1432L35.4252 34.5369C35.6585 34.2815 35.6994 33.9045 35.5262 33.6047L33.8701 30.7386C33.697 30.4388 33.349 30.2869 33.012 30.3607L30.8905 30.8288L29.4361 29.3745L29.9043 27.253C29.9789 26.9151 29.8259 26.5679 29.5263 26.3946L26.6601 24.7385C26.3605 24.5658 25.9833 24.6064 25.7279 24.8399L24.1218 26.3066L22.1357 25.7746L21.4746 23.6915C21.37 23.362 21.064 23.1382 20.7182 23.1382H17.4085C17.0627 23.1382 16.7567 23.362 16.6521 23.6919L15.9911 25.7746L14.0049 26.3066L12.3991 24.8399C12.1435 24.6067 11.7663 24.5661 11.4669 24.7385L8.60073 26.3946C8.30109 26.5679 8.14813 26.9151 8.22269 27.253L8.69082 29.3745L7.23634 30.8288L5.11506 30.3604C4.77618 30.2869 4.42974 30.4388 4.25673 30.7383L2.60061 33.6044C2.42749 33.9039 2.46839 34.2812 2.70169 34.5366L4.16838 36.1428L3.63641 38.1291L1.55356 38.7901C1.22401 38.8946 1 39.2006 1 39.5466V42.8563C1 43.2023 1.22401 43.5083 1.55356 43.6128L3.63626 44.2737L4.16823 46.26L2.70153 47.8659C2.46824 48.1214 2.42734 48.4983 2.60046 48.7981L4.25658 51.6643C4.42974 51.9637 4.7771 52.115 5.11475 52.0422L7.23619 51.5741L8.69067 53.0284L8.22238 55.1498C8.14779 55.4877 8.30079 55.835 8.60042 56.0083L11.4664 57.6644C11.766 57.8368 12.1429 57.7964 12.3988 57.563L14.0049 56.0963L15.991 56.6283L16.6521 58.7113C16.7567 59.0412 17.0629 59.265 17.4087 59.265L20.7182 59.2647C21.064 59.2647 21.37 59.0409 21.4746 58.711L22.1355 56.6283L24.1218 56.0963L25.7276 57.563C25.9833 57.7968 26.3608 57.8371 26.6598 57.6644L29.5261 56.0083C29.8258 55.835 29.9788 55.4877 29.9042 55.1498L29.4359 53.0284L30.8903 51.5741L33.0117 52.0425C33.3499 52.116 33.6968 51.9641 33.87 51.6646L35.5261 48.7984C35.6992 48.4987 35.6583 48.1217 35.425 47.8662ZM32.4932 47.0093L33.8609 48.5074L32.7864 50.3671L30.8079 49.9303C30.5425 49.8727 30.2672 49.9524 30.0756 50.1443L28.0061 52.2136C27.8145 52.4052 27.7339 52.6811 27.7922 52.9459L28.2288 54.9244L26.369 55.9993L24.8715 54.6315C24.6715 54.4489 24.3925 54.3819 24.1309 54.4507L21.3053 55.2075C21.0438 55.2776 20.836 55.476 20.7541 55.7342L20.1373 57.6774L17.9894 57.6777L17.3724 55.7342C17.2906 55.476 17.0829 55.2776 16.8214 55.2075L13.9957 54.4507C13.9279 54.4327 13.859 54.4238 13.7904 54.4238C13.5948 54.4238 13.4034 54.4963 13.2552 54.6315L11.7575 55.9993L9.8977 54.9244L10.3344 52.9459C10.3927 52.6811 10.3121 52.4052 10.1205 52.2136L8.05107 50.1443C7.85948 49.9524 7.5834 49.8724 7.31895 49.9303L5.34026 50.3668L4.2656 48.5071L5.63338 47.0093C5.81583 46.8097 5.88406 46.5304 5.81398 46.269L5.05723 43.4435C4.98715 43.1818 4.78859 42.9741 4.53066 42.8923L2.58731 42.2756V40.1272L4.53082 39.5106C4.78874 39.4288 4.98731 39.221 5.05739 38.9594L5.81414 36.1339C5.88406 35.8725 5.81599 35.5935 5.63353 35.3935L4.26576 33.8955L5.34026 32.0357L7.3188 32.4725C7.58355 32.5305 7.85964 32.4505 8.05107 32.2586L10.1206 30.1893C10.3122 29.9977 10.3928 29.7217 10.3345 29.457L9.89785 27.4784L11.7577 26.4036L13.2552 27.7714C13.4552 27.954 13.7345 28.0219 13.9958 27.9522L16.8214 27.1954C17.0829 27.1253 17.2907 26.9269 17.3726 26.6687L17.9894 24.7255H20.1373L20.7543 26.669C20.8361 26.9269 21.0438 27.1253 21.3053 27.1954L24.131 27.9522C24.3923 28.0216 24.6714 27.954 24.8715 27.7714L26.3692 26.4036L28.229 27.4784L27.7923 29.457C27.734 29.7217 27.8146 29.9977 28.0062 30.1893L30.0756 32.2586C30.2669 32.4505 30.5431 32.5302 30.8077 32.4725L32.7864 32.036L33.8611 33.8958L32.4933 35.3935C32.3109 35.5932 32.2428 35.8725 32.3127 36.1339L33.0695 38.9594C33.1395 39.221 33.3381 39.4288 33.596 39.5106L35.5394 40.1272L35.5396 42.2756L33.596 42.8923C33.3381 42.9741 33.1395 43.1818 33.0695 43.4435L32.3126 46.269C32.2427 46.5304 32.3107 46.8094 32.4932 47.0093Z" stroke="white" stroke-width="0.6" mask="url(#path-2-outside-1_1063_2147)"/>
<path d="M19.0635 31.1989C13.5479 31.1989 9.06094 35.6857 9.06094 41.2013C9.06094 46.7169 13.5479 51.2037 19.0635 51.2037C24.5789 51.2037 29.0659 46.7169 29.0659 41.2013C29.0659 35.6857 24.5789 31.1989 19.0635 31.1989ZM19.0635 49.3164C14.5889 49.3164 10.9482 45.6757 10.9482 41.2013C10.9482 36.7269 14.5889 33.0862 19.0635 33.0862C23.5381 33.0862 27.1786 36.7269 27.1786 41.2013C27.1786 45.6758 23.5381 49.3164 19.0635 49.3164Z" fill="white" stroke="white" stroke-width="0.3"/>
</svg>
