<svg width="82" height="79" viewBox="0 0 82 79" fill="none" xmlns="http://www.w3.org/2000/svg">
<path d="M33.9103 20.1677C33.4472 22.467 33.2093 24.8061 33.2 27.1519C33.2 27.1522 33.2 27.1524 33.2 27.1527M33.9103 20.1677L33 32.9786V27.1519L33.2 27.1527M33.9103 20.1677C36.2196 20.8035 38.6036 21.1287 40.9995 21.1346L41.0005 21.1346C43.3964 21.1287 45.7804 20.8035 48.0897 20.1677M33.9103 20.1677L48.0897 20.1677M33.2 27.1527L33.2 32.9786V40.7786M33.2 27.1527L33.2 40.7786M33.2 40.7786H48.8L48.8 27.1527L48.8 27.1519M33.2 40.7786L48.2829 20.1137C48.7505 22.4307 48.9907 24.7879 49 27.1519H48.8M48.8 27.1519C48.7907 24.8061 48.5528 22.467 48.0897 20.1677M48.8 27.1519L48.0897 20.1677M73.8749 12.7786H73.8747H49.1366C47.4877 8.58057 45.1272 4.69798 42.1586 1.3016L42.1587 1.30151L42.1535 1.29601C42.0058 1.13938 41.8277 1.01459 41.63 0.929293C41.4323 0.843998 41.2193 0.8 41.004 0.8C40.7887 0.8 40.5757 0.843998 40.378 0.929293C40.1804 1.01459 40.0022 1.13938 39.8545 1.29601L39.8544 1.29591L39.8495 1.30152C36.878 4.69732 34.5148 8.57997 32.8635 12.7786H8.12533H8.12511C6.18304 12.7807 4.32113 13.5532 2.94788 14.9264C1.57463 16.2997 0.802177 18.1616 0.8 20.1037V20.1039L0.8 59.1866L0.8 59.1868C0.802177 61.1288 1.57463 62.9908 2.94788 64.364C4.32113 65.7373 6.18304 66.5097 8.12511 66.5119H8.12533H73.8747H73.8749C75.817 66.5097 77.6789 65.7373 79.0521 64.364C80.4254 62.9908 81.1978 61.1288 81.2 59.1868V59.1866V20.1039V20.1037C81.1978 18.1616 80.4254 16.2997 79.0521 14.9264C77.6789 13.5532 75.817 12.7807 73.8749 12.7786ZM31.8058 15.8452C30.6992 19.5117 30.1357 23.321 30.1333 27.1518V27.1519V31.5624C27.5775 31.9289 25.2332 33.1931 23.5221 35.1318C21.7721 37.1145 20.8044 39.667 20.8 42.3116V42.3119C20.8 42.7186 20.9615 43.1086 21.2491 43.3961C21.5367 43.6837 21.9267 43.8452 22.3333 43.8452H23.4667V47.6452C23.4667 48.0519 23.6282 48.4419 23.9158 48.7295C24.2033 49.017 24.5933 49.1786 25 49.1786C25.4067 49.1786 25.7967 49.017 26.0842 48.7295C26.3718 48.4419 26.5333 48.0519 26.5333 47.6452V43.8452H28.8V58.3119C28.8 58.7186 28.9615 59.1086 29.2491 59.3961C29.5367 59.6837 29.9267 59.8452 30.3333 59.8452C30.74 59.8452 31.13 59.6837 31.4176 59.3961C31.7051 59.1086 31.8667 58.7186 31.8667 58.3119V43.8452H50.1333V59.6452C50.1333 60.0519 50.2949 60.4419 50.5824 60.7295C50.87 61.017 51.26 61.1786 51.6667 61.1786C52.0733 61.1786 52.4633 61.017 52.7509 60.7295C53.0385 60.4419 53.2 60.0519 53.2 59.6452V43.8452H55.4667V50.3119C55.4667 50.7186 55.6282 51.1086 55.9158 51.3961C56.2033 51.6837 56.5933 51.8452 57 51.8452C57.4067 51.8452 57.7967 51.6837 58.0842 51.3961C58.3718 51.1086 58.5333 50.7186 58.5333 50.3119V43.8452H59.6667C60.0733 43.8452 60.4633 43.6837 60.7509 43.3961C61.0385 43.1086 61.2 42.7186 61.2 42.3119V42.3116C61.1956 39.667 60.2279 37.1145 58.4779 35.1318C56.7668 33.1931 54.4225 31.9289 51.8667 31.5624V27.1519V27.1518C51.8643 23.321 51.3008 19.5117 50.1942 15.8452H73.8744C75.0035 15.8466 76.086 16.2957 76.8844 17.0941C77.6829 17.8925 78.132 18.975 78.1333 20.1041V59.1863C78.132 60.3154 77.6829 61.3979 76.8844 62.1963C76.086 62.9947 75.0035 63.4439 73.8744 63.4452H8.12557C6.99645 63.4439 5.91397 62.9947 5.11556 62.1963C4.3172 61.398 3.86807 60.3156 3.86667 59.1865C3.86667 59.1864 3.86667 59.1864 3.86667 59.1863V20.1041C3.86667 20.1041 3.86667 20.104 3.86667 20.1039C3.86807 18.9749 4.3172 17.8925 5.11556 17.0941C5.91397 16.2957 6.99645 15.8466 8.12557 15.8452H31.8058ZM34.6228 17.1828C35.9153 12.649 38.0818 8.41181 41 4.70956C43.9182 8.41181 46.0847 12.649 47.3772 17.1828C43.204 18.3365 38.796 18.3365 34.6228 17.1828ZM26.1538 36.799C27.2427 35.7101 28.6274 34.9681 30.1333 34.6633V40.7786H24.0181C24.3229 39.2727 25.0649 37.8879 26.1538 36.799ZM51.8667 40.7786V34.6633C53.3726 34.9681 54.7573 35.7101 55.8462 36.799C56.9351 37.8879 57.6771 39.2727 57.9819 40.7786H51.8667Z" fill="white" stroke="white" stroke-width="0.4"/>
<path d="M79.6667 70.1119H2.33333C1.92667 70.1119 1.53666 70.2734 1.2491 70.561C0.961547 70.8485 0.8 71.2386 0.8 71.6452V76.9786C0.8 77.3852 0.961547 77.7752 1.2491 78.0628C1.53666 78.3503 1.92667 78.5119 2.33333 78.5119H79.6667C80.0733 78.5119 80.4633 78.3503 80.7509 78.0628C81.0385 77.7752 81.2 77.3852 81.2 76.9786V71.6452C81.2 71.2386 81.0385 70.8485 80.7509 70.561C80.4633 70.2734 80.0733 70.1119 79.6667 70.1119ZM78.1333 75.4452H3.86667V73.1786H78.1333V75.4452Z" fill="white" stroke="white" stroke-width="0.4"/>
<path d="M40.9998 24.7785C39.9054 24.7785 38.8356 25.103 37.9257 25.7111C37.0157 26.3191 36.3065 27.1833 35.8877 28.1943C35.4689 29.2054 35.3593 30.318 35.5728 31.3913C35.7863 32.4647 36.3133 33.4507 37.0872 34.2245C37.861 34.9984 38.847 35.5254 39.9203 35.7389C40.9937 35.9524 42.1063 35.8428 43.1174 35.424C44.1284 35.0052 44.9926 34.296 45.6006 33.386C46.2086 32.4761 46.5332 31.4062 46.5332 30.3118C46.5332 28.8443 45.9502 27.4369 44.9125 26.3992C43.8748 25.3615 42.4674 24.7785 40.9998 24.7785ZM40.9998 32.7785C40.512 32.7785 40.0351 32.6338 39.6294 32.3628C39.2238 32.0918 38.9076 31.7065 38.7209 31.2558C38.5342 30.8051 38.4854 30.3091 38.5806 29.8306C38.6757 29.3521 38.9107 28.9126 39.2556 28.5677C39.6006 28.2227 40.0401 27.9878 40.5186 27.8926C40.9971 27.7974 41.4931 27.8462 41.9438 28.0329C42.3945 28.2196 42.7798 28.5358 43.0508 28.9414C43.3218 29.3471 43.4665 29.824 43.4665 30.3118C43.4665 30.966 43.2066 31.5935 42.744 32.056C42.2814 32.5186 41.654 32.7785 40.9998 32.7785Z" fill="white" stroke="white" stroke-width="0.4"/>
<path d="M35.4665 51.645C35.463 53.0125 35.7306 54.3672 36.2541 55.6307C36.7775 56.894 37.5463 58.0411 38.5159 59.0054C38.516 59.0055 38.5161 59.0056 38.5162 59.0057L40.8584 61.3493L40.9999 61.4908L41.1413 61.3493L43.4836 59.0057C43.4836 59.0056 43.4837 59.0056 43.4838 59.0055C44.4534 58.0412 45.2222 56.8941 45.7457 55.6307C46.2691 54.3672 46.5368 53.0125 46.5332 51.645M35.4665 51.645C35.4666 50.1775 36.0496 48.7702 37.0872 47.7326C38.1249 46.6949 39.5323 46.1119 40.9999 46.1119C42.4674 46.1119 43.8748 46.6949 44.9125 47.7326C45.9502 48.7702 46.5331 50.1775 46.5332 51.645M35.4665 51.645C35.4665 51.6449 35.4665 51.6448 35.4665 51.6447L35.6665 51.6452H35.4665C35.4665 51.6451 35.4665 51.645 35.4665 51.645ZM46.5332 51.645C46.5332 51.645 46.5332 51.6451 46.5332 51.6452H46.3332L46.5332 51.6447C46.5332 51.6448 46.5332 51.6449 46.5332 51.645ZM41.3162 56.8368L41.3158 56.8371L40.9999 57.153L40.684 56.8371L40.6836 56.8368C39.9998 56.1566 39.4576 55.3476 39.0885 54.4566C38.7194 53.5656 38.5307 52.6102 38.5332 51.6457C38.5354 50.9918 38.7951 50.365 39.2562 49.9011C39.7187 49.4388 40.3459 49.1791 40.9999 49.1791C41.6538 49.1791 42.281 49.4388 42.7436 49.9011C43.2046 50.365 43.4643 50.9918 43.4665 51.6457C43.4691 52.6102 43.2803 53.5656 42.9112 54.4566C42.5421 55.3476 42 56.1566 41.3162 56.8368Z" fill="white" stroke="white" stroke-width="0.4"/>
<path d="M24.9998 51.4451C24.5932 51.4451 24.2032 51.6067 23.9156 51.8942C23.628 52.1818 23.4665 52.5718 23.4665 52.9785V54.3118C23.4665 54.7185 23.628 55.1085 23.9156 55.396C24.2032 55.6836 24.5932 55.8451 24.9998 55.8451C25.4065 55.8451 25.7965 55.6836 26.0841 55.396C26.3716 55.1085 26.5332 54.7185 26.5332 54.3118V52.9785C26.5332 52.5718 26.3716 52.1818 26.0841 51.8942C25.7965 51.6067 25.4065 51.4451 24.9998 51.4451Z" fill="white" stroke="white" stroke-width="0.4"/>
<path d="M56.9998 54.1119C56.5932 54.1119 56.2032 54.2734 55.9156 54.561C55.628 54.8485 55.4665 55.2386 55.4665 55.6452V56.9786C55.4665 57.3852 55.628 57.7752 55.9156 58.0628C56.2032 58.3503 56.5932 58.5119 56.9998 58.5119C57.4065 58.5119 57.7965 58.3503 58.0841 58.0628C58.3716 57.7752 58.5332 57.3852 58.5332 56.9786V55.6452C58.5332 55.2386 58.3716 54.8485 58.0841 54.561C57.7965 54.2734 57.4065 54.1119 56.9998 54.1119Z" fill="white" stroke="white" stroke-width="0.4"/>
</svg>
