<svg width="412" height="413" viewBox="0 0 412 413" fill="none" xmlns="http://www.w3.org/2000/svg">
<mask id="path-1-inside-1_816_3111" fill="white">
<path d="M305.378 306.851C306.977 308.462 306.971 311.069 305.316 312.622C292.396 324.74 277.364 334.406 260.952 341.132C243.272 348.378 224.338 352.07 205.231 351.999C186.124 351.928 167.218 348.093 149.592 340.715C133.232 333.867 118.272 324.089 105.444 311.875C103.799 310.309 103.813 307.702 105.424 306.103C107.036 304.504 109.634 304.518 111.281 306.081C123.347 317.531 137.402 326.7 152.767 333.132C169.396 340.093 187.234 343.711 205.262 343.778C223.289 343.846 241.154 340.362 257.835 333.525C273.247 327.209 287.371 318.144 299.522 306.785C301.181 305.235 303.779 305.24 305.378 306.851Z"/>
</mask>
<path d="M305.378 306.851C306.977 308.462 306.971 311.069 305.316 312.622C292.396 324.74 277.364 334.406 260.952 341.132C243.272 348.378 224.338 352.07 205.231 351.999C186.124 351.928 167.218 348.093 149.592 340.715C133.232 333.867 118.272 324.089 105.444 311.875C103.799 310.309 103.813 307.702 105.424 306.103C107.036 304.504 109.634 304.518 111.281 306.081C123.347 317.531 137.402 326.7 152.767 333.132C169.396 340.093 187.234 343.711 205.262 343.778C223.289 343.846 241.154 340.362 257.835 333.525C273.247 327.209 287.371 318.144 299.522 306.785C301.181 305.235 303.779 305.24 305.378 306.851Z" stroke="#FF6700" stroke-width="12" mask="url(#path-1-inside-1_816_3111)"/>
<g filter="url(#filter0_d_816_3111)">
<circle cx="204.785" cy="205.5" r="128.5" fill="white"/>
</g>
<path d="M96.8298 295.29C79.9637 275.045 69.1765 250.437 65.7169 224.315C62.2573 198.193 66.2669 171.626 77.2814 147.688C88.2958 123.751 105.865 103.422 127.954 89.056C150.044 74.69 175.75 66.874 202.098 66.513C228.446 66.152 254.357 73.2606 276.832 87.016C299.306 100.771 317.426 120.611 329.092 144.238C340.758 167.864 345.494 194.312 342.752 220.519C340.009 246.726 329.9 271.621 313.595 292.32" stroke="#13CFFE"/>
<ellipse cx="312.948" cy="293.032" rx="3.28521" ry="3.45791" transform="rotate(179.201 312.948 293.032)" fill="#13CFFE"/>
<ellipse cx="96.9677" cy="296.042" rx="3.28521" ry="3.45791" transform="rotate(179.201 96.9677 296.042)" fill="#13CFFE"/>
<defs>
<filter id="filter0_d_816_3111" x="65.2852" y="67" width="279" height="279" filterUnits="userSpaceOnUse" color-interpolation-filters="sRGB">
<feFlood flood-opacity="0" result="BackgroundImageFix"/>
<feColorMatrix in="SourceAlpha" type="matrix" values="0 0 0 0 0 0 0 0 0 0 0 0 0 0 0 0 0 0 127 0" result="hardAlpha"/>
<feMorphology radius="1" operator="dilate" in="SourceAlpha" result="effect1_dropShadow_816_3111"/>
<feOffset dy="1"/>
<feGaussianBlur stdDeviation="5"/>
<feComposite in2="hardAlpha" operator="out"/>
<feColorMatrix type="matrix" values="0 0 0 0 0 0 0 0 0 0 0 0 0 0 0 0 0 0 0.1 0"/>
<feBlend mode="normal" in2="BackgroundImageFix" result="effect1_dropShadow_816_3111"/>
<feBlend mode="normal" in="SourceGraphic" in2="effect1_dropShadow_816_3111" result="shape"/>
</filter>
</defs>
</svg>
