<svg width="63" height="56" viewBox="0 0 63 56" fill="none" xmlns="http://www.w3.org/2000/svg">
<path d="M46.5797 32.2077L31.5529 22.1898C31.2524 21.9895 30.7515 21.9895 30.4509 22.1898L15.4242 32.2077C15.2238 32.408 15.0234 32.7086 15.0234 33.0091V45.0305C15.0234 45.3311 15.2238 45.6316 15.5243 45.832L30.5511 55.8498C30.8517 56.0502 31.3525 56.0502 31.6531 55.8498L46.6799 45.832C46.9804 45.6316 47.1808 45.3311 47.1808 45.0305V33.0091C47.0806 32.7086 46.8802 32.408 46.5797 32.2077ZM21.3347 38.3186L25.3418 34.3114C26.2434 33.4098 27.6459 34.8123 26.7443 35.7139L23.4384 39.0198L26.7443 42.3257C27.145 42.7264 27.145 43.3275 26.7443 43.7282C26.3436 44.1289 25.7425 44.1289 25.3418 43.7282L21.3347 39.7211C20.934 39.3204 20.934 38.7193 21.3347 38.3186ZM29.0484 44.0287C28.8481 44.0287 28.7479 44.0288 28.5475 43.9286C28.0467 43.7282 27.8463 43.1271 28.1468 42.6262L32.154 34.612C32.755 33.4098 34.5583 34.3114 33.9572 35.5136L29.95 43.5279C29.7497 43.8284 29.4492 44.0287 29.0484 44.0287ZM40.7693 39.7211L36.7622 43.7282C36.3615 44.1289 35.7604 44.1289 35.3597 43.7282C34.959 43.3275 34.959 42.7264 35.3597 42.3257L38.6656 39.0198L35.3597 35.7139C34.4581 34.8123 35.8606 33.4098 36.7622 34.3114L40.7693 38.3186C41.17 38.7193 41.17 39.3204 40.7693 39.7211Z" fill="white"/>
<path d="M2.00357 22.4901V11.4704L16.0286 2.15384L30.0536 11.4704V18.9838C30.0536 20.2862 32.0571 20.2862 32.0571 18.9838V10.9696C32.0571 10.669 31.8568 10.3685 31.6564 10.1681L16.6296 0.150268C16.3291 -0.0500893 15.8282 -0.0500893 15.5277 0.150268L0.500893 10.1681C0.200357 10.3685 0 10.669 0 10.9696V22.991C0 23.2915 0.200357 23.5921 0.400714 23.7924L12.1216 31.6063C12.322 31.7065 12.5223 31.8067 12.7227 31.8067C13.7245 31.8067 14.1252 30.5044 13.3238 30.0035C13.2236 29.9033 2.00357 22.4901 2.00357 22.4901Z" fill="white"/>
<path d="M61.7079 10.1681L46.6811 0.150268C46.3806 -0.0500893 45.8797 -0.0500893 45.5792 0.150268L33.8583 7.9642C33.3574 8.26473 33.2572 8.8658 33.5577 9.3667C33.8583 9.86759 34.4593 9.96777 34.9602 9.66723L46.08 2.15384L60.1051 11.4704V22.3899L48.885 29.9033C47.7831 30.6046 48.8851 32.3076 49.987 31.6063L61.7079 23.7924C62.0084 23.5921 62.1086 23.2915 62.1086 22.991V10.9696C62.1086 10.669 61.9083 10.3685 61.7079 10.1681Z" fill="white"/>
<path d="M9.21889 21.5883C9.61961 21.989 10.2207 22.0892 10.6214 21.6885L16.6321 16.6795C16.8325 16.4792 17.0328 16.1787 17.0328 15.8781C17.0328 15.5776 16.9326 15.277 16.6321 15.0767L10.6214 10.0678C9.61961 9.26633 8.31729 10.769 9.31907 11.5704L14.4282 15.7779L9.31907 19.9854C8.91836 20.5865 8.91836 21.1876 9.21889 21.5883Z" fill="white"/>
<path d="M18.0334 21.9894H24.0441C25.3464 21.9894 25.3464 19.9858 24.0441 19.9858H18.0334C16.7311 19.9858 16.7311 21.9894 18.0334 21.9894Z" fill="white"/>
<path d="M42.0783 20.9872H50.0926C51.3949 20.9872 51.3949 18.9836 50.0926 18.9836H42.0783C40.776 18.9836 40.776 20.9872 42.0783 20.9872Z" fill="white"/>
<path d="M42.0783 14.9767H50.0926C51.3949 14.9767 51.3949 12.9731 50.0926 12.9731H42.0783C40.776 12.9731 40.776 14.9767 42.0783 14.9767Z" fill="white"/>
</svg>
