<?xml version="1.0" encoding="utf-8"?>
<!-- Generator: Adobe Illustrator 27.3.1, SVG Export Plug-In . SVG Version: 6.00 Build 0)  -->
<svg version="1.1" xmlns="http://www.w3.org/2000/svg" xmlns:xlink="http://www.w3.org/1999/xlink" x="0px" y="0px"
	 viewBox="0 0 1080 1080" style="enable-background:new 0 0 1080 1080;" xml:space="preserve">
<style type="text/css">
	.st0{fill:none;stroke:#09D1FF;stroke-width:12;stroke-linecap:round;stroke-linejoin:round;stroke-miterlimit:10;}
	.st1{fill:none;stroke:#FF6702;stroke-width:12;stroke-linecap:round;stroke-linejoin:round;stroke-miterlimit:10;}
</style>
<g id="_x34_">
	<g>
		<circle class="st0" cx="357.64" cy="678.55" r="21.72"/>
		<circle class="st0" cx="420.8" cy="735.37" r="21.72"/>
		<circle class="st0" cx="511.71" cy="720.33" r="21.72"/>
		<circle class="st0" cx="581.89" cy="748.74" r="21.72"/>
		<circle class="st0" cx="659.1" cy="720.33" r="21.72"/>
		<circle class="st0" cx="721.93" cy="692.92" r="21.72"/>
		<circle class="st0" cx="602.95" cy="622.74" r="21.72"/>
		<circle class="st0" cx="518.73" cy="650.81" r="21.72"/>
	</g>
</g>
<g id="_x33_">
	<g>
		<polyline class="st0" points="394.07,573.05 394.07,641.79 372.23,662.73 		"/>
		<polyline class="st0" points="435.84,575.65 435.84,635.1 420.13,652.15 420.13,711.64 		"/>
		<polyline class="st0" points="476.06,575.73 476.06,685.91 494.78,704.4 		"/>
		<line class="st0" x1="520.06" y1="575.84" x2="520.06" y2="628.38"/>
		<polyline class="st0" points="561.17,574.43 561.17,659.17 582.12,680.11 582.12,726.01 		"/>
		<line class="st0" x1="603.06" y1="574.91" x2="603.06" y2="600.87"/>
		<polyline class="st0" points="644.28,574.65 644.28,664.29 659.54,679.56 659.54,697.57 		"/>
		<polyline class="st0" points="687.28,572.42 687.28,657.39 704.77,674.88 		"/>
	</g>
</g>
<g id="_x32_">
	<path class="st0" d="M666.45,420.87c-8.32,0-16.32,1.33-23.82,3.78c-8.24-49.49-51.24-87.22-103.07-87.22
		c-51.78,0-94.75,37.66-103.04,87.08c-7.38-2.36-15.24-3.64-23.4-3.64c-42.36,0-76.7,34.34-76.7,76.7s34.34,76.7,76.7,76.7h253.33
		c42.36,0,76.7-34.34,76.7-76.7S708.81,420.87,666.45,420.87z"/>
</g>
<g id="_x31_">
	<g>
		<path class="st1" d="M614.42,480.8l-0.22-30.97l-11.59-0.89c-1.1-5.25-3.37-10.6-6.68-16.04l7.13-8.69l-21.39-22.06l-9.8,7.8
			c-5-3.25-10.52-6.54-16.49-7.8l-0.45-12.03h-29.37l-0.45,12.03c-5.97,1.26-11.49,4.55-16.49,7.8l-9.8-7.8l-21.39,22.06l7.13,8.69
			c-3.31,5.44-5.58,10.79-6.68,16.04l-11.59,0.89l-0.22,30.97l10.92,0.89c1.71,6.32,4.1,12.08,7.35,17.16l-6.91,9.14l20.72,20.28
			l10.69-7.13c4.81,3.78,10.22,6.73,16.04,9.14l0.67,10.92h29.37l0.67-10.92c5.82-2.4,11.23-5.36,16.04-9.14l10.69,7.13l20.72-20.28
			l-6.91-9.14c3.25-5.08,5.65-10.84,7.35-17.16L614.42,480.8z"/>
		<circle class="st1" cx="540.12" cy="466.43" r="40.44"/>
	</g>
</g>
</svg>
