<svg width="48" height="48" viewBox="0 0 48 48" fill="none" xmlns="http://www.w3.org/2000/svg">
<path d="M19.4254 42.975H12.9004C12.4504 42.975 12.1504 43.275 12.1504 43.725C12.1504 44.175 12.4504 44.475 12.9004 44.475H19.4254C19.8754 44.475 20.1754 44.175 20.1754 43.725C20.1754 43.275 19.8004 42.975 19.4254 42.975Z" fill="#13CFFE"/>
<path d="M44.25 20.25C42.45 20.25 40.95 21.525 40.575 23.25H32.325V14.7H36.975C38.625 14.7 39.975 13.35 39.975 11.7V10.5C41.25 10.2 42.225 9 42.225 7.575C42.225 5.925 40.875 4.575 39.225 4.575C37.575 4.575 36.225 5.925 36.225 7.575C36.225 9 37.2 10.125 38.475 10.5V11.7C38.475 12.525 37.8 13.2 36.975 13.2H32.325V4.5C32.325 2.025 30.3 0 27.825 0H4.5C2.025 0 0 2.025 0 4.5V17.4C0 17.85 0.3 18.15 0.75 18.15C1.2 18.15 1.5 17.85 1.5 17.4V4.5C1.5 2.85 2.85 1.5 4.5 1.5H27.825C29.475 1.5 30.825 2.85 30.825 4.5V39.975H1.5V21.15C1.5 20.7 1.2 20.4 0.75 20.4C0.3 20.4 0 20.7 0 21.15C0 25.875 0 40.35 0 43.5C0 45.975 2.025 48 4.5 48H27.825C30.3 48 32.325 45.975 32.325 43.5V33.3H39.225C40.05 33.3 40.725 33.975 40.725 34.8V36.75C39.45 37.05 38.475 38.25 38.475 39.675C38.475 41.325 39.825 42.675 41.475 42.675C43.125 42.675 44.475 41.325 44.475 39.675C44.475 38.25 43.5 37.125 42.225 36.75V34.8C42.225 33.15 40.875 31.8 39.225 31.8H32.325V24.75H40.575C40.95 26.475 42.45 27.75 44.25 27.75C46.35 27.75 48 26.1 48 24C48 21.9 46.35 20.25 44.25 20.25ZM37.725 7.575C37.725 6.75 38.4 6.075 39.225 6.075C40.05 6.075 40.725 6.75 40.725 7.575C40.725 8.4 40.05 9.075 39.225 9.075C38.4 9.075 37.725 8.4 37.725 7.575ZM42.975 39.675C42.975 40.5 42.3 41.175 41.475 41.175C40.65 41.175 39.975 40.5 39.975 39.675C39.975 38.85 40.65 38.175 41.475 38.175C42.3 38.175 42.975 38.85 42.975 39.675ZM27.825 46.5H4.5C2.85 46.5 1.5 45.15 1.5 43.5V41.475H30.825V43.5C30.825 45.15 29.475 46.5 27.825 46.5ZM44.25 26.25C42.975 26.25 42 25.275 42 24C42 22.725 42.975 21.75 44.25 21.75C45.525 21.75 46.5 22.725 46.5 24C46.5 25.275 45.525 26.25 44.25 26.25Z" fill="#13CFFE"/>
<path d="M10.4438 18.0868C10.4438 17.9169 10.3041 17.7786 10.1322 17.7786C9.96239 17.7786 9.82422 17.9168 9.82422 18.0868C9.82422 18.2589 9.96239 18.3989 10.1322 18.3989C10.3011 18.399 10.4438 18.256 10.4438 18.0868Z" fill="#FF6700"/>
<path d="M9.98242 13.9795C9.98242 14.1473 10.1205 14.2839 10.2904 14.2839C10.4603 14.2839 10.5984 14.1473 10.5984 13.9795C10.5984 13.8095 10.4602 13.6711 10.2904 13.6711C10.1206 13.6711 9.98242 13.8095 9.98242 13.9795Z" fill="#FF6700"/>
<path d="M7.5631 19.2019C7.7329 19.2019 7.87108 19.0637 7.87108 18.8937C7.87108 18.7237 7.7329 18.5854 7.5631 18.5854C7.39593 18.5854 7.25916 18.7164 7.25195 18.8801C7.25353 18.8898 7.25453 18.8995 7.25488 18.9094C7.25488 18.9097 7.25494 18.9099 7.255 18.9103C7.26138 19.0738 7.39657 19.2019 7.5631 19.2019Z" fill="#FF6700"/>
<path d="M12.3694 16.9561C12.3694 16.7842 12.2313 16.6444 12.0614 16.6444C11.8926 16.6444 11.75 16.7872 11.75 16.9561C11.75 17.1261 11.8897 17.2644 12.0614 17.2644C12.2313 17.2644 12.3694 17.1261 12.3694 16.9561Z" fill="#FF6700"/>
<path d="M12.9028 10.9937C12.7832 10.9937 12.6846 11.0015 12.5925 11.0181C12.5891 11.0188 12.5857 11.0193 12.5822 11.0198C11.4583 11.1719 10.6053 12.126 10.5686 13.2551C10.8595 13.3674 11.0668 13.6493 11.0668 13.9795C11.0668 14.4057 10.7184 14.7525 10.2902 14.7525C9.86204 14.7525 9.51365 14.4057 9.51365 13.9795C9.51365 13.6167 9.76393 13.312 10.1006 13.2269C10.1397 12.1764 10.7672 11.2539 11.6778 10.8103C11.5962 10.8037 11.5139 10.7999 11.4309 10.7999C9.82057 10.7999 8.48668 12.1096 8.45745 13.7194V13.7751C8.45745 15.375 9.72662 16.6833 11.3104 16.7468C11.4022 16.418 11.7036 16.1757 12.0612 16.1757C12.4894 16.1757 12.8378 16.5257 12.8378 16.9559C12.8378 17.3843 12.4894 17.7329 12.0612 17.7329C11.7227 17.7329 11.4347 17.5166 11.327 17.2158C9.57685 17.1635 8.15134 15.7987 8.00257 14.0733C7.57949 14.347 7.26436 14.763 7.12033 15.2506C7.0586 15.4489 7.02779 15.6553 7.02779 15.8675C7.02779 17.025 8.24202 17.6307 9.44143 17.6307C9.46122 17.6307 9.48014 17.6339 9.49853 17.6385C9.6394 17.4401 9.87036 17.3101 10.1316 17.3101C10.5618 17.3101 10.9118 17.6585 10.9118 18.0869C10.9118 18.5175 10.5618 18.8676 10.1316 18.8676C9.70706 18.8676 9.36147 18.5233 9.35556 18.0978C7.95184 18.0678 6.55926 17.3034 6.55926 15.8675C6.55926 15.7783 6.56412 15.6898 6.57302 15.6022C5.79124 16.1553 5.32002 17.0525 5.32002 18.0309C5.32002 18.4939 5.42416 18.9357 5.62934 19.3477C5.97627 19.0705 6.37475 18.8622 6.80087 18.7359C6.87432 18.383 7.1888 18.1169 7.56461 18.1169C7.99284 18.1169 8.34118 18.4654 8.34118 18.8938C8.34118 19.3221 7.99278 19.6706 7.56461 19.6706C7.2465 19.6706 6.97437 19.4829 6.85406 19.2107C6.43707 19.3473 6.05283 19.5746 5.7329 19.8778C5.13041 20.4463 4.79883 21.2152 4.79883 22.0434C4.79883 22.7759 5.06217 23.4642 5.54488 24.0101C6.03198 22.864 7.11354 22.0587 8.35823 21.9296C8.45938 21.6188 8.75026 21.3935 9.09291 21.3935C9.52109 21.3935 9.86942 21.7419 9.86942 22.1703C9.86942 22.5987 9.52109 22.9471 9.09291 22.9471C8.74663 22.9471 8.45276 22.7172 8.35465 22.4013C7.20333 22.5413 6.22129 23.3519 5.87277 24.4734C5.7838 24.7535 5.73887 25.0496 5.73887 25.3552C5.73887 26.9866 6.69368 28.1579 8.09593 28.3038C8.07186 28.1617 8.05927 28.0156 8.05927 27.8669C8.05927 26.6547 8.90706 25.6029 10.0665 25.329C10.0665 25.3271 10.0662 25.3252 10.0662 25.3232C10.0662 24.8948 10.4146 24.5463 10.8428 24.5463C11.271 24.5463 11.6194 24.8948 11.6194 25.3232C11.6194 25.7536 11.271 26.1037 10.8428 26.1037C10.583 26.1037 10.3532 25.9744 10.2122 25.7769C9.24192 25.9872 8.52785 26.8593 8.52785 27.8669C8.52785 28.0819 8.55861 28.2895 8.61935 28.4838C8.89529 29.3913 9.71783 29.9999 10.6668 29.9999C11.0791 29.9999 11.4772 29.8837 11.8179 29.6638C11.8819 29.6224 11.9622 29.6147 12.033 29.6436C12.3047 29.7538 12.5973 29.8097 12.9028 29.8097C14.189 29.8097 15.2355 28.7627 15.2355 27.4758V13.331C15.2355 12.7106 14.992 12.1238 14.5499 11.6786C14.1089 11.2371 13.5238 10.9937 12.9028 10.9937Z" fill="#FF6700"/>
<path d="M9.40346 22.1702C9.40346 22.0031 9.26242 21.8619 9.09554 21.8619C8.92761 21.8619 8.79102 22.0002 8.79102 22.1702C8.79102 22.343 8.9248 22.4784 9.09554 22.4784C9.26821 22.4784 9.40346 22.3431 9.40346 22.1702Z" fill="#FF6700"/>
<path d="M11.1492 25.323C11.1492 25.1531 11.011 25.0148 10.8412 25.0148C10.6713 25.0148 10.5332 25.153 10.5332 25.323C10.5332 25.4951 10.6714 25.635 10.8412 25.635C11.011 25.635 11.1492 25.495 11.1492 25.323Z" fill="#FF6700"/>
<path d="M21.5913 18.0868C21.5913 17.9169 21.7311 17.7786 21.903 17.7786C22.0728 17.7786 22.2109 17.9168 22.2109 18.0868C22.2109 18.2589 22.0728 18.3989 21.903 18.3989C21.734 18.399 21.5913 18.256 21.5913 18.0868Z" fill="#FF6700"/>
<path d="M22.0527 13.9795C22.0527 14.1473 21.9146 14.2839 21.7448 14.2839C21.5749 14.2839 21.4368 14.1473 21.4368 13.9795C21.4368 13.8095 21.5749 13.6711 21.7448 13.6711C21.9146 13.6711 22.0527 13.8095 22.0527 13.9795Z" fill="#FF6700"/>
<path d="M24.4721 19.2019C24.3023 19.2019 24.1641 19.0637 24.1641 18.8937C24.1641 18.7237 24.3023 18.5854 24.4721 18.5854C24.6392 18.5854 24.776 18.7164 24.7832 18.8801C24.7816 18.8898 24.7806 18.8995 24.7803 18.9094C24.7803 18.9097 24.7802 18.9099 24.7802 18.9103C24.7738 19.0738 24.6386 19.2019 24.4721 19.2019Z" fill="#FF6700"/>
<path d="M19.6657 16.9561C19.6657 16.7842 19.8039 16.6444 19.9737 16.6444C20.1425 16.6444 20.2852 16.7872 20.2852 16.9561C20.2852 17.1261 20.1455 17.2644 19.9737 17.2644C19.8039 17.2644 19.6657 17.1261 19.6657 16.9561Z" fill="#FF6700"/>
<path d="M19.1323 10.9937C19.2519 10.9937 19.3506 11.0015 19.4426 11.0181C19.4461 11.0188 19.4495 11.0193 19.453 11.0198C20.5768 11.1719 21.4298 12.126 21.4666 13.2551C21.1757 13.3674 20.9684 13.6493 20.9684 13.9795C20.9684 14.4057 21.3168 14.7525 21.7449 14.7525C22.1731 14.7525 22.5215 14.4057 22.5215 13.9795C22.5215 13.6167 22.2712 13.312 21.9345 13.2269C21.8955 12.1764 21.268 11.2539 20.3574 10.8103C20.439 10.8037 20.5212 10.7999 20.6042 10.7999C22.2146 10.7999 23.5485 12.1096 23.5777 13.7194V13.7751C23.5777 15.375 22.3085 16.6833 20.7247 16.7468C20.633 16.418 20.3316 16.1757 19.974 16.1757C19.5457 16.1757 19.1974 16.5257 19.1974 16.9559C19.1974 17.3843 19.5457 17.7329 19.974 17.7329C20.3125 17.7329 20.6005 17.5166 20.7081 17.2158C22.4583 17.1635 23.8838 15.7987 24.0326 14.0733C24.4557 14.347 24.7708 14.763 24.9148 15.2506C24.9766 15.4489 25.0074 15.6553 25.0074 15.8675C25.0074 17.025 23.7931 17.6307 22.5937 17.6307C22.5739 17.6307 22.555 17.6339 22.5366 17.6385C22.3958 17.4401 22.1648 17.3101 21.9036 17.3101C21.4733 17.3101 21.1234 17.6585 21.1234 18.0869C21.1234 18.5175 21.4733 18.8676 21.9036 18.8676C22.3281 18.8676 22.6737 18.5233 22.6796 18.0978C24.0833 18.0678 25.4759 17.3034 25.4759 15.8675C25.4759 15.7783 25.471 15.6898 25.4621 15.6022C26.2439 16.1553 26.7151 17.0525 26.7151 18.0309C26.7151 18.4939 26.611 18.9357 26.4058 19.3477C26.0589 19.0705 25.6604 18.8622 25.2343 18.7359C25.1608 18.383 24.8464 18.1169 24.4705 18.1169C24.0423 18.1169 23.694 18.4654 23.694 18.8938C23.694 19.3221 24.0424 19.6706 24.4705 19.6706C24.7887 19.6706 25.0608 19.4829 25.1811 19.2107C25.5981 19.3473 25.9823 19.5746 26.3023 19.8778C26.9047 20.4463 27.2363 21.2152 27.2363 22.0434C27.2363 22.7759 26.973 23.4642 26.4903 24.0101C26.0032 22.864 24.9216 22.0587 23.6769 21.9296C23.5758 21.6188 23.2849 21.3935 22.9422 21.3935C22.5141 21.3935 22.1657 21.7419 22.1657 22.1703C22.1657 22.5987 22.5141 22.9471 22.9422 22.9471C23.2885 22.9471 23.5824 22.7172 23.6805 22.4013C24.8318 22.5413 25.8139 23.3519 26.1624 24.4734C26.2514 24.7535 26.2963 25.0496 26.2963 25.3552C26.2963 26.9866 25.3415 28.1579 23.9392 28.3038C23.9633 28.1617 23.9759 28.0156 23.9759 27.8669C23.9759 26.6547 23.1281 25.6029 21.9686 25.329C21.9686 25.3271 21.9689 25.3252 21.9689 25.3232C21.9689 24.8948 21.6205 24.5463 21.1924 24.5463C20.7642 24.5463 20.4158 24.8948 20.4158 25.3232C20.4158 25.7536 20.7641 26.1037 21.1924 26.1037C21.4521 26.1037 21.6819 25.9744 21.823 25.7769C22.7932 25.9872 23.5073 26.8593 23.5073 27.8669C23.5073 28.0819 23.4766 28.2895 23.4158 28.4838C23.1399 29.3913 22.3173 29.9999 21.3684 29.9999C20.956 29.9999 20.558 29.8837 20.2173 29.6638C20.1533 29.6224 20.073 29.6147 20.0021 29.6436C19.7304 29.7538 19.4378 29.8097 19.1324 29.8097C17.8462 29.8097 16.7997 28.7627 16.7997 27.4758V13.331C16.7997 12.7106 17.0432 12.1238 17.4852 11.6786C17.9262 11.2371 18.5113 10.9937 19.1323 10.9937Z" fill="#FF6700"/>
<path d="M22.6317 22.1702C22.6317 22.0031 22.7727 21.8619 22.9396 21.8619C23.1075 21.8619 23.2441 22.0002 23.2441 22.1702C23.2441 22.343 23.1104 22.4784 22.9396 22.4784C22.7669 22.4784 22.6317 22.3431 22.6317 22.1702Z" fill="#FF6700"/>
<path d="M20.886 25.323C20.886 25.1531 21.0241 25.0148 21.194 25.0148C21.3638 25.0148 21.502 25.153 21.502 25.323C21.502 25.4951 21.3638 25.635 21.194 25.635C21.0242 25.635 20.886 25.495 20.886 25.323Z" fill="#FF6700"/>
</svg>
