<svg width="47" height="58" viewBox="0 0 47 58" fill="none" xmlns="http://www.w3.org/2000/svg">
<mask id="path-1-outside-1_936_86" maskUnits="userSpaceOnUse" x="0" y="0" width="47" height="58" fill="black">
<rect fill="white" width="47" height="58"/>
<path fill-rule="evenodd" clip-rule="evenodd" d="M10.2887 34.5714H7.33974C5.59771 34.5714 4.01122 33.8559 2.86024 32.7111C1.70925 31.5602 1 29.9737 1 28.2316C1 26.7323 1.52883 25.3449 2.41229 24.2561C3.17131 23.3229 4.18542 22.6012 5.34885 22.2092C5.27419 21.8919 5.21198 21.5746 5.16843 21.2511C5.08755 20.7098 5.05022 20.1623 5.05022 19.6024C5.05022 16.9769 5.95234 14.5567 7.45795 12.6343C8.92001 10.774 10.9607 9.38662 13.3124 8.73336C14.0466 6.5185 15.4464 4.60849 17.2755 3.23975C19.1544 1.83369 21.4937 1 24.0197 1C26.5456 1 28.8289 1.81502 30.7016 3.18998C32.5121 4.52761 33.9119 6.38785 34.6709 8.55916C37.1844 9.08177 39.3931 10.4443 40.9858 12.3419C42.6345 14.3016 43.6299 16.8338 43.6299 19.5962C43.6299 20.1934 43.5802 20.7907 43.4868 21.3817C43.4246 21.7799 43.3375 22.1719 43.238 22.5514C44.2023 23.0367 45.0236 23.7584 45.6333 24.6418C46.3301 25.6621 46.7407 26.894 46.7407 28.213C46.7407 29.955 46.0252 31.5415 44.8805 32.6925C43.7295 33.8435 42.143 34.5527 40.401 34.5527H37.4519V39.5859C37.4519 39.9468 37.1595 40.2392 36.7987 40.2392H10.942C10.5812 40.2392 10.2887 39.9468 10.2887 39.5859V34.5527V34.5714ZM38.8891 44.7249C39.5735 44.7249 40.1956 45.0049 40.6498 45.4528C41.0978 45.9008 41.3777 46.5229 41.3777 47.2135C41.3777 47.9041 41.0978 48.5263 40.6498 48.9742C40.2019 49.4222 39.5797 49.7021 38.8891 49.7021C38.1985 49.7021 37.5764 49.4222 37.1284 48.9742C36.8298 48.6756 36.5996 48.2961 36.4876 47.873H31.6659C31.3051 47.873 31.0127 47.5806 31.0127 47.2197V42.0621C31.0127 41.7013 31.3051 41.4088 31.6659 41.4088C32.0268 41.4088 32.3192 41.7013 32.3192 42.0621V46.5665H36.4814C36.5996 46.1434 36.8236 45.7639 37.1222 45.4653C37.5702 45.0173 38.1923 44.7374 38.8829 44.7374L38.8891 44.7249ZM39.7228 46.3798C39.5113 46.1683 39.2126 46.0377 38.8891 46.0377C38.5656 46.0377 38.267 46.1683 38.0554 46.3798C37.8439 46.5914 37.7133 46.89 37.7133 47.2135C37.7133 47.5371 37.8439 47.8357 38.0554 48.0472C38.267 48.2587 38.5656 48.3894 38.8891 48.3894C39.2126 48.3894 39.5113 48.2587 39.7228 48.0472C39.9343 47.8357 40.065 47.5371 40.065 47.2135C40.065 46.89 39.9343 46.5914 39.7228 46.3798ZM24.592 52.1099C25.0151 52.2281 25.3946 52.4521 25.6933 52.7507C26.1412 53.1986 26.4212 53.8208 26.4212 54.5114C26.4212 55.202 26.1412 55.8241 25.6933 56.2721C25.2453 56.72 24.6232 57 23.9326 57C23.242 57 22.6198 56.72 22.1719 56.2721C21.7239 55.8241 21.444 55.202 21.444 54.5114C21.444 53.8208 21.7239 53.1986 22.1719 52.7507C22.4705 52.4521 22.85 52.2219 23.2731 52.1099V42.6656C23.2731 42.3047 23.5655 42.0123 23.9263 42.0123C24.2872 42.0123 24.5796 42.3047 24.5796 42.6656V52.1099H24.592ZM24.7662 53.6777C24.5547 53.4662 24.2561 53.3355 23.9326 53.3355C23.609 53.3355 23.3104 53.4662 23.0989 53.6777C22.8873 53.8892 22.7567 54.1879 22.7567 54.5114C22.7567 54.8349 22.8873 55.1335 23.0989 55.3451C23.3104 55.5566 23.609 55.6873 23.9326 55.6873C24.2561 55.6873 24.5547 55.5566 24.7662 55.3451C24.9778 55.1335 25.1084 54.8349 25.1084 54.5114C25.1084 54.1879 24.9778 53.8892 24.7662 53.6777ZM8.83913 44.7187C9.5235 44.7187 10.1519 44.9987 10.5998 45.4466C10.8985 45.7452 11.1287 46.1248 11.2406 46.5478H15.4028V42.0434C15.4028 41.6826 15.6953 41.3902 16.0561 41.3902C16.417 41.3902 16.7094 41.6826 16.7094 42.0434V47.2011C16.7094 47.5619 16.417 47.8543 16.0561 47.8543H11.2344C11.1162 48.2774 10.8922 48.6569 10.5936 48.9556C10.1457 49.4035 9.5235 49.6835 8.83291 49.6835C8.14232 49.6835 7.52016 49.4035 7.07221 48.9556C6.62426 48.5076 6.3443 47.8855 6.3443 47.1949C6.3443 46.5043 6.62426 45.8821 7.07221 45.4342C7.52016 44.9862 8.14232 44.7063 8.83291 44.7063L8.83913 44.7187ZM9.67281 46.3736C9.46128 46.1621 9.16265 46.0314 8.83913 46.0314C8.51561 46.0314 8.21698 46.1621 8.00544 46.3736C7.79391 46.5852 7.66326 46.8838 7.66326 47.2073C7.66326 47.5308 7.79391 47.8295 8.00544 48.041C8.21698 48.2525 8.51561 48.3832 8.83913 48.3832C9.16265 48.3832 9.46128 48.2525 9.67281 48.041C9.88435 47.8295 10.015 47.5308 10.015 47.2073C10.015 46.8838 9.88435 46.5852 9.67281 46.3736ZM14.762 36.8422H14.818C15.1789 36.8422 15.4713 36.5498 15.4713 36.189C15.4713 35.8281 15.1789 35.5357 14.818 35.5357H14.762C14.4012 35.5357 14.1088 35.8281 14.1088 36.189C14.1088 36.5498 14.4012 36.8422 14.762 36.8422ZM22.0785 36.8422H32.9662C33.3271 36.8422 33.6195 36.5498 33.6195 36.189C33.6195 35.8281 33.3271 35.5357 32.9662 35.5357H22.0785C21.7177 35.5357 21.4253 35.8281 21.4253 36.189C21.4253 36.5498 21.7177 36.8422 22.0785 36.8422ZM14.762 27.6406H14.818C15.1789 27.6406 15.4713 27.3482 15.4713 26.9873C15.4713 26.6265 15.1789 26.3341 14.818 26.3341H14.762C14.4012 26.3341 14.1088 26.6265 14.1088 26.9873C14.1088 27.3482 14.4012 27.6406 14.762 27.6406ZM22.0785 27.6406H32.9662C33.3271 27.6406 33.6195 27.3482 33.6195 26.9873C33.6195 26.6265 33.3271 26.3341 32.9662 26.3341H22.0785C21.7177 26.3341 21.4253 26.6265 21.4253 26.9873C21.4253 27.3482 21.7177 27.6406 22.0785 27.6406ZM14.762 18.439H14.818C15.1789 18.439 15.4713 18.1465 15.4713 17.7857C15.4713 17.4248 15.1789 17.1324 14.818 17.1324H14.762C14.4012 17.1324 14.1088 17.4248 14.1088 17.7857C14.1088 18.1465 14.4012 18.439 14.762 18.439ZM22.0785 18.439H32.9662C33.3271 18.439 33.6195 18.1465 33.6195 17.7857C33.6195 17.4248 33.3271 17.1324 32.9662 17.1324H22.0785C21.7177 17.1324 21.4253 17.4248 21.4253 17.7857C21.4253 18.1465 21.7177 18.439 22.0785 18.439ZM37.4395 33.2524H40.3885C41.7697 33.2524 43.0264 32.6863 43.941 31.7717C44.8556 30.8571 45.4217 29.6004 45.4217 28.2192C45.4217 27.1678 45.0982 26.191 44.5445 25.3822C43.9783 24.5547 43.1758 23.9077 42.2301 23.5344C41.8879 23.4224 41.7013 23.0553 41.8132 22.7131C41.975 22.2154 42.1057 21.699 42.1865 21.1764C42.2674 20.6725 42.311 20.1437 42.311 19.5962C42.311 17.1511 41.4337 14.9113 39.9779 13.1818C38.4972 11.4211 36.4192 10.183 34.0488 9.77858C33.8124 9.73503 33.607 9.56705 33.5324 9.32441C32.8978 7.2713 31.6099 5.49817 29.9177 4.24764C28.269 3.02822 26.2221 2.31274 24.0134 2.31274C21.8048 2.31274 19.7144 3.04688 18.0532 4.29119C16.3485 5.5666 15.0669 7.37085 14.4509 9.45506C14.3887 9.67281 14.2083 9.84702 13.9781 9.90923C11.7695 10.4381 9.85324 11.7073 8.49072 13.4431C7.15932 15.1353 6.36296 17.2755 6.36296 19.5962C6.36296 20.0939 6.40029 20.5792 6.46873 21.052C6.53716 21.5373 6.64293 22.0101 6.78602 22.4705C6.78602 22.4892 6.79225 22.5016 6.79847 22.5203C6.87313 22.8749 6.64915 23.2233 6.29452 23.298C5.14976 23.5468 4.14809 24.1814 3.43884 25.0649C2.74203 25.9297 2.31896 27.0247 2.31896 28.2192C2.31896 29.6004 2.88512 30.8571 3.79969 31.7717C4.71425 32.6863 5.971 33.2524 7.35218 33.2524H10.3012V32.7796C10.3012 32.4187 10.5936 32.1263 10.9544 32.1263H36.7925C37.1533 32.1263 37.4457 32.4187 37.4457 32.7796V33.2524H37.4395ZM36.1268 33.4328H11.6015V38.9389H36.133V33.4328H36.1268ZM10.942 22.9185C10.5812 22.9185 10.2887 23.2109 10.2887 23.5717V30.3905C10.2887 30.7514 10.5812 31.0438 10.942 31.0438H36.78C37.1409 31.0438 37.4333 30.7514 37.4333 30.3905V23.5717C37.4333 23.2109 37.1409 22.9185 36.78 22.9185H10.942ZM36.1268 24.2312H11.6015V29.7373H36.133V24.2312H36.1268ZM10.942 13.7293C10.5812 13.7293 10.2887 14.0217 10.2887 14.3825V21.2013C10.2887 21.5622 10.5812 21.8546 10.942 21.8546H36.78C37.1409 21.8546 37.4333 21.5622 37.4333 21.2013V14.3825C37.4333 14.0217 37.1409 13.7293 36.78 13.7293H10.942ZM36.1268 15.042H11.6015V20.5481H36.133V15.042H36.1268Z"/>
</mask>
<path fill-rule="evenodd" clip-rule="evenodd" d="M10.2887 34.5714H7.33974C5.59771 34.5714 4.01122 33.8559 2.86024 32.7111C1.70925 31.5602 1 29.9737 1 28.2316C1 26.7323 1.52883 25.3449 2.41229 24.2561C3.17131 23.3229 4.18542 22.6012 5.34885 22.2092C5.27419 21.8919 5.21198 21.5746 5.16843 21.2511C5.08755 20.7098 5.05022 20.1623 5.05022 19.6024C5.05022 16.9769 5.95234 14.5567 7.45795 12.6343C8.92001 10.774 10.9607 9.38662 13.3124 8.73336C14.0466 6.5185 15.4464 4.60849 17.2755 3.23975C19.1544 1.83369 21.4937 1 24.0197 1C26.5456 1 28.8289 1.81502 30.7016 3.18998C32.5121 4.52761 33.9119 6.38785 34.6709 8.55916C37.1844 9.08177 39.3931 10.4443 40.9858 12.3419C42.6345 14.3016 43.6299 16.8338 43.6299 19.5962C43.6299 20.1934 43.5802 20.7907 43.4868 21.3817C43.4246 21.7799 43.3375 22.1719 43.238 22.5514C44.2023 23.0367 45.0236 23.7584 45.6333 24.6418C46.3301 25.6621 46.7407 26.894 46.7407 28.213C46.7407 29.955 46.0252 31.5415 44.8805 32.6925C43.7295 33.8435 42.143 34.5527 40.401 34.5527H37.4519V39.5859C37.4519 39.9468 37.1595 40.2392 36.7987 40.2392H10.942C10.5812 40.2392 10.2887 39.9468 10.2887 39.5859V34.5527V34.5714ZM38.8891 44.7249C39.5735 44.7249 40.1956 45.0049 40.6498 45.4528C41.0978 45.9008 41.3777 46.5229 41.3777 47.2135C41.3777 47.9041 41.0978 48.5263 40.6498 48.9742C40.2019 49.4222 39.5797 49.7021 38.8891 49.7021C38.1985 49.7021 37.5764 49.4222 37.1284 48.9742C36.8298 48.6756 36.5996 48.2961 36.4876 47.873H31.6659C31.3051 47.873 31.0127 47.5806 31.0127 47.2197V42.0621C31.0127 41.7013 31.3051 41.4088 31.6659 41.4088C32.0268 41.4088 32.3192 41.7013 32.3192 42.0621V46.5665H36.4814C36.5996 46.1434 36.8236 45.7639 37.1222 45.4653C37.5702 45.0173 38.1923 44.7374 38.8829 44.7374L38.8891 44.7249ZM39.7228 46.3798C39.5113 46.1683 39.2126 46.0377 38.8891 46.0377C38.5656 46.0377 38.267 46.1683 38.0554 46.3798C37.8439 46.5914 37.7133 46.89 37.7133 47.2135C37.7133 47.5371 37.8439 47.8357 38.0554 48.0472C38.267 48.2587 38.5656 48.3894 38.8891 48.3894C39.2126 48.3894 39.5113 48.2587 39.7228 48.0472C39.9343 47.8357 40.065 47.5371 40.065 47.2135C40.065 46.89 39.9343 46.5914 39.7228 46.3798ZM24.592 52.1099C25.0151 52.2281 25.3946 52.4521 25.6933 52.7507C26.1412 53.1986 26.4212 53.8208 26.4212 54.5114C26.4212 55.202 26.1412 55.8241 25.6933 56.2721C25.2453 56.72 24.6232 57 23.9326 57C23.242 57 22.6198 56.72 22.1719 56.2721C21.7239 55.8241 21.444 55.202 21.444 54.5114C21.444 53.8208 21.7239 53.1986 22.1719 52.7507C22.4705 52.4521 22.85 52.2219 23.2731 52.1099V42.6656C23.2731 42.3047 23.5655 42.0123 23.9263 42.0123C24.2872 42.0123 24.5796 42.3047 24.5796 42.6656V52.1099H24.592ZM24.7662 53.6777C24.5547 53.4662 24.2561 53.3355 23.9326 53.3355C23.609 53.3355 23.3104 53.4662 23.0989 53.6777C22.8873 53.8892 22.7567 54.1879 22.7567 54.5114C22.7567 54.8349 22.8873 55.1335 23.0989 55.3451C23.3104 55.5566 23.609 55.6873 23.9326 55.6873C24.2561 55.6873 24.5547 55.5566 24.7662 55.3451C24.9778 55.1335 25.1084 54.8349 25.1084 54.5114C25.1084 54.1879 24.9778 53.8892 24.7662 53.6777ZM8.83913 44.7187C9.5235 44.7187 10.1519 44.9987 10.5998 45.4466C10.8985 45.7452 11.1287 46.1248 11.2406 46.5478H15.4028V42.0434C15.4028 41.6826 15.6953 41.3902 16.0561 41.3902C16.417 41.3902 16.7094 41.6826 16.7094 42.0434V47.2011C16.7094 47.5619 16.417 47.8543 16.0561 47.8543H11.2344C11.1162 48.2774 10.8922 48.6569 10.5936 48.9556C10.1457 49.4035 9.5235 49.6835 8.83291 49.6835C8.14232 49.6835 7.52016 49.4035 7.07221 48.9556C6.62426 48.5076 6.3443 47.8855 6.3443 47.1949C6.3443 46.5043 6.62426 45.8821 7.07221 45.4342C7.52016 44.9862 8.14232 44.7063 8.83291 44.7063L8.83913 44.7187ZM9.67281 46.3736C9.46128 46.1621 9.16265 46.0314 8.83913 46.0314C8.51561 46.0314 8.21698 46.1621 8.00544 46.3736C7.79391 46.5852 7.66326 46.8838 7.66326 47.2073C7.66326 47.5308 7.79391 47.8295 8.00544 48.041C8.21698 48.2525 8.51561 48.3832 8.83913 48.3832C9.16265 48.3832 9.46128 48.2525 9.67281 48.041C9.88435 47.8295 10.015 47.5308 10.015 47.2073C10.015 46.8838 9.88435 46.5852 9.67281 46.3736ZM14.762 36.8422H14.818C15.1789 36.8422 15.4713 36.5498 15.4713 36.189C15.4713 35.8281 15.1789 35.5357 14.818 35.5357H14.762C14.4012 35.5357 14.1088 35.8281 14.1088 36.189C14.1088 36.5498 14.4012 36.8422 14.762 36.8422ZM22.0785 36.8422H32.9662C33.3271 36.8422 33.6195 36.5498 33.6195 36.189C33.6195 35.8281 33.3271 35.5357 32.9662 35.5357H22.0785C21.7177 35.5357 21.4253 35.8281 21.4253 36.189C21.4253 36.5498 21.7177 36.8422 22.0785 36.8422ZM14.762 27.6406H14.818C15.1789 27.6406 15.4713 27.3482 15.4713 26.9873C15.4713 26.6265 15.1789 26.3341 14.818 26.3341H14.762C14.4012 26.3341 14.1088 26.6265 14.1088 26.9873C14.1088 27.3482 14.4012 27.6406 14.762 27.6406ZM22.0785 27.6406H32.9662C33.3271 27.6406 33.6195 27.3482 33.6195 26.9873C33.6195 26.6265 33.3271 26.3341 32.9662 26.3341H22.0785C21.7177 26.3341 21.4253 26.6265 21.4253 26.9873C21.4253 27.3482 21.7177 27.6406 22.0785 27.6406ZM14.762 18.439H14.818C15.1789 18.439 15.4713 18.1465 15.4713 17.7857C15.4713 17.4248 15.1789 17.1324 14.818 17.1324H14.762C14.4012 17.1324 14.1088 17.4248 14.1088 17.7857C14.1088 18.1465 14.4012 18.439 14.762 18.439ZM22.0785 18.439H32.9662C33.3271 18.439 33.6195 18.1465 33.6195 17.7857C33.6195 17.4248 33.3271 17.1324 32.9662 17.1324H22.0785C21.7177 17.1324 21.4253 17.4248 21.4253 17.7857C21.4253 18.1465 21.7177 18.439 22.0785 18.439ZM37.4395 33.2524H40.3885C41.7697 33.2524 43.0264 32.6863 43.941 31.7717C44.8556 30.8571 45.4217 29.6004 45.4217 28.2192C45.4217 27.1678 45.0982 26.191 44.5445 25.3822C43.9783 24.5547 43.1758 23.9077 42.2301 23.5344C41.8879 23.4224 41.7013 23.0553 41.8132 22.7131C41.975 22.2154 42.1057 21.699 42.1865 21.1764C42.2674 20.6725 42.311 20.1437 42.311 19.5962C42.311 17.1511 41.4337 14.9113 39.9779 13.1818C38.4972 11.4211 36.4192 10.183 34.0488 9.77858C33.8124 9.73503 33.607 9.56705 33.5324 9.32441C32.8978 7.2713 31.6099 5.49817 29.9177 4.24764C28.269 3.02822 26.2221 2.31274 24.0134 2.31274C21.8048 2.31274 19.7144 3.04688 18.0532 4.29119C16.3485 5.5666 15.0669 7.37085 14.4509 9.45506C14.3887 9.67281 14.2083 9.84702 13.9781 9.90923C11.7695 10.4381 9.85324 11.7073 8.49072 13.4431C7.15932 15.1353 6.36296 17.2755 6.36296 19.5962C6.36296 20.0939 6.40029 20.5792 6.46873 21.052C6.53716 21.5373 6.64293 22.0101 6.78602 22.4705C6.78602 22.4892 6.79225 22.5016 6.79847 22.5203C6.87313 22.8749 6.64915 23.2233 6.29452 23.298C5.14976 23.5468 4.14809 24.1814 3.43884 25.0649C2.74203 25.9297 2.31896 27.0247 2.31896 28.2192C2.31896 29.6004 2.88512 30.8571 3.79969 31.7717C4.71425 32.6863 5.971 33.2524 7.35218 33.2524H10.3012V32.7796C10.3012 32.4187 10.5936 32.1263 10.9544 32.1263H36.7925C37.1533 32.1263 37.4457 32.4187 37.4457 32.7796V33.2524H37.4395ZM36.1268 33.4328H11.6015V38.9389H36.133V33.4328H36.1268ZM10.942 22.9185C10.5812 22.9185 10.2887 23.2109 10.2887 23.5717V30.3905C10.2887 30.7514 10.5812 31.0438 10.942 31.0438H36.78C37.1409 31.0438 37.4333 30.7514 37.4333 30.3905V23.5717C37.4333 23.2109 37.1409 22.9185 36.78 22.9185H10.942ZM36.1268 24.2312H11.6015V29.7373H36.133V24.2312H36.1268ZM10.942 13.7293C10.5812 13.7293 10.2887 14.0217 10.2887 14.3825V21.2013C10.2887 21.5622 10.5812 21.8546 10.942 21.8546H36.78C37.1409 21.8546 37.4333 21.5622 37.4333 21.2013V14.3825C37.4333 14.0217 37.1409 13.7293 36.78 13.7293H10.942ZM36.1268 15.042H11.6015V20.5481H36.133V15.042H36.1268Z" fill="white"/>
<path fill-rule="evenodd" clip-rule="evenodd" d="M10.2887 34.5714H7.33974C5.59771 34.5714 4.01122 33.8559 2.86024 32.7111C1.70925 31.5602 1 29.9737 1 28.2316C1 26.7323 1.52883 25.3449 2.41229 24.2561C3.17131 23.3229 4.18542 22.6012 5.34885 22.2092C5.27419 21.8919 5.21198 21.5746 5.16843 21.2511C5.08755 20.7098 5.05022 20.1623 5.05022 19.6024C5.05022 16.9769 5.95234 14.5567 7.45795 12.6343C8.92001 10.774 10.9607 9.38662 13.3124 8.73336C14.0466 6.5185 15.4464 4.60849 17.2755 3.23975C19.1544 1.83369 21.4937 1 24.0197 1C26.5456 1 28.8289 1.81502 30.7016 3.18998C32.5121 4.52761 33.9119 6.38785 34.6709 8.55916C37.1844 9.08177 39.3931 10.4443 40.9858 12.3419C42.6345 14.3016 43.6299 16.8338 43.6299 19.5962C43.6299 20.1934 43.5802 20.7907 43.4868 21.3817C43.4246 21.7799 43.3375 22.1719 43.238 22.5514C44.2023 23.0367 45.0236 23.7584 45.6333 24.6418C46.3301 25.6621 46.7407 26.894 46.7407 28.213C46.7407 29.955 46.0252 31.5415 44.8805 32.6925C43.7295 33.8435 42.143 34.5527 40.401 34.5527H37.4519V39.5859C37.4519 39.9468 37.1595 40.2392 36.7987 40.2392H10.942C10.5812 40.2392 10.2887 39.9468 10.2887 39.5859V34.5527V34.5714ZM38.8891 44.7249C39.5735 44.7249 40.1956 45.0049 40.6498 45.4528C41.0978 45.9008 41.3777 46.5229 41.3777 47.2135C41.3777 47.9041 41.0978 48.5263 40.6498 48.9742C40.2019 49.4222 39.5797 49.7021 38.8891 49.7021C38.1985 49.7021 37.5764 49.4222 37.1284 48.9742C36.8298 48.6756 36.5996 48.2961 36.4876 47.873H31.6659C31.3051 47.873 31.0127 47.5806 31.0127 47.2197V42.0621C31.0127 41.7013 31.3051 41.4088 31.6659 41.4088C32.0268 41.4088 32.3192 41.7013 32.3192 42.0621V46.5665H36.4814C36.5996 46.1434 36.8236 45.7639 37.1222 45.4653C37.5702 45.0173 38.1923 44.7374 38.8829 44.7374L38.8891 44.7249ZM39.7228 46.3798C39.5113 46.1683 39.2126 46.0377 38.8891 46.0377C38.5656 46.0377 38.267 46.1683 38.0554 46.3798C37.8439 46.5914 37.7133 46.89 37.7133 47.2135C37.7133 47.5371 37.8439 47.8357 38.0554 48.0472C38.267 48.2587 38.5656 48.3894 38.8891 48.3894C39.2126 48.3894 39.5113 48.2587 39.7228 48.0472C39.9343 47.8357 40.065 47.5371 40.065 47.2135C40.065 46.89 39.9343 46.5914 39.7228 46.3798ZM24.592 52.1099C25.0151 52.2281 25.3946 52.4521 25.6933 52.7507C26.1412 53.1986 26.4212 53.8208 26.4212 54.5114C26.4212 55.202 26.1412 55.8241 25.6933 56.2721C25.2453 56.72 24.6232 57 23.9326 57C23.242 57 22.6198 56.72 22.1719 56.2721C21.7239 55.8241 21.444 55.202 21.444 54.5114C21.444 53.8208 21.7239 53.1986 22.1719 52.7507C22.4705 52.4521 22.85 52.2219 23.2731 52.1099V42.6656C23.2731 42.3047 23.5655 42.0123 23.9263 42.0123C24.2872 42.0123 24.5796 42.3047 24.5796 42.6656V52.1099H24.592ZM24.7662 53.6777C24.5547 53.4662 24.2561 53.3355 23.9326 53.3355C23.609 53.3355 23.3104 53.4662 23.0989 53.6777C22.8873 53.8892 22.7567 54.1879 22.7567 54.5114C22.7567 54.8349 22.8873 55.1335 23.0989 55.3451C23.3104 55.5566 23.609 55.6873 23.9326 55.6873C24.2561 55.6873 24.5547 55.5566 24.7662 55.3451C24.9778 55.1335 25.1084 54.8349 25.1084 54.5114C25.1084 54.1879 24.9778 53.8892 24.7662 53.6777ZM8.83913 44.7187C9.5235 44.7187 10.1519 44.9987 10.5998 45.4466C10.8985 45.7452 11.1287 46.1248 11.2406 46.5478H15.4028V42.0434C15.4028 41.6826 15.6953 41.3902 16.0561 41.3902C16.417 41.3902 16.7094 41.6826 16.7094 42.0434V47.2011C16.7094 47.5619 16.417 47.8543 16.0561 47.8543H11.2344C11.1162 48.2774 10.8922 48.6569 10.5936 48.9556C10.1457 49.4035 9.5235 49.6835 8.83291 49.6835C8.14232 49.6835 7.52016 49.4035 7.07221 48.9556C6.62426 48.5076 6.3443 47.8855 6.3443 47.1949C6.3443 46.5043 6.62426 45.8821 7.07221 45.4342C7.52016 44.9862 8.14232 44.7063 8.83291 44.7063L8.83913 44.7187ZM9.67281 46.3736C9.46128 46.1621 9.16265 46.0314 8.83913 46.0314C8.51561 46.0314 8.21698 46.1621 8.00544 46.3736C7.79391 46.5852 7.66326 46.8838 7.66326 47.2073C7.66326 47.5308 7.79391 47.8295 8.00544 48.041C8.21698 48.2525 8.51561 48.3832 8.83913 48.3832C9.16265 48.3832 9.46128 48.2525 9.67281 48.041C9.88435 47.8295 10.015 47.5308 10.015 47.2073C10.015 46.8838 9.88435 46.5852 9.67281 46.3736ZM14.762 36.8422H14.818C15.1789 36.8422 15.4713 36.5498 15.4713 36.189C15.4713 35.8281 15.1789 35.5357 14.818 35.5357H14.762C14.4012 35.5357 14.1088 35.8281 14.1088 36.189C14.1088 36.5498 14.4012 36.8422 14.762 36.8422ZM22.0785 36.8422H32.9662C33.3271 36.8422 33.6195 36.5498 33.6195 36.189C33.6195 35.8281 33.3271 35.5357 32.9662 35.5357H22.0785C21.7177 35.5357 21.4253 35.8281 21.4253 36.189C21.4253 36.5498 21.7177 36.8422 22.0785 36.8422ZM14.762 27.6406H14.818C15.1789 27.6406 15.4713 27.3482 15.4713 26.9873C15.4713 26.6265 15.1789 26.3341 14.818 26.3341H14.762C14.4012 26.3341 14.1088 26.6265 14.1088 26.9873C14.1088 27.3482 14.4012 27.6406 14.762 27.6406ZM22.0785 27.6406H32.9662C33.3271 27.6406 33.6195 27.3482 33.6195 26.9873C33.6195 26.6265 33.3271 26.3341 32.9662 26.3341H22.0785C21.7177 26.3341 21.4253 26.6265 21.4253 26.9873C21.4253 27.3482 21.7177 27.6406 22.0785 27.6406ZM14.762 18.439H14.818C15.1789 18.439 15.4713 18.1465 15.4713 17.7857C15.4713 17.4248 15.1789 17.1324 14.818 17.1324H14.762C14.4012 17.1324 14.1088 17.4248 14.1088 17.7857C14.1088 18.1465 14.4012 18.439 14.762 18.439ZM22.0785 18.439H32.9662C33.3271 18.439 33.6195 18.1465 33.6195 17.7857C33.6195 17.4248 33.3271 17.1324 32.9662 17.1324H22.0785C21.7177 17.1324 21.4253 17.4248 21.4253 17.7857C21.4253 18.1465 21.7177 18.439 22.0785 18.439ZM37.4395 33.2524H40.3885C41.7697 33.2524 43.0264 32.6863 43.941 31.7717C44.8556 30.8571 45.4217 29.6004 45.4217 28.2192C45.4217 27.1678 45.0982 26.191 44.5445 25.3822C43.9783 24.5547 43.1758 23.9077 42.2301 23.5344C41.8879 23.4224 41.7013 23.0553 41.8132 22.7131C41.975 22.2154 42.1057 21.699 42.1865 21.1764C42.2674 20.6725 42.311 20.1437 42.311 19.5962C42.311 17.1511 41.4337 14.9113 39.9779 13.1818C38.4972 11.4211 36.4192 10.183 34.0488 9.77858C33.8124 9.73503 33.607 9.56705 33.5324 9.32441C32.8978 7.2713 31.6099 5.49817 29.9177 4.24764C28.269 3.02822 26.2221 2.31274 24.0134 2.31274C21.8048 2.31274 19.7144 3.04688 18.0532 4.29119C16.3485 5.5666 15.0669 7.37085 14.4509 9.45506C14.3887 9.67281 14.2083 9.84702 13.9781 9.90923C11.7695 10.4381 9.85324 11.7073 8.49072 13.4431C7.15932 15.1353 6.36296 17.2755 6.36296 19.5962C6.36296 20.0939 6.40029 20.5792 6.46873 21.052C6.53716 21.5373 6.64293 22.0101 6.78602 22.4705C6.78602 22.4892 6.79225 22.5016 6.79847 22.5203C6.87313 22.8749 6.64915 23.2233 6.29452 23.298C5.14976 23.5468 4.14809 24.1814 3.43884 25.0649C2.74203 25.9297 2.31896 27.0247 2.31896 28.2192C2.31896 29.6004 2.88512 30.8571 3.79969 31.7717C4.71425 32.6863 5.971 33.2524 7.35218 33.2524H10.3012V32.7796C10.3012 32.4187 10.5936 32.1263 10.9544 32.1263H36.7925C37.1533 32.1263 37.4457 32.4187 37.4457 32.7796V33.2524H37.4395ZM36.1268 33.4328H11.6015V38.9389H36.133V33.4328H36.1268ZM10.942 22.9185C10.5812 22.9185 10.2887 23.2109 10.2887 23.5717V30.3905C10.2887 30.7514 10.5812 31.0438 10.942 31.0438H36.78C37.1409 31.0438 37.4333 30.7514 37.4333 30.3905V23.5717C37.4333 23.2109 37.1409 22.9185 36.78 22.9185H10.942ZM36.1268 24.2312H11.6015V29.7373H36.133V24.2312H36.1268ZM10.942 13.7293C10.5812 13.7293 10.2887 14.0217 10.2887 14.3825V21.2013C10.2887 21.5622 10.5812 21.8546 10.942 21.8546H36.78C37.1409 21.8546 37.4333 21.5622 37.4333 21.2013V14.3825C37.4333 14.0217 37.1409 13.7293 36.78 13.7293H10.942ZM36.1268 15.042H11.6015V20.5481H36.133V15.042H36.1268Z" stroke="white" stroke-width="0.3" mask="url(#path-1-outside-1_936_86)"/>
</svg>
