<svg width="54" height="56" viewBox="0 0 54 56" fill="none" xmlns="http://www.w3.org/2000/svg">
<path d="M39.4197 48.5175C39.4197 48.8382 39.4435 49.0163 39.2534 49.3014L37.0087 52.912C36.1536 54.2897 34.1463 54.266 33.3149 52.8764L31.1652 49.242C31.0821 49.0995 31.0346 48.9332 31.0346 48.7788V46.154H29.1699V52.9714C29.1699 54.646 27.804 56 26.1412 56H8.38515C8.13574 56 7.91007 55.905 7.73192 55.7268L0.273171 48.2681C0.0950158 48.0899 0 47.8524 0 47.603V26.1531C0 24.4785 1.36585 23.1245 3.02863 23.1245H7.51813V21.4261C7.51813 19.9533 8.71771 18.7656 10.1786 18.7656H11.4613C11.8414 18.7656 12.162 18.5281 12.2571 18.1599C12.4471 17.4235 12.7559 16.5209 13.0528 15.8083C13.3735 15.0481 13.7298 14.2999 14.1455 13.5873C14.3355 13.2547 14.288 12.8628 14.0148 12.5896L13.1122 11.687C12.5896 11.1644 12.3402 10.4874 12.3402 9.79852C12.3402 9.12153 12.6015 8.42078 13.1241 7.91007L15.452 5.58218C15.9627 5.0596 16.6515 4.81018 17.3404 4.81018C18.0174 4.81018 18.7063 5.07147 19.2288 5.59406L20.1315 6.49671C20.4047 6.76988 20.7966 6.81739 21.1292 6.62736C22.5544 5.79597 24.0984 5.16649 25.7018 4.73892C26.07 4.63203 26.3075 4.32322 26.3075 3.94316V2.66045C26.3075 1.1877 27.5071 0 28.968 0H32.2579C33.7306 0 34.9183 1.19958 34.9183 2.66045V3.94316C34.9183 4.32322 35.1559 4.6439 35.5241 4.73892C37.1275 5.16649 38.6596 5.80785 40.0967 6.62736C40.4293 6.81739 40.8093 6.76988 41.0944 6.49671L41.997 5.59406C43.0303 4.54889 44.7287 4.54889 45.7739 5.59406L48.0662 7.92195C49.0995 8.95525 49.0995 10.6537 48.0662 11.687L47.1635 12.5896C46.8903 12.8628 46.8428 13.2547 47.0329 13.5873C47.8643 15.0244 48.4937 16.5565 48.9332 18.1599C49.0282 18.5281 49.337 18.7656 49.7289 18.7656H51.0117C52.4844 18.7656 53.6721 19.9652 53.6721 21.4261V24.716C53.6721 26.1888 52.4725 27.3765 51.0117 27.3765H49.7289C49.3489 27.3765 49.0282 27.614 48.9332 27.9822C48.7313 28.7304 48.4344 29.6212 48.1374 30.3338C47.8167 31.094 47.4486 31.8422 47.0329 32.5548C46.8428 32.8874 46.8903 33.2674 47.1635 33.5525L48.0662 34.4551C49.0995 35.4884 49.0995 37.1869 48.0662 38.2201L45.7383 40.548C44.6931 41.5932 43.0066 41.5932 41.9614 40.548L41.0231 39.6098C40.7856 39.3722 40.3818 39.3366 40.0611 39.5147L39.4197 39.8711V48.5175ZM33.2437 49.1351L34.8946 51.9262C35.0252 52.14 35.3103 52.1281 35.4409 51.9262L37.175 49.1232C35.9041 48.8857 34.5264 48.8857 33.2437 49.1351ZM33.1962 25.9275H37.2581C38.4458 25.9275 39.4197 26.8895 39.4197 28.0891V30.2151C43.066 25.7137 42.7453 19.1576 38.624 15.0363C34.1938 10.6061 27.0083 10.6061 22.5663 15.0363C20.4878 17.1147 19.2407 19.9533 19.2407 23.1245H26.1412C27.8159 23.1245 29.1699 24.4903 29.1699 26.1531V34.3364C29.7756 34.4076 30.4051 34.4314 31.0346 34.4195V28.101C31.0346 26.9014 32.0085 25.9275 33.1962 25.9275ZM39.4197 32.8755V37.7807C40.4293 37.3413 41.5932 37.555 42.3771 38.3389L43.2797 39.2416C43.6004 39.5623 44.123 39.5623 44.4437 39.2416L46.7716 36.9137C47.0923 36.593 47.0923 36.0704 46.7716 35.7497L45.8689 34.8471C45.0138 33.9919 44.8356 32.6855 45.4532 31.6284C45.8214 30.9871 46.154 30.322 46.439 29.6212C46.7122 28.9442 46.9616 28.2435 47.1516 27.5071C47.4604 26.3313 48.5056 25.5355 49.7289 25.5355H51.0117C51.463 25.5355 51.8312 25.1673 51.8312 24.716V21.4261C51.8312 20.9748 51.463 20.6066 51.0117 20.6066H49.7289C48.5175 20.6066 47.4723 19.7989 47.1516 18.6231C46.7597 17.1741 46.1896 15.7845 45.4414 14.5018C44.8356 13.4447 45.0019 12.1383 45.8571 11.2831L46.7597 10.3805C47.0804 10.0598 47.0804 9.53722 46.7597 9.21654L44.4318 6.88865C44.1111 6.56798 43.5885 6.56798 43.2679 6.88865L42.3652 7.7913C41.5219 8.64645 40.2036 8.8246 39.1466 8.207C37.852 7.45875 36.4742 6.88865 35.0252 6.49671C33.8494 6.18791 33.0537 5.14274 33.0537 3.91941V2.66045C33.0537 2.20912 32.6855 1.84093 32.2341 1.84093H28.9442C28.4929 1.84093 28.1247 2.20912 28.1247 2.66045V3.94316C28.1247 5.15461 27.3171 6.19979 26.1412 6.52047C24.6923 6.91241 23.3026 7.4825 22.0199 8.23075C20.9629 8.83648 19.6564 8.6702 18.8013 7.81506L17.8986 6.91241C17.7442 6.75801 17.5304 6.67487 17.3166 6.67487C17.1029 6.67487 16.901 6.75801 16.7347 6.92428L14.4068 9.25217C14.2524 9.40657 14.1692 9.62036 14.1692 9.83415C14.1692 10.0479 14.2524 10.2498 14.4187 10.4161L15.3213 11.3188C16.1765 12.1739 16.3546 13.4804 15.737 14.5374C15.3688 15.1788 15.0363 15.8439 14.7512 16.5446C14.4662 17.2216 14.2286 17.9224 14.0386 18.6587C13.7298 19.8346 12.6846 20.6422 11.4613 20.6422H10.1786C9.72725 20.6422 9.35907 21.0104 9.35907 21.4617V23.1245H17.3879C17.3523 15.8201 23.2789 9.86978 30.5832 9.86978C37.8757 9.86978 43.7786 15.7726 43.7786 23.0651C43.7905 26.8539 42.1871 30.3813 39.4197 32.8755ZM31.0346 44.3012V36.2604C30.4051 36.2842 29.8112 36.2604 29.1699 36.1892V44.3012H31.0346ZM37.2581 27.7684H33.1962C33.018 27.7684 32.8874 27.9109 32.8874 28.0891V47.3298C34.4195 47.021 36.0467 47.021 37.5788 47.3298V28.0891C37.5669 27.9228 37.4244 27.7684 37.2581 27.7684ZM14.8106 31.4978C15.3213 31.4978 15.737 31.9135 15.737 32.4242C15.737 32.9349 15.3213 33.3506 14.8106 33.3506H6.2948C5.78409 33.3506 5.3684 32.9349 5.3684 32.4242C5.3684 31.9135 5.78409 31.4978 6.2948 31.4978H14.8106ZM14.8106 46.6884C15.3213 46.6884 15.737 47.1041 15.737 47.6148C15.737 48.1256 15.3213 48.5413 14.8106 48.5413H11.0337C10.523 48.5413 10.1073 48.1256 10.1073 47.6148C10.1073 47.1041 10.523 46.6884 11.0337 46.6884H14.8106ZM14.8106 39.099C15.3213 39.099 15.737 39.5147 15.737 40.0255C15.737 40.5362 15.3213 40.9519 14.8106 40.9519H6.2948C5.78409 40.9519 5.3684 40.5362 5.3684 40.0255C5.3684 39.5147 5.78409 39.099 6.2948 39.099H14.8106ZM22.7801 45.5245H19.989V48.3156H22.7801V45.5245ZM19.0744 43.6836H23.7065C24.2172 43.6836 24.6329 44.0993 24.6329 44.61V49.242C24.6329 49.7527 24.2172 50.1684 23.7065 50.1684H19.0744C18.5637 50.1684 18.148 49.7527 18.148 49.242V44.61C18.148 44.0993 18.5637 43.6836 19.0744 43.6836ZM22.7801 37.6382H19.989V40.4293H22.7801V37.6382ZM19.0744 35.7972H23.7065C24.2172 35.7972 24.6329 36.2129 24.6329 36.7236V41.3557C24.6329 41.8664 24.2172 42.2821 23.7065 42.2821H19.0744C18.5637 42.2821 18.148 41.8664 18.148 41.3557V36.7236C18.148 36.2011 18.5637 35.7972 19.0744 35.7972ZM22.7801 29.7519H19.989V32.5429H22.7801V29.7519ZM19.0744 27.899H23.7065C24.2172 27.899 24.6329 28.3147 24.6329 28.8255V33.4575C24.6329 33.9682 24.2172 34.3839 23.7065 34.3839H19.0744C18.5637 34.3839 18.148 33.9682 18.148 33.4575V28.8255C18.148 28.3147 18.5637 27.899 19.0744 27.899ZM1.84093 46.6884H6.27105C7.9457 46.6884 9.29968 48.0543 9.29968 49.7171V54.1472H26.1294C26.7826 54.1472 27.3171 53.6127 27.3171 52.9595V26.1531C27.3171 25.4999 26.7826 24.9654 26.1294 24.9654H3.02863C2.3754 24.9654 1.84093 25.4999 1.84093 26.1531V46.6884ZM7.45875 52.8526V49.7171C7.45875 49.0638 6.92428 48.5294 6.27105 48.5294H3.1474L7.45875 52.8526Z" fill="white"/>
</svg>
