<svg width="48" height="48" viewBox="0 0 48 48" fill="none" xmlns="http://www.w3.org/2000/svg">
<path d="M22.5056 4.52598e-07C22.0546 0.000368957 21.5992 0.0223266 21.1419 0.0673833C16.546 0.52233 12.6385 3.20636 10.3665 7.0166C7.05456 6.90095 3.86947 8.49191 1.90407 11.3013C-0.302842 14.4558 -0.614807 18.6117 1.09108 22.0796C2.79697 25.5475 6.25365 27.7485 10.0325 27.7485H11.2029C10.9673 28.1922 10.7485 28.4487 10.5584 28.6128C10.2947 28.8404 10.0631 28.9163 9.72194 29.061C9.38082 29.2059 8.8806 29.4863 8.6028 30.0234C8.32643 30.558 8.24032 31.2241 8.24831 32.2441C8.24828 32.2466 8.24834 32.2471 8.24831 32.25C8.24834 32.2525 8.24828 32.253 8.24831 32.2558C8.23981 33.2758 8.33223 33.9405 8.60866 34.4751C8.88646 35.0122 9.38082 35.2927 9.72194 35.4375C10.0631 35.5823 10.2947 35.658 10.5584 35.8857C10.822 36.1133 11.1414 36.513 11.4827 37.3535C11.824 38.194 11.8719 38.7059 11.8416 39.0527C11.8112 39.3995 11.7029 39.6146 11.5603 39.9609C11.4177 40.3072 11.2609 40.8646 11.4431 41.4448C11.6251 42.025 12.033 42.5659 12.7674 43.3096C13.5017 44.0532 14.0444 44.4711 14.6218 44.6616C15.1993 44.8521 15.7559 44.708 16.1057 44.5722C16.4556 44.4365 16.6735 44.3256 17.0242 44.3013C17.3749 44.2757 17.8902 44.3396 18.7293 44.6938C19.5659 45.0472 19.9469 45.3704 20.1634 45.6357C20.3799 45.901 20.4522 46.1364 20.6013 46.4941C20.7504 46.8519 21.062 47.3617 21.6238 47.6338C22.1856 47.9059 22.8894 48 23.9983 48C25.1073 48 25.8125 47.9059 26.3743 47.6338C26.9361 47.3617 27.2433 46.8519 27.3924 46.4941C27.5415 46.1364 27.6138 45.9011 27.8303 45.6357C28.0469 45.3704 28.4321 45.0472 29.2688 44.6938C30.1079 44.3395 30.6188 44.2769 30.9695 44.3013C31.3202 44.3268 31.544 44.4365 31.8938 44.5723C32.2437 44.708 32.8002 44.8521 33.3777 44.6616C33.9552 44.4711 34.492 44.0532 35.2263 43.3096C35.9607 42.5659 36.367 42.025 36.5491 41.4448C36.7311 40.8646 36.5818 40.3072 36.4392 39.9609C36.2966 39.6147 36.181 39.3995 36.1507 39.0527C36.1203 38.7059 36.1705 38.194 36.511 37.3535C36.8523 36.513 37.1775 36.1133 37.4412 35.8857C37.7048 35.6581 37.9306 35.5823 38.2718 35.4375C38.6128 35.2926 39.1116 35.0123 39.3894 34.4751C39.6667 33.9393 39.7583 33.2742 39.7498 32.25C39.7583 31.2258 39.6667 30.5608 39.3894 30.0249C39.1116 29.4878 38.6128 29.2058 38.2718 29.061C37.9306 28.9162 37.7048 28.8405 37.4412 28.6128C37.251 28.4484 37.0279 28.1923 36.7908 27.7485H39.656C43.4405 27.7485 46.7463 25.111 47.7171 21.3545C48.6878 17.5978 47.1044 13.6215 43.8352 11.6646C42.2006 10.6861 40.3456 10.342 38.5647 10.585C37.7986 10.6896 37.0465 10.9035 36.3323 11.2222C34.7686 4.63182 29.0299 -0.00167199 22.5056 4.52598e-07ZM22.5041 1.50147C28.4687 1.499 33.7039 5.82453 34.9627 12C34.5326 12.3017 34.1253 12.6492 33.7483 13.04C33.4589 13.3375 33.4668 13.8135 33.7659 14.1021C34.0651 14.3908 34.5423 14.3802 34.8294 14.0786C37.0262 11.8009 40.385 11.3492 43.0677 12.9551C45.7503 14.5609 47.0704 17.8516 46.2625 20.978C45.4545 24.1044 42.7456 26.2485 39.6575 26.2485H36.2224C36.1459 25.9076 36.1346 25.6507 36.1521 25.4502C36.1825 25.1034 36.2981 24.8838 36.4407 24.5376C36.5833 24.1913 36.7325 23.6398 36.5506 23.0596C36.3683 22.4793 35.9622 21.9311 35.2278 21.1875C34.4935 20.4439 33.9567 20.0273 33.3792 19.8369C32.8017 19.6464 32.2451 19.7949 31.8953 19.9307C31.5454 20.0664 31.3216 20.1732 30.971 20.1973C30.6203 20.2228 30.1093 20.1635 29.2703 19.8091C28.4336 19.4557 28.0483 19.1281 27.8318 18.8628C27.6152 18.5975 27.5429 18.3622 27.3938 18.0044C27.2447 17.6466 26.9376 17.1354 26.3758 16.8633C25.814 16.5912 25.1087 16.4985 23.9998 16.4985C22.8908 16.4985 22.1871 16.5913 21.6253 16.8633C21.0635 17.1354 20.7504 17.6466 20.6013 18.0044C20.4522 18.3622 20.3797 18.5974 20.1634 18.8628C19.9468 19.1281 19.5659 19.4557 18.7293 19.8091C17.8902 20.1635 17.3749 20.2216 17.0242 20.1973C16.6735 20.1718 16.4556 20.0662 16.1057 19.9307C15.7559 19.7949 15.1993 19.6465 14.6218 19.8369C14.0444 20.0274 13.5017 20.4439 12.7674 21.1875C12.033 21.9311 11.6252 22.4794 11.4431 23.0596C11.2612 23.6398 11.4177 24.1913 11.5603 24.5376C11.7029 24.8838 11.8112 25.1034 11.8416 25.4502C11.8586 25.6506 11.8473 25.9076 11.7713 26.2485H10.0325C6.8351 26.2485 3.89948 24.396 2.43581 21.4204C0.972112 18.4449 1.24384 14.8587 3.13308 12.1582C4.66858 9.96336 7.05014 8.65664 9.58278 8.51953C8.72647 10.4172 8.24831 12.529 8.24831 14.7437C8.24666 15.1607 8.58564 15.499 9.00271 15.4966C9.4169 15.4949 9.75139 15.1579 9.74978 14.7437C9.74978 7.89654 14.7528 2.20983 21.2869 1.56299C21.6953 1.52245 22.1018 1.50147 22.5041 1.50147ZM23.9983 25.5029C27.7351 25.5029 30.7468 28.5148 30.7468 32.2515C30.7468 35.9881 27.7351 38.9985 23.9983 38.9985C20.2615 38.9985 17.2512 35.9881 17.2512 32.2515C17.2512 28.5148 20.2615 25.5029 23.9983 25.5029Z" fill="#13CFFE"/>
<path d="M26.1812 28C25.767 28.0017 25.4324 28.3387 25.4341 28.7529H20.2515C19.8373 28.7513 19.5016 29.0858 19.5 29.5C19.4984 29.9165 19.835 30.2546 20.2515 30.2529H25.4341C25.4357 30.6648 25.7692 30.9984 26.1812 31C26.5954 31.0017 26.9325 30.6671 26.9341 30.2529H27.6152C28.0294 30.2513 28.3639 29.9142 28.3623 29.5C28.3607 29.0881 28.0272 28.7545 27.6152 28.7529H26.9341C26.9357 28.3364 26.5977 27.9984 26.1812 28ZM21.6856 31C21.2685 30.9984 20.9302 31.3373 20.9326 31.7544H20.2515C19.8373 31.7528 19.5016 32.0873 19.5 32.5015C19.4984 32.918 19.835 33.256 20.2515 33.2544H20.9326C20.9343 33.6686 21.2714 34.0031 21.6856 34.0015C22.0975 33.9999 22.431 33.6663 22.4326 33.2544H27.6152C28.0294 33.2528 28.3639 32.9157 28.3623 32.5015C28.3607 32.0896 28.0272 31.756 27.6152 31.7544H22.4326C22.435 31.3396 22.1003 31.0016 21.6856 31ZM26.1812 34.0015C25.7692 34.003 25.4357 34.3366 25.4341 34.7485H20.2515C19.835 34.7469 19.4984 35.085 19.5 35.5015C19.5017 35.9156 19.8373 36.2502 20.2515 36.2485H25.4341C25.4317 36.6633 25.7664 37.0013 26.1812 37.0029C26.5982 37.0046 26.9365 36.6656 26.9341 36.2485H27.6152C28.0272 36.2469 28.3607 35.9134 28.3623 35.5015C28.364 35.0873 28.0294 34.7502 27.6152 34.7485H26.9341C26.9324 34.3343 26.5954 33.9999 26.1812 34.0015Z" fill="#FF6700"/>
<path d="M23.1956 6.00189C22.9035 6.02174 22.6501 6.21141 22.5467 6.48529L20.2996 12.4868C20.1559 12.873 20.351 13.3028 20.7362 13.4492C21.1228 13.5937 21.5536 13.3987 21.7 13.0126L23.953 7.01117C24.097 6.62288 23.8988 6.19136 23.5106 6.0473C23.4099 6.00989 23.3025 5.99424 23.1956 6.00189ZM26.2513 6.74603C26.0521 6.74569 25.8606 6.82488 25.7196 6.96576C25.4248 7.25898 25.4248 7.73605 25.7196 8.02924L27.4408 9.75189L25.7196 11.4672C25.4248 11.7604 25.4248 12.2375 25.7196 12.5307C26.0128 12.8255 26.4899 12.8255 26.7831 12.5307L29.0301 10.2778C29.3209 9.98524 29.3209 9.51269 29.0301 9.22016L26.7831 6.96576C26.6422 6.82488 26.4507 6.74575 26.2513 6.74603ZM18.0028 6.75189C17.8041 6.75036 17.6128 6.82776 17.4711 6.96722L15.2181 9.22162C14.9273 9.51415 14.9273 9.9867 15.2181 10.2792L17.4711 12.5322C17.7636 12.823 18.2361 12.823 18.5287 12.5322C18.8234 12.239 18.8234 11.7619 18.5287 11.4687L16.8133 9.75336L18.5287 8.0307C18.8234 7.73751 18.8234 7.26044 18.5287 6.96722C18.3884 6.82918 18.1995 6.75189 18.0028 6.75189Z" fill="#FF6700"/>
</svg>
