<svg width="52" height="40" viewBox="0 0 52 40" fill="none" xmlns="http://www.w3.org/2000/svg">
<path d="M47.3069 22.7292H41.9004V19.6505C41.9004 19.2 41.6 18.8996 41.1495 18.8996H30.0361L26.0563 15.9711C25.9061 15.896 25.756 15.8209 25.6058 15.8209H23.8787V9.5884C23.8787 6.20933 18.6224 3.58118 11.9393 3.58118C5.25632 3.58118 0 6.20933 0 9.5884C0 23.6303 0 19.8758 0 33.9927C0 37.3718 5.25632 39.9999 11.9393 39.9999C15.0931 39.9999 18.0217 39.3992 20.2744 38.348C20.7249 38.5732 21.2505 38.7234 21.8513 38.7234H47.3819C47.8325 38.7234 48.1329 38.4231 48.1329 37.9725V23.4801C48.0578 23.0296 47.7574 22.7292 47.3069 22.7292ZM29.3603 20.2512C29.5105 20.3263 29.6607 20.4014 29.8108 20.4014H40.4736V22.7292H24.4794C24.0289 22.7292 23.7285 23.0296 23.7285 23.4801V35.3444C23.7285 36.3956 22.8274 37.2967 21.7762 37.2967C20.6498 37.2967 19.8238 36.3956 19.8238 35.3444C19.8238 29.7877 19.8238 23.3299 19.8238 17.3978H25.3054L29.3603 20.2512ZM1.50181 19.1999C3.97978 21.4527 8.71047 22.2787 12.0895 22.2787C14.1921 22.2787 16.3697 21.9783 18.3971 21.3776V25.7328C11.4137 28.1357 1.50181 25.6577 1.50181 22.1285V19.1999ZM1.50181 12.592C3.52924 14.4693 7.35884 15.6707 11.9393 15.6707C16.5199 15.6707 20.3495 14.4693 22.3769 12.592V15.8209H19.148C18.6975 15.8209 18.3971 16.1212 18.3971 16.5718V19.7256C11.1884 22.2786 1.50181 19.6505 1.50181 16.1963V12.592ZM1.50181 25.1321C4.43033 27.7602 12.0895 29.262 18.3971 27.2346V31.5898C11.4137 34.0678 1.50181 31.5898 1.50181 28.0606V25.1321ZM11.9393 5.08298C18.1718 5.08298 22.3769 7.41078 22.3769 9.66349C22.3769 11.9162 18.1718 14.244 11.9393 14.244C5.70686 14.244 1.50181 11.9162 1.50181 9.73858C1.50181 7.41078 5.70686 5.08298 11.9393 5.08298ZM1.50181 33.9927V31.0642C3.97978 33.3169 8.71047 34.1429 12.0895 34.1429C14.1921 34.1429 16.3697 33.8425 18.3971 33.2418V35.3444C18.3971 36.0953 18.6224 36.7711 18.9978 37.2967C17.0455 38.1227 14.5675 38.5732 11.9393 38.5732C5.78195 38.5732 1.50181 36.1703 1.50181 33.9927ZM46.556 37.2216H24.6296C24.6296 37.1465 25.2303 36.3956 25.2303 35.2693V24.231C31.6881 24.231 40.0982 24.231 46.556 24.231V37.2216Z" fill="#13CFFE"/>
<path d="M50.8908 8.59802L46.8053 4.51251C46.2946 4.07478 45.5651 4.43956 45.5651 5.0232V6.19049H39.9475L42.0632 2.98045C42.355 2.46976 42.0632 1.81316 41.4795 1.81316H31.6306V0.718828C31.6306 0.0622281 30.828 -0.229594 30.3903 0.208139L26.3048 4.29365C26.013 4.58547 26.013 5.0232 26.3048 5.31502L30.3903 9.40053C30.828 9.83827 31.6306 9.54644 31.6306 8.88984V7.72256H37.2481L35.1324 10.8596C34.8406 11.3703 35.2054 12.0269 35.7161 12.0269H45.5651V13.1942C45.5651 13.8508 46.3676 14.1426 46.8053 13.7049L50.8908 9.6194C51.1826 9.40053 51.1826 8.9628 50.8908 8.59802Z" fill="#FF6700"/>
</svg>
