<svg width="61" height="58" viewBox="0 0 61 58" fill="none" xmlns="http://www.w3.org/2000/svg">
<path d="M14.2232 11.9443C12.4865 11.9443 11.0402 13.3906 11.0402 15.1273C11.0402 16.864 12.4865 18.3103 14.2232 18.3103C15.9599 18.3103 17.4062 16.864 17.4062 15.1273C17.4062 13.3906 15.9599 11.9443 14.2232 11.9443ZM14.2232 16.465C13.4735 16.465 12.8855 15.8769 12.8855 15.1273C12.8855 14.3776 13.4735 13.7896 14.2232 13.7896C14.9729 13.7896 15.5609 14.3776 15.5609 15.1273C15.5609 15.875 14.9183 16.465 14.2232 16.465Z" fill="white" stroke="white" stroke-width="0.15"/>
<path d="M32.0237 14.0351H27.955C27.4616 14.0351 27.0324 14.4642 27.0324 14.9577C27.0324 15.4512 27.4616 15.8804 27.955 15.8804H32.0237C32.5172 15.8804 32.9464 15.4512 32.9464 14.9577C32.9464 14.4642 32.5172 14.0351 32.0237 14.0351Z" fill="white" stroke="white" stroke-width="0.15"/>
<path d="M31.1194 51.1047H28.9156C27.857 51.1047 26.9758 51.9859 26.9758 53.0445C26.9758 54.103 27.857 54.9843 28.9156 54.9843H31.1194C32.178 54.9843 33.0592 54.103 33.0592 53.0445C33.0592 51.9859 32.178 51.1047 31.1194 51.1047ZM31.1194 53.1955H28.9156C28.8706 53.1955 28.8507 53.1844 28.8415 53.1751C28.8322 53.1659 28.8211 53.146 28.8211 53.101C28.8211 53.0561 28.8322 53.0361 28.8415 53.0269C28.8507 53.0177 28.8706 53.0065 28.9156 53.0065H31.1194C31.1643 53.0065 31.1843 53.0177 31.1935 53.0269C31.2027 53.0361 31.2139 53.0561 31.2139 53.101C31.2139 53.146 31.2027 53.1659 31.1935 53.1751C31.1843 53.1844 31.1643 53.1955 31.1194 53.1955Z" fill="white" stroke="white" stroke-width="0.15"/>
<path d="M7.88595 23.0293C4.00256 23.3704 0.925 26.6543 0.925 30.6105C0.925 34.8336 4.34912 38.2576 8.57218 38.2576H18.4427V53.553C18.4427 55.4584 20.0011 57.075 21.9647 57.075H38.1826C40.088 57.075 41.7047 55.5165 41.7047 53.553V38.2576H52.7053C56.9284 38.2576 60.3525 34.8336 60.3525 30.6105L60.3525 30.6083C60.2393 26.7588 57.4285 23.5816 53.7584 23.0324C53.9145 22.3736 53.967 21.716 53.967 21.0606C53.967 15.594 49.5255 11.2096 44.116 11.2096H44.1111C43.9149 11.2096 43.6669 11.2096 43.45 11.2496C43.0094 5.48704 38.1361 0.925 32.2492 0.925C27.8931 0.925 23.9309 3.45655 22.0966 7.3453C20.7495 6.79458 19.2943 6.51935 17.8395 6.51935C11.6387 6.51935 6.57586 11.5822 6.57586 17.783C6.57586 19.6217 7.01251 21.4062 7.88595 23.0293ZM10.2187 23.2823L10.2191 23.2821L10.2141 23.2756C8.98141 21.6506 8.36462 19.689 8.36462 17.67C8.36462 12.5124 12.5694 8.2516 17.783 8.2516C19.2974 8.2516 20.7542 8.58804 22.0985 9.31619L22.0985 9.31623L22.1007 9.31733C22.3469 9.44045 22.5922 9.43908 22.8305 9.37952L22.8385 9.37752L22.8458 9.37384C23.0864 9.25356 23.2677 9.07226 23.388 8.8317L23.3884 8.83192L23.3914 8.82379C24.7368 5.12391 28.2686 2.65724 32.1927 2.65724C37.3504 2.65724 41.6112 6.86211 41.6112 12.0757V12.076V12.0763V12.0767V12.077V12.0773V12.0776V12.078V12.0783V12.0786V12.0789V12.0792V12.0796V12.0799V12.0802V12.0805V12.0808V12.0811V12.0814V12.0817V12.082V12.0824V12.0827V12.083V12.0833V12.0836V12.0839V12.0842V12.0845V12.0848V12.085V12.0853V12.0856V12.0859V12.0862V12.0865V12.0868V12.0871V12.0874V12.0877V12.0879V12.0882V12.0885V12.0888V12.0891V12.0893V12.0896V12.0899V12.0902V12.0904V12.0907V12.091V12.0913V12.0915V12.0918V12.0921V12.0923V12.0926V12.0929V12.0931V12.0934V12.0937V12.0939V12.0942V12.0944V12.0947V12.095V12.0952V12.0955V12.0957V12.096V12.0962V12.0965V12.0967V12.097V12.0972V12.0975V12.0977V12.098V12.0982V12.0985V12.0987V12.0989V12.0992V12.0994V12.0997V12.0999V12.1001V12.1004V12.1006V12.1009V12.1011V12.1013V12.1016V12.1018V12.102V12.1022V12.1025V12.1027V12.1029V12.1032V12.1034V12.1036V12.1038V12.1041V12.1043V12.1045V12.1047V12.105V12.1052V12.1054V12.1056V12.1058V12.106V12.1063V12.1065V12.1067V12.1069V12.1071V12.1073V12.1076V12.1078V12.108V12.1082V12.1084V12.1086V12.1088V12.109V12.1092V12.1094V12.1096V12.1098V12.1101V12.1103V12.1105V12.1107V12.1109V12.1111V12.1113V12.1115V12.1117V12.1119V12.1121V12.1123V12.1125V12.1127V12.1129V12.113V12.1132V12.1134V12.1136V12.1138V12.114V12.1142V12.1144V12.1146V12.1148V12.115V12.1152V12.1154V12.1155V12.1157V12.1159V12.1161V12.1163V12.1165V12.1167V12.1169V12.117V12.1172V12.1174V12.1176V12.1178V12.118V12.1181V12.1183V12.1185V12.1187V12.1189V12.1191V12.1192V12.1194V12.1196V12.1198V12.12V12.1201V12.1203V12.1205V12.1207V12.1208V12.121V12.1212V12.1214V12.1215V12.1217V12.1219V12.1221V12.1222V12.1224V12.1226V12.1228V12.1229V12.1231V12.1233V12.1235V12.1236V12.1238V12.124V12.1241V12.1243V12.1245V12.1247V12.1248V12.125V12.1252V12.1253V12.1255V12.1257V12.1258V12.126V12.1262V12.1264V12.1265V12.1267V12.1269V12.127V12.1272V12.1274V12.1275V12.1277V12.1279V12.128V12.1282V12.1284V12.1285V12.1287V12.1289V12.129V12.1292V12.1294V12.1295V12.1297V12.1299V12.13V12.1302V12.1304V12.1305V12.1307V12.1309V12.131V12.1312V12.1314V12.1315V12.1317V12.1319V12.132V12.1322V12.1324V12.1325V12.1327V12.1328V12.133V12.1332V12.1333V12.1335V12.1337V12.1338V12.134V12.1342V12.1343V12.1345V12.1347V12.1348V12.135V12.1352V12.1353V12.1355V12.1357V12.1358V12.136V12.1362V12.1363V12.1365V12.1367V12.1368V12.137V12.1372V12.1373V12.1375V12.1377V12.1378V12.138V12.1382V12.1384V12.1385V12.1387V12.1389V12.139V12.1392V12.1394V12.1395V12.1397V12.1399V12.1401V12.1402V12.1404V12.1406V12.1407V12.1409V12.1411V12.1413V12.1414V12.1416V12.1418V12.142V12.1421V12.1423V12.1425V12.1427V12.1428V12.143V12.1432V12.1434V12.1435V12.1437V12.1439V12.1441V12.1442V12.1444V12.1446V12.1448V12.145V12.1451V12.1453V12.1455V12.1457V12.1459V12.146V12.1462V12.1464V12.1466V12.1468V12.147V12.1471V12.1473V12.1475V12.1477V12.1479V12.1481V12.1483V12.1484V12.1486V12.1488V12.149V12.1492V12.1494V12.1496V12.1498V12.15V12.1502V12.1504V12.1505V12.1507V12.1509V12.1511V12.1513V12.1515V12.1517V12.1519V12.1521V12.1523V12.1525V12.1527V12.1529V12.1531V12.1533V12.1535V12.1537V12.1539V12.1541V12.1543V12.1545V12.1547V12.1549V12.1551V12.1554V12.1556V12.1558V12.156V12.1562V12.1564V12.1566V12.1568V12.157V12.1572V12.1575V12.1577V12.1579V12.1581V12.1583V12.1585V12.1588V12.159V12.1592V12.1594V12.1596V12.1599V12.1601V12.1603V12.1605V12.1608V12.161V12.1612V12.1614V12.1617V12.1619V12.1621V12.1624V12.1626V12.1628V12.1631V12.1633V12.1635V12.1638V12.164V12.1642V12.1645V12.1647V12.1649V12.1652V12.1654V12.1657V12.1659V12.1662V12.1664V12.1667V12.1669V12.1671V12.1674V12.1676V12.1679V12.1681V12.1684V12.1687V12.1689V12.1692V12.1694V12.1697V12.1699V12.1702V12.1705V12.1707V12.171V12.1712V12.1715V12.1718V12.172V12.1723V12.1726V12.1728V12.1731V12.1734V12.1737V12.1739V12.1742V12.1745V12.1748V12.175V12.1753V12.1756V12.1759V12.1762V12.1764V12.1767V12.177V12.1773V12.1776V12.1779V12.1782V12.1784V12.1787V12.179V12.1793V12.1796V12.1799V12.1802V12.1805V12.1808V12.1811V12.1814V12.1817V12.182V12.1823V12.1826V12.1829V12.1833V12.1836V12.1839V12.1842V12.1845V12.1848V12.1851V12.1854V12.1858V12.1861V12.1864V12.1867V12.1871V12.1874V12.1877V12.188V12.1884V12.1887C41.6112 12.4344 41.7319 12.7361 41.9157 12.9199L41.9687 12.8668L41.9157 12.9199C42.1067 13.1108 42.4171 13.1707 42.664 13.1093C43.1632 12.9985 43.6072 12.9983 44.0595 12.9983C48.4823 12.9983 52.0653 16.5813 52.0653 21.0041C52.0653 21.8442 51.9533 22.6829 51.6742 23.5212C51.5536 23.8246 51.6106 24.1371 51.8009 24.3308C51.9843 24.5728 52.2314 24.6956 52.5358 24.6956C55.7145 24.6956 58.2812 27.3169 58.2812 30.4975L58.2812 30.5001C58.3928 33.7341 55.7719 36.3559 52.5923 36.3559H41.5916V14.3361C41.5916 12.4306 40.0331 10.814 38.0696 10.814H21.8517C19.9463 10.814 18.3296 12.3725 18.3296 14.3361V36.3559H8.45909C5.27957 36.3559 2.6572 33.7336 2.6572 30.554C2.6572 27.3744 5.27957 24.7521 8.45909 24.7521H9.47629C9.83807 24.7521 10.1504 24.5711 10.2782 24.2585C10.4632 23.9449 10.3956 23.5772 10.2187 23.2823ZM39.7464 48.9573H20.2315V18.5927H39.7464V48.9573ZM20.2315 16.7474V14.3361C20.2315 13.4168 20.989 12.6593 21.9082 12.6593H38.1261C39.0453 12.6593 39.8029 13.4168 39.8029 14.3361V16.7474H20.2315ZM38.1261 55.1732H21.9082C20.989 55.1732 20.2315 54.4157 20.2315 53.4965V50.8026H39.7464V53.4965C39.7464 54.4189 39.0421 55.1732 38.1261 55.1732Z" fill="white" stroke="white" stroke-width="0.15"/>
<path d="M32.2253 38.059L32.2253 38.059L32.222 38.0575C30.7906 37.4277 29.1873 37.4274 27.7558 38.0567C27.2583 38.2445 27.0813 38.8011 27.2618 39.2826L27.2618 39.2826C27.449 39.7816 28.0064 39.9593 28.4886 39.7785L28.4886 39.7786L28.4908 39.7777C29.4323 39.39 30.5409 39.3897 31.4827 39.7767C31.6108 39.8399 31.7382 39.8398 31.8474 39.8398L31.8528 39.8398C32.2213 39.8398 32.5292 39.6532 32.7109 39.2898L32.7113 39.29L32.7141 39.2826C32.8971 38.7946 32.7117 38.3022 32.2253 38.059Z" fill="white" stroke="white" stroke-width="0.15"/>
<path d="M33.695 34.3296L33.6951 34.3295L33.6916 34.328C31.3562 33.3027 28.6227 33.3024 26.287 34.3272C25.79 34.5149 25.6128 35.0707 25.7926 35.5518C25.9194 35.9299 26.2945 36.1104 26.6545 36.1104L26.6599 36.1104C26.7693 36.1104 26.897 36.1104 27.0253 36.0468C28.927 35.2084 31.0516 35.2086 32.9531 36.0475L32.9531 36.0476L32.9571 36.0491C33.4451 36.2321 33.9374 36.0467 34.1806 35.5603L34.181 35.5605L34.1838 35.5531C34.3668 35.0652 34.1814 34.5728 33.695 34.3296Z" fill="white" stroke="white" stroke-width="0.15"/>
<path d="M35.1648 30.5999L35.1648 30.5998L35.1609 30.5981C31.865 29.1774 28.1146 29.1772 24.8185 30.5974C24.3208 30.7852 24.1438 31.3419 24.3243 31.8234L24.3243 31.8235C24.5115 32.3225 25.069 32.5002 25.5511 32.3194L25.5511 32.3195L25.555 32.3179C28.3606 31.0834 31.6154 31.0831 34.4212 32.3171C34.5496 32.3808 34.6772 32.3807 34.7867 32.3807L34.7921 32.3807C35.1607 32.3807 35.4686 32.1941 35.6503 31.8307L35.6507 31.8308L35.6535 31.8235C35.8365 31.3354 35.6512 30.8431 35.1648 30.5999Z" fill="white" stroke="white" stroke-width="0.15"/>
<path d="M22.8555 28.0939L22.8556 28.0939C23.0427 28.5929 23.6002 28.7706 24.0823 28.5898L24.0824 28.5899L24.0858 28.5885C27.8522 26.9582 32.1246 26.958 35.8912 28.5877C36.0194 28.6512 36.1471 28.6512 36.2565 28.6511L36.2619 28.6511C36.6305 28.6511 36.9384 28.4645 37.12 28.1011L37.1204 28.1013L37.1232 28.0939C37.3062 27.6059 37.1209 27.1135 36.6344 26.8703L36.6345 26.8702L36.6314 26.8689C32.4311 24.9958 27.55 24.9955 23.3494 26.868C22.852 27.0559 22.6751 27.6125 22.8555 28.0939Z" fill="white" stroke="white" stroke-width="0.15"/>
<path d="M29.9883 43.3435C30.4978 43.3435 30.9109 42.9304 30.9109 42.4208C30.9109 41.9113 30.4978 41.4982 29.9883 41.4982C29.4787 41.4982 29.0656 41.9113 29.0656 42.4208C29.0656 42.9304 29.4787 43.3435 29.9883 43.3435Z" fill="white" stroke="white" stroke-width="0.15"/>
</svg>
