<svg width="56" height="58" viewBox="0 0 56 58" fill="none" xmlns="http://www.w3.org/2000/svg">
<mask id="path-1-outside-1_936_76" maskUnits="userSpaceOnUse" x="0" y="0" width="56" height="58" fill="black">
<rect fill="white" width="56" height="58"/>
<path d="M43.8523 9.23908C46.7849 9.23908 48.2754 12.814 46.1911 14.8862C44.1189 16.9584 40.544 15.48 40.544 12.5474C40.544 10.7296 42.0224 9.23908 43.8523 9.23908ZM45.1732 11.2386C44.0098 10.0752 42.0103 10.8993 42.0103 12.5474C42.0103 14.1954 44.0098 15.0195 45.1732 13.8561C45.8881 13.1411 45.8881 11.9657 45.1732 11.2386ZM28.2198 22.5328C30.7161 22.5328 32.2188 25.2957 30.8737 27.3922C30.6313 27.7678 30.3162 28.0829 29.9527 28.3253V31.8274C29.9527 32.5666 29.3589 33.1604 28.6197 33.1604C27.9289 33.1604 27.3715 33.2574 26.8868 32.7727C26.6444 32.5303 26.499 32.191 26.499 31.8274V28.3253C24.8388 27.2346 24.5843 24.8837 26.0022 23.4659C26.5596 22.8963 27.3473 22.5328 28.2198 22.5328ZM29.4195 24.4838C28.3531 23.4174 26.5232 24.1687 26.5232 25.6835C26.5232 26.3379 26.9231 26.968 27.4806 27.2225C27.7472 27.3316 27.9411 27.5861 27.9411 27.9011V31.7063H28.4864V27.9011C28.4864 27.6224 28.6439 27.3558 28.9105 27.2346C30.0012 26.7499 30.2556 25.3321 29.4195 24.4838ZM48.1421 7.60312L49.3297 6.9245C49.6811 6.73061 50.1174 6.83967 50.3234 7.1911L51.7291 9.63898C51.9351 9.99041 51.814 10.4388 51.4262 10.6569L50.2749 11.3113C50.4325 12.1475 50.4325 12.9594 50.2749 13.7834L51.4625 14.4742C51.814 14.668 51.923 15.1164 51.7291 15.4678L50.3113 17.9157C50.1053 18.2672 49.6569 18.3883 49.2812 18.1581L48.13 17.4916C47.4999 18.0369 46.7728 18.461 45.9851 18.7276V20.097C45.9851 20.4969 45.6579 20.8241 45.258 20.8241H42.4223C42.0224 20.8241 41.6952 20.4969 41.6952 20.097V18.7276C40.9076 18.461 40.1805 18.0369 39.5503 17.4916L38.3627 18.1823C38.0113 18.3762 37.5751 18.2672 37.369 17.9157L35.9512 15.4678C35.7452 15.1164 35.8664 14.668 36.2542 14.4499L37.3933 13.7955C37.2357 12.9594 37.2357 12.1475 37.3933 11.3113L36.2057 10.6327C35.8543 10.4388 35.7331 9.97829 35.9391 9.63898L37.3933 7.1911C37.5993 6.83967 38.0477 6.71849 38.4233 6.94874L39.5746 7.60312C40.2047 7.0578 40.9318 6.63366 41.7195 6.36706V4.99771C41.7195 4.5978 42.0467 4.27061 42.4466 4.27061H45.2822C45.6821 4.27061 46.0093 4.5978 46.0093 4.99771V6.36706C46.7849 6.64578 47.512 7.06992 48.1421 7.60312ZM49.4145 8.54834L48.4209 9.1179C48.13 9.31179 47.7422 9.27543 47.4999 9.02095C46.8818 8.3908 45.9851 7.83337 45.1126 7.62736C44.7854 7.56677 44.5309 7.26381 44.5309 6.91238V5.7248H43.1615V6.91238C43.1615 7.23957 42.9434 7.53041 42.6162 7.61524C41.6831 7.84549 40.8591 8.33021 40.1926 9.00883C39.9745 9.23908 39.6109 9.29967 39.308 9.13002L38.2779 8.53622L37.5872 9.73593L38.5566 10.2934C38.8717 10.4388 39.0414 10.8023 38.9444 11.1538C38.6899 12.0626 38.6899 13.0442 38.9444 13.9531C39.0292 14.2681 38.9081 14.6075 38.6051 14.7771L37.5872 15.3709L38.2779 16.5706L39.2716 16.001C39.5624 15.8072 39.9502 15.8435 40.1926 16.098C40.8106 16.7281 41.7074 17.2856 42.5799 17.4916C42.9071 17.5522 43.1615 17.8551 43.1615 18.2066V19.3941H44.5309V18.2066C44.5309 17.8794 44.749 17.5885 45.0762 17.5037C46.0093 17.2735 46.8334 16.7887 47.4999 16.1101C47.718 15.8799 48.0815 15.8193 48.3845 15.9889L49.4145 16.5827L50.1053 15.3951L49.1116 14.8256C48.8086 14.6802 48.639 14.3166 48.7359 13.9773C48.9904 13.0684 48.9904 12.0869 48.7359 11.178C48.6511 10.8629 48.7723 10.5236 49.0752 10.354L50.0932 9.76016L49.4145 8.54834ZM28.2198 19.2003C32.9701 19.2003 36.8116 23.0417 36.8116 27.7921C36.8116 32.5424 32.9701 36.3839 28.2198 36.3839C23.4694 36.3839 19.628 32.5424 19.628 27.7921C19.628 23.0417 23.4694 19.2003 28.2198 19.2003ZM33.2731 22.7388C30.4859 19.9516 25.9658 19.9516 23.1786 22.7388C20.3914 25.526 20.3914 30.0461 23.1786 32.8332C25.9658 35.6204 30.4859 35.6204 33.2731 32.8332C36.0603 30.0461 36.0603 25.526 33.2731 22.7388ZM10.2485 44.394C10.5635 44.6364 10.6241 45.0969 10.3818 45.412C10.1394 45.727 9.67892 45.7876 9.36384 45.5453L6.8069 43.5821C6.41912 43.2791 6.43123 42.7096 6.81902 42.4188L9.37596 40.4556C9.69103 40.2132 10.1515 40.2738 10.3939 40.5889C10.6363 40.904 10.5757 41.3645 10.2606 41.6068L8.45498 43.0004L10.2485 44.394ZM13.4113 40.4071C13.6052 40.0557 14.0536 39.9345 14.3929 40.1405C14.7443 40.3344 14.8655 40.7828 14.6595 41.1342L12.0783 45.618C11.8844 45.9694 11.4361 46.0906 11.0846 45.8846C10.7332 45.6907 10.6241 45.2423 10.818 44.8909L13.4113 40.4071ZM16.1258 45.5453C15.8107 45.7876 15.3502 45.727 15.1079 45.412C14.8655 45.0969 14.9261 44.6364 15.2412 44.394L17.0468 43.0126L15.2412 41.619C14.9261 41.3766 14.8655 40.9161 15.1079 40.601C15.3502 40.286 15.8107 40.2254 16.1258 40.4677L18.6828 42.4309C19.0584 42.7217 19.0827 43.2913 18.6949 43.5942L16.1258 45.5453ZM12.7448 34.4086C17.4952 34.4086 21.3366 38.2501 21.3366 43.0004C21.3366 47.7508 17.4952 51.5922 12.7448 51.5922C7.99448 51.5922 4.15301 47.7508 4.15301 43.0004C4.15301 38.2501 7.99448 34.4086 12.7448 34.4086ZM17.7981 37.9593C15.0109 35.1721 10.4908 35.1721 7.70365 37.9593C4.91646 40.7464 4.91646 45.2665 7.70365 48.0537C10.4908 50.8409 15.0109 50.8409 17.7981 48.0537C20.5853 45.2665 20.5853 40.7464 17.7981 37.9593ZM2.72306 42.2006C2.68671 42.6005 2.3474 42.9035 1.94749 42.8671C1.54759 42.8308 1.24464 42.4915 1.28099 42.0794C1.57183 38.444 3.55922 35.1478 6.6736 33.1968C5.23153 26.8226 4.97705 18.4853 4.97705 10.8993C4.97705 10.5721 5.20729 10.2812 5.51025 10.1964C10.0061 8.51199 13.8476 7.08204 17.4588 6.06411C23.5664 4.35544 28.9711 3.94342 35.0908 5.13101C37.9265 1.81061 42.3254 0.417019 46.4941 1.37436C46.7243 0.950221 47.3181 0.865393 47.6574 1.22894L48.4572 2.0651C48.845 2.47712 48.639 3.15574 48.0815 3.27692L46.894 3.5314C46.4213 3.62835 45.9851 3.24056 46.0214 2.76795C40.0108 1.48342 34.2789 5.77327 33.7942 11.8566C33.7578 12.2565 33.4185 12.5595 33.0186 12.5231C32.6187 12.4868 32.3157 12.1475 32.3521 11.7476C32.4006 11.1295 32.4975 10.5236 32.6429 9.9177C27.8078 9.19061 23.6755 9.66322 18.8282 10.9841C15.8592 11.796 12.9145 12.8624 10.0667 13.9288C10.1152 19.6123 10.3454 25.9743 11.4966 31.5124C12.8054 31.3669 14.1263 31.4397 15.4108 31.7426C15.6411 31.3185 16.2349 31.2336 16.5742 31.5851L17.374 32.4212C17.7618 32.8333 17.5558 33.5119 16.9983 33.6331L15.8107 33.8875C15.3381 33.9845 14.9019 33.5967 14.9382 33.1241C8.95182 31.8274 3.20779 36.1052 2.72306 42.2006ZM7.98237 32.4818C8.66099 32.1667 9.35172 31.9365 10.0667 31.7547C9.43655 28.7736 9.08512 25.5381 8.87911 22.3631C8.68522 19.3941 8.62463 16.3767 8.61251 13.4562C8.58828 13.1411 8.77005 12.8503 9.08512 12.7291C15.1079 10.463 21.7002 8.08785 28.2319 8.08785C29.8315 8.08785 31.5038 8.23327 33.0913 8.48775C33.37 7.76066 33.7215 7.06992 34.1335 6.42765C28.4864 5.43396 23.4937 5.88233 17.8466 7.4577C14.3929 8.42716 10.709 9.7844 6.41912 11.3961C6.43123 18.5822 6.68572 26.447 7.98237 32.4818ZM51.0626 5.51879C50.7718 5.22795 50.7839 4.77958 51.0626 4.50086C51.3535 4.21002 51.814 4.22214 52.0927 4.50086C54.1891 6.60943 55.304 9.32391 55.4373 12.0869C55.5706 14.8741 54.7102 17.6976 52.844 19.9758C52.5895 20.2909 52.129 20.3272 51.8261 20.0849C51.511 19.8304 51.4746 19.3699 51.7291 19.067C53.3651 17.0674 54.1164 14.5953 53.9952 12.1596C53.8619 9.73593 52.8925 7.34864 51.0626 5.51879ZM45.973 24.1081C42.3617 24.7262 38.5203 23.6113 35.83 21.0301C33.6609 18.9579 31.4796 17.8309 28.4258 17.8309C26.7898 17.8309 25.2266 18.2066 23.8088 18.9458C23.9663 19.3941 23.6512 19.891 23.1665 19.9152L21.9547 19.9758C21.3851 20.0122 20.9973 19.3941 21.2882 18.8973L21.9183 17.7945C22.1728 17.3583 22.7787 17.3098 23.0938 17.6855C26.1476 16.098 29.9406 15.9283 33.0428 17.334C34.4001 17.94 35.624 18.8488 36.8358 20.0001C39.3928 22.4479 43.21 23.4053 46.5668 22.5085C47.7544 22.1813 49.2812 21.3331 50.1416 20.8726C50.6506 20.5938 51.2444 20.9937 51.208 21.5512C50.0326 42.0916 44.846 45.6664 31.8068 54.6703C30.7646 55.3852 29.6861 56.1366 28.6924 56.8273C28.3894 57.0576 28.0622 57.0576 27.7593 56.8273C26.4384 55.9063 25.3235 55.1429 24.2692 54.4158C22.9968 53.5433 21.7971 52.7192 20.7428 51.9679L19.7007 52.2466C19.1554 52.392 18.6343 51.871 18.8282 51.3014L19.2038 50.1623C19.3493 49.7018 19.9067 49.52 20.3066 49.7866C22.0516 47.8598 22.9241 45.4362 22.9362 43.0004C22.9362 40.4193 21.9668 37.8381 20.0158 35.8628C20.0036 35.8507 19.9915 35.8386 19.9794 35.8264C15.9804 31.5245 15.8229 24.8837 19.6401 20.4121C19.9067 20.1091 20.3551 20.0728 20.658 20.3272C20.961 20.5938 20.9973 21.0422 20.7428 21.3452C17.4103 25.2472 17.5436 31.0034 21.0458 34.8206C23.2756 37.0746 24.3904 40.0193 24.3904 42.9762C24.3904 44.5516 24.0632 46.139 23.421 47.6054L28.2319 50.9379C31.3584 48.8051 35.5877 45.9694 38.3506 43.4852C40.7985 41.2796 42.4223 39.1105 43.6342 36.0446C45.0156 32.5424 45.6579 27.9496 45.973 24.1081ZM22.7302 48.9384C22.3546 49.5564 21.9304 50.1381 21.4336 50.6955C23.6027 52.2345 25.99 53.8341 28.2077 55.3853C29.2377 54.6703 30.1223 54.0644 30.9706 53.4706C43.3191 44.9636 48.3845 41.4614 49.6569 22.7509C49.0268 23.0781 48.3481 23.4053 47.4514 23.7203C47.1242 27.8648 46.4577 32.7848 44.955 36.602C43.0646 41.3766 40.0956 44.188 36.0845 47.1933C33.9517 48.7929 31.7704 50.2835 29.6013 51.774C28.038 52.8404 28.3894 52.8525 26.8141 51.774C25.469 50.853 24.1117 49.9199 22.7302 48.9384ZM40.4349 27.3073C40.6773 27.7315 40.4471 28.2526 39.9866 28.3737C39.72 35.3781 33.3337 40.5404 26.4263 39.3286C26.0264 39.2559 25.7719 38.8802 25.8325 38.4925C25.9052 38.0926 26.2809 37.8381 26.6687 37.8987C32.6551 38.9408 38.2294 34.5177 38.5203 28.4343C38.0477 28.3495 37.7932 27.8284 37.9992 27.3922L38.5566 26.3136C38.8111 25.8047 39.5382 25.7683 39.829 26.2773L40.4349 27.3073ZM1.77784 46.4905C1.28099 46.5268 0.89321 46.0663 1.02651 45.5816L1.3537 44.3577C1.49912 43.8245 2.2141 43.5942 2.62611 44.1032L3.40168 44.9636C3.72887 45.3271 3.60769 45.8967 3.17143 46.1027C4.98917 51.7983 11.4118 54.7187 16.9377 52.2466C17.3013 52.077 17.7254 52.2466 17.8951 52.6102C18.0647 52.9737 17.8951 53.3979 17.5315 53.5675C11.2058 56.3911 3.85005 53.0585 1.77784 46.4905Z"/>
</mask>
<path d="M43.8523 9.23908C46.7849 9.23908 48.2754 12.814 46.1911 14.8862C44.1189 16.9584 40.544 15.48 40.544 12.5474C40.544 10.7296 42.0224 9.23908 43.8523 9.23908ZM45.1732 11.2386C44.0098 10.0752 42.0103 10.8993 42.0103 12.5474C42.0103 14.1954 44.0098 15.0195 45.1732 13.8561C45.8881 13.1411 45.8881 11.9657 45.1732 11.2386ZM28.2198 22.5328C30.7161 22.5328 32.2188 25.2957 30.8737 27.3922C30.6313 27.7678 30.3162 28.0829 29.9527 28.3253V31.8274C29.9527 32.5666 29.3589 33.1604 28.6197 33.1604C27.9289 33.1604 27.3715 33.2574 26.8868 32.7727C26.6444 32.5303 26.499 32.191 26.499 31.8274V28.3253C24.8388 27.2346 24.5843 24.8837 26.0022 23.4659C26.5596 22.8963 27.3473 22.5328 28.2198 22.5328ZM29.4195 24.4838C28.3531 23.4174 26.5232 24.1687 26.5232 25.6835C26.5232 26.3379 26.9231 26.968 27.4806 27.2225C27.7472 27.3316 27.9411 27.5861 27.9411 27.9011V31.7063H28.4864V27.9011C28.4864 27.6224 28.6439 27.3558 28.9105 27.2346C30.0012 26.7499 30.2556 25.3321 29.4195 24.4838ZM48.1421 7.60312L49.3297 6.9245C49.6811 6.73061 50.1174 6.83967 50.3234 7.1911L51.7291 9.63898C51.9351 9.99041 51.814 10.4388 51.4262 10.6569L50.2749 11.3113C50.4325 12.1475 50.4325 12.9594 50.2749 13.7834L51.4625 14.4742C51.814 14.668 51.923 15.1164 51.7291 15.4678L50.3113 17.9157C50.1053 18.2672 49.6569 18.3883 49.2812 18.1581L48.13 17.4916C47.4999 18.0369 46.7728 18.461 45.9851 18.7276V20.097C45.9851 20.4969 45.6579 20.8241 45.258 20.8241H42.4223C42.0224 20.8241 41.6952 20.4969 41.6952 20.097V18.7276C40.9076 18.461 40.1805 18.0369 39.5503 17.4916L38.3627 18.1823C38.0113 18.3762 37.5751 18.2672 37.369 17.9157L35.9512 15.4678C35.7452 15.1164 35.8664 14.668 36.2542 14.4499L37.3933 13.7955C37.2357 12.9594 37.2357 12.1475 37.3933 11.3113L36.2057 10.6327C35.8543 10.4388 35.7331 9.97829 35.9391 9.63898L37.3933 7.1911C37.5993 6.83967 38.0477 6.71849 38.4233 6.94874L39.5746 7.60312C40.2047 7.0578 40.9318 6.63366 41.7195 6.36706V4.99771C41.7195 4.5978 42.0467 4.27061 42.4466 4.27061H45.2822C45.6821 4.27061 46.0093 4.5978 46.0093 4.99771V6.36706C46.7849 6.64578 47.512 7.06992 48.1421 7.60312ZM49.4145 8.54834L48.4209 9.1179C48.13 9.31179 47.7422 9.27543 47.4999 9.02095C46.8818 8.3908 45.9851 7.83337 45.1126 7.62736C44.7854 7.56677 44.5309 7.26381 44.5309 6.91238V5.7248H43.1615V6.91238C43.1615 7.23957 42.9434 7.53041 42.6162 7.61524C41.6831 7.84549 40.8591 8.33021 40.1926 9.00883C39.9745 9.23908 39.6109 9.29967 39.308 9.13002L38.2779 8.53622L37.5872 9.73593L38.5566 10.2934C38.8717 10.4388 39.0414 10.8023 38.9444 11.1538C38.6899 12.0626 38.6899 13.0442 38.9444 13.9531C39.0292 14.2681 38.9081 14.6075 38.6051 14.7771L37.5872 15.3709L38.2779 16.5706L39.2716 16.001C39.5624 15.8072 39.9502 15.8435 40.1926 16.098C40.8106 16.7281 41.7074 17.2856 42.5799 17.4916C42.9071 17.5522 43.1615 17.8551 43.1615 18.2066V19.3941H44.5309V18.2066C44.5309 17.8794 44.749 17.5885 45.0762 17.5037C46.0093 17.2735 46.8334 16.7887 47.4999 16.1101C47.718 15.8799 48.0815 15.8193 48.3845 15.9889L49.4145 16.5827L50.1053 15.3951L49.1116 14.8256C48.8086 14.6802 48.639 14.3166 48.7359 13.9773C48.9904 13.0684 48.9904 12.0869 48.7359 11.178C48.6511 10.8629 48.7723 10.5236 49.0752 10.354L50.0932 9.76016L49.4145 8.54834ZM28.2198 19.2003C32.9701 19.2003 36.8116 23.0417 36.8116 27.7921C36.8116 32.5424 32.9701 36.3839 28.2198 36.3839C23.4694 36.3839 19.628 32.5424 19.628 27.7921C19.628 23.0417 23.4694 19.2003 28.2198 19.2003ZM33.2731 22.7388C30.4859 19.9516 25.9658 19.9516 23.1786 22.7388C20.3914 25.526 20.3914 30.0461 23.1786 32.8332C25.9658 35.6204 30.4859 35.6204 33.2731 32.8332C36.0603 30.0461 36.0603 25.526 33.2731 22.7388ZM10.2485 44.394C10.5635 44.6364 10.6241 45.0969 10.3818 45.412C10.1394 45.727 9.67892 45.7876 9.36384 45.5453L6.8069 43.5821C6.41912 43.2791 6.43123 42.7096 6.81902 42.4188L9.37596 40.4556C9.69103 40.2132 10.1515 40.2738 10.3939 40.5889C10.6363 40.904 10.5757 41.3645 10.2606 41.6068L8.45498 43.0004L10.2485 44.394ZM13.4113 40.4071C13.6052 40.0557 14.0536 39.9345 14.3929 40.1405C14.7443 40.3344 14.8655 40.7828 14.6595 41.1342L12.0783 45.618C11.8844 45.9694 11.4361 46.0906 11.0846 45.8846C10.7332 45.6907 10.6241 45.2423 10.818 44.8909L13.4113 40.4071ZM16.1258 45.5453C15.8107 45.7876 15.3502 45.727 15.1079 45.412C14.8655 45.0969 14.9261 44.6364 15.2412 44.394L17.0468 43.0126L15.2412 41.619C14.9261 41.3766 14.8655 40.9161 15.1079 40.601C15.3502 40.286 15.8107 40.2254 16.1258 40.4677L18.6828 42.4309C19.0584 42.7217 19.0827 43.2913 18.6949 43.5942L16.1258 45.5453ZM12.7448 34.4086C17.4952 34.4086 21.3366 38.2501 21.3366 43.0004C21.3366 47.7508 17.4952 51.5922 12.7448 51.5922C7.99448 51.5922 4.15301 47.7508 4.15301 43.0004C4.15301 38.2501 7.99448 34.4086 12.7448 34.4086ZM17.7981 37.9593C15.0109 35.1721 10.4908 35.1721 7.70365 37.9593C4.91646 40.7464 4.91646 45.2665 7.70365 48.0537C10.4908 50.8409 15.0109 50.8409 17.7981 48.0537C20.5853 45.2665 20.5853 40.7464 17.7981 37.9593ZM2.72306 42.2006C2.68671 42.6005 2.3474 42.9035 1.94749 42.8671C1.54759 42.8308 1.24464 42.4915 1.28099 42.0794C1.57183 38.444 3.55922 35.1478 6.6736 33.1968C5.23153 26.8226 4.97705 18.4853 4.97705 10.8993C4.97705 10.5721 5.20729 10.2812 5.51025 10.1964C10.0061 8.51199 13.8476 7.08204 17.4588 6.06411C23.5664 4.35544 28.9711 3.94342 35.0908 5.13101C37.9265 1.81061 42.3254 0.417019 46.4941 1.37436C46.7243 0.950221 47.3181 0.865393 47.6574 1.22894L48.4572 2.0651C48.845 2.47712 48.639 3.15574 48.0815 3.27692L46.894 3.5314C46.4213 3.62835 45.9851 3.24056 46.0214 2.76795C40.0108 1.48342 34.2789 5.77327 33.7942 11.8566C33.7578 12.2565 33.4185 12.5595 33.0186 12.5231C32.6187 12.4868 32.3157 12.1475 32.3521 11.7476C32.4006 11.1295 32.4975 10.5236 32.6429 9.9177C27.8078 9.19061 23.6755 9.66322 18.8282 10.9841C15.8592 11.796 12.9145 12.8624 10.0667 13.9288C10.1152 19.6123 10.3454 25.9743 11.4966 31.5124C12.8054 31.3669 14.1263 31.4397 15.4108 31.7426C15.6411 31.3185 16.2349 31.2336 16.5742 31.5851L17.374 32.4212C17.7618 32.8333 17.5558 33.5119 16.9983 33.6331L15.8107 33.8875C15.3381 33.9845 14.9019 33.5967 14.9382 33.1241C8.95182 31.8274 3.20779 36.1052 2.72306 42.2006ZM7.98237 32.4818C8.66099 32.1667 9.35172 31.9365 10.0667 31.7547C9.43655 28.7736 9.08512 25.5381 8.87911 22.3631C8.68522 19.3941 8.62463 16.3767 8.61251 13.4562C8.58828 13.1411 8.77005 12.8503 9.08512 12.7291C15.1079 10.463 21.7002 8.08785 28.2319 8.08785C29.8315 8.08785 31.5038 8.23327 33.0913 8.48775C33.37 7.76066 33.7215 7.06992 34.1335 6.42765C28.4864 5.43396 23.4937 5.88233 17.8466 7.4577C14.3929 8.42716 10.709 9.7844 6.41912 11.3961C6.43123 18.5822 6.68572 26.447 7.98237 32.4818ZM51.0626 5.51879C50.7718 5.22795 50.7839 4.77958 51.0626 4.50086C51.3535 4.21002 51.814 4.22214 52.0927 4.50086C54.1891 6.60943 55.304 9.32391 55.4373 12.0869C55.5706 14.8741 54.7102 17.6976 52.844 19.9758C52.5895 20.2909 52.129 20.3272 51.8261 20.0849C51.511 19.8304 51.4746 19.3699 51.7291 19.067C53.3651 17.0674 54.1164 14.5953 53.9952 12.1596C53.8619 9.73593 52.8925 7.34864 51.0626 5.51879ZM45.973 24.1081C42.3617 24.7262 38.5203 23.6113 35.83 21.0301C33.6609 18.9579 31.4796 17.8309 28.4258 17.8309C26.7898 17.8309 25.2266 18.2066 23.8088 18.9458C23.9663 19.3941 23.6512 19.891 23.1665 19.9152L21.9547 19.9758C21.3851 20.0122 20.9973 19.3941 21.2882 18.8973L21.9183 17.7945C22.1728 17.3583 22.7787 17.3098 23.0938 17.6855C26.1476 16.098 29.9406 15.9283 33.0428 17.334C34.4001 17.94 35.624 18.8488 36.8358 20.0001C39.3928 22.4479 43.21 23.4053 46.5668 22.5085C47.7544 22.1813 49.2812 21.3331 50.1416 20.8726C50.6506 20.5938 51.2444 20.9937 51.208 21.5512C50.0326 42.0916 44.846 45.6664 31.8068 54.6703C30.7646 55.3852 29.6861 56.1366 28.6924 56.8273C28.3894 57.0576 28.0622 57.0576 27.7593 56.8273C26.4384 55.9063 25.3235 55.1429 24.2692 54.4158C22.9968 53.5433 21.7971 52.7192 20.7428 51.9679L19.7007 52.2466C19.1554 52.392 18.6343 51.871 18.8282 51.3014L19.2038 50.1623C19.3493 49.7018 19.9067 49.52 20.3066 49.7866C22.0516 47.8598 22.9241 45.4362 22.9362 43.0004C22.9362 40.4193 21.9668 37.8381 20.0158 35.8628C20.0036 35.8507 19.9915 35.8386 19.9794 35.8264C15.9804 31.5245 15.8229 24.8837 19.6401 20.4121C19.9067 20.1091 20.3551 20.0728 20.658 20.3272C20.961 20.5938 20.9973 21.0422 20.7428 21.3452C17.4103 25.2472 17.5436 31.0034 21.0458 34.8206C23.2756 37.0746 24.3904 40.0193 24.3904 42.9762C24.3904 44.5516 24.0632 46.139 23.421 47.6054L28.2319 50.9379C31.3584 48.8051 35.5877 45.9694 38.3506 43.4852C40.7985 41.2796 42.4223 39.1105 43.6342 36.0446C45.0156 32.5424 45.6579 27.9496 45.973 24.1081ZM22.7302 48.9384C22.3546 49.5564 21.9304 50.1381 21.4336 50.6955C23.6027 52.2345 25.99 53.8341 28.2077 55.3853C29.2377 54.6703 30.1223 54.0644 30.9706 53.4706C43.3191 44.9636 48.3845 41.4614 49.6569 22.7509C49.0268 23.0781 48.3481 23.4053 47.4514 23.7203C47.1242 27.8648 46.4577 32.7848 44.955 36.602C43.0646 41.3766 40.0956 44.188 36.0845 47.1933C33.9517 48.7929 31.7704 50.2835 29.6013 51.774C28.038 52.8404 28.3894 52.8525 26.8141 51.774C25.469 50.853 24.1117 49.9199 22.7302 48.9384ZM40.4349 27.3073C40.6773 27.7315 40.4471 28.2526 39.9866 28.3737C39.72 35.3781 33.3337 40.5404 26.4263 39.3286C26.0264 39.2559 25.7719 38.8802 25.8325 38.4925C25.9052 38.0926 26.2809 37.8381 26.6687 37.8987C32.6551 38.9408 38.2294 34.5177 38.5203 28.4343C38.0477 28.3495 37.7932 27.8284 37.9992 27.3922L38.5566 26.3136C38.8111 25.8047 39.5382 25.7683 39.829 26.2773L40.4349 27.3073ZM1.77784 46.4905C1.28099 46.5268 0.89321 46.0663 1.02651 45.5816L1.3537 44.3577C1.49912 43.8245 2.2141 43.5942 2.62611 44.1032L3.40168 44.9636C3.72887 45.3271 3.60769 45.8967 3.17143 46.1027C4.98917 51.7983 11.4118 54.7187 16.9377 52.2466C17.3013 52.077 17.7254 52.2466 17.8951 52.6102C18.0647 52.9737 17.8951 53.3979 17.5315 53.5675C11.2058 56.3911 3.85005 53.0585 1.77784 46.4905Z" fill="white"/>
<path d="M43.8523 9.23908C46.7849 9.23908 48.2754 12.814 46.1911 14.8862C44.1189 16.9584 40.544 15.48 40.544 12.5474C40.544 10.7296 42.0224 9.23908 43.8523 9.23908ZM45.1732 11.2386C44.0098 10.0752 42.0103 10.8993 42.0103 12.5474C42.0103 14.1954 44.0098 15.0195 45.1732 13.8561C45.8881 13.1411 45.8881 11.9657 45.1732 11.2386ZM28.2198 22.5328C30.7161 22.5328 32.2188 25.2957 30.8737 27.3922C30.6313 27.7678 30.3162 28.0829 29.9527 28.3253V31.8274C29.9527 32.5666 29.3589 33.1604 28.6197 33.1604C27.9289 33.1604 27.3715 33.2574 26.8868 32.7727C26.6444 32.5303 26.499 32.191 26.499 31.8274V28.3253C24.8388 27.2346 24.5843 24.8837 26.0022 23.4659C26.5596 22.8963 27.3473 22.5328 28.2198 22.5328ZM29.4195 24.4838C28.3531 23.4174 26.5232 24.1687 26.5232 25.6835C26.5232 26.3379 26.9231 26.968 27.4806 27.2225C27.7472 27.3316 27.9411 27.5861 27.9411 27.9011V31.7063H28.4864V27.9011C28.4864 27.6224 28.6439 27.3558 28.9105 27.2346C30.0012 26.7499 30.2556 25.3321 29.4195 24.4838ZM48.1421 7.60312L49.3297 6.9245C49.6811 6.73061 50.1174 6.83967 50.3234 7.1911L51.7291 9.63898C51.9351 9.99041 51.814 10.4388 51.4262 10.6569L50.2749 11.3113C50.4325 12.1475 50.4325 12.9594 50.2749 13.7834L51.4625 14.4742C51.814 14.668 51.923 15.1164 51.7291 15.4678L50.3113 17.9157C50.1053 18.2672 49.6569 18.3883 49.2812 18.1581L48.13 17.4916C47.4999 18.0369 46.7728 18.461 45.9851 18.7276V20.097C45.9851 20.4969 45.6579 20.8241 45.258 20.8241H42.4223C42.0224 20.8241 41.6952 20.4969 41.6952 20.097V18.7276C40.9076 18.461 40.1805 18.0369 39.5503 17.4916L38.3627 18.1823C38.0113 18.3762 37.5751 18.2672 37.369 17.9157L35.9512 15.4678C35.7452 15.1164 35.8664 14.668 36.2542 14.4499L37.3933 13.7955C37.2357 12.9594 37.2357 12.1475 37.3933 11.3113L36.2057 10.6327C35.8543 10.4388 35.7331 9.97829 35.9391 9.63898L37.3933 7.1911C37.5993 6.83967 38.0477 6.71849 38.4233 6.94874L39.5746 7.60312C40.2047 7.0578 40.9318 6.63366 41.7195 6.36706V4.99771C41.7195 4.5978 42.0467 4.27061 42.4466 4.27061H45.2822C45.6821 4.27061 46.0093 4.5978 46.0093 4.99771V6.36706C46.7849 6.64578 47.512 7.06992 48.1421 7.60312ZM49.4145 8.54834L48.4209 9.1179C48.13 9.31179 47.7422 9.27543 47.4999 9.02095C46.8818 8.3908 45.9851 7.83337 45.1126 7.62736C44.7854 7.56677 44.5309 7.26381 44.5309 6.91238V5.7248H43.1615V6.91238C43.1615 7.23957 42.9434 7.53041 42.6162 7.61524C41.6831 7.84549 40.8591 8.33021 40.1926 9.00883C39.9745 9.23908 39.6109 9.29967 39.308 9.13002L38.2779 8.53622L37.5872 9.73593L38.5566 10.2934C38.8717 10.4388 39.0414 10.8023 38.9444 11.1538C38.6899 12.0626 38.6899 13.0442 38.9444 13.9531C39.0292 14.2681 38.9081 14.6075 38.6051 14.7771L37.5872 15.3709L38.2779 16.5706L39.2716 16.001C39.5624 15.8072 39.9502 15.8435 40.1926 16.098C40.8106 16.7281 41.7074 17.2856 42.5799 17.4916C42.9071 17.5522 43.1615 17.8551 43.1615 18.2066V19.3941H44.5309V18.2066C44.5309 17.8794 44.749 17.5885 45.0762 17.5037C46.0093 17.2735 46.8334 16.7887 47.4999 16.1101C47.718 15.8799 48.0815 15.8193 48.3845 15.9889L49.4145 16.5827L50.1053 15.3951L49.1116 14.8256C48.8086 14.6802 48.639 14.3166 48.7359 13.9773C48.9904 13.0684 48.9904 12.0869 48.7359 11.178C48.6511 10.8629 48.7723 10.5236 49.0752 10.354L50.0932 9.76016L49.4145 8.54834ZM28.2198 19.2003C32.9701 19.2003 36.8116 23.0417 36.8116 27.7921C36.8116 32.5424 32.9701 36.3839 28.2198 36.3839C23.4694 36.3839 19.628 32.5424 19.628 27.7921C19.628 23.0417 23.4694 19.2003 28.2198 19.2003ZM33.2731 22.7388C30.4859 19.9516 25.9658 19.9516 23.1786 22.7388C20.3914 25.526 20.3914 30.0461 23.1786 32.8332C25.9658 35.6204 30.4859 35.6204 33.2731 32.8332C36.0603 30.0461 36.0603 25.526 33.2731 22.7388ZM10.2485 44.394C10.5635 44.6364 10.6241 45.0969 10.3818 45.412C10.1394 45.727 9.67892 45.7876 9.36384 45.5453L6.8069 43.5821C6.41912 43.2791 6.43123 42.7096 6.81902 42.4188L9.37596 40.4556C9.69103 40.2132 10.1515 40.2738 10.3939 40.5889C10.6363 40.904 10.5757 41.3645 10.2606 41.6068L8.45498 43.0004L10.2485 44.394ZM13.4113 40.4071C13.6052 40.0557 14.0536 39.9345 14.3929 40.1405C14.7443 40.3344 14.8655 40.7828 14.6595 41.1342L12.0783 45.618C11.8844 45.9694 11.4361 46.0906 11.0846 45.8846C10.7332 45.6907 10.6241 45.2423 10.818 44.8909L13.4113 40.4071ZM16.1258 45.5453C15.8107 45.7876 15.3502 45.727 15.1079 45.412C14.8655 45.0969 14.9261 44.6364 15.2412 44.394L17.0468 43.0126L15.2412 41.619C14.9261 41.3766 14.8655 40.9161 15.1079 40.601C15.3502 40.286 15.8107 40.2254 16.1258 40.4677L18.6828 42.4309C19.0584 42.7217 19.0827 43.2913 18.6949 43.5942L16.1258 45.5453ZM12.7448 34.4086C17.4952 34.4086 21.3366 38.2501 21.3366 43.0004C21.3366 47.7508 17.4952 51.5922 12.7448 51.5922C7.99448 51.5922 4.15301 47.7508 4.15301 43.0004C4.15301 38.2501 7.99448 34.4086 12.7448 34.4086ZM17.7981 37.9593C15.0109 35.1721 10.4908 35.1721 7.70365 37.9593C4.91646 40.7464 4.91646 45.2665 7.70365 48.0537C10.4908 50.8409 15.0109 50.8409 17.7981 48.0537C20.5853 45.2665 20.5853 40.7464 17.7981 37.9593ZM2.72306 42.2006C2.68671 42.6005 2.3474 42.9035 1.94749 42.8671C1.54759 42.8308 1.24464 42.4915 1.28099 42.0794C1.57183 38.444 3.55922 35.1478 6.6736 33.1968C5.23153 26.8226 4.97705 18.4853 4.97705 10.8993C4.97705 10.5721 5.20729 10.2812 5.51025 10.1964C10.0061 8.51199 13.8476 7.08204 17.4588 6.06411C23.5664 4.35544 28.9711 3.94342 35.0908 5.13101C37.9265 1.81061 42.3254 0.417019 46.4941 1.37436C46.7243 0.950221 47.3181 0.865393 47.6574 1.22894L48.4572 2.0651C48.845 2.47712 48.639 3.15574 48.0815 3.27692L46.894 3.5314C46.4213 3.62835 45.9851 3.24056 46.0214 2.76795C40.0108 1.48342 34.2789 5.77327 33.7942 11.8566C33.7578 12.2565 33.4185 12.5595 33.0186 12.5231C32.6187 12.4868 32.3157 12.1475 32.3521 11.7476C32.4006 11.1295 32.4975 10.5236 32.6429 9.9177C27.8078 9.19061 23.6755 9.66322 18.8282 10.9841C15.8592 11.796 12.9145 12.8624 10.0667 13.9288C10.1152 19.6123 10.3454 25.9743 11.4966 31.5124C12.8054 31.3669 14.1263 31.4397 15.4108 31.7426C15.6411 31.3185 16.2349 31.2336 16.5742 31.5851L17.374 32.4212C17.7618 32.8333 17.5558 33.5119 16.9983 33.6331L15.8107 33.8875C15.3381 33.9845 14.9019 33.5967 14.9382 33.1241C8.95182 31.8274 3.20779 36.1052 2.72306 42.2006ZM7.98237 32.4818C8.66099 32.1667 9.35172 31.9365 10.0667 31.7547C9.43655 28.7736 9.08512 25.5381 8.87911 22.3631C8.68522 19.3941 8.62463 16.3767 8.61251 13.4562C8.58828 13.1411 8.77005 12.8503 9.08512 12.7291C15.1079 10.463 21.7002 8.08785 28.2319 8.08785C29.8315 8.08785 31.5038 8.23327 33.0913 8.48775C33.37 7.76066 33.7215 7.06992 34.1335 6.42765C28.4864 5.43396 23.4937 5.88233 17.8466 7.4577C14.3929 8.42716 10.709 9.7844 6.41912 11.3961C6.43123 18.5822 6.68572 26.447 7.98237 32.4818ZM51.0626 5.51879C50.7718 5.22795 50.7839 4.77958 51.0626 4.50086C51.3535 4.21002 51.814 4.22214 52.0927 4.50086C54.1891 6.60943 55.304 9.32391 55.4373 12.0869C55.5706 14.8741 54.7102 17.6976 52.844 19.9758C52.5895 20.2909 52.129 20.3272 51.8261 20.0849C51.511 19.8304 51.4746 19.3699 51.7291 19.067C53.3651 17.0674 54.1164 14.5953 53.9952 12.1596C53.8619 9.73593 52.8925 7.34864 51.0626 5.51879ZM45.973 24.1081C42.3617 24.7262 38.5203 23.6113 35.83 21.0301C33.6609 18.9579 31.4796 17.8309 28.4258 17.8309C26.7898 17.8309 25.2266 18.2066 23.8088 18.9458C23.9663 19.3941 23.6512 19.891 23.1665 19.9152L21.9547 19.9758C21.3851 20.0122 20.9973 19.3941 21.2882 18.8973L21.9183 17.7945C22.1728 17.3583 22.7787 17.3098 23.0938 17.6855C26.1476 16.098 29.9406 15.9283 33.0428 17.334C34.4001 17.94 35.624 18.8488 36.8358 20.0001C39.3928 22.4479 43.21 23.4053 46.5668 22.5085C47.7544 22.1813 49.2812 21.3331 50.1416 20.8726C50.6506 20.5938 51.2444 20.9937 51.208 21.5512C50.0326 42.0916 44.846 45.6664 31.8068 54.6703C30.7646 55.3852 29.6861 56.1366 28.6924 56.8273C28.3894 57.0576 28.0622 57.0576 27.7593 56.8273C26.4384 55.9063 25.3235 55.1429 24.2692 54.4158C22.9968 53.5433 21.7971 52.7192 20.7428 51.9679L19.7007 52.2466C19.1554 52.392 18.6343 51.871 18.8282 51.3014L19.2038 50.1623C19.3493 49.7018 19.9067 49.52 20.3066 49.7866C22.0516 47.8598 22.9241 45.4362 22.9362 43.0004C22.9362 40.4193 21.9668 37.8381 20.0158 35.8628C20.0036 35.8507 19.9915 35.8386 19.9794 35.8264C15.9804 31.5245 15.8229 24.8837 19.6401 20.4121C19.9067 20.1091 20.3551 20.0728 20.658 20.3272C20.961 20.5938 20.9973 21.0422 20.7428 21.3452C17.4103 25.2472 17.5436 31.0034 21.0458 34.8206C23.2756 37.0746 24.3904 40.0193 24.3904 42.9762C24.3904 44.5516 24.0632 46.139 23.421 47.6054L28.2319 50.9379C31.3584 48.8051 35.5877 45.9694 38.3506 43.4852C40.7985 41.2796 42.4223 39.1105 43.6342 36.0446C45.0156 32.5424 45.6579 27.9496 45.973 24.1081ZM22.7302 48.9384C22.3546 49.5564 21.9304 50.1381 21.4336 50.6955C23.6027 52.2345 25.99 53.8341 28.2077 55.3853C29.2377 54.6703 30.1223 54.0644 30.9706 53.4706C43.3191 44.9636 48.3845 41.4614 49.6569 22.7509C49.0268 23.0781 48.3481 23.4053 47.4514 23.7203C47.1242 27.8648 46.4577 32.7848 44.955 36.602C43.0646 41.3766 40.0956 44.188 36.0845 47.1933C33.9517 48.7929 31.7704 50.2835 29.6013 51.774C28.038 52.8404 28.3894 52.8525 26.8141 51.774C25.469 50.853 24.1117 49.9199 22.7302 48.9384ZM40.4349 27.3073C40.6773 27.7315 40.4471 28.2526 39.9866 28.3737C39.72 35.3781 33.3337 40.5404 26.4263 39.3286C26.0264 39.2559 25.7719 38.8802 25.8325 38.4925C25.9052 38.0926 26.2809 37.8381 26.6687 37.8987C32.6551 38.9408 38.2294 34.5177 38.5203 28.4343C38.0477 28.3495 37.7932 27.8284 37.9992 27.3922L38.5566 26.3136C38.8111 25.8047 39.5382 25.7683 39.829 26.2773L40.4349 27.3073ZM1.77784 46.4905C1.28099 46.5268 0.89321 46.0663 1.02651 45.5816L1.3537 44.3577C1.49912 43.8245 2.2141 43.5942 2.62611 44.1032L3.40168 44.9636C3.72887 45.3271 3.60769 45.8967 3.17143 46.1027C4.98917 51.7983 11.4118 54.7187 16.9377 52.2466C17.3013 52.077 17.7254 52.2466 17.8951 52.6102C18.0647 52.9737 17.8951 53.3979 17.5315 53.5675C11.2058 56.3911 3.85005 53.0585 1.77784 46.4905Z" stroke="white" stroke-width="0.3" mask="url(#path-1-outside-1_936_76)"/>
</svg>
