<svg width="52" height="58" viewBox="0 0 52 58" fill="none" xmlns="http://www.w3.org/2000/svg">
<mask id="path-1-outside-1_936_66" maskUnits="userSpaceOnUse" x="0" y="0" width="52" height="58" fill="black">
<rect fill="white" width="52" height="58"/>
<path fill-rule="evenodd" clip-rule="evenodd" d="M16.4641 48.591V52.0192C16.4641 52.87 17.4454 53.7022 19.0415 54.3543C22.892 55.9442 29.2516 55.9442 33.1021 54.3543C34.6982 53.7333 35.6794 52.87 35.6794 52.0192V48.6034C31.5494 51.8577 20.5941 51.8577 16.4641 48.6034V48.591ZM16.4641 42.6351C20.5941 45.8894 31.5494 45.8894 35.6794 42.6351V46.0509C35.6794 46.9017 34.6982 47.7339 33.1021 48.3923C29.2516 49.9759 22.892 49.9759 19.0415 48.3923C17.4454 47.7339 16.4641 46.9017 16.4641 46.0509V42.6351ZM16.4641 36.6792V40.095C16.4641 40.9521 17.4454 41.7781 19.0415 42.4364C22.892 44.0201 29.2516 44.0201 33.1021 42.4364C34.6982 41.7781 35.6794 40.9521 35.6794 40.095V36.6792C31.5494 39.9398 20.5941 39.9398 16.4641 36.6792ZM19.352 40.1012C19.352 39.9085 19.4286 39.7237 19.5648 39.5874C19.7011 39.4512 19.8859 39.3746 20.0786 39.3746C20.2714 39.3746 20.4562 39.4512 20.5925 39.5874C20.7287 39.7237 20.8053 39.9085 20.8053 40.1012V41.1384C20.8053 41.3311 20.7287 41.5159 20.5925 41.6522C20.4562 41.7885 20.2714 41.865 20.0786 41.865C19.8859 41.865 19.7011 41.7885 19.5648 41.6522C19.4286 41.5159 19.352 41.3311 19.352 41.1384V40.1012ZM22.7802 40.7223C22.797 40.5404 22.8812 40.3713 23.0162 40.2482C23.1511 40.1251 23.3273 40.0568 23.5099 40.0568C23.6926 40.0568 23.8687 40.1251 24.0037 40.2482C24.1387 40.3713 24.2229 40.5404 24.2397 40.7223V41.7656C24.2229 41.9476 24.1387 42.1167 24.0037 42.2398C23.8687 42.3629 23.6926 42.4311 23.5099 42.4311C23.3273 42.4311 23.1511 42.3629 23.0162 42.2398C22.8812 42.1167 22.797 41.9476 22.7802 41.7656V40.7161V40.7223ZM19.352 46.1254V47.1688C19.352 47.3615 19.4286 47.5463 19.5648 47.6826C19.7011 47.8189 19.8859 47.8954 20.0786 47.8954C20.2714 47.8954 20.4562 47.8189 20.5925 47.6826C20.7287 47.5463 20.8053 47.3615 20.8053 47.1688V46.1192C20.8053 45.9265 20.7287 45.7417 20.5925 45.6054C20.4562 45.4691 20.2714 45.3926 20.0786 45.3926C19.8859 45.3926 19.7011 45.4691 19.5648 45.6054C19.4286 45.7417 19.352 45.9265 19.352 46.1192V46.1254ZM22.7802 46.7465V47.7836C22.797 47.9655 22.8812 48.1346 23.0162 48.2577C23.1511 48.3808 23.3273 48.4491 23.5099 48.4491C23.6926 48.4491 23.8687 48.3808 24.0037 48.2577C24.1387 48.1346 24.2229 47.9655 24.2397 47.7836V46.7403C24.2229 46.5583 24.1387 46.3893 24.0037 46.2662C23.8687 46.1431 23.6926 46.0748 23.5099 46.0748C23.3273 46.0748 23.1511 46.1431 23.0162 46.2662C22.8812 46.3893 22.797 46.5583 22.7802 46.7403V46.7465ZM19.352 52.0813C19.352 51.8886 19.4286 51.7038 19.5648 51.5675C19.7011 51.4312 19.8859 51.3547 20.0786 51.3547C20.2714 51.3547 20.4562 51.4312 20.5925 51.5675C20.7287 51.7038 20.8053 51.8886 20.8053 52.0813V53.1184C20.8053 53.3112 20.7287 53.496 20.5925 53.6322C20.4562 53.7685 20.2714 53.8451 20.0786 53.8451C19.8859 53.8451 19.7011 53.7685 19.5648 53.6322C19.4286 53.496 19.352 53.3112 19.352 53.1184V52.0751V52.0813ZM22.7802 52.7023C22.7708 52.6008 22.7827 52.4985 22.8152 52.4019C22.8476 52.3053 22.8998 52.2165 22.9685 52.1411C23.0371 52.0658 23.1208 52.0057 23.214 51.9645C23.3072 51.9234 23.408 51.9021 23.5099 51.9021C23.6119 51.9021 23.7127 51.9234 23.8059 51.9645C23.8991 52.0057 23.9828 52.0658 24.0514 52.1411C24.1201 52.2165 24.1723 52.3053 24.2047 52.4019C24.2372 52.4985 24.2491 52.6008 24.2397 52.7023V53.7395C24.2229 53.9214 24.1387 54.0905 24.0037 54.2136C23.8687 54.3367 23.6926 54.4049 23.5099 54.4049C23.3273 54.4049 23.1511 54.3367 23.0162 54.2136C22.8812 54.0905 22.797 53.9214 22.7802 53.7395V52.6961V52.7023ZM31.3072 31.2202C32.4047 31.4727 33.4536 31.9027 34.4125 32.4934C36.6855 33.9839 35.5863 35.4496 33.0772 36.4805C29.2267 38.0704 22.8672 38.0704 19.0167 36.4805C16.5325 35.4496 15.4084 33.9963 17.6814 32.4934C18.6402 31.9027 19.6891 31.4727 20.7866 31.2202V31.9344C20.7883 32.1277 20.8662 32.3125 21.0035 32.4486C21.1407 32.5847 21.3262 32.6611 21.5195 32.6611H30.5247C30.718 32.6611 30.9035 32.5847 31.0407 32.4486C31.178 32.3125 31.2559 32.1277 31.2575 31.9344V31.2202H31.3072ZM31.3072 28.5932V29.7235C32.695 30.0152 34.0225 30.5425 35.2323 31.2823C36.4371 32.0711 37.1327 33.0523 37.1327 34.1454V52.0192C37.1327 53.5159 35.8036 54.8139 33.6548 55.6958C29.4379 57.4347 22.7057 57.4347 18.4888 55.6958C16.3399 54.8139 15.0109 53.5159 15.0109 52.0192V34.1454C15.0109 33.0523 15.7065 32.0711 16.9113 31.2823C18.1211 30.5425 19.4486 30.0152 20.8363 29.7235V28.5932H7.7446C3.51525 28.5932 1 23.7304 1 20.0724C1.00181 18.5687 1.35792 17.0865 2.03947 15.7461C2.72102 14.4058 3.70883 13.2448 4.92282 12.3575C6.13681 11.4701 7.5428 10.8813 9.02683 10.6388C10.5109 10.3963 12.0312 10.5069 13.4645 10.9616C14.5575 6.28508 20.4389 3.41583 24.8297 6.21676C25.9265 4.06545 27.7969 2.40901 30.065 1.58038C32.3331 0.751737 34.8308 0.812319 37.0561 1.74994C39.2814 2.68757 41.0693 4.43274 42.0605 6.63469C43.0517 8.83664 43.1727 11.3322 42.3992 13.6197C43.48 13.4522 44.5842 13.5204 45.6362 13.8198C46.6881 14.1192 47.6628 14.6426 48.4935 15.354C49.3241 16.0655 49.9911 16.9483 50.4485 17.9417C50.9059 18.9352 51.143 20.0158 51.1436 21.1095C51.1436 25.7488 47.6346 28.5932 43.1817 28.5932H31.3072ZM31.3072 23.0037V27.1337H43.1817C46.8397 27.1337 49.6841 24.9414 49.6841 21.1095C49.6816 20.1224 49.4408 19.1504 48.982 18.2763C48.5232 17.4023 47.8602 16.6519 47.0492 16.0891C46.2382 15.5262 45.3032 15.1676 44.3239 15.0437C43.3446 14.9198 42.3498 15.0342 41.4241 15.3772C41.2868 15.4284 41.1373 15.4369 40.9951 15.4016C40.8529 15.3663 40.7247 15.2888 40.6273 15.1794C40.5299 15.0699 40.4679 14.9335 40.4494 14.7882C40.4309 14.6429 40.4568 14.4953 40.5236 14.3649C41.0173 13.393 41.31 12.3314 41.3842 11.2438C41.4584 10.1562 41.3126 9.06473 40.9555 8.03472C40.5983 7.0047 40.0372 6.05726 39.3057 5.24898C38.5741 4.44071 37.6872 3.78821 36.6978 3.33047C35.7083 2.87272 34.6368 2.61913 33.5472 2.58485C32.4575 2.55057 31.3722 2.7363 30.356 3.13094C29.3397 3.52558 28.4135 4.12103 27.6326 4.88172C26.8517 5.6424 26.2321 6.5527 25.8109 7.55823C25.7716 7.66748 25.7066 7.7657 25.6214 7.84466C25.5362 7.92361 25.4334 7.98101 25.3215 8.01203C25.2095 8.04305 25.0918 8.04679 24.9782 8.02294C24.8645 7.99909 24.7582 7.94835 24.6682 7.87496C21.9294 5.62055 18.1099 6.45276 16.0418 8.96801C15.3244 9.82192 14.8789 10.8709 14.7625 11.9801C14.755 12.0963 14.7198 12.2089 14.6597 12.3086C14.5997 12.4084 14.5165 12.4922 14.4173 12.553C14.3181 12.6139 14.2057 12.65 14.0896 12.6584C13.9735 12.6668 13.8571 12.6472 13.7502 12.6012C12.5165 12.0779 11.1724 11.8684 9.83807 11.9914C8.5037 12.1145 7.2206 12.5662 6.10346 13.3062C4.98631 14.0463 4.06992 15.0516 3.4362 16.2323C2.80248 17.413 2.47117 18.7323 2.47189 20.0724C2.47189 22.9851 4.44062 27.1337 7.75702 27.1337H20.8363V23.0037H17.0603C16.9137 23.0102 16.7686 22.9717 16.6444 22.8935C16.5202 22.8152 16.4229 22.7009 16.3655 22.5658C16.3081 22.4307 16.2933 22.2813 16.3232 22.1376C16.353 21.9939 16.426 21.8627 16.5325 21.7616C19.5259 18.5508 22.507 15.2717 25.5377 12.1043C25.6057 12.0305 25.6883 11.9717 25.7802 11.9314C25.8722 11.8911 25.9714 11.8704 26.0718 11.8704C26.1721 11.8704 26.2714 11.8911 26.3633 11.9314C26.4552 11.9717 26.5378 12.0305 26.6059 12.1043L35.58 21.743C35.6813 21.8435 35.7507 21.9716 35.7796 22.1113C35.8085 22.2509 35.7957 22.3961 35.7427 22.5285C35.6898 22.6609 35.599 22.7749 35.4817 22.8561C35.3644 22.9373 35.2258 22.9821 35.0832 22.9851L31.3072 23.0037ZM29.8478 31.2078V22.2771C29.8478 22.0838 29.9241 21.8984 30.0602 21.7611C30.1963 21.6238 30.3811 21.5459 30.5744 21.5443H33.4126L26.0718 13.6818L18.731 21.5443H21.5692C21.7624 21.5459 21.9473 21.6238 22.0834 21.7611C22.2194 21.8984 22.2958 22.0838 22.2958 22.2771V31.2078H29.8478Z"/>
</mask>
<path fill-rule="evenodd" clip-rule="evenodd" d="M16.4641 48.591V52.0192C16.4641 52.87 17.4454 53.7022 19.0415 54.3543C22.892 55.9442 29.2516 55.9442 33.1021 54.3543C34.6982 53.7333 35.6794 52.87 35.6794 52.0192V48.6034C31.5494 51.8577 20.5941 51.8577 16.4641 48.6034V48.591ZM16.4641 42.6351C20.5941 45.8894 31.5494 45.8894 35.6794 42.6351V46.0509C35.6794 46.9017 34.6982 47.7339 33.1021 48.3923C29.2516 49.9759 22.892 49.9759 19.0415 48.3923C17.4454 47.7339 16.4641 46.9017 16.4641 46.0509V42.6351ZM16.4641 36.6792V40.095C16.4641 40.9521 17.4454 41.7781 19.0415 42.4364C22.892 44.0201 29.2516 44.0201 33.1021 42.4364C34.6982 41.7781 35.6794 40.9521 35.6794 40.095V36.6792C31.5494 39.9398 20.5941 39.9398 16.4641 36.6792ZM19.352 40.1012C19.352 39.9085 19.4286 39.7237 19.5648 39.5874C19.7011 39.4512 19.8859 39.3746 20.0786 39.3746C20.2714 39.3746 20.4562 39.4512 20.5925 39.5874C20.7287 39.7237 20.8053 39.9085 20.8053 40.1012V41.1384C20.8053 41.3311 20.7287 41.5159 20.5925 41.6522C20.4562 41.7885 20.2714 41.865 20.0786 41.865C19.8859 41.865 19.7011 41.7885 19.5648 41.6522C19.4286 41.5159 19.352 41.3311 19.352 41.1384V40.1012ZM22.7802 40.7223C22.797 40.5404 22.8812 40.3713 23.0162 40.2482C23.1511 40.1251 23.3273 40.0568 23.5099 40.0568C23.6926 40.0568 23.8687 40.1251 24.0037 40.2482C24.1387 40.3713 24.2229 40.5404 24.2397 40.7223V41.7656C24.2229 41.9476 24.1387 42.1167 24.0037 42.2398C23.8687 42.3629 23.6926 42.4311 23.5099 42.4311C23.3273 42.4311 23.1511 42.3629 23.0162 42.2398C22.8812 42.1167 22.797 41.9476 22.7802 41.7656V40.7161V40.7223ZM19.352 46.1254V47.1688C19.352 47.3615 19.4286 47.5463 19.5648 47.6826C19.7011 47.8189 19.8859 47.8954 20.0786 47.8954C20.2714 47.8954 20.4562 47.8189 20.5925 47.6826C20.7287 47.5463 20.8053 47.3615 20.8053 47.1688V46.1192C20.8053 45.9265 20.7287 45.7417 20.5925 45.6054C20.4562 45.4691 20.2714 45.3926 20.0786 45.3926C19.8859 45.3926 19.7011 45.4691 19.5648 45.6054C19.4286 45.7417 19.352 45.9265 19.352 46.1192V46.1254ZM22.7802 46.7465V47.7836C22.797 47.9655 22.8812 48.1346 23.0162 48.2577C23.1511 48.3808 23.3273 48.4491 23.5099 48.4491C23.6926 48.4491 23.8687 48.3808 24.0037 48.2577C24.1387 48.1346 24.2229 47.9655 24.2397 47.7836V46.7403C24.2229 46.5583 24.1387 46.3893 24.0037 46.2662C23.8687 46.1431 23.6926 46.0748 23.5099 46.0748C23.3273 46.0748 23.1511 46.1431 23.0162 46.2662C22.8812 46.3893 22.797 46.5583 22.7802 46.7403V46.7465ZM19.352 52.0813C19.352 51.8886 19.4286 51.7038 19.5648 51.5675C19.7011 51.4312 19.8859 51.3547 20.0786 51.3547C20.2714 51.3547 20.4562 51.4312 20.5925 51.5675C20.7287 51.7038 20.8053 51.8886 20.8053 52.0813V53.1184C20.8053 53.3112 20.7287 53.496 20.5925 53.6322C20.4562 53.7685 20.2714 53.8451 20.0786 53.8451C19.8859 53.8451 19.7011 53.7685 19.5648 53.6322C19.4286 53.496 19.352 53.3112 19.352 53.1184V52.0751V52.0813ZM22.7802 52.7023C22.7708 52.6008 22.7827 52.4985 22.8152 52.4019C22.8476 52.3053 22.8998 52.2165 22.9685 52.1411C23.0371 52.0658 23.1208 52.0057 23.214 51.9645C23.3072 51.9234 23.408 51.9021 23.5099 51.9021C23.6119 51.9021 23.7127 51.9234 23.8059 51.9645C23.8991 52.0057 23.9828 52.0658 24.0514 52.1411C24.1201 52.2165 24.1723 52.3053 24.2047 52.4019C24.2372 52.4985 24.2491 52.6008 24.2397 52.7023V53.7395C24.2229 53.9214 24.1387 54.0905 24.0037 54.2136C23.8687 54.3367 23.6926 54.4049 23.5099 54.4049C23.3273 54.4049 23.1511 54.3367 23.0162 54.2136C22.8812 54.0905 22.797 53.9214 22.7802 53.7395V52.6961V52.7023ZM31.3072 31.2202C32.4047 31.4727 33.4536 31.9027 34.4125 32.4934C36.6855 33.9839 35.5863 35.4496 33.0772 36.4805C29.2267 38.0704 22.8672 38.0704 19.0167 36.4805C16.5325 35.4496 15.4084 33.9963 17.6814 32.4934C18.6402 31.9027 19.6891 31.4727 20.7866 31.2202V31.9344C20.7883 32.1277 20.8662 32.3125 21.0035 32.4486C21.1407 32.5847 21.3262 32.6611 21.5195 32.6611H30.5247C30.718 32.6611 30.9035 32.5847 31.0407 32.4486C31.178 32.3125 31.2559 32.1277 31.2575 31.9344V31.2202H31.3072ZM31.3072 28.5932V29.7235C32.695 30.0152 34.0225 30.5425 35.2323 31.2823C36.4371 32.0711 37.1327 33.0523 37.1327 34.1454V52.0192C37.1327 53.5159 35.8036 54.8139 33.6548 55.6958C29.4379 57.4347 22.7057 57.4347 18.4888 55.6958C16.3399 54.8139 15.0109 53.5159 15.0109 52.0192V34.1454C15.0109 33.0523 15.7065 32.0711 16.9113 31.2823C18.1211 30.5425 19.4486 30.0152 20.8363 29.7235V28.5932H7.7446C3.51525 28.5932 1 23.7304 1 20.0724C1.00181 18.5687 1.35792 17.0865 2.03947 15.7461C2.72102 14.4058 3.70883 13.2448 4.92282 12.3575C6.13681 11.4701 7.5428 10.8813 9.02683 10.6388C10.5109 10.3963 12.0312 10.5069 13.4645 10.9616C14.5575 6.28508 20.4389 3.41583 24.8297 6.21676C25.9265 4.06545 27.7969 2.40901 30.065 1.58038C32.3331 0.751737 34.8308 0.812319 37.0561 1.74994C39.2814 2.68757 41.0693 4.43274 42.0605 6.63469C43.0517 8.83664 43.1727 11.3322 42.3992 13.6197C43.48 13.4522 44.5842 13.5204 45.6362 13.8198C46.6881 14.1192 47.6628 14.6426 48.4935 15.354C49.3241 16.0655 49.9911 16.9483 50.4485 17.9417C50.9059 18.9352 51.143 20.0158 51.1436 21.1095C51.1436 25.7488 47.6346 28.5932 43.1817 28.5932H31.3072ZM31.3072 23.0037V27.1337H43.1817C46.8397 27.1337 49.6841 24.9414 49.6841 21.1095C49.6816 20.1224 49.4408 19.1504 48.982 18.2763C48.5232 17.4023 47.8602 16.6519 47.0492 16.0891C46.2382 15.5262 45.3032 15.1676 44.3239 15.0437C43.3446 14.9198 42.3498 15.0342 41.4241 15.3772C41.2868 15.4284 41.1373 15.4369 40.9951 15.4016C40.8529 15.3663 40.7247 15.2888 40.6273 15.1794C40.5299 15.0699 40.4679 14.9335 40.4494 14.7882C40.4309 14.6429 40.4568 14.4953 40.5236 14.3649C41.0173 13.393 41.31 12.3314 41.3842 11.2438C41.4584 10.1562 41.3126 9.06473 40.9555 8.03472C40.5983 7.0047 40.0372 6.05726 39.3057 5.24898C38.5741 4.44071 37.6872 3.78821 36.6978 3.33047C35.7083 2.87272 34.6368 2.61913 33.5472 2.58485C32.4575 2.55057 31.3722 2.7363 30.356 3.13094C29.3397 3.52558 28.4135 4.12103 27.6326 4.88172C26.8517 5.6424 26.2321 6.5527 25.8109 7.55823C25.7716 7.66748 25.7066 7.7657 25.6214 7.84466C25.5362 7.92361 25.4334 7.98101 25.3215 8.01203C25.2095 8.04305 25.0918 8.04679 24.9782 8.02294C24.8645 7.99909 24.7582 7.94835 24.6682 7.87496C21.9294 5.62055 18.1099 6.45276 16.0418 8.96801C15.3244 9.82192 14.8789 10.8709 14.7625 11.9801C14.755 12.0963 14.7198 12.2089 14.6597 12.3086C14.5997 12.4084 14.5165 12.4922 14.4173 12.553C14.3181 12.6139 14.2057 12.65 14.0896 12.6584C13.9735 12.6668 13.8571 12.6472 13.7502 12.6012C12.5165 12.0779 11.1724 11.8684 9.83807 11.9914C8.5037 12.1145 7.2206 12.5662 6.10346 13.3062C4.98631 14.0463 4.06992 15.0516 3.4362 16.2323C2.80248 17.413 2.47117 18.7323 2.47189 20.0724C2.47189 22.9851 4.44062 27.1337 7.75702 27.1337H20.8363V23.0037H17.0603C16.9137 23.0102 16.7686 22.9717 16.6444 22.8935C16.5202 22.8152 16.4229 22.7009 16.3655 22.5658C16.3081 22.4307 16.2933 22.2813 16.3232 22.1376C16.353 21.9939 16.426 21.8627 16.5325 21.7616C19.5259 18.5508 22.507 15.2717 25.5377 12.1043C25.6057 12.0305 25.6883 11.9717 25.7802 11.9314C25.8722 11.8911 25.9714 11.8704 26.0718 11.8704C26.1721 11.8704 26.2714 11.8911 26.3633 11.9314C26.4552 11.9717 26.5378 12.0305 26.6059 12.1043L35.58 21.743C35.6813 21.8435 35.7507 21.9716 35.7796 22.1113C35.8085 22.2509 35.7957 22.3961 35.7427 22.5285C35.6898 22.6609 35.599 22.7749 35.4817 22.8561C35.3644 22.9373 35.2258 22.9821 35.0832 22.9851L31.3072 23.0037ZM29.8478 31.2078V22.2771C29.8478 22.0838 29.9241 21.8984 30.0602 21.7611C30.1963 21.6238 30.3811 21.5459 30.5744 21.5443H33.4126L26.0718 13.6818L18.731 21.5443H21.5692C21.7624 21.5459 21.9473 21.6238 22.0834 21.7611C22.2194 21.8984 22.2958 22.0838 22.2958 22.2771V31.2078H29.8478Z" fill="white"/>
<path fill-rule="evenodd" clip-rule="evenodd" d="M16.4641 48.591V52.0192C16.4641 52.87 17.4454 53.7022 19.0415 54.3543C22.892 55.9442 29.2516 55.9442 33.1021 54.3543C34.6982 53.7333 35.6794 52.87 35.6794 52.0192V48.6034C31.5494 51.8577 20.5941 51.8577 16.4641 48.6034V48.591ZM16.4641 42.6351C20.5941 45.8894 31.5494 45.8894 35.6794 42.6351V46.0509C35.6794 46.9017 34.6982 47.7339 33.1021 48.3923C29.2516 49.9759 22.892 49.9759 19.0415 48.3923C17.4454 47.7339 16.4641 46.9017 16.4641 46.0509V42.6351ZM16.4641 36.6792V40.095C16.4641 40.9521 17.4454 41.7781 19.0415 42.4364C22.892 44.0201 29.2516 44.0201 33.1021 42.4364C34.6982 41.7781 35.6794 40.9521 35.6794 40.095V36.6792C31.5494 39.9398 20.5941 39.9398 16.4641 36.6792ZM19.352 40.1012C19.352 39.9085 19.4286 39.7237 19.5648 39.5874C19.7011 39.4512 19.8859 39.3746 20.0786 39.3746C20.2714 39.3746 20.4562 39.4512 20.5925 39.5874C20.7287 39.7237 20.8053 39.9085 20.8053 40.1012V41.1384C20.8053 41.3311 20.7287 41.5159 20.5925 41.6522C20.4562 41.7885 20.2714 41.865 20.0786 41.865C19.8859 41.865 19.7011 41.7885 19.5648 41.6522C19.4286 41.5159 19.352 41.3311 19.352 41.1384V40.1012ZM22.7802 40.7223C22.797 40.5404 22.8812 40.3713 23.0162 40.2482C23.1511 40.1251 23.3273 40.0568 23.5099 40.0568C23.6926 40.0568 23.8687 40.1251 24.0037 40.2482C24.1387 40.3713 24.2229 40.5404 24.2397 40.7223V41.7656C24.2229 41.9476 24.1387 42.1167 24.0037 42.2398C23.8687 42.3629 23.6926 42.4311 23.5099 42.4311C23.3273 42.4311 23.1511 42.3629 23.0162 42.2398C22.8812 42.1167 22.797 41.9476 22.7802 41.7656V40.7161V40.7223ZM19.352 46.1254V47.1688C19.352 47.3615 19.4286 47.5463 19.5648 47.6826C19.7011 47.8189 19.8859 47.8954 20.0786 47.8954C20.2714 47.8954 20.4562 47.8189 20.5925 47.6826C20.7287 47.5463 20.8053 47.3615 20.8053 47.1688V46.1192C20.8053 45.9265 20.7287 45.7417 20.5925 45.6054C20.4562 45.4691 20.2714 45.3926 20.0786 45.3926C19.8859 45.3926 19.7011 45.4691 19.5648 45.6054C19.4286 45.7417 19.352 45.9265 19.352 46.1192V46.1254ZM22.7802 46.7465V47.7836C22.797 47.9655 22.8812 48.1346 23.0162 48.2577C23.1511 48.3808 23.3273 48.4491 23.5099 48.4491C23.6926 48.4491 23.8687 48.3808 24.0037 48.2577C24.1387 48.1346 24.2229 47.9655 24.2397 47.7836V46.7403C24.2229 46.5583 24.1387 46.3893 24.0037 46.2662C23.8687 46.1431 23.6926 46.0748 23.5099 46.0748C23.3273 46.0748 23.1511 46.1431 23.0162 46.2662C22.8812 46.3893 22.797 46.5583 22.7802 46.7403V46.7465ZM19.352 52.0813C19.352 51.8886 19.4286 51.7038 19.5648 51.5675C19.7011 51.4312 19.8859 51.3547 20.0786 51.3547C20.2714 51.3547 20.4562 51.4312 20.5925 51.5675C20.7287 51.7038 20.8053 51.8886 20.8053 52.0813V53.1184C20.8053 53.3112 20.7287 53.496 20.5925 53.6322C20.4562 53.7685 20.2714 53.8451 20.0786 53.8451C19.8859 53.8451 19.7011 53.7685 19.5648 53.6322C19.4286 53.496 19.352 53.3112 19.352 53.1184V52.0751V52.0813ZM22.7802 52.7023C22.7708 52.6008 22.7827 52.4985 22.8152 52.4019C22.8476 52.3053 22.8998 52.2165 22.9685 52.1411C23.0371 52.0658 23.1208 52.0057 23.214 51.9645C23.3072 51.9234 23.408 51.9021 23.5099 51.9021C23.6119 51.9021 23.7127 51.9234 23.8059 51.9645C23.8991 52.0057 23.9828 52.0658 24.0514 52.1411C24.1201 52.2165 24.1723 52.3053 24.2047 52.4019C24.2372 52.4985 24.2491 52.6008 24.2397 52.7023V53.7395C24.2229 53.9214 24.1387 54.0905 24.0037 54.2136C23.8687 54.3367 23.6926 54.4049 23.5099 54.4049C23.3273 54.4049 23.1511 54.3367 23.0162 54.2136C22.8812 54.0905 22.797 53.9214 22.7802 53.7395V52.6961V52.7023ZM31.3072 31.2202C32.4047 31.4727 33.4536 31.9027 34.4125 32.4934C36.6855 33.9839 35.5863 35.4496 33.0772 36.4805C29.2267 38.0704 22.8672 38.0704 19.0167 36.4805C16.5325 35.4496 15.4084 33.9963 17.6814 32.4934C18.6402 31.9027 19.6891 31.4727 20.7866 31.2202V31.9344C20.7883 32.1277 20.8662 32.3125 21.0035 32.4486C21.1407 32.5847 21.3262 32.6611 21.5195 32.6611H30.5247C30.718 32.6611 30.9035 32.5847 31.0407 32.4486C31.178 32.3125 31.2559 32.1277 31.2575 31.9344V31.2202H31.3072ZM31.3072 28.5932V29.7235C32.695 30.0152 34.0225 30.5425 35.2323 31.2823C36.4371 32.0711 37.1327 33.0523 37.1327 34.1454V52.0192C37.1327 53.5159 35.8036 54.8139 33.6548 55.6958C29.4379 57.4347 22.7057 57.4347 18.4888 55.6958C16.3399 54.8139 15.0109 53.5159 15.0109 52.0192V34.1454C15.0109 33.0523 15.7065 32.0711 16.9113 31.2823C18.1211 30.5425 19.4486 30.0152 20.8363 29.7235V28.5932H7.7446C3.51525 28.5932 1 23.7304 1 20.0724C1.00181 18.5687 1.35792 17.0865 2.03947 15.7461C2.72102 14.4058 3.70883 13.2448 4.92282 12.3575C6.13681 11.4701 7.5428 10.8813 9.02683 10.6388C10.5109 10.3963 12.0312 10.5069 13.4645 10.9616C14.5575 6.28508 20.4389 3.41583 24.8297 6.21676C25.9265 4.06545 27.7969 2.40901 30.065 1.58038C32.3331 0.751737 34.8308 0.812319 37.0561 1.74994C39.2814 2.68757 41.0693 4.43274 42.0605 6.63469C43.0517 8.83664 43.1727 11.3322 42.3992 13.6197C43.48 13.4522 44.5842 13.5204 45.6362 13.8198C46.6881 14.1192 47.6628 14.6426 48.4935 15.354C49.3241 16.0655 49.9911 16.9483 50.4485 17.9417C50.9059 18.9352 51.143 20.0158 51.1436 21.1095C51.1436 25.7488 47.6346 28.5932 43.1817 28.5932H31.3072ZM31.3072 23.0037V27.1337H43.1817C46.8397 27.1337 49.6841 24.9414 49.6841 21.1095C49.6816 20.1224 49.4408 19.1504 48.982 18.2763C48.5232 17.4023 47.8602 16.6519 47.0492 16.0891C46.2382 15.5262 45.3032 15.1676 44.3239 15.0437C43.3446 14.9198 42.3498 15.0342 41.4241 15.3772C41.2868 15.4284 41.1373 15.4369 40.9951 15.4016C40.8529 15.3663 40.7247 15.2888 40.6273 15.1794C40.5299 15.0699 40.4679 14.9335 40.4494 14.7882C40.4309 14.6429 40.4568 14.4953 40.5236 14.3649C41.0173 13.393 41.31 12.3314 41.3842 11.2438C41.4584 10.1562 41.3126 9.06473 40.9555 8.03472C40.5983 7.0047 40.0372 6.05726 39.3057 5.24898C38.5741 4.44071 37.6872 3.78821 36.6978 3.33047C35.7083 2.87272 34.6368 2.61913 33.5472 2.58485C32.4575 2.55057 31.3722 2.7363 30.356 3.13094C29.3397 3.52558 28.4135 4.12103 27.6326 4.88172C26.8517 5.6424 26.2321 6.5527 25.8109 7.55823C25.7716 7.66748 25.7066 7.7657 25.6214 7.84466C25.5362 7.92361 25.4334 7.98101 25.3215 8.01203C25.2095 8.04305 25.0918 8.04679 24.9782 8.02294C24.8645 7.99909 24.7582 7.94835 24.6682 7.87496C21.9294 5.62055 18.1099 6.45276 16.0418 8.96801C15.3244 9.82192 14.8789 10.8709 14.7625 11.9801C14.755 12.0963 14.7198 12.2089 14.6597 12.3086C14.5997 12.4084 14.5165 12.4922 14.4173 12.553C14.3181 12.6139 14.2057 12.65 14.0896 12.6584C13.9735 12.6668 13.8571 12.6472 13.7502 12.6012C12.5165 12.0779 11.1724 11.8684 9.83807 11.9914C8.5037 12.1145 7.2206 12.5662 6.10346 13.3062C4.98631 14.0463 4.06992 15.0516 3.4362 16.2323C2.80248 17.413 2.47117 18.7323 2.47189 20.0724C2.47189 22.9851 4.44062 27.1337 7.75702 27.1337H20.8363V23.0037H17.0603C16.9137 23.0102 16.7686 22.9717 16.6444 22.8935C16.5202 22.8152 16.4229 22.7009 16.3655 22.5658C16.3081 22.4307 16.2933 22.2813 16.3232 22.1376C16.353 21.9939 16.426 21.8627 16.5325 21.7616C19.5259 18.5508 22.507 15.2717 25.5377 12.1043C25.6057 12.0305 25.6883 11.9717 25.7802 11.9314C25.8722 11.8911 25.9714 11.8704 26.0718 11.8704C26.1721 11.8704 26.2714 11.8911 26.3633 11.9314C26.4552 11.9717 26.5378 12.0305 26.6059 12.1043L35.58 21.743C35.6813 21.8435 35.7507 21.9716 35.7796 22.1113C35.8085 22.2509 35.7957 22.3961 35.7427 22.5285C35.6898 22.6609 35.599 22.7749 35.4817 22.8561C35.3644 22.9373 35.2258 22.9821 35.0832 22.9851L31.3072 23.0037ZM29.8478 31.2078V22.2771C29.8478 22.0838 29.9241 21.8984 30.0602 21.7611C30.1963 21.6238 30.3811 21.5459 30.5744 21.5443H33.4126L26.0718 13.6818L18.731 21.5443H21.5692C21.7624 21.5459 21.9473 21.6238 22.0834 21.7611C22.2194 21.8984 22.2958 22.0838 22.2958 22.2771V31.2078H29.8478Z" stroke="white" stroke-width="0.5" mask="url(#path-1-outside-1_936_66)"/>
</svg>
