<svg width="48" height="48" viewBox="0 0 48 48" fill="none" xmlns="http://www.w3.org/2000/svg">
<path d="M46.4486 40.8483H26.6895C26.3209 40.8483 25.9523 41.1433 25.9523 41.5856V43.65H24.3302V30.5264C24.3302 30.1578 24.0353 29.7891 23.593 29.7891H18.432V28.0934C18.432 27.7248 18.1371 27.3561 17.6947 27.3561H14.8193V25.3655C14.8193 24.9968 14.5244 24.6282 14.082 24.6282H12.3126V22.1214C11.52 22.1214 12.3126 24.6282 12.3126 22.0477C12.3126 19.541 12.3126 22.1214 12.3126 22.1214C12.3126 22.1214 11.52 22.08 10.838 22.0476C10.56 20.64 10.838 26.3239 10.838 22.0476V21.12C11.1329 23.4793 10.9106 21.3465 10.838 22.0476L10.7299 23.04L10.838 24.6282H9.06854C8.6999 24.6282 8.33126 24.9231 8.33126 25.3655V27.3561H5.5296C5.16096 27.3561 4.79232 27.651 4.79232 28.0934V29.7891H0.73728C0.36864 29.7891 0 30.0841 0 30.5264C0 30.8951 0.294912 31.2637 0.73728 31.2637H4.86605V32.9594C4.86605 33.3281 5.16096 33.6967 5.60333 33.6967H17.6947C18.0634 33.6967 18.432 33.4018 18.432 32.9594V31.2637H22.8557V44.461C22.8557 44.8297 23.1506 45.1983 23.593 45.1983H25.9523V47.2627C25.9523 47.6313 26.2472 48 26.6895 48H46.4486C46.8173 48 47.1859 47.705 47.1859 47.2627V41.6594C47.1859 41.217 46.891 40.8483 46.4486 40.8483ZM16.9574 32.1484H6.26688V28.757H9.14227C9.51091 28.757 9.87955 28.462 9.87955 28.0197V26.029H13.3448V28.0197C13.3448 28.3883 13.6397 28.757 14.082 28.757H16.9574V32.1484ZM45.7851 46.4517H27.4268V42.3229H45.7851V46.4517Z" fill="#13CFFE"/>
<path d="M29.4931 45.1246H32.7372C33.1058 45.1246 33.4745 44.8297 33.4745 44.3873C33.4745 43.9449 33.1795 43.65 32.7372 43.65H29.4931C29.1245 43.65 28.7559 43.9449 28.7559 44.3873C28.7559 44.8297 29.1245 45.1246 29.4931 45.1246Z" fill="#13CFFE"/>
<path d="M37.6752 44.9034C37.9702 44.6085 37.9702 44.1661 37.6752 43.8712C37.3803 43.5763 36.938 43.5763 36.6431 43.8712C36.3481 44.1661 36.3481 44.6085 36.6431 44.9034C36.938 45.1983 37.3803 45.1246 37.6752 44.9034Z" fill="#13CFFE"/>
<path d="M40.1811 44.9034C40.476 44.6085 40.476 44.1661 40.1811 43.8712C39.8862 43.5763 39.4438 43.5763 39.1489 43.8712C38.854 44.1661 38.854 44.6085 39.1489 44.9034C39.4438 45.1983 39.9599 45.1246 40.1811 44.9034Z" fill="#13CFFE"/>
<path d="M42.6889 44.9034C42.9838 44.6085 42.9838 44.1661 42.6889 43.8712C42.4677 43.5763 41.9516 43.5763 41.6567 43.8712C41.3618 44.1661 41.3618 44.6085 41.6567 44.9034C42.0254 45.1983 42.4677 45.1983 42.6889 44.9034Z" fill="#13CFFE"/>
<path d="M46.4476 32.3698H26.6885C26.3198 32.3698 25.9512 32.6647 25.9512 33.107V38.7104C25.9512 39.079 26.2461 39.4476 26.6885 39.4476H46.4476C46.8162 39.4476 47.1848 39.1527 47.1848 38.7104V33.0333C47.1848 32.6647 46.8899 32.3698 46.4476 32.3698ZM45.784 37.9731H27.4257V33.7706H45.784V37.9731Z" fill="#13CFFE"/>
<path d="M29.4931 36.5721H32.7372C33.1058 36.5721 33.4745 36.2772 33.4745 35.8348C33.4745 35.4662 33.1795 35.0975 32.7372 35.0975H29.4931C29.1245 35.0975 28.7559 35.3924 28.7559 35.8348C28.7559 36.2772 29.1245 36.5721 29.4931 36.5721Z" fill="#13CFFE"/>
<path d="M37.6752 36.351C37.9702 36.0561 37.9702 35.6138 37.6752 35.3188C37.3803 35.0239 36.938 35.0239 36.6431 35.3188C36.3481 35.6138 36.3481 36.0561 36.6431 36.351C36.938 36.6459 37.3803 36.6459 37.6752 36.351Z" fill="#13CFFE"/>
<path d="M40.1811 36.351C40.476 36.0561 40.476 35.6138 40.1811 35.3188C39.8862 35.0239 39.4438 35.0239 39.1489 35.3188C38.854 35.6138 38.854 36.0561 39.1489 36.351C39.4438 36.6459 39.9599 36.6459 40.1811 36.351Z" fill="#13CFFE"/>
<path d="M42.6889 36.3509C42.9838 36.056 42.9838 35.6136 42.6889 35.3187C42.394 35.0238 41.9516 35.0238 41.6567 35.3187C41.3618 35.6136 41.3618 36.056 41.6567 36.3509C41.9516 36.6458 42.4677 36.6458 42.6889 36.3509Z" fill="#13CFFE"/>
<path d="M46.4476 23.8173H26.6885C26.3198 23.8173 25.9512 24.1122 25.9512 24.5545V30.1579C25.9512 30.5265 26.2461 30.8951 26.6885 30.8951H46.4476C46.8162 30.8951 47.1848 30.6002 47.1848 30.1579V24.5545C47.1848 24.1122 46.8899 23.8173 46.4476 23.8173ZM45.784 29.4206H27.4257V25.2918H45.784V29.4206Z" fill="#13CFFE"/>
<path d="M29.4931 28.0197H32.7372C33.1058 28.0197 33.4745 27.7248 33.4745 27.2824C33.4745 26.9138 33.1795 26.5452 32.7372 26.5452H29.4931C29.1245 26.5452 28.7559 26.8401 28.7559 27.2824C28.7559 27.7248 29.1245 28.0197 29.4931 28.0197Z" fill="#13CFFE"/>
<path d="M37.6752 27.8723C37.9702 27.5774 37.9702 27.135 37.6752 26.8401C37.3803 26.5452 36.938 26.5452 36.6431 26.8401C36.3481 27.135 36.3481 27.5774 36.6431 27.8723C36.938 28.1672 37.3803 28.0935 37.6752 27.8723Z" fill="#13CFFE"/>
<path d="M40.1811 27.8724C40.476 27.5775 40.476 27.1351 40.1811 26.8402C39.8862 26.5453 39.4438 26.5453 39.1489 26.8402C38.854 27.1351 38.854 27.5775 39.1489 27.8724C39.4438 28.1673 39.9599 28.0936 40.1811 27.8724Z" fill="#13CFFE"/>
<path d="M42.6889 27.8724C42.9838 27.5775 42.9838 27.1351 42.6889 26.8402C42.394 26.5453 41.9516 26.5453 41.6567 26.8402C41.3618 27.1351 41.3618 27.5775 41.6567 27.8724C41.9516 28.0936 42.4677 28.0936 42.6889 27.8724Z" fill="#13CFFE"/>
<path d="M0 3.552C0 2.112 4.8 0 12.288 0C19.104 0 22.752 1.824 22.752 3.552C22.752 5.28 19.104 7.104 12.288 7.104C4.8 7.104 0 4.992 0 3.552Z" fill="#FF6700"/>
<path d="M12.288 8.92806C17.088 8.92806 20.736 8.06406 22.752 6.62406V11.0401C22.752 12.7681 19.104 14.5921 12.288 14.5921C4.8 14.5921 0 12.4801 0 11.0401V6.33606C2.496 8.06406 7.392 8.92806 12.288 8.92806Z" fill="#FF6700"/>
<path d="M12.288 16.416C17.088 16.416 20.736 15.552 22.752 14.112V18.72C22.752 20.448 19.104 22.272 12.288 22.272C4.8 22.272 0 20.16 0 18.72V13.824C2.496 15.552 7.392 16.416 12.288 16.416Z" fill="#FF6700"/>
</svg>
